<?xml version="1.0" encoding="utf-8"?>
<!-- Generator: Adobe Illustrator 21.0.0, SVG Export Plug-In . SVG Version: 6.00 Build 0)  -->
<svg version="1.1" id="Layer_1" xmlns="http://www.w3.org/2000/svg" xmlns:xlink="http://www.w3.org/1999/xlink" x="0px" y="0px"
	 viewBox="0 0 22 22" style="enable-background:new 0 0 22 22;" xml:space="preserve">
<style type="text/css">
	.st0{fill:#FFFFFF;stroke:#231F20;stroke-miterlimit:10;}
	.st1{fill:#0E1744;}
	.st2{fill:#E6E7E8;}
	.st3{fill:#224099;}
	.st4{fill:#555555;}
	.st5{fill:#C81313;}
	.st6{fill:none;stroke:#C81313;stroke-miterlimit:10;}
	.st7{fill:none;stroke:#555555;stroke-linecap:round;stroke-miterlimit:10;}
	.st8{fill:#FFCD00;}
	.st9{fill:none;stroke:#224099;stroke-width:0.8378;stroke-miterlimit:10;}
	.st10{fill:none;stroke:#555555;stroke-width:0.7207;stroke-miterlimit:10;}
	.st11{fill:none;stroke:#555555;stroke-width:0.8016;stroke-miterlimit:10;}
	.st12{fill:#8599C1;}
	.st13{fill:none;stroke:#FFCD00;stroke-linecap:round;stroke-miterlimit:10;}
	.st14{fill:none;stroke:#FFCD00;stroke-linecap:round;stroke-miterlimit:10;stroke-dasharray:4.05,4.05,4.05,4.05;}
	.st15{fill:#D5E2F7;}
	.st16{fill:#224099;stroke:#072268;stroke-miterlimit:10;}
	.st17{fill:#224099;stroke:#072268;stroke-linecap:round;stroke-linejoin:round;stroke-miterlimit:10;}
	.st18{fill:#D5E2F7;stroke:#FFCD00;stroke-width:0.75;stroke-linecap:round;stroke-linejoin:round;stroke-miterlimit:10;}
	.st19{fill:none;stroke:#FFCD00;stroke-width:0.75;stroke-miterlimit:10;}
	.st20{fill:none;stroke:#072268;stroke-width:0.5;stroke-miterlimit:10;}
	.st21{fill:#FFCD00;stroke:#0E1744;stroke-miterlimit:10;}
	.st22{fill:#FFFFFF;}
	.st23{fill:#1576C6;}
	.st24{fill:#FCFCFC;}
	.st25{fill:#020202;}
	.st26{fill:#050505;}
	.st27{fill:none;stroke:#0E1744;stroke-miterlimit:10;}
	.st28{fill:none;stroke:#0E1744;stroke-linecap:round;stroke-linejoin:round;stroke-miterlimit:10;}
	.st29{fill:none;stroke:#000000;stroke-linecap:round;stroke-linejoin:round;stroke-miterlimit:10;}
	.st30{fill:none;stroke:#000000;stroke-miterlimit:10;}
	.st31{fill:none;stroke:#FFFFFF;stroke-width:0.7567;stroke-miterlimit:10;}
</style>
<g>
	<g>
		<g>
			<path class="st22" d="M6.2,16.5c0.1,0.2,0.2,0.3,0.3,0.4c0.1,0.1,0.1,0.3-0.1,0.4c-0.2,0.1-0.3,0-0.4-0.1C6,17.1,5.9,17,5.8,16.8
				c-0.2-0.3-0.1-0.6,0.2-0.8c0.2-0.1,0.5-0.2,0.7-0.3c0.1,0,0.1-0.1,0.1-0.2c0-0.1,0-0.3-0.1-0.4c0-0.1-0.1-0.2-0.2-0.3
				c-0.3-0.1-0.3-0.4-0.2-0.7c0.1-0.1,0.2-0.3,0.3-0.4c-1-0.9-1.4-2.1-1.4-3.4c0-2.8,3-4,5.1-2.9c0,0,0.1,0,0.1,0.1
				c0.1,0.1,0.2,0.2,0.1,0.4c-0.1,0.2-0.2,0.1-0.4,0.1C9.8,7.9,9.4,7.7,9,7.6c-1.8-0.3-3.2,0.9-3.3,2.7c0,1,0.2,2,0.9,2.7
				c0.5,0.6,1.1,0.7,1.9,0.6c0.7-0.1,1.3-0.5,1.8-1c-0.3-0.7-0.4-1.4-0.4-2.1c0-0.7,0.2-1.3,0.6-1.9c0.7-1,2.2-1.7,3.7-1.3
				c1.9,0.5,3,2.5,2.4,4.3c-0.4,1.4-2.1,2.7-3.6,2.8c0,0-0.1,0-0.1,0c0,0.2-0.1,0.5-0.2,0.7c-0.1,0.2-0.4,0.3-0.6,0.2
				c0,0.1,0,0.3,0.1,0.4c0.1,0.4,0,0.6-0.4,0.7c-0.2,0.1-0.5,0.2-0.7,0.3c0.1,0.1,0.2,0.3,0.2,0.4c0.1,0.2,0.1,0.3-0.1,0.4
				c-0.2,0.1-0.3,0-0.4-0.1c-0.1-0.1-0.2-0.2-0.2-0.4c-0.2-0.3-0.1-0.6,0.2-0.8c0.2-0.1,0.4-0.2,0.6-0.3c0.1,0,0.1-0.1,0.1-0.2
				c0-0.1,0-0.2,0-0.3c0-0.2-0.1-0.4-0.3-0.5c-0.3-0.1-0.4-0.4-0.2-0.7c0.1-0.1,0.1-0.2,0.2-0.3c-0.2-0.3-0.5-0.5-0.7-0.8
				c-0.7,0.6-1.5,1-2.5,1.1C8.1,14.5,8.1,14.8,8,15c-0.1,0.3-0.4,0.2-0.7,0.1c0,0.2,0,0.3,0.1,0.4c0,0.4-0.1,0.6-0.4,0.7
				C6.7,16.3,6.5,16.4,6.2,16.5z M16,11.6c0-0.2,0.1-0.3,0.1-0.5c0.3-1.7-1.1-3.3-2.9-3.3c-1.3,0-2.6,0.9-2.8,2.3
				c-0.2,1.1,0,2.2,0.7,3.1c0.5,0.7,1.3,1,2.1,0.7C14.6,13.6,15.5,12.7,16,11.6z M6.8,14.4c0.3,0.1,0.5,0.2,0.7,0.3
				c0-0.1,0-0.3,0-0.4c-0.2-0.1-0.3-0.1-0.5-0.2C7,14.2,6.9,14.3,6.8,14.4z M12.3,14.8c0.1-0.3,0.1-0.3-0.4-0.5
				c-0.2-0.1-0.2,0.1-0.3,0.2C11.8,14.6,12,14.7,12.3,14.8z"/>
		</g>
	</g>
	<path class="st31" d="M18.6,19.2L3.4,19.5c-1.6,0-2.9-1.3-2.9-2.9l0-7.8c0-1.6,1.3-2.9,2.9-2.9l15.2-0.3c1.6,0,2.9,1.3,2.9,2.9
		l0,7.8C21.5,17.9,20.2,19.2,18.6,19.2z"/>
	<path class="st31" d="M3.1,5.9l12.6-3.3c1.6-0.4,3.1,0.6,3.5,2.1l0.2,0.8"/>
</g>
</svg>
