<?xml version="1.0" encoding="utf-8"?>
<!-- Generator: Adobe Illustrator 21.0.0, SVG Export Plug-In . SVG Version: 6.00 Build 0)  -->
<svg version="1.1" id="Layer_1" xmlns="http://www.w3.org/2000/svg" xmlns:xlink="http://www.w3.org/1999/xlink" x="0px" y="0px"
	 viewBox="0 0 22 22" style="enable-background:new 0 0 22 22;" xml:space="preserve">
<style type="text/css">
	.st0{fill:#555555;}
</style>
<path class="st0" d="M3.1,8.6C1.8,8.6,1,9.4,1,10.7c0,3,0,5.2,0,8.2c0,1.5,0.8,2.3,2.3,2.3c1.3,0,13.7,0,15.4,0
	c0.7,0,1.3-0.2,1.7-0.7c0.4-0.4,0.6-1,0.6-1.7c0-2.1,0-8.4,0-8.6c-0.1-1-0.9-1.7-1.9-1.8c-0.3,0-3.1,0-3.1,0s0-2,0-2.5
	c0-0.4,0-0.8-0.1-1.1c-0.3-2.3-2.3-4.1-4.6-4.2C8.8,0.7,6.7,2.2,6.2,4.5C6,5,6,6.1,6,6.1v1.6v0.9C6,8.6,3.4,8.5,3.1,8.6z M7.4,4.8
	c0.3-1.6,2.2-2.9,3.9-2.7c1.9,0.2,3.3,1.6,3.4,3.4c0,0.6,0,1.3,0,2c0,0.3,0,1.1,0,1.1H7.2C7.2,8.5,7.2,5.6,7.4,4.8z M18.7,9.8
	c0.8,0,1,0.3,1,1c0,3,0,5.1,0,8.1c0,0.7-0.3,1-1,1c-2,0-13.4,0-15.4,0c-0.7,0-1-0.3-1-1c0-3,0-5.1,0-8.1c0-0.7,0.3-1,1-1
	C4.8,9.8,17.1,9.8,18.7,9.8z"/>
</svg>
