<svg id="Layer_1" data-name="Layer 1" xmlns="http://www.w3.org/2000/svg" viewBox="0 0 84.46 88.72"><defs><style>.cls-1{fill:none;stroke:#000;stroke-miterlimit:10;stroke-width:3px;}</style></defs><title>icon-Accountsetting</title><path class="cls-1" d="M74.57,36.61c1.22-.86,2.6-1.49,3.89-2.26a2.73,2.73,0,0,0,1.15-4c-1.79-3.29-3.63-6.57-5.51-9.81a2.85,2.85,0,0,0-4-1.14,32.59,32.59,0,0,0-3.36,1.9c-1.16.79-2,.59-3.1-.26-2.44-1.82-5-3.47-7.62-5-1.4-.85-3.6-1-4.32-2.15s-.26-3.32-.32-5c-.07-2.31-1.06-3.3-3.4-3.32-3.49,0-7,0-10.47,0-2.26,0-3.24.93-3.32,3.18-.05,1.44.08,2.91-.06,4.34a2.07,2.07,0,0,1-1.06,1.48A35.48,35.48,0,0,0,21.33,21.4a2.23,2.23,0,0,1-1.93.18c-1.28-.54-2.44-1.35-3.67-2-1.93-1-3.43-.62-4.49,1.24q-2.62,4.61-5.18,9.26C5,32,5.38,33.36,7.34,34.53c1.19.71,2.49,1.28,3.61,2.1a2.28,2.28,0,0,1,.86,1.78,35,35,0,0,0,.06,12.17,1.61,1.61,0,0,1-1,1.93C9.56,53.23,8.25,54,7,54.78a2.66,2.66,0,0,0-1.1,3.88c1.78,3.31,3.6,6.58,5.5,9.82a2.85,2.85,0,0,0,4.16,1.12c1.24-.63,2.46-1.31,3.64-2a1.74,1.74,0,0,1,2.43.19A30.33,30.33,0,0,0,32.9,74.38a1.58,1.58,0,0,1,1.27,1.75c0,1.45-.05,2.9,0,4.35.09,2,1.1,3,3.13,3.09,1.83,0,3.65,0,5.48,0s3.54,0,5.31,0c2.23,0,3.2-1,3.27-3.24,0-1.45-.09-2.91.06-4.35a2.05,2.05,0,0,1,1-1.48A33.32,33.32,0,0,0,64,67.67a1.57,1.57,0,0,1,2.16-.2c1.23.75,2.49,1.48,3.78,2.13a2.89,2.89,0,0,0,4.26-1.19q2.72-4.74,5.33-9.55c1-1.75.6-3-1.09-4.13-1.25-.81-2.64-1.45-3.84-2.33a2.23,2.23,0,0,1-.92-1.71,36.46,36.46,0,0,0,0-12.33A2.3,2.3,0,0,1,74.57,36.61Zm-31.79,27a19.06,19.06,0,1,1,19-19A19.06,19.06,0,0,1,42.78,63.6Z"/></svg>