<?xml version="1.0" encoding="utf-8"?>
<!-- Generator: Adobe Illustrator 21.0.0, SVG Export Plug-In . SVG Version: 6.00 Build 0)  -->
<svg version="1.1" id="Layer_1" xmlns="http://www.w3.org/2000/svg" xmlns:xlink="http://www.w3.org/1999/xlink" x="0px" y="0px"
	 viewBox="0 0 22 22" style="enable-background:new 0 0 22 22;" xml:space="preserve">
<style type="text/css">
	.st0{fill:#D6D6D6;}
	.st1{fill:#224099;}
	.st2{fill:#FFCD00;}
	.st3{fill:#0E1744;}
	.st4{fill:none;stroke:#0E1744;stroke-width:0.8734;stroke-linecap:round;stroke-linejoin:round;stroke-miterlimit:10;}
	.st5{fill:#FFFFFF;stroke:#231F20;stroke-miterlimit:10;}
	.st6{fill:#E6E7E8;}
	.st7{fill:#FFFFFF;}
	.st8{fill:none;stroke:#0E1744;stroke-width:0.5838;stroke-linecap:round;stroke-linejoin:round;stroke-miterlimit:10;}
	.st9{fill:#555555;}
	.st10{fill:#C81313;}
	.st11{fill:none;stroke:#C81313;stroke-miterlimit:10;}
	.st12{fill:none;stroke:#555555;stroke-linecap:round;stroke-miterlimit:10;}
	.st13{fill:none;stroke:#224099;stroke-width:0.8378;stroke-miterlimit:10;}
	.st14{fill:none;stroke:#555555;stroke-width:0.7207;stroke-miterlimit:10;}
	.st15{fill:none;stroke:#555555;stroke-width:0.8016;stroke-miterlimit:10;}
</style>
<g>
	<path class="st10" d="M11.1,11.7l0.2,0.4c0,0,0.1,0.1,0.1,0.1c1,1,2,2,3,3c0.1,0.1,0.1,0.1,0.2,0.2c0.1,0.1,0.3,0.1,0.5,0.1
		c0.2-0.1,0.3-0.2,0.3-0.4c0.1-0.2,0-0.4-0.2-0.6v0c-1-1-2.1-2.1-3.1-3.1c0,0-0.1-0.1-0.1-0.2L11.8,11l3.5-3.5
		c0.2-0.2,0.3-0.4,0.2-0.6c-0.1-0.2-0.2-0.3-0.4-0.4c-0.2-0.1-0.4,0-0.6,0.2c-0.8,0.8-1.7,1.7-2.5,2.5l-0.2,0.3
		c-0.1,0.1-0.2,0.3-0.4,0.4L11,10.3L10.8,10c0,0-0.1-0.1-0.1-0.1L7.6,6.8C7.5,6.7,7.4,6.7,7.4,6.6C7.2,6.5,7,6.5,6.8,6.5
		C6.7,6.6,6.6,6.7,6.5,6.9c0,0.2,0,0.4,0.2,0.6C7.6,8.3,8.4,9.2,9.3,10l0.6,0.6c0,0,0.1,0.1,0.1,0.1l0.3,0.3l-0.3,0.3
		c0,0-0.1,0.1-0.1,0.1l-0.5,0.5c-0.9,0.9-1.8,1.8-2.7,2.7c-0.3,0.3-0.3,0.6-0.1,0.8c0.2,0.2,0.5,0.2,0.8-0.1
		c0.1-0.1,0.3-0.3,0.4-0.4L11.1,11.7z"/>
	<circle class="st11" cx="11" cy="11" r="9"/>
</g>
</svg>
