<?xml version="1.0" encoding="utf-8"?>
<!-- Generator: Adobe Illustrator 21.0.0, SVG Export Plug-In . SVG Version: 6.00 Build 0)  -->
<svg version="1.1" id="Layer_1" xmlns="http://www.w3.org/2000/svg" xmlns:xlink="http://www.w3.org/1999/xlink" x="0px" y="0px"
	 viewBox="0 0 24 24" style="enable-background:new 0 0 24 24;" xml:space="preserve">
<style type="text/css">
	.st0{fill:#FFFFFF;}
	.st1{fill:none;stroke:#FFFFFF;stroke-width:1.1793;stroke-linecap:round;stroke-miterlimit:10;}
</style>
<g>
	<path class="st0" d="M3,21.3c0,0.5,0.1,0.8,0.3,1c0.2,0.2,0.6,0.2,1,0.1c0,0,2.6-0.6,3.6-0.9c0.5-0.1,0.9-0.5,1.2-0.8
		c1.1-1.3,9.4-11.3,10.9-13.2c1.3-1.7,1.2-3.7-0.3-5c-0.7-0.6-1.5-0.9-2.3-0.9c-0.8,0-2.1,0.6-2.8,1.4c-1.3,1.6-7.9,9.6-10,12
		C3.7,16.2,2.9,17,3,19C3,19,3,20.9,3,21.3z M17.7,3.1c0.6,0.2,1.3,0.8,1.6,1.3C20,5.8,18,7.6,18,7.6L14.9,5
		C14.9,5,16.4,2.7,17.7,3.1z M6,15.8c1.9-2.2,8-9.6,8-9.6l3.1,2.6c0,0-7.1,8.5-8,9.8c-1.1,1.6-2.7,1.9-4.2,2.1l-0.2,0l0-0.2
		C4.6,18.9,4.6,17.3,6,15.8z"/>
	<line class="st1" x1="3.9" y1="22" x2="16.3" y2="22"/>
</g>
</svg>
