<?xml version="1.0" encoding="utf-8"?>
<!-- Generator: Adobe Illustrator 21.0.0, SVG Export Plug-In . SVG Version: 6.00 Build 0)  -->
<svg version="1.1" id="Layer_1" xmlns="http://www.w3.org/2000/svg" xmlns:xlink="http://www.w3.org/1999/xlink" x="0px" y="0px"
	 viewBox="0 0 120 120" style="enable-background:new 0 0 120 120;" xml:space="preserve">
<style type="text/css">
	.st0{fill:#FFFFFF;stroke:#231F20;stroke-miterlimit:10;}
	.st1{fill:#0E1744;}
	.st2{fill:#E6E7E8;}
	.st3{fill:#224099;}
	.st4{fill:#C81313;}
	.st5{fill:none;stroke:#C81313;stroke-miterlimit:10;}
	.st6{fill:#555555;}
	.st7{fill:none;stroke:#555555;stroke-linecap:round;stroke-miterlimit:10;}
	.st8{fill:#FFCD00;}
	.st9{fill:none;stroke:#224099;stroke-width:0.8378;stroke-miterlimit:10;}
	.st10{fill:none;stroke:#555555;stroke-width:0.7207;stroke-miterlimit:10;}
	.st11{fill:none;stroke:#555555;stroke-width:0.8016;stroke-miterlimit:10;}
	.st12{fill:#8599C1;}
	.st13{fill:none;stroke:#FFCD00;stroke-linecap:round;stroke-miterlimit:10;}
	.st14{fill:none;stroke:#FFCD00;stroke-linecap:round;stroke-miterlimit:10;stroke-dasharray:4.05,4.05,4.05,4.05;}
	.st15{fill:#D5E2F7;}
	.st16{fill:#224099;stroke:#072268;stroke-miterlimit:10;}
	.st17{fill:#224099;stroke:#072268;stroke-linecap:round;stroke-linejoin:round;stroke-miterlimit:10;}
	.st18{fill:#D5E2F7;stroke:#FFCD00;stroke-width:0.75;stroke-linecap:round;stroke-linejoin:round;stroke-miterlimit:10;}
	.st19{fill:none;stroke:#FFCD00;stroke-width:0.75;stroke-miterlimit:10;}
	.st20{fill:none;stroke:#072268;stroke-width:0.5;stroke-miterlimit:10;}
	.st21{fill:#FFCD00;stroke:#0E1744;stroke-miterlimit:10;}
	.st22{fill:#FFFFFF;}
	.st23{fill:#1576C6;}
	.st24{fill:#FCFCFC;}
	.st25{fill:#020202;}
	.st26{fill:#050505;}
	.st27{fill:none;stroke:#0E1744;stroke-miterlimit:10;}
	.st28{fill:none;stroke:#0E1744;stroke-linecap:round;stroke-linejoin:round;stroke-miterlimit:10;}
	.st29{fill:none;stroke:#000000;stroke-linecap:round;stroke-linejoin:round;stroke-miterlimit:10;}
	.st30{fill:none;stroke:#000000;stroke-miterlimit:10;}
	.st31{fill:none;stroke:#555555;stroke-width:1.2;stroke-miterlimit:10;}
	.st32{fill:none;stroke:#224099;stroke-width:0.9998;stroke-linecap:round;stroke-linejoin:round;stroke-miterlimit:10;}
	.st33{fill:#2A2C70;}
	.st34{fill:none;stroke:#5A67B3;stroke-width:1.0101;stroke-miterlimit:10;}
</style>
<g>
	<g>
		<circle class="st33" cx="63.4" cy="57" r="46.9"/>
		<circle class="st34" cx="58" cy="61.5" r="48.3"/>
	</g>
	<g>
		<g>
			<g>
				<path class="st12" d="M71.8,55.4c-0.2-6.1-3.6-10.2-9.5-11.7c-1.7-0.3-3.3-0.3-5,0c-5.2,1.4-8.5,4.7-9.2,10.1
					c-0.5,3.6-0.4,7.3,0.2,10.9c0.2,1.1,0.5,2.1,1.1,3.1c0.7,1.2,1.2,2.5,1.6,3.8c0.9,3.1,2.9,5.4,5.5,7.2c2.3,1.6,4.7,1.5,7-0.1
					c2.6-1.9,4.5-4.3,5.4-7.4c0.3-1.1,0.7-2.1,1.3-3c0.9-1.5,1.4-3.2,1.5-4.9C71.9,60.6,71.9,58,71.8,55.4z M70.2,61.5
					c0,2.2-0.4,4.4-1.7,6.3c-0.5,0.9-0.9,1.8-1.1,2.8c-0.8,2.8-2.4,4.9-4.7,6.6c-2,1.5-3.7,1.5-5.7,0c-2.3-1.7-4-3.8-4.7-6.6
					c-0.2-0.6-0.3-1.3-0.6-1.8c-2-3.1-2.3-6.6-2.1-10.2c0-1.2,0-2.4,0-3.6c0.1-5.6,4.6-10,10.2-10.1c5.7,0,10.3,4.4,10.4,10.1
					C70.2,57.2,70.2,59.4,70.2,61.5z"/>
				<path class="st12" d="M59.2,65.1c0,0.6-0.1,1.3-0.1,1.9c-0.1,0.8,0,1.4,0.9,1.5c0.5,0.1,0.8,0.5,0.6,1c-0.2,0.5-0.7,0.6-1.2,0.5
					c-1.2-0.2-2-1.3-2-2.7c0-1.4,0.1-2.8,0.2-4.2c0-0.8-0.3-1.1-1.1-1.1c-1.1,0.1-2.3,0.2-3.4-0.1c-0.5-0.1-1.1-0.3-1.5-0.7
					c-0.2-0.2-0.4-0.5-0.2-0.9c0.2-0.4,0.6-0.6,0.9-0.4c1.4,0.8,2.9,0.5,4.4,0.5c1.8,0,2.3,0.5,2.4,2.2
					C59.2,63.5,59.2,64.3,59.2,65.1C59.2,65.1,59.2,65.1,59.2,65.1z"/>
				<path class="st12" d="M67.4,59.9c0.5,0,0.8,0.1,0.9,0.5c0.1,0.5-0.1,0.8-0.5,1c-0.7,0.3-1.5,0.4-2.3,0.4c-1.2,0-2.4-0.2-3.5,0.3
					c-0.4,0.2-0.8,0-1-0.5c-0.2-0.4,0.1-0.7,0.4-0.9c0.5-0.3,1-0.4,1.6-0.5c0.8,0,1.6-0.1,2.3-0.1C66.1,60.2,66.8,60.1,67.4,59.9z"
					/>
			</g>
		</g>
		<g>
			<g>
				<line class="st13" x1="44" y1="56.9" x2="50" y2="56.9"/>
				<line class="st14" x1="54" y1="56.9" x2="68.2" y2="56.9"/>
				<line class="st13" x1="70.2" y1="56.9" x2="76.2" y2="56.9"/>
			</g>
		</g>
	</g>
</g>
</svg>
