<?xml version="1.0" encoding="utf-8"?>
<!-- Generator: Adobe Illustrator 21.0.0, SVG Export Plug-In . SVG Version: 6.00 Build 0)  -->
<svg version="1.1" id="Layer_1" xmlns="http://www.w3.org/2000/svg" xmlns:xlink="http://www.w3.org/1999/xlink" x="0px" y="0px"
	 viewBox="0 0 22 22" style="enable-background:new 0 0 22 22;" xml:space="preserve">
<style type="text/css">
	.st0{fill:#FFFFFF;}
</style>
<g>
	<path class="st0" d="M9.1,15.2c1.3-1.3,5.1-5.2,7-7.1c0.1-0.1,0.2-0.2,0.3-0.3c0.3-0.2,0.5-0.2,0.8,0c0.2,0.2,0.3,0.5,0.1,0.8
		C17.2,8.8,17.1,8.9,17,9c-3.2,3.3-4,4-7.3,7.3c-0.6,0.6-0.8,0.6-1.4,0C5,13,8.7,16.7,5.4,13.4C5,13,5,12.7,5.3,12.4s0.7-0.3,1,0.1
		c2,2,1.2,1.2,2.4,2.4C8.9,15,9,15,9.1,15.2z"/>
	<g>
		<path class="st0" d="M17,5c0-0.5,0-0.9,0-1.3c0-0.1,0.1-0.2,0.2-0.2c0.5,0,1,0,1.5,0C19.4,3.6,20,4.2,20,5l0,0c0,4.5,0,9,0,13.4
			c0,0.7-0.5,1.3-1.1,1.5c-0.1,0-0.3,0-0.4,0c-4.9,0-9.9,0-14.8,0c-1,0-1.6-0.6-1.6-1.6C2,14,2,9.6,2,5.1c0-1,0.5-1.6,1.5-1.6
			c0.4,0,0.8,0,1.3,0c0,0,0.2,0.1,0.2,0.2C5,4.1,5,4.5,5,5C4.6,5,4.2,5,3.9,5C3.6,5,3.5,5.1,3.5,5.4c0,4.3,0,8.5,0,12.8
			c0,0.3,0.1,0.4,0.4,0.4c4.8,0,9.5,0,14.3,0c0.3,0,0.3-0.1,0.3-0.3c0-4.3,0-8.5,0-12.8c0-0.3-0.1-0.4-0.4-0.4C17.8,5,17.4,5,17,5z"
			/>
		<path class="st0" d="M11.8,4.2c0,0.5,0,0.9,0,1.4s-0.3,0.9-0.7,0.9c-0.5,0-0.8-0.3-0.8-0.9c0-0.9,0-1.8,0-2.8
			c0-0.4,0.2-0.6,0.5-0.8c0.3-0.1,0.6,0,0.8,0.2c0.1,0.2,0.2,0.4,0.2,0.6C11.8,3.3,11.8,3.8,11.8,4.2z"/>
		<path class="st0" d="M7.2,4.2c0,0.5,0,1,0,1.5S6.9,6.5,6.5,6.5c-0.4,0-0.7-0.3-0.7-0.8c0-1,0-2,0-3C5.8,2.3,6.1,2,6.5,2
			s0.7,0.3,0.7,0.8S7.2,3.7,7.2,4.2z"/>
		<path class="st0" d="M16.2,4.3c0,0.5,0,1,0,1.5s-0.3,0.8-0.7,0.8s-0.7-0.3-0.7-0.8c0-1,0-2,0-3c0-0.4,0.3-0.7,0.7-0.8
			c0.4,0,0.7,0.3,0.7,0.8S16.2,3.8,16.2,4.3z"/>
		<path class="st0" d="M9.5,5C9,5,8.5,5,8,5c0-0.4,0-0.9,0-1.3c0,0,0.1-0.1,0.2-0.1c0.4,0,0.7,0,1.1,0c0.1,0,0.2,0.1,0.2,0.2
			C9.5,4.1,9.5,4.5,9.5,5z"/>
		<path class="st0" d="M13.3,5c-0.8,0-0.8,0-0.8-0.8c0-0.9-0.1-0.7,0.7-0.8c0.8,0,0.8,0,0.8,0.8S14,5,13.3,5z"/>
	</g>
</g>
</svg>
