<?xml version="1.0" encoding="utf-8"?>
<!-- Generator: Adobe Illustrator 21.0.0, SVG Export Plug-In . SVG Version: 6.00 Build 0)  -->
<svg version="1.1" id="Layer_1" xmlns="http://www.w3.org/2000/svg" xmlns:xlink="http://www.w3.org/1999/xlink" x="0px" y="0px"
	 viewBox="0 0 372.7 133" style="enable-background:new 0 0 372.7 133;" xml:space="preserve">
<style type="text/css">
	.st0{fill:#D6D6D6;}
	.st1{fill:#224099;}
	.st2{fill:#FFCD00;}
	.st3{fill:#0E1744;}
	.st4{fill:none;stroke:#0E1744;stroke-width:0.8734;stroke-linecap:round;stroke-linejoin:round;stroke-miterlimit:10;}
	.st5{fill:#FFFFFF;stroke:#231F20;stroke-miterlimit:10;}
	.st6{fill:#E6E7E8;}
	.st7{fill:#FFFFFF;}
	.st8{fill:none;stroke:#0E1744;stroke-width:0.5838;stroke-linecap:round;stroke-linejoin:round;stroke-miterlimit:10;}
	.st9{fill:#555555;}
	.st10{fill:#C81313;}
	.st11{fill:none;stroke:#C81313;stroke-miterlimit:10;}
	.st12{fill:none;stroke:#555555;stroke-linecap:round;stroke-miterlimit:10;}
	.st13{fill:none;stroke:#224099;stroke-width:0.8378;stroke-miterlimit:10;}
	.st14{fill:none;stroke:#555555;stroke-width:0.7207;stroke-miterlimit:10;}
	.st15{fill:none;stroke:#555555;stroke-width:0.8016;stroke-miterlimit:10;}
</style>
<g>
	<g>
		<path class="st0" d="M447-70.6l-26.7,2.7c-2.8,0.2-6-2.1-6.9-5.2l-4.8-15.1c-1-3.1,0.5-5.8,3.4-6l26.7-2.7c2.8-0.2,6,2.1,6.9,5.2
			l4.8,15.1C451.3-73.5,449.8-70.8,447-70.6z"/>
		<g>
			<path class="st1" d="M422-84.6c-0.8-0.9-1.4-1.9-1.8-3.1c-0.3-1.1-0.4-2.2-0.1-3.3c0.6-1.9,2.5-3.8,5-4c3.1-0.2,5.9,2.2,6,5.3
				c0.1,2.4-1.8,5.3-4,6.3C425.9-82.9,423.4-82.8,422-84.6z"/>
			<path class="st2" d="M429.7-84.6c-0.8-0.9-1.4-1.9-1.8-3.1c-0.3-1.1-0.4-2.2-0.1-3.3c0.6-1.9,2.5-3.8,5-4c3.1-0.2,5.9,2.2,6,5.3
				c0.1,2.4-1.8,5.3-4,6.3c0,0-2.4,1.4-4.3-0.7C428.9-83.6,430.6-83.6,429.7-84.6z"/>
			<g>
				<path class="st3" d="M425.1-75.6c0.3,0.2,0.5,0.4,0.7,0.6c0.2,0.2,0.3,0.5,0.1,0.7c-0.2,0.3-0.5,0.2-0.7,0
					c-0.2-0.2-0.5-0.4-0.7-0.6c-0.5-0.4-0.5-1.1-0.1-1.5c0.3-0.3,0.7-0.6,1-1c0.1-0.1,0.1-0.3,0.1-0.5c-0.1-0.2-0.2-0.5-0.4-0.7
					c-0.1-0.3-0.3-0.4-0.6-0.4c-0.6,0-0.8-0.5-0.7-1c0.1-0.3,0.1-0.6,0.2-0.8c-2.4-1-3.8-2.8-4.6-5.2c-1.7-5,2.9-9,7.2-8.2
					c0.1,0,0.1,0,0.2,0c0.3,0.1,0.5,0.2,0.4,0.6c-0.1,0.3-0.3,0.4-0.6,0.4c-0.7,0-1.5-0.1-2.2,0c-3.3,0.6-5.2,3.7-4.1,6.9
					c0.6,1.8,1.6,3.4,3.4,4.3c1.2,0.7,2.5,0.6,3.7-0.1c1.1-0.7,1.9-1.7,2.6-2.8c-0.9-1-1.7-2.2-2.1-3.5c-0.4-1.2-0.5-2.5-0.1-3.8
					c0.6-2.2,2.9-4.3,5.7-4.6c3.6-0.3,6.8,2.5,6.9,6.1c0.1,2.8-2.1,6.1-4.7,7.2c-0.1,0-0.1,0-0.1,0.1c0.1,0.4,0.2,0.9,0.1,1.3
					c-0.1,0.5-0.5,0.7-1,0.7c0.1,0.3,0.2,0.5,0.4,0.7c0.3,0.6,0.3,1-0.3,1.5c-0.3,0.3-0.7,0.6-1.1,1c0.2,0.2,0.5,0.4,0.7,0.5
					c0.3,0.2,0.4,0.5,0.2,0.8c-0.2,0.3-0.5,0.2-0.8,0c-0.2-0.2-0.4-0.3-0.6-0.5c-0.5-0.5-0.6-1.1-0.1-1.6c0.3-0.3,0.6-0.6,0.9-0.9
					c0.1-0.1,0.1-0.3,0.1-0.4c0-0.2-0.2-0.4-0.3-0.5c-0.2-0.4-0.3-0.6-0.8-0.6c-0.6,0-0.9-0.6-0.8-1.2c0.1-0.2,0.1-0.4,0.2-0.7
					c-0.6-0.3-1.2-0.6-1.8-1c-0.9,1.5-2.1,2.7-3.7,3.4c0.1,0.5,0.2,1,0.1,1.4c-0.1,0.6-0.6,0.6-1.2,0.6c0.1,0.3,0.2,0.5,0.3,0.7
					c0.3,0.6,0.2,1-0.3,1.5C425.8-76.3,425.5-75.9,425.1-75.6z M439.4-90.4c0-0.4,0-0.7-0.1-0.9c-0.6-3.2-4-5.2-7.2-4.1
					c-2.4,0.8-4,3.2-3.5,5.7c0.4,2.1,1.4,3.9,3.3,5.1c1.4,0.9,2.8,0.9,4.2,0C438.1-86,439.2-88,439.4-90.4z M424.8-79.8
					c0.5,0,1,0,1.5,0c-0.1-0.3-0.1-0.5-0.2-0.7c-0.4,0-0.7,0-1,0C424.9-80.2,424.8-80,424.8-79.8z M434.6-82.4
					c-0.1-0.6-0.1-0.6-0.9-0.6c-0.5,0-0.3,0.4-0.4,0.6C433.8-82.4,434.2-82.4,434.6-82.4z"/>
			</g>
			<path class="st4" d="M448.6-78.4l-26.7,9.9c-2.8,1-6-0.5-6.9-3.4l-4.8-13.9c-1-2.8,0.5-6,3.4-6.9l26.7-9.9c2.8-1,6,0.5,6.9,3.4
				l4.8,13.9C452.9-82.5,451.4-79.4,448.6-78.4z"/>
		</g>
	</g>
	<g>
		<path class="st1" d="M474.5-78.3c1.3,0,2.6,0,3.9,0c1.7,0,2.6,0.9,2.6,2.6c0,1.6,0,3.2,0,4.8l0,2l-1.8,0.2l-7.9-7.9l0.1-1.7
			L474.5-78.3z"/>
		<path class="st2" d="M492.2-74.2c-0.5,0.6-0.5,1.4,0,1.9c1.7,1.8,3.5,3.5,5.3,5.3c0.5,0.5,1.4,0.5,1.9,0c2.9-2.9,5.5-5.5,8-8
			c0.6-0.6,0.6-1.4,0.1-2c-0.6-0.7-1.3-1.4-2.1-2.1c-0.5-0.4-1.2-0.4-1.7,0c-0.2,0.2-0.4,0.4-0.6,0.6l-0.1,0.1c-1,1-2,2-3,3
			l-1.5,1.5l-0.3-0.3c-0.2-0.2-0.4-0.4-0.6-0.6c-0.4-0.4-0.8-0.8-1.2-1.2c-0.3-0.3-0.7-0.5-1.1-0.5c-0.4,0-0.7,0.1-1,0.4
			C493.5-75.5,492.8-74.9,492.2-74.2z"/>
		<path class="st3" d="M503.8-91c0,2.6,0,5.2,0,7.8c0,0.8,0.3,0.8,0.5,0.8c0.3,0,0.3-0.1,0.4-0.1c0.1-0.1,0.2-0.3,0.2-0.6
			c0-4.3,0-8.5,0-12.8c0-1.1-0.4-1.8-1.1-2.2c-0.5-0.3-1.1-0.4-1.8-0.5c-0.7-0.1-1.5,0-2.2,0c-0.3,0-0.7,0-1,0h-0.5l0-1.1
			c0-0.4,0-0.8,0-1.1c0-1.3-0.6-2-2-2c-0.8,0-1.5,0-2.3,0c-1.3,0-1.9,0.6-1.9,1.9c0,0.4,0,0.8,0,1.2l0,1h-8.3v-0.5
			c0-0.2,0-0.5,0-0.7c0-0.5,0-0.9,0-1.3c-0.1-1-0.7-1.6-1.7-1.6c-0.8,0-1.6,0-2.4,0l-0.1,0c-1.2,0-1.9,0.6-1.9,1.9
			c0,0.4,0,0.8,0,1.2l0,1.1l-1.6,0c-0.3,0-0.7,0-1,0c-0.4,0-0.8,0-1.2,0c-1.9,0-2.9,1-2.9,2.9l0,6.1c0,4.2,0,8.4,0,12.5
			c0,0.5,0.1,0.8,0.5,1.1c2.3,2.3,4.7,4.7,7.1,7.1c0.3,0.3,0.7,0.5,1.2,0.5c1.5,0,3,0,4.5,0l2.6,0c0.7,0,1.5,0,2.2,0
			c0.2,0,0.4-0.1,0.5-0.2c0.1-0.1,0.1-0.2,0.1-0.4c0-0.4-0.5-0.4-0.7-0.4c-1.9,0-3.7,0-5.6,0l-3.2,0v-0.5c0-0.6,0-1.1,0-1.6
			c0-1.2,0-2.4,0-3.5c0-1.5-1-2.5-2.5-2.6c-0.3,0-0.6,0-0.9,0l-4.7,0l0-0.7c0-0.2,0-0.3,0-0.4c0-5.7,0-11.3,0-17c0-0.2,0-0.3,0-0.5
			c0.1-0.8,0.6-1.3,1.2-1.3c0.9,0,1.8,0,2.8,0c0.4,0,0.8,0,1.1,0h0.5v0.5c0,0.2,0,0.4,0,0.6c0,0.4,0,0.8,0,1.1
			c0.1,0.9,0.6,1.5,1.5,1.5c0.8,0.1,1.7,0.1,2.5,0.1l0.2,0c1.4,0,2-0.6,2-2c0-0.3,0-0.6,0-0.9l0-0.9h8.3l0,1c0,0.4,0,0.7,0,1.1
			c0,0.9,0.6,1.6,1.5,1.6c1.1,0.1,2.1,0.1,3.1,0c1-0.1,1.5-0.7,1.5-1.7c0-0.3,0-0.7,0-1l0-1l1.5,0c0.7,0,1.5,0,2.2,0
			c1.5,0,2,0.5,2,2L503.8-91z M475.2-76.5c0.8,0,1.6,0,2.3,0c1,0,1.5,0.6,1.5,1.5c0,0.9,0,1.9,0,2.9l0,2.4l-6.8-6.8L475.2-76.5z
			 M482.7-95.7c0,0.1,0,0.5-0.3,0.7c-0.2,0.2-0.4,0.2-0.7,0.2c-0.8,0-1.5,0-2.2,0c0,0,0,0,0,0c-0.3,0-0.5-0.1-0.7-0.2
			c-0.2-0.2-0.3-0.5-0.3-0.8c0-0.6,0-1.2,0-1.8l0-0.7l0-0.7c0-0.6,0-1.1,0-1.7c0-0.2,0-0.6,0.3-0.8c0.3-0.3,0.7-0.3,0.8-0.2
			c0.7,0,1.4,0,2,0c0.2,0,0.5,0,0.8,0.2c0.2,0.2,0.3,0.4,0.3,0.7C482.7-98.9,482.7-97.1,482.7-95.7z M497.1-94.8h-4v-6.8h4V-94.8z"
			/>
		<path class="st3" d="M491-74.2c-0.5,0.6-0.5,1.4,0,1.9c1.7,1.8,3.5,3.5,5.3,5.3c0.5,0.5,1.4,0.5,1.9,0c2.9-2.9,5.5-5.5,8-8
			c0.6-0.6,0.6-1.4,0.1-2c-0.6-0.7-1.3-1.4-2.1-2.1c-0.5-0.4-1.2-0.4-1.7,0c-0.2,0.2-0.4,0.4-0.6,0.6l-0.1,0.1c-1,1-2,2-3,3
			l-1.5,1.5l-0.3-0.3c-0.2-0.2-0.4-0.4-0.6-0.6c-0.4-0.4-0.8-0.8-1.2-1.2c-0.3-0.3-0.7-0.5-1.1-0.5c-0.4,0-0.7,0.1-1,0.4
			C492.3-75.5,491.6-74.9,491-74.2z M494.1-75.7l1,1c0.5,0.5,0.9,1,1.4,1.4c0.2,0.2,0.6,0.6,0.8,0.6h0c0.2,0,0.6-0.4,0.8-0.6
			l4.4-4.4c0.1-0.1,0.3-0.2,0.4-0.4l0.5-0.4l2.4,2.3l-8.4,8.5l-5.6-5.6L494.1-75.7z"/>
		<path class="st3" d="M500.5-88.5c0-0.2-0.1-0.2-0.1-0.3c-0.1-0.1-0.3-0.2-1-0.2c-7.7,0-15.4,0-23.1,0l-0.1,0c0,0-0.1,0-0.1,0
			c-0.1,0-0.3,0-0.4,0c-0.4,0.1-0.4,0.3-0.4,0.5c0,0.3,0.1,0.5,0.5,0.5c0.1,0,0.3,0,0.4,0l0.2,0l23.1,0
			C500.5-87.9,500.5-88.3,500.5-88.5z"/>
	</g>
</g>
<path class="st5" d="M859.6-38.1L859.6-38.1c-11.2,0-20.3-9.1-20.3-20.3v-43.4c0-11.2,9.1-20.3,20.3-20.3h0
	c11.2,0,20.3,9.1,20.3,20.3v43.4C879.9-47.3,870.8-38.1,859.6-38.1z"/>
<path class="st3" d="M643.4-80c0,0-3.6-31.4-21.2-30.4c-14.7,0.8-20.5,30.4-20.5,30.4H643.4z"/>
<path class="st6" d="M601.7-80.1v21.7c0,11.2,9.1,20.3,20.3,20.3s20.3-9.1,20.3-20.3v-21.7H601.7z"/>
<g>
	<path class="st7" d="M633.3-53.5l-17.9,1.8c-1.9,0.1-4-1.4-4.6-3.5l-3.2-10.1c-0.7-2.1,0.4-3.9,2.3-4l17.9-1.8
		c1.9-0.1,4,1.4,4.6,3.5l3.2,10.1C636.2-55.5,635.1-53.6,633.3-53.5z"/>
	<g>
		<path class="st1" d="M616.5-62.8c-0.6-0.6-1-1.3-1.2-2.1c-0.2-0.7-0.3-1.4-0.1-2.2c0.4-1.2,1.7-2.5,3.3-2.6c2.1-0.2,3.9,1.5,4,3.6
			c0,1.6-1.2,3.6-2.7,4.2C619.2-61.7,617.5-61.7,616.5-62.8z"/>
		<path class="st2" d="M621.7-62.8c-0.6-0.6-1-1.3-1.2-2.1c-0.2-0.7-0.3-1.4-0.1-2.2c0.4-1.2,1.7-2.5,3.3-2.6c2.1-0.2,3.9,1.5,4,3.6
			c0,1.6-1.2,3.6-2.7,4.2c0,0-1.6,0.9-2.9-0.5C621.2-62.1,622.3-62.1,621.7-62.8z"/>
		<g>
			<path class="st3" d="M618.6-56.8c0.2,0.1,0.3,0.3,0.5,0.4c0.2,0.1,0.2,0.3,0.1,0.5c-0.1,0.2-0.3,0.2-0.5,0
				c-0.2-0.1-0.3-0.2-0.5-0.4c-0.3-0.3-0.4-0.7,0-1c0.2-0.2,0.5-0.4,0.7-0.6c0.1-0.1,0.1-0.2,0-0.3c-0.1-0.2-0.2-0.3-0.2-0.5
				c-0.1-0.2-0.2-0.3-0.4-0.3c-0.4,0-0.6-0.3-0.5-0.7c0-0.2,0.1-0.4,0.2-0.6c-1.6-0.7-2.5-1.9-3.1-3.4c-1.1-3.4,1.9-6,4.8-5.5
				c0,0,0.1,0,0.1,0c0.2,0,0.3,0.2,0.3,0.4c0,0.2-0.2,0.3-0.4,0.2c-0.5,0-1-0.1-1.5,0c-2.2,0.4-3.4,2.4-2.8,4.6
				c0.4,1.2,1.1,2.2,2.3,2.9c0.8,0.4,1.7,0.4,2.5-0.1c0.8-0.5,1.3-1.1,1.7-1.9c-0.6-0.7-1.1-1.5-1.4-2.4c-0.3-0.8-0.3-1.7-0.1-2.5
				c0.4-1.4,1.9-2.9,3.8-3c2.4-0.2,4.5,1.7,4.6,4.1c0.1,1.9-1.4,4.1-3.1,4.8c0,0-0.1,0-0.1,0c0,0.3,0.1,0.6,0.1,0.9
				c0,0.3-0.3,0.4-0.7,0.5c0.1,0.2,0.2,0.3,0.2,0.4c0.2,0.4,0.2,0.7-0.2,1c-0.2,0.2-0.5,0.4-0.7,0.7c0.2,0.1,0.3,0.2,0.4,0.4
				c0.2,0.2,0.3,0.3,0.1,0.5c-0.2,0.2-0.3,0.1-0.5,0c-0.1-0.1-0.3-0.2-0.4-0.3c-0.4-0.3-0.4-0.7,0-1.1c0.2-0.2,0.4-0.4,0.6-0.6
				c0.1-0.1,0.1-0.2,0.1-0.3c0-0.1-0.1-0.2-0.2-0.4c-0.1-0.2-0.2-0.4-0.6-0.4c-0.4,0-0.6-0.4-0.5-0.8c0-0.1,0.1-0.3,0.1-0.4
				c-0.4-0.2-0.8-0.4-1.2-0.7c-0.6,1-1.4,1.8-2.5,2.3c0,0.3,0.1,0.6,0.1,0.9c-0.1,0.4-0.4,0.4-0.8,0.4c0.1,0.2,0.2,0.3,0.2,0.5
				c0.2,0.4,0.2,0.7-0.2,1C619.1-57.3,618.9-57.1,618.6-56.8z M628.2-66.7c0-0.3,0-0.4-0.1-0.6c-0.4-2.2-2.7-3.5-4.8-2.7
				c-1.6,0.6-2.7,2.2-2.4,3.8c0.3,1.4,1,2.6,2.2,3.4c0.9,0.6,1.9,0.6,2.8,0C627.3-63.8,628-65.1,628.2-66.7z M618.4-59.6
				c0.3,0,0.6,0,1,0c-0.1-0.2-0.1-0.3-0.1-0.5c-0.2,0-0.5,0-0.7,0C618.5-59.9,618.4-59.8,618.4-59.6z M625-61.4c0-0.4,0-0.4-0.6-0.4
				c-0.3,0-0.2,0.3-0.3,0.4C624.4-61.4,624.7-61.4,625-61.4z"/>
		</g>
		<path class="st8" d="M634.3-58.7l-17.9,6.6c-1.9,0.7-4-0.4-4.6-2.3l-3.2-9.3c-0.7-1.9,0.4-4,2.3-4.6l17.9-6.6
			c1.9-0.7,4,0.4,4.6,2.3l3.2,9.3C637.2-61.5,636.2-59.4,634.3-58.7z"/>
	</g>
</g>
<path class="st3" d="M732.4-80.1v-21.7c0-11.2-9.1-20.3-20.3-20.3s-20.3,9.1-20.3,20.3v21.7H732.4z"/>
<path class="st6" d="M691.7-80.1v21.7c0,11.2,9.1,20.3,20.3,20.3s20.3-9.1,20.3-20.3v-21.7H691.7z"/>
<g>
	<path class="st7" d="M720.1-55.7h-17.6c-0.5,0-1-0.4-1-1v-12.5c0-0.5,0.4-1,1-1h3.4l0,2l3.3,0l0-2h5.9l0,2l3.3,0l0-2h1.8
		c0.5,0,1,0.4,1,1v12.5C721.1-56.1,720.7-55.7,720.1-55.7z"/>
	<path class="st1" d="M703.6-57.7c0.8,0,1.7,0,2.5,0c1.1,0,1.6,0.6,1.7,1.6c0,1,0,2,0,3.1l0,1.3l-1.1,0.1l-5-5l0.1-1.1L703.6-57.7z"
		/>
	<path class="st2" d="M714.9-55.1c-0.3,0.4-0.3,0.9,0,1.2c1.1,1.1,2.2,2.3,3.4,3.3c0.3,0.3,0.9,0.3,1.2,0c1.9-1.8,3.5-3.5,5.1-5.1
		c0.4-0.4,0.4-0.9,0-1.3c-0.4-0.5-0.9-0.9-1.3-1.3c-0.3-0.3-0.8-0.3-1.1,0c-0.1,0.1-0.3,0.2-0.4,0.4l0,0c-0.6,0.6-1.3,1.3-1.9,1.9
		l-1,1l-0.2-0.2c-0.1-0.1-0.3-0.3-0.4-0.4c-0.3-0.3-0.5-0.5-0.7-0.8c-0.2-0.2-0.5-0.3-0.7-0.3c-0.2,0-0.4,0.1-0.6,0.3
		C715.7-55.9,715.3-55.5,714.9-55.1z"/>
	<path class="st3" d="M722.3-65.8c0,1.7,0,3.3,0,5c0,0.5,0.2,0.5,0.3,0.5c0.2,0,0.2-0.1,0.2-0.1c0.1-0.1,0.1-0.2,0.1-0.4
		c0-2.7,0-5.4,0-8.1c0-0.7-0.2-1.2-0.7-1.4c-0.3-0.2-0.7-0.3-1.2-0.3c-0.5,0-0.9,0-1.4,0c-0.2,0-0.4,0-0.7,0h-0.3l0-0.7
		c0-0.3,0-0.5,0-0.7c0-0.9-0.4-1.2-1.3-1.3c-0.5,0-1,0-1.5,0c-0.8,0-1.2,0.4-1.2,1.2c0,0.3,0,0.5,0,0.8l0,0.7h-5.3V-71
		c0-0.1,0-0.3,0-0.4c0-0.3,0-0.6,0-0.9c0-0.6-0.5-1-1.1-1c-0.5,0-1,0-1.5,0l-0.1,0c-0.8,0-1.2,0.4-1.2,1.2c0,0.2,0,0.5,0,0.8l0,0.7
		l-1,0c-0.2,0-0.4,0-0.6,0c-0.3,0-0.5,0-0.8,0c-1.2,0-1.8,0.6-1.8,1.8l0,3.9c0,2.7,0,5.3,0,8c0,0.3,0.1,0.5,0.3,0.7
		c1.5,1.5,3,3,4.5,4.5c0.2,0.2,0.4,0.3,0.8,0.3c1,0,1.9,0,2.9,0l1.7,0c0.5,0,0.9,0,1.4,0c0.2,0,0.3,0,0.3-0.1
		c0.1-0.1,0.1-0.1,0.1-0.3c0-0.2-0.3-0.3-0.5-0.3c-1.2,0-2.4,0-3.6,0l-2,0v-0.3c0-0.4,0-0.7,0-1c0-0.8,0-1.5,0-2.2
		c0-1-0.6-1.6-1.6-1.6c-0.2,0-0.4,0-0.6,0l-3,0l0-0.4c0-0.1,0-0.2,0-0.3c0-3.6,0-7.2,0-10.8c0-0.1,0-0.2,0-0.3
		c0-0.5,0.4-0.8,0.8-0.8c0.6,0,1.2,0,1.8,0c0.2,0,0.5,0,0.7,0h0.3v0.3c0,0.1,0,0.2,0,0.4c0,0.2,0,0.5,0,0.7c0,0.6,0.4,0.9,0.9,1
		c0.5,0,1.1,0,1.6,0l0.1,0c0.9,0,1.2-0.4,1.3-1.3c0-0.2,0-0.4,0-0.6l0-0.6h5.3l0,0.6c0,0.2,0,0.4,0,0.7c0,0.6,0.4,1,0.9,1
		c0.7,0,1.3,0.1,2,0c0.6,0,1-0.4,1-1.1c0-0.2,0-0.4,0-0.7l0-0.6l0.9,0c0.5,0,0.9,0,1.4,0c0.9,0,1.3,0.3,1.3,1.3L722.3-65.8z
		 M704.1-56.6c0.5,0,1,0,1.5,0c0.6,0,1,0.4,1,1c0,0.6,0,1.2,0,1.8l0,1.5l-4.3-4.3L704.1-56.6z M708.8-68.8c0,0.1,0,0.3-0.2,0.5
		c-0.1,0.1-0.3,0.1-0.4,0.2c-0.5,0-1,0-1.4,0c0,0,0,0,0,0c-0.2,0-0.3-0.1-0.4-0.2c-0.1-0.1-0.2-0.3-0.2-0.5c0-0.4,0-0.7,0-1.1l0-0.5
		l0-0.5c0-0.4,0-0.7,0-1.1c0-0.2,0-0.4,0.2-0.5c0.2-0.2,0.4-0.2,0.5-0.2c0.4,0,0.9,0,1.3,0c0.1,0,0.3,0,0.5,0.2
		c0.1,0.1,0.2,0.3,0.2,0.5C708.8-70.8,708.8-69.7,708.8-68.8z M718-68.2h-2.5v-4.4h2.5V-68.2z"/>
	<path class="st3" d="M714.1-55.1c-0.3,0.4-0.3,0.9,0,1.2c1.1,1.1,2.2,2.3,3.4,3.3c0.3,0.3,0.9,0.3,1.2,0c1.9-1.8,3.5-3.5,5.1-5.1
		c0.4-0.4,0.4-0.9,0-1.3c-0.4-0.5-0.9-0.9-1.3-1.3c-0.3-0.3-0.8-0.3-1.1,0c-0.1,0.1-0.3,0.2-0.4,0.4l0,0c-0.6,0.6-1.3,1.3-1.9,1.9
		l-1,1l-0.2-0.2c-0.1-0.1-0.3-0.3-0.4-0.4c-0.3-0.3-0.5-0.5-0.7-0.8c-0.2-0.2-0.5-0.3-0.7-0.3c-0.2,0-0.4,0.1-0.6,0.3
		C714.9-55.9,714.5-55.5,714.1-55.1z M716.1-56l0.6,0.6c0.3,0.3,0.6,0.6,0.9,0.9c0.1,0.1,0.4,0.4,0.5,0.4h0c0.1,0,0.4-0.3,0.5-0.4
		l2.8-2.8c0.1-0.1,0.2-0.2,0.2-0.2l0.3-0.3l1.5,1.5l-5.3,5.4l-3.6-3.5L716.1-56z"/>
	<path class="st3" d="M720.2-64.2c0-0.1,0-0.2-0.1-0.2c-0.1-0.1-0.2-0.1-0.6-0.1c-4.9,0-9.8,0-14.7,0l-0.1,0c0,0,0,0-0.1,0
		c-0.1,0-0.2,0-0.3,0c-0.2,0.1-0.3,0.2-0.3,0.3c0,0.2,0.1,0.3,0.3,0.3c0.1,0,0.2,0,0.3,0l0.1,0l14.7,0
		C720.2-63.8,720.2-64,720.2-64.2z"/>
</g>
<g>
	<path class="st9" d="M714.7,21c0.3,0,0.5-0.3,0.5-0.6c0-0.3-0.2-0.6-0.6-0.6c-0.1,0-0.3,0-0.4,0l-3.8,0c-0.1,0-0.2,0-0.3,0l-0.4,0
		l0-0.6c0-1.1-0.7-1.8-1.8-1.8c-1,0-2,0-2.9,0c-0.8,0-1.4,0.7-1.5,1.6l0,0.8l-1.9,0c-1,0-1.9,0-2.9,0c-0.2,0-0.4,0.1-0.6,0.2
		c-0.1,0.1-0.2,0.3-0.2,0.4c0,0.5,0.5,0.6,0.7,0.6c0.2,0,0.4,0,0.6,0l0.3,0h0.3l0,3.1c0,2.4,0,4.9,0,7.3c0,0.4,0,0.8,0.1,1.1
		c0.4,1.7,1.8,2.7,3.7,2.7c2,0,4,0,6,0c2.4,0,3.8-1.5,3.8-3.9V21h0.3c0.1,0,0.3,0,0.4,0C714.3,21.1,714.5,21.1,714.7,21z
		 M704.8,18.8c0.2-0.2,0.4-0.2,0.7-0.2c0.7,0,1.4,0,2.1,0c0.3,0,0.5,0,0.7,0.2c0.2,0.2,0.1,0.4,0.1,0.7l0,0.2h-3.5l0-0.2
		C704.7,19.3,704.7,19,704.8,18.8z M712.1,31.4c0,1.7-0.9,2.6-2.7,2.6l-1.4,0c-0.7,0-1.4,0-2.2,0c-0.8,0-1.6,0-2.4,0
		c-1.5,0-2.4-1-2.5-2.4c0-2.5,0-4.9,0-7.4l0-2.6c0-0.1,0-0.1,0-0.2l0-0.4h11.1V31.4z"/>
	<path class="st9" d="M704.1,23.5c0-0.2-0.1-0.4-0.2-0.5c-0.1-0.1-0.3-0.2-0.4-0.2c0,0,0,0,0,0c-0.4,0-0.6,0.3-0.6,0.7
		c0,0.2,0,0.3,0,0.5l0,0.2l0,1.9c0,1.6,0,3.3,0,4.9c0,0.4,0.2,0.7,0.6,0.8c0.2,0,0.3,0,0.5-0.1c0.1-0.1,0.2-0.3,0.2-0.6
		c0-0.9,0-1.8,0-2.7l0-1l0-1.1C704.1,25.3,704.1,24.4,704.1,23.5z"/>
	<path class="st9" d="M710.3,23.6c0-0.5-0.2-0.7-0.6-0.7c0,0,0,0,0,0c-0.2,0-0.3,0.1-0.4,0.2c-0.1,0.1-0.2,0.3-0.2,0.6
		c0,2.5,0,5,0,7.5c0,0.2,0,0.3,0.1,0.5c0.1,0.2,0.4,0.3,0.7,0.2c0.3-0.1,0.5-0.3,0.5-0.7c0-0.9,0-1.8,0-2.7l0-1.1l0-1
		C710.3,25.4,710.3,24.5,710.3,23.6z"/>
	<path class="st9" d="M706.6,22.8L706.6,22.8c-0.2,0-0.3,0.1-0.4,0.2c-0.1,0.1-0.2,0.3-0.2,0.6c0,2.5,0,5,0,7.4
		c0,0.3,0.1,0.8,0.6,0.8h0c0.2,0,0.3-0.1,0.4-0.2c0.1-0.1,0.2-0.3,0.2-0.6l0-4.8l0-2.6C707.2,23.3,707.1,22.8,706.6,22.8z"/>
</g>
<g>
	<path class="st9" d="M731,27l0.7-0.7l0,0.7c0,0.1,0,0.2,0,0.3c0,0.1,0,0.2,0.1,0.4l0,0.2c0.5,2.2,1.6,3.9,3.5,5.1
		c3,1.9,6.8,1.5,9.4-1c0.2-0.2,0.3-0.5,0.2-0.8c-0.1-0.2-0.2-0.3-0.4-0.4c-0.2-0.1-0.5,0-0.6,0.2c-1.3,1.2-2.7,1.9-4.4,1.9
		c0,0,0,0,0,0c-2.8,0-4.8-1.3-6-3.8c-0.3-0.7-0.5-1.4-0.6-2.5l0-0.6l0.6,0.4c0.1,0.1,0.1,0.1,0.2,0.2c0.2,0.2,0.3,0.4,0.5,0.5
		c0.2,0.2,0.3,0.4,0.5,0.6c0.3,0.3,0.5,0.4,0.7,0.3c0.3-0.1,0.4-0.2,0.5-0.4c0.1-0.2,0-0.5-0.2-0.7c-0.9-0.9-1.7-1.9-2.6-2.8
		c-0.2-0.2-0.4-0.3-0.6-0.3c0,0,0,0,0,0c-0.2,0-0.3,0.1-0.4,0.2c-0.9,1-1.9,2-2.8,3c-0.1,0.1-0.2,0.3-0.2,0.5c0,0.2,0.1,0.3,0.2,0.4
		c0.3,0.2,0.6,0.2,0.9-0.1C730.6,27.5,730.8,27.2,731,27z"/>
	<path class="st9" d="M746,28.7c0.2,0.2,0.4,0.3,0.5,0.3h0c0.2,0,0.4-0.1,0.5-0.3c0.9-0.9,1.8-1.9,2.7-2.8c0.3-0.3,0.3-0.7,0.1-0.9
		c-0.4-0.4-0.8-0.1-1,0.1c-0.2,0.2-0.4,0.5-0.7,0.7l-0.6,0.7l-0.2-0.5c0-0.1,0-0.1,0-0.2c0-0.2-0.1-0.3-0.1-0.5
		c0-0.3-0.1-0.6-0.2-0.9c-0.6-2.1-1.9-3.8-3.8-4.7c-1.9-1-4.1-1.2-6.1-0.5c-1.1,0.4-2.1,1-2.9,1.8c-0.2,0.2-0.3,0.4-0.2,0.6
		c0,0.2,0.2,0.3,0.4,0.4c0.3,0.1,0.5,0.1,0.9-0.2c1.5-1.4,3.2-2,5.3-1.7c2.7,0.3,5.1,2.5,5.5,5.2c0,0.2,0.1,0.4,0.1,0.6l0.1,0.5
		l-0.3,0.1l-0.2-0.1l-0.1-0.1c-0.1-0.1-0.2-0.1-0.2-0.2c-0.1-0.1-0.3-0.3-0.4-0.4c-0.2-0.2-0.4-0.4-0.6-0.6
		c-0.2-0.2-0.3-0.2-0.5-0.2c-0.1,0-0.3,0.1-0.4,0.2c-0.3,0.3-0.3,0.6,0,0.9C744.3,26.9,745.1,27.8,746,28.7z"/>
</g>
<path class="st10" d="M739.6,61l0.2,0.4c0,0,0.1,0.1,0.1,0.1c1,1,2,2,3,3c0.1,0.1,0.1,0.1,0.2,0.2c0.1,0.1,0.3,0.1,0.5,0.1
	c0.2-0.1,0.3-0.2,0.3-0.4c0.1-0.2,0-0.4-0.2-0.6v0c-1-1-2.1-2.1-3.1-3.1c0,0-0.1-0.1-0.1-0.2l-0.2-0.3l3.5-3.5
	c0.2-0.2,0.3-0.4,0.2-0.6c-0.1-0.2-0.2-0.3-0.4-0.4c-0.2-0.1-0.4,0-0.6,0.2c-0.8,0.8-1.7,1.7-2.5,2.5l-0.2,0.3
	c-0.1,0.1-0.2,0.3-0.4,0.4l-0.4,0.4l-0.3-0.3c0,0-0.1-0.1-0.1-0.1l-3.1-3.1c-0.1-0.1-0.2-0.2-0.2-0.2c-0.2-0.1-0.3-0.1-0.5-0.1
	c-0.2,0.1-0.3,0.2-0.3,0.4c0,0.2,0,0.4,0.2,0.6c0.9,0.8,1.7,1.7,2.6,2.5l0.6,0.6c0,0,0.1,0.1,0.1,0.1l0.3,0.3l-0.3,0.3
	c0,0-0.1,0.1-0.1,0.1l-0.5,0.5c-0.9,0.9-1.8,1.8-2.7,2.7c-0.3,0.3-0.3,0.6-0.1,0.8c0.2,0.2,0.5,0.2,0.8-0.1c0.1-0.1,0.3-0.3,0.4-0.4
	L739.6,61z"/>
<circle class="st11" cx="739.5" cy="60.3" r="9"/>
<g>
	<path class="st9" d="M704.6,67.5c1.3-1.3,5.1-5.2,7-7.1c0.1-0.1,0.2-0.2,0.3-0.3c0.3-0.2,0.5-0.2,0.8,0c0.2,0.2,0.3,0.5,0.1,0.8
		c-0.1,0.1-0.2,0.2-0.3,0.3c-3.2,3.3-4,4-7.3,7.3c-0.6,0.6-0.8,0.6-1.4,0c-3.3-3.3,0.4,0.4-2.9-2.9c-0.4-0.4-0.4-0.7-0.1-1
		c0.3-0.3,0.7-0.3,1,0.1c2,2,1.2,1.2,2.4,2.4C704.4,67.3,704.5,67.4,704.6,67.5z"/>
	<g>
		<path class="st9" d="M712.6,57.3c0-0.5,0-0.9,0-1.3c0-0.1,0.1-0.2,0.2-0.2c0.5,0,1,0,1.5,0c0.7,0.1,1.3,0.7,1.3,1.4
			c0,0,0,0.1,0,0.1c0,4.5,0,9,0,13.4c0,0.7-0.5,1.3-1.1,1.5c-0.1,0-0.3,0-0.4,0c-4.9,0-9.9,0-14.8,0c-1,0-1.6-0.6-1.6-1.6
			c0-4.4,0-8.8,0-13.2c0-1,0.5-1.6,1.5-1.6c0.4,0,0.8,0,1.3,0c0.1,0,0.2,0.1,0.2,0.2c0,0.4,0,0.8,0,1.3c-0.4,0-0.8,0-1.1,0
			c-0.3,0-0.4,0.1-0.4,0.4c0,4.3,0,8.5,0,12.8c0,0.3,0.1,0.4,0.4,0.4c4.8,0,9.5,0,14.3,0c0.3,0,0.3-0.1,0.3-0.3c0-4.3,0-8.5,0-12.8
			c0-0.3-0.1-0.4-0.4-0.4C713.3,57.4,713,57.3,712.6,57.3z"/>
		<path class="st9" d="M707.3,56.6c0,0.5,0,0.9,0,1.4c0,0.5-0.3,0.9-0.7,0.9c-0.5,0-0.8-0.3-0.8-0.9c0-0.9,0-1.8,0-2.8
			c0-0.4,0.2-0.6,0.5-0.8c0.3-0.1,0.6,0,0.8,0.2c0.1,0.2,0.2,0.4,0.2,0.6C707.3,55.7,707.3,56.1,707.3,56.6z"/>
		<path class="st9" d="M702.8,56.6c0,0.5,0,1,0,1.5c0,0.5-0.3,0.8-0.7,0.8c-0.4,0-0.7-0.3-0.7-0.8c0-1,0-2,0-3
			c0-0.4,0.3-0.7,0.7-0.7c0.4,0,0.7,0.3,0.7,0.8C702.8,55.6,702.8,56.1,702.8,56.6z"/>
		<path class="st9" d="M711.8,56.6c0,0.5,0,1,0,1.5c0,0.5-0.3,0.8-0.7,0.8c-0.4,0-0.7-0.3-0.7-0.8c0-1,0-2,0-3
			c0-0.4,0.3-0.7,0.7-0.8c0.4,0,0.7,0.3,0.7,0.8C711.8,55.6,711.8,56.1,711.8,56.6z"/>
		<path class="st9" d="M705,57.3c-0.5,0-1,0-1.5,0c0-0.4,0-0.9,0-1.3c0,0,0.1-0.1,0.2-0.1c0.4,0,0.7,0,1.1,0c0.1,0,0.2,0.1,0.2,0.2
			C705.1,56.5,705,56.9,705,57.3z"/>
		<path class="st9" d="M708.8,57.3c-0.8,0-0.8,0-0.8-0.8c0-0.9-0.1-0.7,0.7-0.8c0.8,0,0.8,0,0.8,0.8
			C709.5,57.3,709.5,57.3,708.8,57.3z"/>
	</g>
</g>
<path class="st9" d="M703.7,96.2c-3.2-2.2-3.1-6-1.1-8.1c2.1-2.2,5.5-2.3,7.7-0.2c2.4,2.3,2,5.5-0.9,8.3c0.3,0.2,0.6,0.3,0.9,0.5
	c2.7,1.5,4.1,3.8,4.3,6.8c0,0.5-0.1,0.9-0.6,0.9c-0.5,0-0.7-0.3-0.7-0.8c-0.2-2.6-1.4-4.6-3.7-5.8c-4.4-2.3-9.6,0.8-9.8,5.8
	c0,0.5-0.1,0.8-0.6,0.8c-0.5,0-0.7-0.4-0.6-0.9c0-0.2,0-0.3,0-0.5c0.4-3.1,2-5.3,4.8-6.6C703.4,96.3,703.6,96.3,703.7,96.2z
	 M702.5,91.6c0,2.3,1.8,4.1,4.1,4.1c2.2,0,4-1.8,4-4c0-2.3-1.8-4-4.1-4C704.3,87.6,702.5,89.4,702.5,91.6z"/>
<g>
	<path class="st9" d="M664.6,34.2c0,0.4,0.1,0.7,0.3,0.8c0.2,0.1,0.5,0.2,0.9,0.1l0.5-0.1c0.8-0.2,1.7-0.4,2.5-0.7
		c0.4-0.1,0.8-0.4,1-0.7c0.9-1.1,1.9-2.2,2.8-3.3c0.3-0.4,0.6-0.7,0.9-1.1c0.5-0.7,1.1-1.3,1.6-2c1.3-1.6,2.6-3.2,3.9-4.8
		c1.1-1.4,1-3.2-0.3-4.3c-0.6-0.5-1.3-0.8-1.9-0.8c-0.1,0-0.1,0-0.2,0c-0.8,0.1-1.5,0.5-2.1,1.2c-1.1,1.3-2.2,2.7-3.4,4.1
		c-1.7,2-3.4,4.1-5.1,6.1c-0.9,1-1.6,1.8-1.5,3.5C664.6,32.3,664.6,33.9,664.6,34.2z M674.8,20.3c0.1-0.1,0.3-0.3,0.4-0.5
		c0.5-0.6,0.9-1.2,1.9-1c0.5,0.1,1.2,0.6,1.4,1.1c0.4,0.9-0.1,1.5-0.7,2.2c-0.1,0.1-0.2,0.3-0.3,0.4l-0.1,0.1L674.8,20.3L674.8,20.3
		z M667.2,29.6c1.6-1.8,3.1-3.7,4.7-5.7c0.6-0.8,1.3-1.6,1.9-2.4l0.1-0.1l2.6,2.2l-3.2,4c-0.4,0.4-0.7,0.9-1.1,1.3
		c-0.8,1-1.7,2-2.4,3c-0.9,1.4-2.3,1.6-3.6,1.8l-0.1,0l0-0.1C666,32.2,666,30.9,667.2,29.6z"/>
	<line class="st12" x1="665.4" y1="34.8" x2="675.9" y2="34.8"/>
</g>
<g>
	<path class="st9" d="M678.2,60.6c0-0.1,0-0.3-0.1-0.4c-0.1-0.1-0.3-0.3-0.5-0.3c0,0,0,0,0,0c-0.2,0-0.4,0.3-0.5,0.4
		c-0.1,0.1-0.1,0.2,0,0.3c0,0,0,0.1,0,0.1v7.9c0,1.3-0.6,1.9-1.9,1.9h-9.4c-1.3,0-1.9-0.6-1.9-1.9c0-3.3,0-6.6,0-9.9
		c0-1.3,0.6-1.9,1.9-1.9h7.3l0.1,0c0.1,0,0.2,0,0.3,0c0.3,0,0.5-0.3,0.5-0.6c0-0.3-0.2-0.5-0.5-0.5c-0.1,0-0.1,0-0.2,0h-1.9
		c-1.9,0-3.7,0-5.6,0c-0.3,0-0.6,0-0.8,0.1c-1.3,0.3-2.1,1.4-2.1,2.8c0,1.2,0,2.4,0,3.6l0,1.5l0,1.6c0,1.2,0,2.3,0,3.5
		c0,1.8,1.1,2.9,2.9,2.9c1.6,0,3.2,0,4.8,0c1.6,0,3.2,0,4.8,0c1.8,0,2.9-1.1,2.9-2.9C678.2,66,678.2,63.4,678.2,60.6L678.2,60.6z"/>
	<path class="st9" d="M680.2,55.8c-0.1,0-0.2,0-0.3,0h-1.7v-1.6c0-0.2,0-0.7-0.5-0.7c-0.2,0-0.3,0-0.4,0.1c-0.1,0.1-0.2,0.3-0.2,0.6
		c0,0.4,0,0.8,0,1.1v0.5l-0.8,0c-0.4,0-0.8,0-1.2,0c-0.2,0-0.4,0.1-0.5,0.2c-0.1,0.1-0.1,0.2-0.1,0.4c0,0.3,0.2,0.5,0.6,0.5
		c0.1,0,0.2,0,0.3,0h1.6l0,1.8c0,0.2,0.1,0.4,0.2,0.5c0.1,0.1,0.2,0.1,0.4,0.1c0,0,0,0,0,0c0.3,0,0.6-0.2,0.6-0.6c0-0.2,0-0.3,0-0.5
		l0-1.3l0.8,0c0.4,0,0.8,0,1.2,0c0.3,0,0.6-0.2,0.6-0.6C680.8,56,680.6,55.8,680.2,55.8z"/>
	<g>
		<path class="st9" d="M670.8,59.2v0.5c0.3,0,0.6,0.1,0.9,0.2c0.2,0.1,0.5,0.3,0.6,0.5c0.1,0.2,0.3,0.3,0.3,0.5
			c0.1,0.2,0.1,0.3,0.1,0.5c0,0.2-0.1,0.3-0.2,0.4c-0.1,0.1-0.3,0.2-0.4,0.2c-0.3,0-0.5-0.2-0.6-0.5c-0.1-0.4-0.4-0.7-0.8-0.8v2
			c0.4,0.1,0.7,0.2,1,0.3c0.2,0.1,0.4,0.2,0.6,0.4c0.2,0.2,0.4,0.4,0.5,0.6c0.1,0.2,0.2,0.5,0.2,0.8c0,0.4-0.1,0.7-0.3,1
			c-0.2,0.3-0.4,0.6-0.8,0.8c-0.3,0.2-0.7,0.3-1.2,0.4v0.8c0,0.2,0,0.3-0.1,0.4c0,0.1-0.1,0.1-0.2,0.1c-0.1,0-0.2,0-0.2-0.1
			c0-0.1-0.1-0.2-0.1-0.3v-0.9c-0.4,0-0.7-0.1-1-0.3c-0.3-0.1-0.5-0.3-0.7-0.5c-0.2-0.2-0.3-0.4-0.4-0.6c-0.1-0.2-0.1-0.4-0.1-0.6
			c0-0.2,0.1-0.3,0.2-0.4c0.1-0.1,0.3-0.2,0.5-0.2c0.1,0,0.3,0,0.4,0.1s0.2,0.2,0.2,0.3c0.1,0.3,0.2,0.5,0.2,0.6s0.2,0.3,0.3,0.4
			c0.1,0.1,0.3,0.2,0.5,0.3v-2.2c-0.4-0.1-0.8-0.3-1.1-0.4c-0.3-0.1-0.5-0.4-0.7-0.6c-0.2-0.3-0.3-0.6-0.3-1c0-0.6,0.2-1,0.5-1.4
			c0.4-0.4,0.9-0.6,1.5-0.6v-0.5c0-0.3,0.1-0.4,0.3-0.4C670.7,58.9,670.8,59,670.8,59.2z M670.2,62.6v-1.9c-0.3,0.1-0.5,0.2-0.6,0.3
			c-0.2,0.1-0.2,0.3-0.2,0.6c0,0.3,0.1,0.4,0.2,0.6S669.9,62.5,670.2,62.6z M670.8,64v2.1c0.3-0.1,0.6-0.2,0.8-0.4
			c0.2-0.2,0.3-0.4,0.3-0.7c0-0.3-0.1-0.5-0.3-0.7C671.4,64.2,671.1,64.1,670.8,64z"/>
	</g>
</g>
<path class="st9" d="M297.5,28.3c0.1,0.2,0.3,0.3,0.4,0.4c0.2,0.2,0.3,0.3,0.4,0.2c0.1,0,0.1,0,0.2-0.1c0.2-0.2,0.1-0.4-0.1-0.6
	l-1.9-1.9c-2.1-2.1-4.3-4.3-6.4-6.4c-0.9-0.9-2.3-0.9-3.2,0c-0.7,0.7-1.4,1.4-2.1,2.1l-2.1,2.1c-1.3,1.3-2.6,2.6-3.9,3.9
	c-0.1,0.1-0.2,0.3-0.2,0.4c0,0.1,0,0.1,0.1,0.2c0.1,0.1,0.3,0.2,0.6-0.1c0.1-0.2,0.3-0.3,0.4-0.5l0.3-0.3l0.3,0.2l0,2.9
	c0,1.8,0,3.6,0,5.4c0,1.7,1.3,3,3,3h10.4c0.6,0,1.2-0.1,1.6-0.5c1-0.6,1.5-1.6,1.5-2.8c0-1.8,0-3.5,0-5.3l0-2.7l0.3-0.1L297.5,28.3z
	 M291.2,36.2l0,2.1c0,0,0,0.1,0,0.1l0,0.2H286l0-0.3c0-0.1,0-0.2,0-0.3c0-1.7,0-3.3,0-5c0-0.6,0.2-0.8,0.8-0.8c0.5,0,1,0,1.5,0
	c0.7,0,1.5,0,2.2,0c0.3,0,0.4,0.1,0.6,0.2c0.1,0.1,0.2,0.3,0.2,0.5C291.2,34,291.2,35.1,291.2,36.2z M296.1,36.2
	c0,1.4-1,2.4-2.4,2.4c-0.4,0-0.7,0-1.1,0l-0.7,0v-0.2c0-0.5,0-1.1,0-1.6c0-1.3,0-2.5,0-3.7c0-0.5-0.1-0.9-0.4-1.2
	c-0.3-0.3-0.7-0.4-1.2-0.4c-0.8,0-1.7,0-2.5,0c-0.4,0-0.8,0-1.1,0c-1,0-1.4,0.5-1.4,1.4c0,1.3,0,2.5,0,3.8l0,1.8l-0.2,0
	c-0.2,0-0.5,0-0.7,0c-0.2,0-0.4,0-0.6,0c-0.4,0-0.9,0-1.3-0.2c-0.9-0.4-1.4-1.1-1.5-2.1c0-3,0-6,0-9.1c0-0.2,0.1-0.4,0.2-0.6
	c2-2,4.1-4.1,6.1-6.1c0.7-0.7,1.6-0.7,2.3,0c2.1,2.1,4.2,4.2,6.2,6.2c0.1,0.1,0.2,0.4,0.2,0.6C296.2,30,296.2,33.1,296.1,36.2z"/>
<g>
	<path class="st2" d="M289.8,103.5c-0.7,0-1.5,0.1-2.2,0.4c-2.5,0.9-4.3,2.7-5.1,5.5c-0.2,0.8-0.1,1.7,0.5,2.4
		c0.5,0.7,1.3,1,2.1,0.9c1.1-0.1,2.2,0,3.3,0c0.5,0,1,0,1.5,0h4.8c0.8,0,1.6-0.3,2.1-0.9c0.5-0.6,0.7-1.4,0.5-2.2
		c-0.2-1-0.7-1.9-1.6-3.1C294.2,104.5,292,103.5,289.8,103.5z"/>
	<g>
		<path class="st1" d="M287.9,104.5c-0.8,0-1.6,0.1-2.3,0.4c-2.7,0.9-4.6,2.9-5.5,5.9c-0.3,0.8-0.1,1.8,0.5,2.6
			c0.5,0.7,1.4,1.1,2.3,1c1.2-0.1,2.4,0,3.5,0c0.5,0,1,0,1.6,0h5.2c0.9,0,1.7-0.4,2.2-1c0.5-0.6,0.7-1.5,0.5-2.4
			c-0.2-1.1-0.7-2.1-1.7-3.3C292.6,105.6,290.3,104.5,287.9,104.5z M294.8,112.7c-0.4,0.5-1,0.9-1.8,0.9c-0.6,0-1.3,0-1.9,0
			c-0.5,0-1.1,0-1.6,0l-1.6,0l-1.6,0c-1.2,0-2.3,0-3.5,0c-0.7,0-1.4-0.3-1.8-0.8c-0.4-0.5-0.5-1.1-0.3-1.8c0.7-2.4,2.5-4.4,4.7-5.3
			c2-0.8,4.2-0.6,6.1,0.6c1.6,1,2.8,2.5,3.5,4.5C295.3,111.5,295.2,112.2,294.8,112.7z"/>
		<path class="st1" d="M287.9,94.3C287.9,94.3,287.9,94.3,287.9,94.3c-2.5,0-4.6,2.1-4.6,4.5c0,1.3,0.5,2.4,1.3,3.3
			c0.9,0.9,2,1.3,3.2,1.3c2.5,0,4.6-2,4.6-4.5c0-1.2-0.5-2.4-1.3-3.3C290.3,94.8,289.1,94.3,287.9,94.3z M290.6,101.6
			c-0.7,0.7-1.7,1.1-2.8,1.1c0,0,0,0,0,0c-1,0-2-0.4-2.7-1.1c-0.7-0.7-1.1-1.7-1.1-2.8c0-1,0.4-1.9,1.1-2.6c0.7-0.7,1.7-1.1,2.7-1.1
			c0,0,0,0,0,0c2.1,0,3.8,1.7,3.8,3.9C291.7,99.9,291.3,100.9,290.6,101.6z"/>
	</g>
</g>
<g>
	<g>
		<path class="st9" d="M288.6,67.5c-0.8,0-1.6,0.1-2.3,0.4c-2.7,0.9-4.6,2.9-5.5,5.9c-0.3,0.8-0.1,1.8,0.5,2.6
			c0.5,0.7,1.4,1.1,2.3,1c1.2-0.1,2.4,0,3.5,0c0.5,0,1,0,1.6,0h5.2c0.9,0,1.7-0.4,2.2-1c0.5-0.6,0.7-1.5,0.5-2.4
			c-0.2-1.1-0.7-2.1-1.7-3.3C293.3,68.6,291,67.5,288.6,67.5z M295.5,75.7c-0.4,0.5-1,0.9-1.8,0.9c-0.6,0-1.3,0-1.9,0
			c-0.5,0-1.1,0-1.6,0l-1.6,0l-1.6,0c-1.2,0-2.3,0-3.5,0c-0.7,0-1.4-0.3-1.8-0.8c-0.4-0.5-0.5-1.1-0.3-1.8c0.7-2.4,2.5-4.4,4.7-5.3
			c2-0.8,4.2-0.6,6.1,0.6c1.6,1,2.8,2.5,3.5,4.5C295.9,74.5,295.9,75.2,295.5,75.7z"/>
		<path class="st9" d="M288.6,57.3C288.6,57.3,288.6,57.3,288.6,57.3c-2.5,0-4.6,2.1-4.6,4.5c0,1.3,0.5,2.4,1.3,3.3
			c0.9,0.9,2,1.3,3.2,1.3c2.5,0,4.6-2,4.6-4.5c0-1.2-0.5-2.4-1.3-3.3C290.9,57.8,289.8,57.3,288.6,57.3z M291.3,64.6
			c-0.7,0.7-1.7,1.1-2.8,1.1c0,0,0,0,0,0c-1,0-2-0.4-2.7-1.1c-0.7-0.7-1.1-1.7-1.1-2.8c0-1,0.4-1.9,1.1-2.6c0.7-0.7,1.7-1.1,2.7-1.1
			c0,0,0,0,0,0c2.1,0,3.8,1.7,3.8,3.9C292.4,62.9,292,63.9,291.3,64.6z"/>
	</g>
</g>
<g>
	<path class="st2" d="M328.5,105.4c-0.1-0.6-0.2-1.1-0.1-1.7c0.1-0.5,0.3-1,0.7-1.4c0.7-0.7,1.9-1,3-0.6c1.4,0.6,2,2.3,1.4,3.6
		c-0.5,1.1-2,1.9-3.1,1.8c0,0-1.4,0-1.7-1.3C328,105.7,328.7,106.1,328.5,105.4z"/>
	<g>
		<g>
			<path class="st1" d="M325,109.5c0.1,0.2,0.2,0.3,0.2,0.4c0.1,0.1,0.1,0.3-0.1,0.4c-0.1,0.1-0.3,0-0.4-0.1
				c-0.1-0.1-0.2-0.3-0.2-0.4c-0.2-0.3-0.1-0.6,0.2-0.7c0.2-0.1,0.4-0.2,0.6-0.3c0.1,0,0.1-0.1,0.1-0.2c0-0.1,0-0.3,0-0.4
				c0-0.1-0.1-0.2-0.2-0.3c-0.3-0.1-0.3-0.4-0.2-0.6c0.1-0.1,0.2-0.2,0.3-0.4c-1-0.9-1.3-2-1.3-3.3c0.1-2.7,3-3.8,4.9-2.6
				c0,0,0.1,0,0.1,0.1c0.1,0.1,0.2,0.2,0.1,0.4c-0.1,0.1-0.2,0.1-0.4,0.1c-0.3-0.1-0.7-0.3-1-0.4c-1.7-0.3-3.1,0.8-3.2,2.6
				c-0.1,1,0.2,1.9,0.9,2.6c0.5,0.5,1.1,0.7,1.8,0.6c0.7-0.1,1.2-0.5,1.7-0.9c-0.3-0.7-0.4-1.3-0.4-2.1c0-0.7,0.2-1.3,0.6-1.8
				c0.7-0.9,2.1-1.6,3.5-1.2c1.8,0.5,2.8,2.4,2.2,4.1c-0.4,1.3-2.1,2.6-3.5,2.6c0,0-0.1,0-0.1,0c-0.1,0.2-0.1,0.4-0.2,0.6
				c-0.1,0.2-0.3,0.2-0.6,0.2c0,0.1,0,0.3,0.1,0.4c0,0.4-0.1,0.5-0.4,0.7c-0.2,0.1-0.4,0.2-0.7,0.3c0.1,0.1,0.2,0.3,0.2,0.4
				c0.1,0.2,0.1,0.3-0.1,0.4c-0.2,0.1-0.3,0-0.4-0.1c-0.1-0.1-0.1-0.2-0.2-0.3c-0.2-0.3-0.1-0.6,0.2-0.8c0.2-0.1,0.4-0.2,0.6-0.3
				c0.1,0,0.1-0.1,0.1-0.2c0-0.1,0-0.2,0-0.3c0-0.2-0.1-0.3-0.3-0.4c-0.3-0.1-0.3-0.4-0.2-0.7c0.1-0.1,0.1-0.2,0.2-0.3
				c-0.2-0.3-0.4-0.5-0.7-0.8c-0.7,0.6-1.5,0.9-2.4,1c-0.1,0.2-0.1,0.5-0.2,0.7c-0.1,0.3-0.4,0.2-0.7,0.1c0,0.1,0,0.3,0,0.4
				c0,0.3-0.1,0.5-0.4,0.7C325.5,109.3,325.2,109.4,325,109.5z M334.4,105c0.1-0.2,0.1-0.3,0.1-0.5c0.3-1.7-1-3.2-2.7-3.2
				c-1.3,0-2.5,0.8-2.7,2.1c-0.2,1.1,0,2.1,0.7,3c0.5,0.7,1.2,0.9,2,0.7C333,106.8,333.9,106,334.4,105z M325.6,107.4
				c0.2,0.1,0.5,0.2,0.7,0.3c0-0.1,0-0.2,0-0.4c-0.2-0.1-0.3-0.1-0.5-0.2C325.7,107.2,325.7,107.3,325.6,107.4z M330.8,107.9
				c0.1-0.3,0.1-0.3-0.3-0.5c-0.2-0.1-0.2,0.1-0.3,0.2C330.3,107.8,330.5,107.8,330.8,107.9z"/>
		</g>
	</g>
	<path class="st13" d="M336.7,112.2l-14.4,0c-1.5,0-2.7-1.3-2.7-2.8l0.2-7.4c0-1.5,1.3-2.7,2.8-2.7l14.4,0c1.5,0,2.7,1.3,2.7,2.8
		l-0.2,7.4C339.5,111.1,338.2,112.3,336.7,112.2z"/>
	<path class="st13" d="M322.2,99.3l12.1-3c1.5-0.3,3,0.6,3.3,2.1l0.2,0.8"/>
</g>
<g>
	<path class="st2" d="M332.5,39.9c0-1.9,0-1.6,0-3.3c0-1.1-0.6-1.9-1.8-1.8c-1.2,0.1-2.5,0-3.7,0c-1.1,0-1.7,0.6-1.7,1.6
		c0,1.8,0,1.6,0,3.5c-0.9,0-1.8,0.2-2.6-0.2c-0.9-0.3-1.4-1.1-1.4-2c0-3.1,0-4.1,0-7.2c0-0.2,0.1-0.3,0.2-0.4
		c2.1-2.1,4.2-4.2,6.3-6.3c0.7-0.7,1.4-0.7,2.1,0c2.1,2.1,4.2,4.2,6.3,6.3c0.1,0.1,0.2,0.3,0.2,0.5c0,3,0,4,0,7
		c0,1.3-0.9,2.3-2.3,2.3C333.6,39.9,333.1,39.9,332.5,39.9z"/>
	<path class="st1" d="M338.5,29.3c0.1,0.2,0.3,0.3,0.4,0.4c0.2,0.2,0.3,0.3,0.4,0.2c0.1,0,0.1,0,0.2-0.1c0.2-0.2,0.1-0.4-0.1-0.6
		l-1.9-1.9c-2.1-2.1-4.3-4.3-6.4-6.4c-0.9-0.9-2.3-0.9-3.2,0c-0.7,0.7-1.4,1.4-2.1,2.1l-2.1,2.1c-1.3,1.3-2.6,2.6-3.9,3.9
		c-0.1,0.1-0.2,0.3-0.2,0.4c0,0.1,0,0.1,0.1,0.2c0.1,0.1,0.3,0.2,0.6-0.1c0.1-0.2,0.3-0.3,0.4-0.5l0.3-0.3l0.3,0.2l0,2.9
		c0,1.8,0,3.6,0,5.4c0,1.7,1.3,3,3,3h10.4c0.6,0,1.2-0.1,1.6-0.5c1-0.6,1.5-1.6,1.5-2.8c0-1.8,0-3.5,0-5.3l0-2.7l0.3-0.1L338.5,29.3
		z M332.2,37.2l0,2.1c0,0,0,0.1,0,0.1l0,0.2H327l0-0.3c0-0.1,0-0.2,0-0.3c0-1.7,0-3.3,0-5c0-0.6,0.2-0.8,0.8-0.8c0.5,0,1,0,1.5,0
		c0.7,0,1.5,0,2.2,0c0.3,0,0.4,0.1,0.6,0.2c0.1,0.1,0.2,0.3,0.2,0.5C332.2,35,332.2,36.1,332.2,37.2z M337.1,37.2
		c0,1.4-1,2.4-2.4,2.4c-0.4,0-0.7,0-1.1,0l-0.7,0v-0.2c0-0.5,0-1.1,0-1.6c0-1.3,0-2.5,0-3.7c0-0.5-0.1-0.9-0.4-1.2
		c-0.3-0.3-0.7-0.4-1.2-0.4c-0.8,0-1.7,0-2.5,0c-0.4,0-0.8,0-1.1,0c-1,0-1.4,0.5-1.4,1.4c0,1.3,0,2.5,0,3.8l0,1.8l-0.2,0
		c-0.2,0-0.5,0-0.7,0c-0.2,0-0.4,0-0.6,0c-0.4,0-0.9,0-1.3-0.2c-0.9-0.4-1.4-1.1-1.5-2.1c0-3,0-6,0-9.1c0-0.2,0.1-0.4,0.2-0.6
		c2-2,4.1-4.1,6.1-6.1c0.7-0.7,1.6-0.7,2.3,0c2.1,2.1,4.2,4.2,6.2,6.2c0.1,0.1,0.2,0.4,0.2,0.6C337.2,31,337.2,34.1,337.1,37.2z"/>
</g>
<g>
	<g>
		<g>
			<path class="st9" d="M325.6,70.9c0.1,0.2,0.2,0.3,0.2,0.4c0.1,0.1,0.1,0.3-0.1,0.4c-0.1,0.1-0.3,0-0.4-0.1
				c-0.1-0.1-0.2-0.3-0.2-0.4c-0.2-0.3-0.1-0.6,0.2-0.7c0.2-0.1,0.4-0.2,0.6-0.3c0.1,0,0.1-0.1,0.1-0.2c0-0.1,0-0.3,0-0.4
				c0-0.1-0.1-0.2-0.2-0.3c-0.3-0.1-0.3-0.4-0.2-0.6c0.1-0.1,0.2-0.2,0.3-0.4c-1-0.9-1.3-2-1.3-3.3c0.1-2.7,3-3.8,4.9-2.6
				c0,0,0.1,0,0.1,0.1c0.1,0.1,0.2,0.2,0.1,0.4c-0.1,0.1-0.2,0.1-0.4,0.1c-0.3-0.1-0.7-0.3-1-0.4c-1.7-0.3-3.1,0.8-3.2,2.6
				c-0.1,1,0.2,1.9,0.9,2.6c0.5,0.5,1.1,0.7,1.8,0.6c0.7-0.1,1.2-0.5,1.7-0.9c-0.3-0.7-0.4-1.3-0.4-2.1c0-0.7,0.2-1.3,0.6-1.8
				c0.7-0.9,2.1-1.6,3.5-1.2c1.8,0.5,2.8,2.4,2.2,4.1c-0.4,1.3-2.1,2.6-3.5,2.6c0,0-0.1,0-0.1,0c-0.1,0.2-0.1,0.4-0.2,0.6
				c-0.1,0.2-0.3,0.2-0.6,0.2c0,0.1,0,0.3,0.1,0.4c0,0.4-0.1,0.5-0.4,0.7c-0.2,0.1-0.4,0.2-0.7,0.3c0.1,0.1,0.2,0.3,0.2,0.4
				c0.1,0.2,0.1,0.3-0.1,0.4c-0.2,0.1-0.3,0-0.4-0.1c-0.1-0.1-0.1-0.2-0.2-0.3c-0.2-0.3-0.1-0.6,0.2-0.8c0.2-0.1,0.4-0.2,0.6-0.3
				c0.1,0,0.1-0.1,0.1-0.2c0-0.1,0-0.2,0-0.3c0-0.2-0.1-0.3-0.3-0.4c-0.3-0.1-0.3-0.4-0.2-0.7c0.1-0.1,0.1-0.2,0.2-0.3
				c-0.2-0.3-0.4-0.5-0.7-0.8c-0.7,0.6-1.5,0.9-2.4,1c-0.1,0.2-0.1,0.5-0.2,0.7c-0.1,0.3-0.4,0.2-0.7,0.1c0,0.1,0,0.3,0,0.4
				c0,0.3-0.1,0.5-0.4,0.7C326,70.7,325.8,70.8,325.6,70.9z M335,66.4c0.1-0.2,0.1-0.3,0.1-0.5c0.3-1.7-1-3.2-2.7-3.2
				c-1.3,0-2.5,0.8-2.7,2.1c-0.2,1.1,0,2.1,0.7,3c0.5,0.7,1.2,0.9,2,0.7C333.6,68.2,334.5,67.5,335,66.4z M326.2,68.9
				c0.2,0.1,0.5,0.2,0.7,0.3c0-0.1,0-0.2,0-0.4c-0.2-0.1-0.3-0.1-0.5-0.2C326.3,68.7,326.2,68.8,326.2,68.9z M331.3,69.4
				c0.1-0.3,0.1-0.3-0.3-0.5c-0.2-0.1-0.2,0.1-0.3,0.2C330.9,69.2,331.1,69.3,331.3,69.4z"/>
		</g>
	</g>
	<path class="st14" d="M337.2,73.7l-14.4,0c-1.5,0-2.7-1.3-2.7-2.8l0.2-7.4c0-1.5,1.3-2.7,2.8-2.7l14.4,0c1.5,0,2.7,1.3,2.7,2.8
		l-0.2,7.4C340,72.5,338.8,73.7,337.2,73.7z"/>
	<path class="st14" d="M322.8,60.8l12.1-3c1.5-0.3,3,0.6,3.3,2.1l0.2,0.8"/>
</g>
<g>
	<path d="M440.6,21.5c1.3-1.3,5.1-5.2,7-7.1c0.1-0.1,0.2-0.2,0.3-0.3c0.3-0.2,0.5-0.2,0.8,0c0.2,0.2,0.3,0.5,0.1,0.8
		c-0.1,0.1-0.2,0.2-0.3,0.3c-3.2,3.3-4,4-7.3,7.3c-0.6,0.6-0.8,0.6-1.4,0c-3.3-3.3,0.4,0.4-2.9-2.9c-0.4-0.4-0.4-0.7-0.1-1
		c0.3-0.3,0.7-0.3,1,0.1c2,2,1.2,1.2,2.4,2.4C440.4,21.3,440.5,21.4,440.6,21.5z"/>
	<g>
		<path d="M448.5,11.3c0-0.5,0-0.9,0-1.3c0-0.1,0.1-0.2,0.2-0.2c0.5,0,1,0,1.5,0c0.7,0.1,1.3,0.7,1.3,1.4c0,0,0,0.1,0,0.1
			c0,4.5,0,9,0,13.4c0,0.7-0.5,1.3-1.1,1.5c-0.1,0-0.3,0-0.4,0c-4.9,0-9.9,0-14.8,0c-1,0-1.6-0.6-1.6-1.6c0-4.4,0-8.8,0-13.2
			c0-1,0.5-1.6,1.5-1.6c0.4,0,0.8,0,1.3,0c0.1,0,0.2,0.1,0.2,0.2c0,0.4,0,0.8,0,1.3c-0.4,0-0.8,0-1.1,0c-0.3,0-0.4,0.1-0.4,0.4
			c0,4.3,0,8.5,0,12.8c0,0.3,0.1,0.4,0.4,0.4c4.8,0,9.5,0,14.3,0c0.3,0,0.3-0.1,0.3-0.3c0-4.3,0-8.5,0-12.8c0-0.3-0.1-0.4-0.4-0.4
			C449.3,11.4,448.9,11.3,448.5,11.3z"/>
		<path d="M443.3,10.6c0,0.5,0,0.9,0,1.4c0,0.5-0.3,0.9-0.7,0.9c-0.5,0-0.8-0.3-0.8-0.9c0-0.9,0-1.8,0-2.8c0-0.4,0.2-0.6,0.5-0.8
			c0.3-0.1,0.6,0,0.8,0.2c0.1,0.2,0.2,0.4,0.2,0.6C443.3,9.7,443.3,10.1,443.3,10.6z"/>
		<path d="M438.7,10.6c0,0.5,0,1,0,1.5c0,0.5-0.3,0.8-0.7,0.8c-0.4,0-0.7-0.3-0.7-0.8c0-1,0-2,0-3c0-0.4,0.3-0.7,0.7-0.7
			c0.4,0,0.7,0.3,0.7,0.8C438.7,9.6,438.7,10.1,438.7,10.6z"/>
		<path d="M447.7,10.6c0,0.5,0,1,0,1.5c0,0.5-0.3,0.8-0.7,0.8c-0.4,0-0.7-0.3-0.7-0.8c0-1,0-2,0-3c0-0.4,0.3-0.7,0.7-0.8
			c0.4,0,0.7,0.3,0.7,0.8C447.7,9.6,447.7,10.1,447.7,10.6z"/>
		<path d="M441,11.3c-0.5,0-1,0-1.5,0c0-0.4,0-0.9,0-1.3c0,0,0.1-0.1,0.2-0.1c0.4,0,0.7,0,1.1,0c0.1,0,0.2,0.1,0.2,0.2
			C441,10.5,441,10.9,441,11.3z"/>
		<path d="M444.8,11.3c-0.8,0-0.8,0-0.8-0.8c0-0.9-0.1-0.7,0.7-0.8c0.8,0,0.8,0,0.8,0.8C445.5,11.3,445.5,11.3,444.8,11.3z"/>
	</g>
</g>
<g>
	<g>
		<path class="st1" d="M30.7,85.8c0,3.7,0,3.3,0,7c0,0.1,0,0.2,0,0.3c0,0.6-0.4,0.8-0.9,0.6c-1.3-0.6-2.6-1.2-3.9-1.7
			c-0.5-0.2-1-0.6-1.4-0.6c-0.5,0-1,0.3-1.5,0.6c-1.1,0.6-2.1,0.6-3.1,0c-0.7-0.4-1.6-0.6-2.4-1c-0.2-0.1-0.4-0.1-0.6,0.1
			c-1,0.7-2.1,1.4-3.1,2c-0.3,0.2-0.5,0.4-0.8,0.2c-0.3-0.2-0.3-0.5-0.3-0.8c0-2.1,0-4.2,0-6.3c0-5.1,0-6.3,0-11.4
			c0-0.8,0.1-0.9,0.9-0.9c5.4,0,10.8,0,16.2,0c0.8,0,0.9,0.1,0.9,0.9C30.7,78.3,30.7,82,30.7,85.8z M29.5,92.2c0-7.2,0-10.2,0-17.3
			c-5.2,0-10.5,0-15.7,0c0,6.9,0,9.8,0,16.8c0.1-0.1,0.2-0.1,0.4-0.2c0.8-0.5,1.6-1,2.4-1.6c0.4-0.2,0.7-0.3,1-0.1
			c1.1,0.5,2.3,0.9,3.4,1.4c0.2,0.1,0.5,0.1,0.6,0c0.8-0.3,1.6-0.7,2.4-1c0.2-0.1,0.5-0.1,0.7,0c0.6,0.2,1.2,0.5,1.8,0.8
			C27.6,91.4,28.5,91.8,29.5,92.2z"/>
		<path class="st1" d="M21.7,80.7c1.4,0,2.9,0,4.3,0c0.1,0,0.3,0,0.4,0c0.3,0,0.4,0.3,0.5,0.5c0,0.3-0.1,0.5-0.4,0.6
			c-0.1,0-0.3,0-0.5,0c-2.9,0-5.7,0-8.6,0c-0.1,0-0.2,0-0.2,0c-0.4,0-0.7-0.2-0.7-0.6c0-0.3,0.2-0.6,0.7-0.6
			C18.7,80.7,20.2,80.7,21.7,80.7L21.7,80.7z"/>
		<path class="st1" d="M20.7,85.9c-1.5,0-2,0-3.5,0c-0.3,0-0.5-0.1-0.6-0.4c-0.1-0.3,0-0.5,0.2-0.6c0.1-0.1,0.3-0.1,0.4-0.1
			c3,0,2,0,5,0c0.4,0,0.7,0.2,0.7,0.6c0,0.3-0.3,0.5-0.7,0.5C20.7,85.9,22.2,85.9,20.7,85.9z"/>
		<path class="st1" d="M21.7,77.9c-1.4,0-2.9,0-4.3,0c-0.1,0-0.3,0-0.4,0c-0.3-0.1-0.5-0.3-0.4-0.6c0-0.2,0.3-0.4,0.4-0.5
			c0.1-0.1,0.3,0,0.4,0c2.9,0,5.7,0,8.6,0c0,0,0.1,0,0.1,0c0.5,0,0.8,0.2,0.8,0.6c0,0.4-0.3,0.6-0.8,0.6
			C24.6,77.9,23.2,77.9,21.7,77.9z"/>
	</g>
</g>
<g>
	<path d="M490.4,27c-1.3,0-2.6,0-3.9,0c0-4.5,0-8.9,0-13.4c1.3,0,2.6,0,3.9,0C490.4,18.1,490.4,22.5,490.4,27z"/>
	<path d="M474.3,13.6c0.9,0,1.7,0,2.6,0c0,4.5,0,8.9,0,13.4c-0.9,0-1.7,0-2.6,0C474.3,22.6,474.3,18.1,474.3,13.6z"/>
	<path d="M468.9,13.6c0.5,0,0.8,0,1.3,0c0,5.4,0,10.7,0,16.1c-0.4,0-0.8,0-1.3,0C468.9,24.3,468.9,19,468.9,13.6z"/>
	<path d="M491.8,13.6c0.5,0,0.8,0,1.3,0c0,5.4,0,10.7,0,16.1c-0.4,0-0.8,0-1.3,0C491.8,24.3,491.8,19,491.8,13.6z"/>
	<path d="M482.3,27c-0.4,0-0.8,0-1.2,0c0-4.5,0-8.9,0-13.4c0.4,0,0.8,0,1.2,0C482.3,18.1,482.3,22.5,482.3,27z"/>
	<path d="M485,27c-0.4,0-0.8,0-1.3,0c0-4.5,0-8.9,0-13.4c0.4,0,0.8,0,1.3,0C485,18,485,22.5,485,27z"/>
	<path d="M471.5,9.6c0,0.5,0,0.8,0,1.3c-1.8,0-3.5,0-5.3,0c0,1.8,0,3.5,0,5.3c-0.5,0-0.9,0-1.3,0c0-2.2,0-4.4,0-6.6
		C467,9.6,469.3,9.6,471.5,9.6z"/>
	<path d="M497.1,16.2c-0.4,0-0.8,0-1.3,0c0-1.8,0-3.5,0-5.3c-1.8,0-3.5,0-5.3,0c0-0.5,0-0.9,0-1.3c2.2,0,4.4,0,6.6,0
		C497.1,11.8,497.1,14,497.1,16.2z"/>
	<path d="M466.1,32.4c1.9,0,3.6,0,5.3,0c0,0.4,0,0.8,0,1.3c-2.2,0-4.4,0-6.6,0c0-2.2,0-4.4,0-6.6c0.4,0,0.8,0,1.3,0
		C466.1,28.8,466.1,30.6,466.1,32.4z"/>
	<path d="M490.5,33.7c0-0.4,0-0.8,0-1.3c1.8,0,3.5,0,5.3,0c0-1.8,0-3.6,0-5.3c0.5,0,0.9,0,1.3,0c0,2.2,0,4.4,0,6.6
		C494.9,33.7,492.7,33.7,490.5,33.7z"/>
	<path d="M471.6,13.6c0.4,0,0.8,0,1.2,0c0,4.5,0,8.9,0,13.4c-0.4,0-0.8,0-1.2,0C471.6,22.6,471.6,18.1,471.6,13.6z"/>
	<path d="M478.3,13.6c0.4,0,0.8,0,1.2,0c0,4.5,0,8.9,0,13.4c-0.4,0-0.8,0-1.2,0C478.3,22.5,478.3,18.1,478.3,13.6z"/>
	<path d="M486.4,29.7c0-0.5,0-0.8,0-1.3c1.3,0,2.6,0,4,0c0,0.4,0,0.8,0,1.3C489.1,29.7,487.8,29.7,486.4,29.7z"/>
	<path d="M476.9,28.4c0,0.4,0,0.8,0,1.3c-0.9,0-1.7,0-2.6,0c0-0.4,0-0.8,0-1.3C475.1,28.4,476,28.4,476.9,28.4z"/>
	<path d="M482.3,29.7c-0.4,0-0.8,0-1.3,0c0-0.4,0-0.8,0-1.3c0.4,0,0.8,0,1.3,0C482.3,28.8,482.3,29.3,482.3,29.7z"/>
	<path d="M485,28.4c0,0.4,0,0.8,0,1.2c-0.4,0-0.8,0-1.3,0c0-0.4,0-0.8,0-1.2C484.1,28.4,484.5,28.4,485,28.4z"/>
	<path d="M472.8,28.4c0,0.4,0,0.8,0,1.3c-0.4,0-0.8,0-1.3,0c0-0.4,0-0.8,0-1.3C472,28.4,472.4,28.4,472.8,28.4z"/>
	<path d="M478.3,29.7c0-0.4,0-0.8,0-1.3c0.4,0,0.8,0,1.2,0c0,0.4,0,0.8,0,1.3C479.2,29.7,478.8,29.7,478.3,29.7z"/>
</g>
<g>
	<g>
		<g>
			<path class="st9" d="M47.1,87.1c0.1,0.2,0.2,0.3,0.3,0.5c0.1,0.2,0.1,0.3-0.1,0.4c-0.2,0.1-0.3,0-0.4-0.1
				c-0.1-0.1-0.2-0.3-0.3-0.4c-0.2-0.3-0.1-0.7,0.3-0.8c0.2-0.1,0.5-0.2,0.7-0.3c0.1,0,0.1-0.2,0.1-0.2c0-0.1,0-0.3-0.1-0.4
				c0-0.2-0.1-0.3-0.2-0.3c-0.3-0.1-0.4-0.4-0.2-0.7c0.1-0.1,0.2-0.3,0.3-0.4c-1.1-1-1.5-2.2-1.5-3.6c0-3,3.2-4.3,5.4-3
				c0,0,0.1,0,0.1,0.1c0.2,0.1,0.2,0.2,0.1,0.4c-0.1,0.2-0.2,0.1-0.4,0.1c-0.4-0.1-0.8-0.4-1.2-0.4c-1.9-0.3-3.4,1-3.5,2.9
				c0,1.1,0.2,2.1,1,2.9c0.5,0.6,1.2,0.8,2,0.6c0.7-0.2,1.3-0.5,1.9-1c-0.3-0.7-0.5-1.5-0.5-2.3c0-0.7,0.2-1.4,0.6-2
				c0.7-1,2.4-1.8,3.9-1.4c2,0.5,3.1,2.6,2.5,4.6c-0.5,1.5-2.2,2.9-3.8,3c0,0-0.1,0-0.1,0c-0.1,0.2-0.1,0.5-0.2,0.7
				c-0.1,0.3-0.4,0.3-0.7,0.2c0,0.2,0,0.3,0.1,0.4c0.1,0.4,0,0.6-0.4,0.8c-0.2,0.1-0.5,0.2-0.8,0.3c0.1,0.1,0.2,0.3,0.3,0.4
				c0.1,0.2,0.1,0.3-0.1,0.5c-0.2,0.1-0.3,0-0.4-0.1c-0.1-0.1-0.2-0.2-0.2-0.4c-0.2-0.3-0.1-0.7,0.3-0.9c0.2-0.1,0.4-0.2,0.7-0.3
				c0.1,0,0.1-0.1,0.1-0.2c0-0.1,0-0.2,0-0.3c0-0.2-0.1-0.4-0.3-0.5c-0.3-0.1-0.4-0.5-0.2-0.8c0.1-0.1,0.1-0.2,0.2-0.3
				c-0.3-0.3-0.5-0.6-0.8-0.8c-0.8,0.6-1.6,1.1-2.6,1.1c-0.1,0.3-0.1,0.5-0.2,0.8c-0.1,0.3-0.4,0.2-0.7,0.1c0,0.2,0,0.3,0.1,0.4
				c0,0.4-0.1,0.6-0.4,0.7C47.6,86.8,47.4,86.9,47.1,87.1z M57.5,81.8c0.1-0.2,0.1-0.4,0.1-0.5c0.3-1.8-1.2-3.5-3.1-3.5
				c-1.4,0-2.7,1-2.9,2.4c-0.2,1.2,0,2.3,0.8,3.3c0.6,0.7,1.3,1,2.2,0.8C56,83.9,56.9,83,57.5,81.8z M47.7,84.8
				c0.3,0.1,0.5,0.2,0.8,0.3c0-0.1,0-0.3,0-0.4c-0.2-0.1-0.4-0.1-0.5-0.2C47.9,84.5,47.8,84.6,47.7,84.8z M53.5,85.2
				c0.1-0.3,0.1-0.3-0.4-0.5c-0.2-0.1-0.2,0.2-0.3,0.3C53,85,53.2,85.1,53.5,85.2z"/>
		</g>
	</g>
	<path class="st15" d="M60.1,89.9l-16.1,0.3c-1.7,0-3.1-1.4-3.1-3.1l0-8.3c0-1.7,1.4-3.1,3.1-3.1l16.1-0.3c1.7,0,3.1,1.4,3.1,3.1
		l0,8.3C63.2,88.5,61.8,89.9,60.1,89.9z"/>
	<path class="st15" d="M43.8,75.8l13.4-3.5c1.6-0.4,3.3,0.6,3.7,2.3l0.2,0.9"/>
</g>
<g>
	<g>
		<g>
			<g>
				<path d="M419.5,11c0-0.5,0-0.9,0-1.3c0-0.1,0.1-0.2,0.2-0.2c0.5,0,1,0,1.5,0c0.7,0.1,1.3,0.7,1.3,1.4c0,0,0,0.1,0,0.1
					c0,4.5,0,9,0,13.4c0,0.7-0.5,1.3-1.1,1.5c-0.1,0-0.3,0-0.4,0c-4.9,0-9.9,0-14.8,0c-1,0-1.6-0.6-1.6-1.6c0-4.4,0-8.8,0-13.2
					c0-1,0.5-1.6,1.5-1.6c0.4,0,0.8,0,1.3,0c0.1,0,0.2,0.1,0.2,0.2c0,0.4,0,0.8,0,1.3c-0.4,0-0.8,0-1.1,0c-0.3,0-0.4,0.1-0.4,0.4
					c0,4.3,0,8.5,0,12.8c0,0.3,0.1,0.4,0.4,0.4c4.8,0,9.5,0,14.3,0c0.3,0,0.3-0.1,0.3-0.3c0-4.3,0-8.5,0-12.8c0-0.3-0.1-0.4-0.4-0.4
					C420.3,11,419.9,11,419.5,11z"/>
				<path d="M414.3,10.2c0,0.5,0,0.9,0,1.4c0,0.5-0.3,0.9-0.7,0.9c-0.5,0-0.8-0.3-0.8-0.9c0-0.9,0-1.8,0-2.8c0-0.4,0.2-0.6,0.5-0.8
					c0.3-0.1,0.6,0,0.8,0.2c0.1,0.2,0.2,0.4,0.2,0.6C414.3,9.3,414.3,9.8,414.3,10.2z"/>
				<path d="M409.7,10.2c0,0.5,0,1,0,1.5c0,0.5-0.3,0.8-0.7,0.8c-0.4,0-0.7-0.3-0.7-0.8c0-1,0-2,0-3c0-0.4,0.3-0.7,0.7-0.7
					c0.4,0,0.7,0.3,0.7,0.8C409.7,9.3,409.7,9.7,409.7,10.2z"/>
				<path d="M418.7,10.3c0,0.5,0,1,0,1.5c0,0.5-0.3,0.8-0.7,0.8c-0.4,0-0.7-0.3-0.7-0.8c0-1,0-2,0-3c0-0.4,0.3-0.7,0.7-0.8
					c0.4,0,0.7,0.3,0.7,0.8C418.7,9.3,418.7,9.8,418.7,10.3z"/>
				<path d="M412,11c-0.5,0-1,0-1.5,0c0-0.4,0-0.9,0-1.3c0,0,0.1-0.1,0.2-0.1c0.4,0,0.7,0,1.1,0c0.1,0,0.2,0.1,0.2,0.2
					C412,10.1,412,10.5,412,11z"/>
				<path d="M415.8,11c-0.8,0-0.8,0-0.8-0.8c0-0.9-0.1-0.7,0.7-0.8c0.8,0,0.8,0,0.8,0.8C416.5,11,416.5,11,415.8,11z"/>
			</g>
		</g>
	</g>
	<rect x="405.5" y="15" width="16" height="1"/>
</g>
<g>
	<path class="st9" d="M641.4,28.6c0-0.6,0-1.2,0-1.7c0-0.3,0.1-0.6,0.5-0.7c0.3,0,0.5,0.2,0.5,0.6c0,0.7,0,1.4,0,2.1
		c0,0.5-0.2,0.6-0.6,0.6c-0.7,0-1.4,0-2.1,0c-0.4,0-0.7-0.2-0.6-0.5c0-0.4,0.3-0.5,0.7-0.5C640.2,28.6,640.8,28.6,641.4,28.6z"/>
	<path class="st9" d="M627,28.7c0.6,0,1.2,0,1.8,0c0.3,0,0.6,0.1,0.6,0.5c0,0.3-0.2,0.5-0.6,0.5c-0.8,0-1.5,0-2.3,0
		c-0.3,0-0.5-0.2-0.5-0.5c0-0.8,0-1.5,0-2.3c0-0.3,0.2-0.5,0.5-0.5c0.3,0,0.5,0.2,0.5,0.6C627,27.4,627,28,627,28.7z"/>
	<path class="st9" d="M641.4,19.3c-0.6,0-1.2,0-1.8,0c-0.4,0-0.6-0.1-0.6-0.5c0-0.4,0.3-0.5,0.6-0.5c0.7,0,1.4,0,2.1,0
		c0.5,0,0.6,0.1,0.6,0.6c0,0.7,0,1.4,0,2.1c0,0.4-0.1,0.6-0.5,0.7c-0.3,0-0.5-0.2-0.5-0.7C641.4,20.4,641.4,19.9,641.4,19.3z"/>
	<path class="st9" d="M626.9,19.3c0,0.6,0,1.2,0,1.7c0,0.5-0.2,0.7-0.5,0.7c-0.4,0-0.4-0.3-0.4-0.6c0-0.7,0-1.4,0-2.1
		c0-0.5,0.1-0.6,0.6-0.6c0.7,0,1.4,0,2.1,0c0.3,0,0.5,0.1,0.6,0.4c0,0.4-0.2,0.5-0.6,0.5C628.2,19.3,627.6,19.3,626.9,19.3z"/>
	<path class="st9" d="M631.6,29c-3.2-2.2-3.1-6-1.1-8.1c2.1-2.2,5.5-2.3,7.7-0.2c2.4,2.3,2,5.5-0.9,8.3c0.3,0.2,0.6,0.3,0.9,0.5
		c2.7,1.5,4.1,3.8,4.3,6.8c0,0.5-0.1,0.9-0.6,0.9c-0.5,0-0.7-0.3-0.7-0.8c-0.2-2.6-1.4-4.6-3.7-5.8c-4.4-2.3-9.6,0.8-9.8,5.8
		c0,0.5-0.1,0.8-0.6,0.8c-0.5,0-0.7-0.4-0.6-0.9c0-0.2,0-0.3,0-0.5c0.4-3.1,2-5.3,4.8-6.6C631.3,29.2,631.4,29.1,631.6,29z
		 M630.3,24.4c0,2.3,1.8,4.1,4.1,4.1c2.2,0,4-1.8,4-4c0-2.3-1.8-4-4.1-4C632.1,20.5,630.3,22.2,630.3,24.4z"/>
</g>
<path class="st9" d="M600.6,29c-3.2-2.2-3.1-6-1.1-8.1c2.1-2.2,5.5-2.3,7.7-0.2c2.4,2.3,2,5.5-0.9,8.3c0.3,0.2,0.6,0.3,0.9,0.5
	c2.7,1.5,4.1,3.8,4.3,6.8c0,0.5-0.1,0.9-0.6,0.9c-0.5,0-0.7-0.3-0.7-0.8c-0.2-2.6-1.4-4.6-3.7-5.8c-4.4-2.3-9.6,0.8-9.8,5.8
	c0,0.5-0.1,0.8-0.6,0.8c-0.5,0-0.7-0.4-0.6-0.9c0-0.2,0-0.3,0-0.5c0.4-3.1,2-5.3,4.8-6.6C600.3,29.2,600.4,29.1,600.6,29z
	 M599.3,24.4c0,2.3,1.8,4.1,4.1,4.1c2.2,0,4-1.8,4-4c0-2.3-1.8-4-4.1-4C601.1,20.5,599.3,22.2,599.3,24.4z"/>
<g>
	<path class="st9" d="M603,58c2,0,3.4,0.4,4.7,1.2c1.9,1.1,3.4,2.5,4.6,4.2c0.3,0.4,0.3,0.6,0.1,1c-1.4,1.9-3,3.5-5.1,4.6
		c-2.6,1.4-5.2,1.3-7.8-0.2c-1.9-1.1-3.5-2.6-4.8-4.4c-0.2-0.3-0.2-0.6,0-0.9c1.6-2.2,3.6-4,6.2-5C601.8,58.2,602.6,58.1,603,58z
		 M603.1,59.2c-0.7,0-1.8,0.4-2.8,0.9c-1.6,0.9-2.9,2.1-4.1,3.5c-0.2,0.2-0.2,0.4,0,0.6c1.1,1.4,2.4,2.6,4,3.5
		c1.8,1,3.7,1.3,5.6,0.5c2.2-0.8,3.8-2.4,5.3-4.1c0.1-0.1,0-0.3,0-0.3c-1.1-1.4-2.4-2.7-4-3.5C606,59.6,604.8,59.2,603.1,59.2z"/>
	<path class="st9" d="M603.6,60.7c1.7,0,3.2,1.5,3.2,3.2c0,1.7-1.5,3.2-3.2,3.2c-1.8,0-3.2-1.5-3.2-3.3
		C600.4,62.2,601.9,60.7,603.6,60.7z M603.6,65.9c1.1,0,2-0.9,2-1.9c0-1.1-0.9-2-1.9-2c-1.1,0-2,0.9-2,1.9
		C601.6,65,602.5,65.9,603.6,65.9z"/>
</g>
<g>
	<g>
		<path class="st9" d="M636.7,68.3c-1.9,0.7-3.7,0.4-5.5-0.6c-1.6-0.9-2.9-2.1-4-3.5c-0.2-0.2-0.2-0.4,0-0.6
			c1.2-1.4,2.5-2.6,4.1-3.5c0.3-0.1,0.5-0.3,0.8-0.4l-0.6-1.1c-2.4,1-4.2,2.8-5.8,4.8c-0.2,0.3-0.2,0.6,0,0.9
			c1.3,1.8,2.8,3.3,4.8,4.4c2.2,1.3,4.5,1.5,6.8,0.7L636.7,68.3z"/>
		<path class="st9" d="M643.4,63.4c-1.3-1.7-2.8-3.2-4.6-4.2c-1.3-0.8-2.8-1.2-4.7-1.2c-0.3,0.1-0.9,0.2-1.5,0.3l0.6,1.1
			c0.4-0.1,0.7-0.2,1-0.2c1.7,0,2.8,0.4,3.9,1c1.6,0.9,2.9,2.1,4,3.5c0.1,0.1,0.1,0.3,0,0.3c-1.3,1.6-2.7,2.9-4.5,3.8l0.6,1.1
			c0.1,0,0.1,0,0.2-0.1c2.1-1.1,3.7-2.7,5.1-4.6C643.7,64,643.7,63.8,643.4,63.4z"/>
	</g>
	<path class="st9" d="M637.9,71.3L637.9,71.3c-0.2,0.1-0.5,0-0.7-0.2L629.7,57c-0.1-0.2,0-0.5,0.2-0.7l0,0c0.2-0.1,0.5,0,0.7,0.2
		l7.5,14.1C638.3,70.9,638.2,71.2,637.9,71.3z"/>
	<g>
		<path class="st9" d="M634.5,62c0.1,0,0.1,0,0.2,0c1.1,0,2,0.9,1.9,2c0,0.4-0.2,0.8-0.4,1.2l0.6,1.2c0.6-0.6,1.1-1.4,1.1-2.3
			c0-1.8-1.5-3.2-3.2-3.2c-0.3,0-0.5,0-0.8,0.1L634.5,62z"/>
		<path class="st9" d="M635.4,65.8c-0.2,0.1-0.5,0.2-0.8,0.2c-1.1,0-2-0.9-2-2c0-0.7,0.4-1.2,0.9-1.6l-0.6-1.1
			c-0.9,0.6-1.5,1.6-1.5,2.7c0,1.8,1.4,3.2,3.2,3.3c0.5,0,0.9-0.1,1.3-0.3L635.4,65.8z"/>
	</g>
</g>
<g>
	<g>
		<path class="st9" d="M832.6,18.1c-1.9,0.7-3.7,0.4-5.5-0.6c-1.6-0.9-2.9-2.1-4-3.5c-0.2-0.2-0.2-0.4,0-0.6
			c1.2-1.4,2.5-2.6,4.1-3.5c0.3-0.1,0.5-0.3,0.8-0.4l-0.6-1.1c-2.4,1-4.2,2.8-5.8,4.8c-0.2,0.3-0.2,0.6,0,0.9
			c1.3,1.8,2.8,3.3,4.8,4.4c2.2,1.3,4.5,1.5,6.8,0.7L832.6,18.1z"/>
		<path class="st9" d="M839.2,13.2c-1.3-1.7-2.8-3.2-4.6-4.2c-1.3-0.8-2.8-1.2-4.7-1.2c-0.3,0.1-0.9,0.2-1.5,0.3l0.6,1.1
			c0.4-0.1,0.7-0.2,1-0.2c1.7,0,2.8,0.4,3.9,1c1.6,0.9,2.9,2.1,4,3.5c0.1,0.1,0.1,0.3,0,0.3c-1.3,1.6-2.7,2.9-4.5,3.8l0.6,1.1
			c0.1,0,0.1,0,0.2-0.1c2.1-1.1,3.7-2.7,5.1-4.6C839.6,13.8,839.5,13.6,839.2,13.2z"/>
	</g>
	<path class="st9" d="M833.8,21.1L833.8,21.1c-0.2,0.1-0.5,0-0.7-0.2l-7.5-14.1c-0.1-0.2,0-0.5,0.2-0.7v0c0.2-0.1,0.5,0,0.7,0.2
		l7.5,14.1C834.1,20.7,834,21,833.8,21.1z"/>
	<g>
		<path class="st9" d="M830.3,11.8c0.1,0,0.1,0,0.2,0c1.1,0,2,0.9,1.9,2c0,0.4-0.2,0.8-0.4,1.2l0.6,1.2c0.6-0.6,1.1-1.4,1.1-2.3
			c0-1.8-1.5-3.2-3.2-3.2c-0.3,0-0.5,0-0.8,0.1L830.3,11.8z"/>
		<path class="st9" d="M831.2,15.5c-0.2,0.1-0.5,0.2-0.8,0.2c-1.1,0-2-0.9-2-2c0-0.7,0.4-1.2,0.9-1.6l-0.6-1.1
			c-0.9,0.6-1.5,1.6-1.5,2.7c0,1.8,1.4,3.2,3.2,3.3c0.5,0,0.9-0.1,1.3-0.3L831.2,15.5z"/>
	</g>
</g>
<g>
	<path class="st9" d="M29,118.6c-0.3-1.2-0.8-2.1-1.5-3c-1.5-1.9-3.6-3-5.8-3c-0.7,0-1.5,0.2-2.2,0.3c-2.5,0.8-4.2,2.6-5.1,5.4
		c-0.3,0.8-0.1,1.8,0.5,2.5c0.5,0.7,1.3,1,2.2,1h0c1.1-0.1,2.1-0.1,3.2,0h6.1c0.9,0,1.6-0.4,2.1-1C29,120.2,29.1,119.5,29,118.6z
		 M27.6,120.1L27.6,120.1c-0.3,0.4-0.9,0.7-1.5,0.7h-9.4c-0.6,0-1.2-0.2-1.4-0.6c-0.3-0.6-0.3-1-0.2-1.5c0.6-2.2,2.2-3.9,4.2-4.6
		c0.7-0.3,1.5-0.4,2.2-0.4c1.1,0,2.2,0.3,3.2,0.9c1.4,0.8,2.4,2.2,3.1,4C28,119.1,27.9,119.7,27.6,120.1z"/>
	<path class="st9" d="M24.6,104.7c-0.8-0.8-1.9-1.2-3-1.2c-2.3,0-4.3,2-4.3,4.3c0,1.2,0.5,2.3,1.2,3c0.8,0.8,1.9,1.2,3,1.2
		c2.4,0,4.3-1.9,4.3-4.3C25.8,106.6,25.4,105.5,24.6,104.7z M24.8,107.9c0.1,0.7-0.3,1.5-0.9,2.2c-0.6,0.6-1.5,1-2.3,1
		c-1,0-1.8-0.3-2.3-1c-0.6-0.6-1-1.5-1-2.3c0-0.9,0.3-1.7,1-2.3c0.6-0.6,1.5-1,2.3-1C23.4,104.5,24.8,105.9,24.8,107.9z"/>
	<path class="st9" d="M33.6,118.5c-0.3-1.2-0.8-2.1-1.5-3c-1.5-1.8-3.6-2.9-5.8-2.9c-0.4,0-0.8,0-1.1,0.1l-0.4,0.1l0.3,0.2
		c0.3,0.2,0.7,0.5,0.9,0.5v0.1l0.2,0c1.2-0.1,2.4,0.2,3.5,0.9c1.4,0.8,2.4,2.2,3.1,4c0.1,0.6,0.1,1.1-0.2,1.5
		c-0.3,0.4-0.9,0.7-1.4,0.7h-2.1l-1,1H31c0.9,0,1.6-0.4,2.1-1C33.6,120.2,33.8,119.4,33.6,118.5z"/>
	<path class="st9" d="M29.2,104.7c-0.8-0.8-1.9-1.2-3-1.2c-0.6,0-1.2,0.1-1.7,0.4l-0.2,0.1l0.2,0.2c0.2,0.1,0.4,0.3,0.4,0.4v0.2
		l0.2-0.1c0.4-0.1,0.8-0.2,1.1-0.2c1.9,0,3.2,1.4,3.2,3.3c0.1,0.8-0.3,1.7-0.9,2.2c-0.7,0.7-1.5,1-2.3,1c-0.4,0-0.8-0.1-1.1-0.2
		l-0.1,0l-0.1,0c-0.2,0.1-0.5,0.4-0.6,0.6l-0.1,0.1l0.1,0.1c0.5,0.2,1,0.3,1.7,0.3c2.4,0,4.3-1.9,4.3-4.3
		C30.5,106.6,30,105.5,29.2,104.7z"/>
	<path class="st9" d="M18.2,112.7c-0.4-0.1-0.7-0.1-1.1-0.1c-2.1,0-4.2,1.1-5.8,2.9c-0.9,1.2-1.4,2.1-1.5,3c-0.2,0.8,0,1.6,0.5,2.3
		c0.5,0.7,1.2,1,2.1,1h3.1l-0.9-0.9h-2.1c-0.6,0-1.2-0.3-1.4-0.7c-0.3-0.5-0.4-1.1-0.3-1.6c0.6-1.9,1.7-3.2,3.1-4
		c1-0.6,2.1-0.9,3.5-0.9h0.2v-0.1c0.1-0.1,0.5-0.3,0.9-0.6l0.4-0.2L18.2,112.7z"/>
	<path class="st9" d="M18.3,110.8L18.3,110.8c-0.4,0.1-0.8,0.2-1.2,0.2c-1,0-1.8-0.3-2.3-1c-0.7-0.8-1-1.5-0.9-2.3
		c0-1.9,1.4-3.3,3.2-3.3c0.4,0,0.8,0.1,1.1,0.2l0.1,0l0.1-0.1c0.1-0.1,0.5-0.5,0.5-0.5L19,104l-0.2-0.1c-0.5-0.3-1.2-0.4-1.7-0.4
		c-1.2,0-2.2,0.4-3,1.2c-0.8,0.8-1.3,1.9-1.3,3c0,2.4,2,4.3,4.4,4.3c0.6,0,1.2-0.1,1.7-0.3l0.2-0.1L18.3,110.8z"/>
</g>
<g>
	<path class="st9" d="M56.8,123.1c5.8-1.4,9.6-7.1,8.7-13.1c-0.5-3.6-2.7-6.8-5.9-8.5c-3.2-1.8-6.9-2-10.3-0.6
		c-1.9,0.8-3.5,2-4.7,3.6c-0.1,0.2-0.2,0.4-0.2,0.6c0,0.2,0.1,0.3,0.3,0.4c0.1,0.1,0.4,0.3,0.9-0.3c2.7-3.3,6.2-4.5,10.4-3.8
		c5,0.9,8.4,5.4,8.4,10.8c0,2.3-0.9,4.5-2.6,6.4c-2.9,3.4-7.9,4.6-12,2.9c-1.7-0.7-3.2-1.8-4.3-3.3c-0.1-0.2-0.3-0.3-0.5-0.3
		c0,0,0,0-0.1,0c-0.1,0-0.2,0-0.4,0.1c-0.3,0.2-0.3,0.6,0,0.9C47.9,122.8,52,124.2,56.8,123.1z"/>
	<path class="st9" d="M53.4,115.3c1.2-1.2,2.2-2.2,3.1-3.1c0.3-0.3,0.3-0.6,0-1c-0.9-0.9-1.9-1.9-3-3c-0.2-0.2-0.4-0.3-0.5-0.3
		c-0.2,0-0.3,0.1-0.4,0.2c-0.2,0.3-0.2,0.6,0.1,0.9c0.4,0.4,0.7,0.7,1.1,1.1l0.9,0.9h-1.2l-9.5,0c-0.4,0-0.8,0-1.2,0
		c-0.3,0-0.5,0.2-0.6,0.5c0,0.3,0.2,0.6,0.5,0.6c0.1,0,0.3,0,0.4,0l10.4,0c0.1,0,0.2,0,0.3,0l0.8,0l-0.9,0.9
		c-0.4,0.4-0.8,0.8-1.2,1.2c-0.3,0.3-0.3,0.6,0,0.9C52.7,115.5,53.1,115.5,53.4,115.3z"/>
</g>
</svg>
