<?xml version="1.0" encoding="utf-8"?>
<!-- Generator: Adobe Illustrator 21.0.0, SVG Export Plug-In . SVG Version: 6.00 Build 0)  -->
<svg version="1.1" id="Layer_1" xmlns="http://www.w3.org/2000/svg" xmlns:xlink="http://www.w3.org/1999/xlink" x="0px" y="0px"
	 viewBox="0 0 30 30" style="enable-background:new 0 0 30 30;" xml:space="preserve">
<style type="text/css">
	.st0{fill:#232269;}
	.st1{stroke:#000000;stroke-width:0.3128;stroke-miterlimit:10;}
	.st2{fill:none;stroke:#224099;stroke-width:0.5999;stroke-linecap:round;stroke-linejoin:round;stroke-miterlimit:10;}
	.st3{fill:#224099;}
	.st4{fill:#FFCD00;}
	.st5{fill:#666666;}
	.st6{fill:none;stroke:#666666;stroke-width:0.9998;stroke-linecap:round;stroke-linejoin:round;stroke-miterlimit:10;}
	.st7{fill:none;stroke:#666666;stroke-width:1.0053;stroke-miterlimit:10;}
	.st8{fill:none;stroke:#224099;stroke-width:0.9998;stroke-linecap:round;stroke-linejoin:round;stroke-miterlimit:10;}
	.st9{fill:none;stroke:#224099;stroke-width:1.0053;stroke-miterlimit:10;}
	.st10{fill:none;stroke:#000000;stroke-width:0.7031;stroke-miterlimit:10;}
	.st11{stroke:#000000;stroke-width:1.0083;stroke-miterlimit:10;}
	.st12{fill:#F8F8F8;}
	.st13{fill:#FFFFFF;}
	.st14{fill:#FFD300;}
	.st15{fill:#4E5FCC;}
	.st16{fill:none;stroke:#224099;stroke-width:1.0056;stroke-linecap:round;stroke-linejoin:round;stroke-miterlimit:10;}
	.st17{fill:none;stroke:#224099;stroke-width:1.006;stroke-miterlimit:10;}
	.st18{fill:#224099;stroke:#224099;stroke-width:0.75;stroke-miterlimit:10;}
	.st19{fill:none;stroke:#224099;stroke-width:2;stroke-miterlimit:10;}
	.st20{fill:none;stroke:#224099;stroke-linecap:round;stroke-miterlimit:10;}
	.st21{fill:none;stroke:#224099;stroke-width:2.1495;stroke-linecap:round;stroke-linejoin:round;stroke-miterlimit:10;}
	.st22{fill:none;stroke:#224099;stroke-width:2;stroke-linecap:round;stroke-linejoin:round;stroke-miterlimit:10;}
	.st23{fill:none;stroke:#224099;stroke-width:0.8;stroke-linejoin:round;stroke-miterlimit:10;}
	.st24{fill:none;stroke:#224099;stroke-width:1.6517;stroke-linecap:round;stroke-linejoin:round;stroke-miterlimit:10;}
	.st25{fill:#0E1744;}
	.st26{fill:none;stroke:#224099;stroke-width:1.3943;stroke-linecap:round;stroke-linejoin:round;stroke-miterlimit:10;}
	.st27{fill:none;stroke:#000000;stroke-linejoin:round;stroke-miterlimit:10;}
	.st28{stroke:#000000;stroke-width:0.1565;stroke-miterlimit:10;}
	.st29{stroke:#000000;stroke-width:0.1904;stroke-miterlimit:10;}
	.st30{stroke:#000000;stroke-width:0.1359;stroke-miterlimit:10;}
	.st31{stroke:#000000;stroke-width:0.1684;stroke-miterlimit:10;}
	.st32{fill:#D2D2D2;}
	.st33{fill:#555555;}
	.st34{fill:none;stroke:#555555;stroke-width:1.0053;stroke-miterlimit:10;}
	.st35{fill:none;stroke:#555555;stroke-width:0.8016;stroke-miterlimit:10;}
	.st36{fill:none;stroke:#555555;stroke-width:0.7207;stroke-miterlimit:10;}
	.st37{fill:none;stroke:#224099;stroke-width:0.8378;stroke-miterlimit:10;}
	.st38{fill:#8599C1;}
	.st39{fill:none;stroke:#4E5FCC;stroke-miterlimit:10;}
</style>
<path class="st33" d="M23.9,13.9c0.1,0.2,0.3,0.3,0.4,0.4c0.2,0.2,0.3,0.3,0.4,0.2c0.1,0,0.1,0,0.2-0.1c0.2-0.2,0.1-0.4-0.1-0.6
	L22.9,12c-2.1-2.1-4.3-4.3-6.4-6.4c-0.9-0.9-2.3-0.9-3.2,0c-0.7,0.7-1.4,1.4-2.1,2.1L9.1,9.9c-1.3,1.3-2.6,2.6-3.9,3.9
	C5.1,14,5,14.1,5,14.2c0,0.1,0,0.1,0.1,0.2c0.1,0.1,0.3,0.2,0.6-0.1C5.8,14.2,6,14,6.1,13.9l0.3-0.3l0.3,0.2l0,2.9
	c0,1.8,0,3.6,0,5.4c0,1.7,1.3,3,3,3h10.4c0.6,0,1.2-0.1,1.6-0.5c1-0.6,1.5-1.6,1.5-2.8c0-1.8,0-3.5,0-5.3l0-2.7l0.3-0.1L23.9,13.9z
	 M17.6,21.8l0,2.1c0,0,0,0.1,0,0.1l0,0.2h-5.1l0-0.3c0-0.1,0-0.2,0-0.3c0-1.7,0-3.3,0-5c0-0.6,0.2-0.8,0.8-0.8c0.5,0,1,0,1.5,0
	c0.7,0,1.5,0,2.2,0c0.3,0,0.4,0.1,0.6,0.2c0.1,0.1,0.2,0.3,0.2,0.5C17.6,19.7,17.6,20.8,17.6,21.8z M22.5,21.9c0,1.4-1,2.4-2.4,2.4
	c-0.4,0-0.7,0-1.1,0l-0.7,0v-0.2c0-0.5,0-1.1,0-1.6c0-1.3,0-2.5,0-3.7c0-0.5-0.1-0.9-0.4-1.2c-0.3-0.3-0.7-0.4-1.2-0.4
	c-0.8,0-1.7,0-2.5,0c-0.4,0-0.8,0-1.1,0c-1,0-1.4,0.5-1.4,1.4c0,1.3,0,2.5,0,3.8l0,1.8l-0.2,0c-0.2,0-0.5,0-0.7,0
	c-0.2,0-0.4,0-0.6,0c-0.4,0-0.9,0-1.3-0.2C7.9,23.8,7.4,23,7.4,22c0-3,0-6,0-9.1c0-0.2,0.1-0.4,0.2-0.6c2-2,4.1-4.1,6.1-6.1
	c0.7-0.7,1.6-0.7,2.3,0c2.1,2.1,4.2,4.2,6.2,6.2c0.1,0.1,0.2,0.4,0.2,0.6C22.6,15.7,22.6,18.8,22.5,21.9z"/>
</svg>
