<?xml version="1.0" encoding="utf-8"?>
<!-- Generator: Adobe Illustrator 21.0.0, SVG Export Plug-In . SVG Version: 6.00 Build 0)  -->
<svg version="1.1" id="Layer_1" xmlns="http://www.w3.org/2000/svg" xmlns:xlink="http://www.w3.org/1999/xlink" x="0px" y="0px"
	 viewBox="0 0 21 21" style="enable-background:new 0 0 21 21;" xml:space="preserve">
<style type="text/css">
	.st0{fill:#475099;stroke:#475099;stroke-width:0.3128;stroke-miterlimit:10;}
</style>
<g>
	<path class="st0" d="M18.2,17.2c0.7,0.7,1.3,1.3,2,2c0.4,0.4,0.4,0.8,0.1,1.2c-0.3,0.3-0.7,0.2-1.1-0.1c-0.6-0.6-3.6-3.6-3.6-3.6
		C11.3,20.2,5.3,19,2.5,15.3c-3-3.8-2.6-9.1,1-12.4c3.4-3.2,8.9-3.2,12.4,0c3.3,3,4.2,8.6,0.8,12.6c0,0,0,0,0,0
		C16.6,15.5,18,17,18.2,17.2z M9.7,17.8c4.5,0,8.2-3.7,8.2-8.1c0-4.6-3.6-8.2-8.2-8.2c-4.5,0-8.1,3.7-8.2,7.9
		C1.4,14.2,5.3,17.8,9.7,17.8z"/>
	<path class="st0" d="M9.8,3c3.3,0.1,6,2.5,6.5,5.8c0,0.2,0,0.5,0.1,0.8c0,0.3-0.2,0.6-0.5,0.6c-0.3,0-0.5-0.2-0.5-0.5
		c-0.1-0.5-0.1-1.1-0.3-1.6c-0.7-2.4-2.8-4-5.3-4c-0.3,0-0.6-0.1-0.6-0.4C9.1,3.2,9.4,2.9,9.8,3z"/>
</g>
</svg>
