<?xml version="1.0" encoding="utf-8"?>
<!-- Generator: Adobe Illustrator 21.0.0, SVG Export Plug-In . SVG Version: 6.00 Build 0)  -->
<svg version="1.1" id="Layer_1" xmlns="http://www.w3.org/2000/svg" xmlns:xlink="http://www.w3.org/1999/xlink" x="0px" y="0px"
	 viewBox="0 0 22 22" style="enable-background:new 0 0 22 22;" xml:space="preserve">
<style type="text/css">
	.st0{fill:#FFFFFF;stroke:#231F20;stroke-miterlimit:10;}
	.st1{fill:#0E1744;}
	.st2{fill:#E6E7E8;}
	.st3{fill:#224099;}
	.st4{fill:#555555;}
	.st5{fill:#C81313;}
	.st6{fill:none;stroke:#C81313;stroke-miterlimit:10;}
	.st7{fill:none;stroke:#555555;stroke-linecap:round;stroke-miterlimit:10;}
	.st8{fill:#FFCD00;}
	.st9{fill:none;stroke:#224099;stroke-width:0.8378;stroke-miterlimit:10;}
	.st10{fill:none;stroke:#555555;stroke-width:0.7207;stroke-miterlimit:10;}
	.st11{fill:none;stroke:#555555;stroke-width:0.8016;stroke-miterlimit:10;}
	.st12{fill:#8599C1;}
	.st13{fill:none;stroke:#FFCD00;stroke-linecap:round;stroke-miterlimit:10;}
	.st14{fill:none;stroke:#FFCD00;stroke-linecap:round;stroke-miterlimit:10;stroke-dasharray:4.05,4.05,4.05,4.05;}
	.st15{fill:#D6D6D6;}
	.st16{fill:#BCBCBC;}
	.st17{fill:#FEFEFE;}
	.st18{fill:#131313;}
	.st19{fill:#111111;}
	.st20{fill:#FFFFFF;}
	.st21{fill:none;stroke:#0E1744;stroke-width:0.6403;stroke-linecap:round;stroke-linejoin:round;stroke-miterlimit:10;}
</style>
<g>
	<path class="st4" d="M2.5,11.7L3.2,11l0,0.7c0,0.1,0,0.2,0,0.3c0,0.1,0,0.2,0.1,0.4l0,0.2c0.5,2.2,1.6,3.9,3.5,5.1
		c3,1.9,6.8,1.5,9.4-1c0.2-0.2,0.3-0.5,0.2-0.8c-0.1-0.2-0.2-0.3-0.4-0.4c-0.2-0.1-0.5,0-0.6,0.2c-1.3,1.2-2.7,1.9-4.4,1.9
		c0,0,0,0,0,0c-2.8,0-4.8-1.3-6-3.8c-0.3-0.7-0.5-1.4-0.6-2.5l0-0.6L5,11c0.1,0.1,0.1,0.1,0.2,0.2c0.2,0.2,0.3,0.4,0.5,0.5
		c0.2,0.2,0.3,0.4,0.5,0.6c0.3,0.3,0.5,0.4,0.7,0.3c0.3-0.1,0.4-0.2,0.5-0.4c0.1-0.2,0-0.5-0.2-0.7c-0.9-0.9-1.7-1.9-2.6-2.8
		C4.4,8.5,4.2,8.4,4.1,8.4c0,0,0,0,0,0c-0.2,0-0.3,0.1-0.4,0.2c-0.9,1-1.9,2-2.8,3c-0.1,0.1-0.2,0.3-0.2,0.5c0,0.2,0.1,0.3,0.2,0.4
		c0.3,0.2,0.6,0.2,0.9-0.1C2,12.1,2.3,11.9,2.5,11.7z"/>
	<path class="st4" d="M17.4,13.3c0.2,0.2,0.4,0.3,0.5,0.3h0c0.2,0,0.4-0.1,0.5-0.3c0.9-0.9,1.8-1.9,2.7-2.8c0.3-0.3,0.3-0.7,0.1-0.9
		c-0.4-0.4-0.8-0.1-1,0.1c-0.2,0.2-0.4,0.5-0.7,0.7L18.9,11l-0.2-0.5c0-0.1,0-0.1,0-0.2c0-0.2-0.1-0.3-0.1-0.5
		c0-0.3-0.1-0.6-0.2-0.9c-0.6-2.1-1.9-3.8-3.8-4.7c-1.9-1-4.1-1.2-6.1-0.5C7.4,4,6.4,4.7,5.6,5.5C5.4,5.7,5.3,5.9,5.4,6.1
		c0,0.2,0.2,0.3,0.4,0.4C6,6.7,6.2,6.7,6.6,6.3c1.5-1.4,3.2-2,5.3-1.7c2.7,0.3,5.1,2.5,5.5,5.2c0,0.2,0.1,0.4,0.1,0.6l0.1,0.5
		L17.2,11L17,11l-0.1-0.1c-0.1-0.1-0.2-0.1-0.2-0.2c-0.1-0.1-0.3-0.3-0.4-0.4c-0.2-0.2-0.4-0.4-0.6-0.6c-0.2-0.2-0.3-0.2-0.5-0.2
		c-0.1,0-0.3,0.1-0.4,0.2c-0.3,0.3-0.3,0.6,0,0.9C15.7,11.6,16.6,12.5,17.4,13.3z"/>
</g>
</svg>
