<?xml version="1.0" encoding="utf-8"?>
<!-- Generator: Adobe Illustrator 21.0.0, SVG Export Plug-In . SVG Version: 6.00 Build 0)  -->
<svg version="1.1" id="Layer_1" xmlns="http://www.w3.org/2000/svg" xmlns:xlink="http://www.w3.org/1999/xlink" x="0px" y="0px"
	 viewBox="0 0 30 30" style="enable-background:new 0 0 30 30;" xml:space="preserve">
<style type="text/css">
	.st0{fill:#FFFFFF;}
	.st1{fill:#224099;}
	.st2{fill:none;stroke:#224099;stroke-width:0.974;stroke-linecap:round;stroke-miterlimit:10;}
</style>
<g>
	<circle class="st0" cx="15" cy="15" r="12.1"/>
	<g>
		<path class="st1" d="M10.7,19.6c0,0.2,0.1,0.4,0.2,0.5c0.1,0.1,0.3,0.1,0.5,0.1c0,0,1.3-0.3,1.7-0.5c0.2-0.1,0.5-0.2,0.6-0.4
			c0.5-0.6,4.5-5.5,5.3-6.4c0.6-0.8,0.6-1.8-0.2-2.5c-0.3-0.3-0.7-0.5-1.1-0.5c-0.6,0-1,0.3-1.3,0.7c-0.6,0.8-3.9,4.7-4.9,5.9
			C10.8,17.2,10.6,17.8,10.7,19.6z M16.5,11.5c0.1-0.1,0.7-1.2,1.3-1c0.5,0.1,0.8,0.3,1,0.9C19,12,18,12.9,18,12.9L16.5,11.5
			L16.5,11.5z M12.1,16.9c0.9-1,3.4-4.2,3.8-4.7l0.1-0.1l1.5,1.3c0,0-3.4,4.2-3.8,4.8c-0.5,0.8-1.3,0.9-2.1,1h-0.1v-0.1
			C11.4,18.4,11.4,17.6,12.1,16.9z"/>
		<line class="st2" x1="11.3" y1="19.9" x2="17.1" y2="19.9"/>
	</g>
</g>
</svg>
