<?xml version="1.0" encoding="utf-8"?>
<!-- Generator: Adobe Illustrator 21.0.0, SVG Export Plug-In . SVG Version: 6.00 Build 0)  -->
<svg version="1.1" id="Layer_1" xmlns="http://www.w3.org/2000/svg" xmlns:xlink="http://www.w3.org/1999/xlink" x="0px" y="0px"
	 viewBox="0 0 18 17.9" style="enable-background:new 0 0 18 17.9;" xml:space="preserve">
<style type="text/css">
	.st0{fill:#FFFFFF;}
</style>
<g>
	<path class="st0" d="M17.6,4.5c-0.2,0-0.3,0-0.5,0c-4,0-8.1,0-12.1,0c-0.3,0-0.4-0.1-0.5-0.4c0-0.3-0.1-0.7-0.2-1
		C3.9,1.2,2.4,0.1,0.5,0C0.2,0,0.1,0.1,0,0.4C0,0.7,0.1,0.9,0.3,0.9C0.5,1,0.6,1,0.8,1.1c1.4,0.2,2.3,1,2.5,2.4
		c0.4,2.1,0.9,4.2,1.2,6.2c0.4,2,2,3.1,3.7,3.1c0.8,0,1.6,0,2.5,0v0c0.9,0,1.8,0,2.7,0c1.6,0,2.9-1,3.3-2.5c0.5-1.7,0.8-3.5,1.2-5.2
		C18.1,4.8,17.9,4.5,17.6,4.5z M16.4,7.5c-0.2,0.7-0.3,1.4-0.5,2.2c-0.3,1.2-1.1,2-2.4,2.1c-1.8,0-3.6,0-5.5,0
		C6.8,11.7,6,11,5.7,9.8C5.3,8.4,5.1,7,4.8,5.5h12.1C16.7,6.2,16.5,6.8,16.4,7.5z"/>
	<path class="st0" d="M6.7,17.9c-1.2,0-2.2-1-2.1-2.3c0-1.2,1.1-2.1,2.3-2.1c1.2,0,2.2,1,2.1,2.2C8.9,17,7.9,18,6.7,17.9 M6.7,14.6
		c-0.6,0-1.2,0.5-1.2,1.2c0,0.7,0.5,1.2,1.2,1.2c0.6,0,1.2-0.5,1.2-1.2C7.9,15.1,7.4,14.6,6.7,14.6"/>
	<path class="st0" d="M13.9,13.6c1.2,0,2.2,1,2.1,2.3c0,1.2-1.1,2.2-2.3,2.1c-1.2,0-2.2-1.1-2.1-2.2C11.7,14.5,12.7,13.5,13.9,13.6
		 M15,15.7c0-0.6-0.5-1.2-1.2-1.2c-0.6,0-1.2,0.6-1.2,1.2c0,0.6,0.5,1.2,1.2,1.2C14.5,16.9,15,16.4,15,15.7"/>
</g>
</svg>
