<?xml version="1.0" encoding="utf-8"?>
<!-- Generator: Adobe Illustrator 21.0.0, SVG Export Plug-In . SVG Version: 6.00 Build 0)  -->
<svg version="1.1" id="Layer_1" xmlns="http://www.w3.org/2000/svg" xmlns:xlink="http://www.w3.org/1999/xlink" x="0px" y="0px"
	 viewBox="0 0 32 32" style="enable-background:new 0 0 32 32;" xml:space="preserve">
<style type="text/css">
	.st0{fill:#555555;}
</style>
<g>
	<path class="st0" d="M30.3,28.5c-0.9,0-0.6,0-1.6,0c-0.3,0-0.4-0.1-0.4-0.4c0-3.6,0-8.5,0-12.1c0-1.5-1-2.5-2.5-2.5
		c-1.1,0-1,0-2.1,0c-0.3,0-0.3-0.1-0.3-0.3c0-1.4,0-4,0-5.4c0-0.5-0.2-0.7-0.7-0.7c-0.6,0-1.2,0-1.7,0c-0.6,0-0.8,0.2-0.8,0.8
		c0,1.4,0,4,0,5.3c0,0.3-0.1,0.4-0.4,0.4c-0.7,0-1.5,0-2.2,0c-0.3,0-0.4-0.1-0.4-0.4c0-1.4,0-3.9,0-5.3c0-0.6-0.2-0.8-0.8-0.8
		c-0.5,0-1.1,0-1.6,0c-0.6,0-0.8,0.2-0.8,0.8c0,1.4,0,4,0,5.4c0,0.2-0.1,0.3-0.3,0.3c-0.8,0-1.6,0-2.4,0c-0.3,0-0.3-0.1-0.3-0.3
		c0-1.4,0-4,0-5.4c0-0.5-0.2-0.7-0.7-0.7c-0.6,0-1.2,0-1.7,0c-0.6,0-0.8,0.2-0.8,0.8c0,1.4,0,4,0,5.4c0,0.2-0.1,0.3-0.3,0.3
		c-0.9,0-0.6,0-1.5,0c-1.5,0-2.5,1-2.5,2.5c0,1.2,0,10.7,0,12c0,0.3-0.1,0.4-0.4,0.4c-0.9,0-0.5,0-1.3,0c-0.3,0-0.5,0-0.7,0.2
		c0,0.2,0,0.5,0,0.7c0.2,0.2,0.4,0.3,0.7,0.3c10.2,0,16.8,0,27,0c1,0,0.7,0,1.7,0c0.3,0,0.5-0.1,0.6-0.4
		C31.1,28.7,30.9,28.5,30.3,28.5z M21.6,8.3c0.1,0,0.1,0,0.2,0c0.3,0,0.3,0.1,0.3,0.3c0,0.6,0,2.4,0,2.9c0,0.6,0,1.2,0,1.7
		c0,0.2,0,0.3-0.3,0.3c-0.6,0-0.6,0-0.6-0.6c0-1.1,0-3.4,0-4.4C21.3,8.3,21.4,8.2,21.6,8.3z M15.4,8.3c0.6,0,0.6,0,0.6,0.6
		c0,1.1,0,3.4,0,4.4c0,0.2,0,0.3-0.3,0.3c-0.1,0-0.2,0-0.3,0c-0.2,0-0.3-0.1-0.3-0.3c0-0.6,0-1.2,0-1.8c0,0,0,0,0,0
		c0-0.6,0-2.4,0-2.9C15.1,8.3,15.1,8.3,15.4,8.3z M9.1,8.3c0.6,0,0.6,0,0.6,0.6c0,0.5,0,2.2,0,2.7h0c0,0.6,0,1.2,0,1.7
		c0,0.2-0.1,0.3-0.3,0.3c-0.6,0-0.6,0-0.6-0.6c0-1.1,0-3.4,0-4.5C8.8,8.3,8.9,8.3,9.1,8.3z M27.1,28.1c0,0.3-0.1,0.3-0.3,0.3
		c-8.2,0-13.8,0-21.9,0c-0.2,0-0.3,0-0.3-0.3c0-2.8,0-6.9,0-9.7c0,0,0-0.1,0-0.2c0.2,0.2,0.3,0.4,0.5,0.6c0.9,1,0.9,1,1.8,0
		c0.2-0.2,0.4-0.4,0.5-0.6c0.4-0.4,0.8-0.4,1.2,0C8.8,18.5,9,18.8,9.2,19c0.8,0.8,2,0.8,2.8,0c0.2-0.2,0.4-0.5,0.6-0.7
		c0.4-0.4,0.8-0.4,1.2,0c0.2,0.2,0.4,0.4,0.6,0.6c0.8,0.9,2.1,0.9,2.9,0c0.2-0.2,0.3-0.4,0.5-0.6c0.4-0.5,0.9-0.5,1.3,0
		c0.2,0.2,0.3,0.4,0.5,0.5c0.9,0.9,2.1,0.9,3,0c0.2-0.2,0.4-0.5,0.6-0.7c0.3-0.3,0.7-0.3,1.1,0c0.2,0.2,0.4,0.4,0.6,0.7
		c0.9,1,0.9,0.9,1.8,0c0.2-0.2,0.3-0.3,0.4-0.5c0.1,0.1,0.1,0.2,0.1,0.3C27.1,21.4,27.1,25.4,27.1,28.1z M26.6,17.2
		c-0.3,0.1-0.5,0.5-0.8,0.8c-0.5,0.6,0.3,0.6-0.2,0c-0.1-0.2-0.3-0.3-0.4-0.5c-0.9-0.9-2.1-0.9-3,0c-0.2,0.2-0.3,0.4-0.5,0.6
		c-0.4,0.5-0.9,0.5-1.3,0c-0.2-0.2-0.3-0.4-0.5-0.5c-0.8-0.9-2.1-0.9-3,0c-0.2,0.2-0.4,0.5-0.6,0.7c-0.3,0.3-0.8,0.3-1.1,0
		c-0.2-0.2-0.4-0.4-0.6-0.6c-0.9-1-2.2-0.9-3,0c-0.1,0.2-0.3,0.3-0.4,0.5c-0.5,0.6-0.9,0.6-1.4,0c-0.1-0.2-0.3-0.3-0.4-0.5
		c-0.9-1-2.1-1-3,0c-0.2,0.2-0.3,0.4-0.5,0.6c-0.4,0.4,0.4,0.4,0,0c-0.3-0.3-0.6-0.7-1-1C4.9,17,4.6,17,4.6,16.9
		c0-0.4-0.1-0.9,0-1.3c0.1-0.5,0.6-0.8,1.2-0.8c3.8,0,6.3,0,10.1,0c3.7,0,6.2,0,9.9,0c0.9,0,1.4,0.4,1.4,1.3c0,0,0,0,0,0
		C27.2,16.6,27.1,17,26.6,17.2z"/>
	<path class="st0" d="M23.2,3.6c-0.3-0.3-0.7-0.7-1-1c-0.3-0.3-0.6-0.3-1,0c-0.3,0.3-0.6,0.6-0.9,0.9c-0.4,0.4-0.5,0.8-0.5,1.4
		c0,0.9,0.6,1.6,1.4,1.9C22,7,22.9,6.7,23.4,5.9C23.9,5.2,23.8,4.2,23.2,3.6z M22.4,5.2c-0.2,0.3-0.4,0.4-0.7,0.4
		c-0.3,0-0.6-0.2-0.7-0.4c-0.1-0.3-0.1-0.5,0-0.8c0.2-0.2,0.4-0.6,0.6-0.6c0.2,0,0.5,0.4,0.6,0.6C22.6,4.7,22.6,5,22.4,5.2z"/>
	<path class="st0" d="M17,3.6c-0.3-0.4-0.7-0.7-1.1-1.1c-0.3-0.3-0.6-0.3-0.8,0c-0.4,0.3-0.7,0.7-1.1,1.1c-0.5,0.6-0.6,1.3-0.3,2.1
		c0.3,0.8,1,1.1,1.8,1.2c0.8,0,1.5-0.4,1.8-1.1C17.6,5,17.5,4.2,17,3.6z M15.5,5.6c-0.4,0-0.8-0.4-0.8-0.9c0-0.4,0.4-0.6,0.7-0.9
		c0,0,0.1,0,0.1,0c0.2,0.1,0.7,0.8,0.7,1C16.3,5.3,15.9,5.7,15.5,5.6z"/>
	<path class="st0" d="M10.7,3.6c-0.3-0.4-0.7-0.7-1-1c-0.3-0.3-0.6-0.3-0.9,0c-0.4,0.3-0.7,0.7-1,1C7.2,4.2,7.1,5.2,7.6,5.9
		C8.1,6.7,9,7,9.8,6.8c0.8-0.2,1.4-1,1.4-2C11.2,4.4,11,3.9,10.7,3.6z M9.5,5.6c-0.3,0.1-0.7,0-0.9-0.3c-0.2-0.3-0.2-0.7,0-0.9
		C8.8,4.2,9,4.1,9.1,3.9c0,0,0.1-0.1,0.1-0.1C9.5,3.9,10,4.6,10,4.9C10,5.2,9.8,5.5,9.5,5.6z"/>
</g>
</svg>
