<?xml version="1.0" encoding="utf-8"?>
<!-- Generator: Adobe Illustrator 21.0.0, SVG Export Plug-In . SVG Version: 6.00 Build 0)  -->
<svg version="1.1" id="Layer_1" xmlns="http://www.w3.org/2000/svg" xmlns:xlink="http://www.w3.org/1999/xlink" x="0px" y="0px"
	 viewBox="0 0 30 27.8" style="enable-background:new 0 0 30 27.8;" xml:space="preserve">
<style type="text/css">
	.st0{fill:#FFCD00;}
	.st1{fill:#224099;}
</style>
<g>
	<path class="st0" d="M8.3,11.8c0-0.9,0.5-1.4,1.4-1.4c0,0,11.1,0,12.5,0c0.8,0,1.3,0.5,1.3,1.3c0,1.5,0,9.3,0,10.8
		c0,0.9-0.5,1.4-1.4,1.4H9.7c-0.9,0-1.4-0.5-1.4-1.4C8.3,21,8.3,13.3,8.3,11.8z"/>
	<path class="st1" d="M10.3,17.5c0.7,0.8,1.3,1.5,2,2.3c0.1,0.1,0.3,0.2,0.4,0.2c0.1,0,0.3-0.1,0.4-0.2c0.2-0.2,6.3-5.9,6.5-6.2
		c0.2-0.2,0.2-0.7,0-0.9c-0.2-0.2-0.7-0.2-0.9,0l-6.1,5.7c0,0-1.3-1.5-1.5-1.8c-0.2-0.2-0.6-0.3-0.9-0.1
		C9.9,16.7,10.1,17.2,10.3,17.5z"/>
	<path class="st1" d="M6.4,11c0,3.5,0,7.1,0,10.5c0,0.2,0,0.4,0.1,0.7c0.2,1.1,1.2,1.7,2.3,1.7c2.4,0,11.8,0,12.5,0
		c1.3,0,2.3-1,2.3-2.3c0-3.6,0-7.3,0-10.9c0-1.2-0.9-2.2-2.1-2.2c-0.5,0-3,0-3,0l0.3-0.2c1.1-0.8,1.2-1.8,1-2.7
		c-0.3-1-1.2-1.6-2.2-1.6l0,0c-1.2,0-1.8,0.5-2.4,2.4L15,7l-0.2-0.7c-0.5-1.7-1.2-2.4-2.5-2.4c-0.9,0-1.7,0.6-2,1.4
		c-0.3,0.9-0.2,2,0.9,2.9l0.2,0.2c0,0-2.2,0-2.6,0C7.4,8.6,6.4,9.5,6.4,11z M16.2,5.8c0.1-0.7,0.7-1,1.3-1l0,0
		c0.7,0,1.2,0.4,1.4,1.1c0.1,0.6-0.3,1.4-0.7,1.5c-0.5,0.2-2.5,1-2.5,1S16.1,6.4,16.2,5.8z M11,6.1c0.1-0.7,0.5-1.1,1.1-1.3
		c1-0.3,1.7,0.5,1.8,1.1c0.1,0.6,0.3,2.6,0.3,2.6s-1.9-0.5-2.7-1.1C11,7.1,10.9,6.5,11,6.1z M7.4,11c0-0.9,0.5-1.4,1.4-1.4h2.1
		c3.3,0,9,0,10.4,0c0.8,0,1.3,0.5,1.3,1.3c0,1.5,0,9.3,0,10.8c0,0.9-0.5,1.4-1.4,1.4H8.8c-0.9-0.1-1.4-0.7-1.4-1.5
		C7.4,20,7.4,12.4,7.4,11z"/>
</g>
</svg>
