<?xml version="1.0" encoding="utf-8"?>
<!-- Generator: Adobe Illustrator 21.0.0, SVG Export Plug-In . SVG Version: 6.00 Build 0)  -->
<svg version="1.1" id="Layer_1" xmlns="http://www.w3.org/2000/svg" xmlns:xlink="http://www.w3.org/1999/xlink" x="0px" y="0px"
	 viewBox="0 0 24 24" style="enable-background:new 0 0 24 24;" xml:space="preserve">
<style type="text/css">
	.st0{fill:#475099;}
</style>
<g>
	<path class="st0" d="M17.1,20.7c-0.1-0.7-0.1-1.3-0.2-1.9c-0.2-2.1-0.5-4.1-0.7-6.2c0-0.1,0-0.1,0-0.2c0-0.3,0.2-0.5,0.4-0.6
		c0.3,0,0.5,0.1,0.6,0.4c0.1,0.6,0.1,1.2,0.2,1.8c0.1,1.1,0.3,2.2,0.4,3.3c0.1,1.1,0.2,2.2,0.4,3.3c1.4-0.8,2.7-1.6,4.1-2.5
		c-0.8-3-1.6-5.9-2.5-8.9c-0.5,0.3-1,0.6-1.5,0.9c-0.2,0.1-0.3,0.2-0.5,0.3c-0.3,0.1-0.5,0-0.6-0.2c-0.1-0.2-0.1-0.5,0.2-0.6
		c1-0.6,2.1-1.3,3.2-1.9c1,3.7,2,7.3,3,11c-0.1,0.1-0.2,0.1-0.2,0.1c-1.7,1-3.5,2.1-5.2,3.1c-0.2,0.1-0.3,0.1-0.5,0.1
		c-1.8-0.6-3.7-1.2-5.5-1.8c-0.1,0-0.2,0-0.3,0c-1.8,0.6-3.7,1.2-5.5,1.8c-0.1,0-0.3,0-0.4,0c-1.8-1-3.5-2.1-5.3-3.2
		c-0.2-0.1-0.2-0.2-0.2-0.4c1-3.5,2-7,2.9-10.5c0-0.1,0-0.1,0.1-0.2c0,0,0.1,0,0.1,0c1,0.6,2,1.2,3.1,1.8C6.8,9.6,7,9.8,6.9,10.1
		c-0.1,0.2-0.3,0.3-0.4,0.4c-0.1,0-0.3,0-0.5-0.1C5.4,10,4.9,9.7,4.4,9.4c-0.1,0-0.1-0.1-0.3-0.1c-0.2,0.8-0.4,1.5-0.6,2.2
		c-0.6,2.1-1.2,4.3-1.8,6.4c0,0.2-0.1,0.3,0.1,0.4c1.3,0.8,2.6,1.6,3.9,2.3c0,0,0.1,0,0.2,0.1c0.1-0.7,0.2-1.4,0.2-2.1
		c0.2-1.9,0.4-3.9,0.7-5.8c0-0.2,0-0.3,0.1-0.5c0.1-0.3,0.3-0.5,0.6-0.5c0.3,0,0.5,0.3,0.4,0.6c-0.1,0.6-0.1,1.3-0.2,1.9
		c-0.2,2-0.5,4.1-0.7,6.1c0,0.1,0,0.2,0,0.3c0.2-0.1,0.4-0.1,0.6-0.2c1.3-0.4,2.5-0.8,3.8-1.2c0.2-0.1,0.3-0.2,0.3-0.4
		c0-0.5,0-0.9,0-1.4c0-0.4,0.2-0.6,0.5-0.6c0.3,0,0.5,0.2,0.5,0.6c0,0.5,0,1,0,1.5c0,0.1,0,0.2,0.2,0.3c1.4,0.5,2.9,0.9,4.3,1.4
		C17,20.7,17.1,20.7,17.1,20.7z"/>
	<path class="st0" d="M12,15.8c-1.5-1.5-2.9-3-3.9-4.9c-0.5-1-0.9-2-1-3C6.9,5.3,8,3.4,10,2.5C13.2,1,16.8,3.3,17,6.8
		c0,1.1-0.2,2.1-0.6,3.1C15.5,12,13.7,14.2,12,15.8z M12,14.4c1.4-1.5,2.6-3,3.4-4.8c0.4-0.9,0.6-1.8,0.5-2.7
		c-0.1-1.7-1.2-3.1-2.8-3.6c-1.6-0.5-3.4,0.1-4.3,1.5C8,5.9,8,7.2,8.3,8.5c0.4,1.5,1.1,2.8,2.1,4C10.9,13.1,11.4,13.7,12,14.4z"/>
	<path class="st0" d="M9.6,6.9c0-1.4,1.1-2.5,2.6-2.6c1.4,0,2.6,1.1,2.6,2.5c0,1.4-1.2,2.6-2.6,2.6C10.7,9.5,9.6,8.3,9.6,6.9z
		 M12.2,5.4c-0.9,0-1.5,0.7-1.5,1.5c0,0.9,0.7,1.6,1.5,1.6c0.9,0,1.6-0.7,1.6-1.5C13.7,6,13,5.4,12.2,5.4z"/>
</g>
</svg>
