<?xml version="1.0" encoding="utf-8"?>
<!-- Generator: Adobe Illustrator 21.0.0, SVG Export Plug-In . SVG Version: 6.00 Build 0)  -->
<svg version="1.1" id="Layer_1" xmlns="http://www.w3.org/2000/svg" xmlns:xlink="http://www.w3.org/1999/xlink" x="0px" y="0px"
	 viewBox="0 0 30 30" style="enable-background:new 0 0 30 30;" xml:space="preserve">
<style type="text/css">
	.st0{fill:#FFCD00;}
	.st1{fill:#224099;}
</style>
<g>
	<path class="st0" d="M16.3,14.2c-0.7,0-1.5,0.1-2.2,0.4C11.6,15.4,9.8,17.2,9,20c-0.2,0.8-0.1,1.7,0.5,2.4c0.5,0.7,1.3,1,2.1,0.9
		c1.1-0.1,2.2,0,3.3,0c0.5,0,1,0,1.5,0h4.8c0.8,0,1.6-0.3,2.1-0.9c0.5-0.6,0.7-1.4,0.5-2.2c-0.2-1-0.7-1.9-1.6-3.1
		C20.6,15.2,18.5,14.2,16.3,14.2z"/>
	<g>
		<path class="st1" d="M22.4,21.6c-0.2-1.1-0.8-2.1-1.7-3.3c-1.5-2-3.9-3.2-6.4-3.2c-0.8,0-1.6,0.1-2.4,0.4c-2.8,0.9-4.6,2.9-5.6,6
			c-0.3,0.9-0.1,1.9,0.5,2.7c0.5,0.7,1.3,1.1,2.2,1.1c0.1,0,0.1,0,0.2,0c1.2-0.1,2.4,0,3.5,0c0.5,0,1,0,1.6,0h5.2
			c0.9,0,1.8-0.4,2.3-1.1C22.4,23.4,22.6,22.5,22.4,21.6z M21.2,23.3c-0.4,0.5-1,0.8-1.7,0.8l-1.9,0l-8.3,0c-0.7,0-1.3-0.3-1.7-0.8
			c-0.3-0.5-0.4-1.1-0.2-1.7c0.7-2.4,2.5-4.3,4.6-5.2c0.8-0.3,1.6-0.4,2.4-0.4c1.2,0,2.5,0.4,3.6,1.1c1.6,1,2.8,2.5,3.4,4.4
			C21.6,22.2,21.5,22.8,21.2,23.3z"/>
		<path class="st1" d="M14.3,14.3c2.6,0,4.7-2.1,4.7-4.6c0-1.3-0.5-2.5-1.4-3.4c-0.9-0.9-2.1-1.4-3.3-1.4h0c-2.5,0-4.7,2.1-4.7,4.6
			c0,1.3,0.5,2.5,1.4,3.4C11.9,13.8,13.1,14.3,14.3,14.3z M10.6,9.5c0-1,0.4-1.9,1.1-2.5c0.7-0.7,1.6-1.1,2.7-1.1
			c2.1,0,3.7,1.7,3.7,3.7c0,1-0.4,1.9-1.1,2.6c-0.7,0.7-1.7,1.1-2.7,1.1c-1,0-1.9-0.4-2.6-1.1C11,11.5,10.6,10.5,10.6,9.5z"/>
	</g>
</g>
</svg>
