<?xml version="1.0" encoding="utf-8"?>
<!-- Generator: Adobe Illustrator 21.0.0, SVG Export Plug-In . SVG Version: 6.00 Build 0)  -->
<svg version="1.1" id="Layer_1" xmlns="http://www.w3.org/2000/svg" xmlns:xlink="http://www.w3.org/1999/xlink" x="0px" y="0px"
	 viewBox="0 0 22 22" style="enable-background:new 0 0 22 22;" xml:space="preserve">
<style type="text/css">
	.st0{fill:#B2B2B2;}
	.st1{fill:none;stroke:#B2B2B2;stroke-width:1.5;stroke-miterlimit:10;}
</style>
<g>
	<g>
		<path class="st0" d="M8.9,5.1H7.8C7.7,5.1,7.6,5,7.6,4.9v-1c0-0.1,0.1-0.2,0.2-0.2h1.1c0.1,0,0.2,0.1,0.2,0.2v1
			C9.1,5,9,5.1,8.9,5.1z"/>
		<path class="st0" d="M14.2,5.1h-1.1c-0.1,0-0.2-0.1-0.2-0.2v-1c0-0.1,0.1-0.2,0.2-0.2h1.1c0.1,0,0.2,0.1,0.2,0.2v1
			C14.4,5,14.3,5.1,14.2,5.1z"/>
		<path class="st0" d="M17,4.3c0,0.5,0,1,0,1.5s-0.3,0.8-0.7,0.8s-0.7-0.3-0.7-0.8c0-1,0-2,0-3c0-0.4,0.3-0.7,0.7-0.7S17,2.4,17,2.9
			S17,3.8,17,4.3z"/>
		<path class="st0" d="M11.7,4.3c0,0.5,0,1,0,1.5S11.4,6.6,11,6.6s-0.7-0.3-0.7-0.8c0-1,0-2,0-3c0-0.4,0.3-0.7,0.7-0.7
			s0.7,0.3,0.7,0.8S11.7,3.8,11.7,4.3z"/>
		<path class="st0" d="M6.3,4.3c0,0.5,0,1,0,1.5S6,6.6,5.6,6.6S4.9,6.3,4.9,5.8c0-1,0-2,0-3c0-0.4,0.3-0.7,0.7-0.7s0.7,0.3,0.7,0.8
			S6.3,3.8,6.3,4.3z"/>
	</g>
	<g>
		<path class="st1" d="M18.1,4.4c0.7,0,1.2,0.5,1.2,1.2v13.1c0,0.7-0.5,1.2-1.2,1.2H3.9c-0.7,0-1.2-0.5-1.2-1.2V5.6
			c0-0.7,0.5-1.2,1.2-1.2"/>
		<line class="st1" x1="2.8" y1="10.1" x2="19.2" y2="10.1"/>
	</g>
</g>
</svg>
