<?xml version="1.0" encoding="utf-8"?>
<!-- Generator: Adobe Illustrator 21.0.0, SVG Export Plug-In . SVG Version: 6.00 Build 0)  -->
<svg version="1.1" id="Layer_1" xmlns="http://www.w3.org/2000/svg" xmlns:xlink="http://www.w3.org/1999/xlink" x="0px" y="0px"
	 viewBox="0 0 54 54" style="enable-background:new 0 0 54 54;" xml:space="preserve">
<style type="text/css">
	.st0{fill:#1E2254;}
	.st1{fill:none;stroke:#FFFFFF;stroke-width:1.2;stroke-linecap:round;stroke-miterlimit:10;}
	.st2{fill:#FFFFFF;}
	.st3{fill:none;stroke:#FFFFFF;stroke-width:1.5;stroke-linecap:round;stroke-miterlimit:10;}
</style>
<g>
	<circle class="st0" cx="27" cy="27" r="27"/>
	<g>
		<g>
			<path class="st1" d="M30.1,28.1c-1.1-0.4-2.3-0.6-3.5-0.6c-1.1,0-2.1,0.2-3.1,0.5c-3.6,1.2-6.1,3.9-7.3,7.8
				c-0.4,1.2-0.1,2.5,0.7,3.5c0.7,0.9,1.7,1.4,2.9,1.4c0.1,0,13.7,0,13.7,0c1.2,0,2.3-0.5,3-1.4c0.7-0.9,1-2,0.7-3.2"/>
			<g>
				<path class="st2" d="M26.6,14.5c1.3,0,2.6,0.5,3.5,1.5c1,1,1.5,2.2,1.5,3.6c0,2.7-2.2,4.9-5,4.9c-1.3,0-2.6-0.5-3.5-1.5
					c-0.9-0.9-1.4-2.2-1.4-3.6C21.6,16.7,23.9,14.5,26.6,14.5L26.6,14.5 M26.6,13.3L26.6,13.3c-3.3,0-6.2,2.8-6.2,6.1
					c0,1.7,0.6,3.3,1.8,4.4c1.1,1.2,2.7,1.8,4.4,1.8c3.4,0,6.2-2.7,6.2-6.1c0-1.7-0.6-3.2-1.8-4.4C29.8,13.9,28.2,13.3,26.6,13.3
					L26.6,13.3z"/>
			</g>
		</g>
		<g>
			<line class="st3" x1="31.9" y1="31.4" x2="38" y2="31.4"/>
			<line class="st3" x1="34.9" y1="34.5" x2="34.9" y2="28.3"/>
		</g>
	</g>
</g>
</svg>
