<?xml version="1.0" encoding="utf-8"?>
<!-- Generator: Adobe Illustrator 22.0.1, SVG Export Plug-In . SVG Version: 6.00 Build 0)  -->
<svg version="1.1" id="Layer_1" xmlns="http://www.w3.org/2000/svg" xmlns:xlink="http://www.w3.org/1999/xlink" x="0px" y="0px"
	 viewBox="0 0 22 22" style="enable-background:new 0 0 22 22;" xml:space="preserve">
<style type="text/css">
	.st0{fill:#555555;}
</style>
<g>
	<path class="st0" d="M19.6,5.4c0,0.3,0.1,0.7,0.6,0.7c0.2,0.1,0.6-0.4,0.6-0.7c0-1.3,0-2.5,0-3.6c0-0.6-0.1-0.7-0.7-0.8
		c-1.3-0.1-2.6,0-3.8,0c-0.3,0-0.7,0.5-0.6,0.7c0,0.2,0.1,0.7,0.7,0.6C16.4,2.4,19,2,19,2s-2.5,2.3-2.7,2.5c-0.5,0.6-1,0.3-1.2,0.2
		c-0.2-0.1-0.3-0.1-0.5-0.2l-0.1,0C14,4.2,13.4,4,12.9,3.9c-2.2-0.4-4.1,0.3-5.5,2c-1.4,1.7-1.7,3.7-1,5.8c0.4,0.1,0.9,0.1,1.3,0
		c-0.5-1.1-0.6-2.4-0.2-3.6C7.9,6.8,8.8,5.9,10,5.3c1.2-0.5,2.5-0.5,3.7,0c1.2,0.5,2.1,1.5,2.6,2.8c0.4,1.2,0.3,2.5-0.3,3.7
		c-0.6,1.2-1.7,2-2.9,2.4l0,0c0,0,0,0-0.1,0c-0.4,0.5-0.9,0.9-1.4,1.3c1.3,0.1,2.5-0.3,3.6-1c2.5-1.8,3.3-5,1.8-7.7
		c-0.1-0.2-0.3-0.8,0.1-1.2c0.3-0.3,2.5-2.4,2.5-2.4S19.6,5.3,19.6,5.4z"/>
	<path class="st0" d="M12.4,7.4L12.4,7.4C12.4,7.4,12.4,7.4,12.4,7.4c-0.4-0.1-0.8-0.1-1.2,0c0.4,1.1,0.5,1.7,0.3,2.6
		c-0.4,2.1-2.2,3.7-4.3,3.8c-2.1,0.1-4.1-1.3-4.7-3.4C2,8.3,2.9,6.2,4.8,5.1C5,5.1,5.1,4.9,5.2,4.8C5.6,4.3,6,3.8,6.4,3.5
		C5.1,3.6,3.8,4.2,2.8,5.3c-1.3,1.4-1.8,3.3-1.4,5c0.6,2.8,2.8,4,4.1,4.4c0.2,0,0.8,0.4,0.8,0.8c0,0.3,0,2.1,0,2.1s-1.8,0-2.2,0
		c-0.2,0-0.4,0.2-0.5,0.4c0,0.3,0.1,0.5,0.3,0.6c0.1,0.1,0.4,0.1,0.5,0.1c0.3,0,1.8,0,1.8,0s0,1.5,0,1.7c0,0.3,0.3,0.5,0.6,0.5
		c0.3,0,0.5-0.2,0.6-0.6c0-0.2,0-1.6,0-1.6s2.1-0.1,2.3-0.1c0.3,0,0.5-0.3,0.5-0.6c0-0.3-0.2-0.5-0.6-0.6c-0.3,0-2.2,0-2.2,0
		s0-1.4,0-1.5c-0.1-0.5,0.1-1.1,1-1.3c1.5-0.4,2.8-1.4,3.6-2.8C12.8,10.5,12.9,8.8,12.4,7.4z"/>
</g>
</svg>
