<?xml version="1.0" encoding="utf-8"?>
<!-- Generator: Adobe Illustrator 21.0.0, SVG Export Plug-In . SVG Version: 6.00 Build 0)  -->
<svg version="1.1" id="Layer_1" xmlns="http://www.w3.org/2000/svg" xmlns:xlink="http://www.w3.org/1999/xlink" x="0px" y="0px"
	 viewBox="0 0 24 24" style="enable-background:new 0 0 24 24;" xml:space="preserve">
<style type="text/css">
	.st0{fill:none;stroke:#555555;stroke-linecap:round;stroke-linejoin:round;stroke-miterlimit:10;}
	.st1{fill:#555555;}
	.st2{fill:none;stroke:#555555;stroke-width:1.2;stroke-linecap:round;stroke-linejoin:round;stroke-miterlimit:10;}
	.st3{fill:#FFCD00;}
	.st4{fill:#224099;}
	.st5{fill:#2A2C70;}
	.st6{fill:none;stroke:#5A67B3;stroke-width:1.0101;stroke-miterlimit:10;}
	.st7{fill:#506BAD;}
	.st8{fill:#FFFFFF;stroke:#231F20;stroke-miterlimit:10;}
	.st9{fill:#0E1744;}
	.st10{fill:#E6E7E8;}
	.st11{fill:#C81313;}
	.st12{fill:none;stroke:#C81313;stroke-miterlimit:10;}
	.st13{fill:none;stroke:#555555;stroke-linecap:round;stroke-miterlimit:10;}
	.st14{fill:none;stroke:#555555;stroke-miterlimit:10;}
	.st15{fill:none;stroke:#224099;stroke-miterlimit:10;}
	.st16{fill:none;stroke:#555555;stroke-width:0.8016;stroke-miterlimit:10;}
	.st17{fill:#8599C1;}
	.st18{fill:none;stroke:#FFCD00;stroke-linecap:round;stroke-miterlimit:10;}
	.st19{fill:none;stroke:#FFCD00;stroke-linecap:round;stroke-miterlimit:10;stroke-dasharray:4.05,4.05,4.05,4.05;}
	.st20{fill:#D5E2F7;}
	.st21{fill:#224099;stroke:#072268;stroke-miterlimit:10;}
	.st22{fill:#224099;stroke:#072268;stroke-linecap:round;stroke-linejoin:round;stroke-miterlimit:10;}
	.st23{fill:#D5E2F7;stroke:#FFCD00;stroke-width:0.75;stroke-linecap:round;stroke-linejoin:round;stroke-miterlimit:10;}
	.st24{fill:none;stroke:#FFCD00;stroke-width:0.75;stroke-miterlimit:10;}
	.st25{fill:none;stroke:#072268;stroke-width:0.5;stroke-miterlimit:10;}
	.st26{fill:#FFCD00;stroke:#0E1744;stroke-miterlimit:10;}
	.st27{fill:#FFFFFF;}
	.st28{fill:#1576C6;}
	.st29{fill:#FCFCFC;}
	.st30{fill:#020202;}
	.st31{fill:#050505;}
	.st32{fill:none;stroke:#0E1744;stroke-miterlimit:10;}
	.st33{fill:none;stroke:#0E1744;stroke-linecap:round;stroke-linejoin:round;stroke-miterlimit:10;}
	.st34{fill:none;stroke:#000000;stroke-linecap:round;stroke-linejoin:round;stroke-miterlimit:10;}
	.st35{fill:none;stroke:#000000;stroke-miterlimit:10;}
	.st36{fill:none;stroke:#555555;stroke-width:1.2;stroke-miterlimit:10;}
	.st37{fill:none;stroke:#224099;stroke-width:0.9998;stroke-linecap:round;stroke-linejoin:round;stroke-miterlimit:10;}
	.st38{fill:#B2B2B2;}
	.st39{fill:#555555;stroke:#555555;stroke-width:0.3823;stroke-miterlimit:10;}
	.st40{fill:none;stroke:#555555;stroke-width:1.4;stroke-miterlimit:10;}
	.st41{fill:none;stroke:#555555;stroke-width:0.9643;stroke-linecap:round;stroke-linejoin:round;stroke-miterlimit:10;}
	.st42{fill:#FFFFFF;stroke:#555555;stroke-width:0.9643;stroke-linecap:round;stroke-linejoin:round;stroke-miterlimit:10;}
	.st43{fill:none;stroke:#555555;stroke-width:1.5;stroke-linecap:round;stroke-miterlimit:10;}
	.st44{fill:none;stroke:#555555;stroke-linejoin:round;stroke-miterlimit:10;}
	.st45{fill:none;stroke:#FFFFFF;stroke-width:1.6503;stroke-miterlimit:10;}
	.st46{fill:none;stroke:#FFFFFF;stroke-width:1.5567;stroke-linecap:round;stroke-linejoin:round;stroke-miterlimit:10;}
	.st47{fill:none;stroke:#FFFFFF;stroke-width:1.5686;stroke-miterlimit:10;}
	.st48{fill:#939393;}
	.st49{fill:none;stroke:#939393;stroke-width:1.3753;stroke-miterlimit:10;}
	.st50{fill:none;stroke:#939393;stroke-width:1.2973;stroke-linecap:round;stroke-linejoin:round;stroke-miterlimit:10;}
	.st51{fill:none;stroke:#939393;stroke-width:1.3072;stroke-miterlimit:10;}
	.st52{fill:none;stroke:#224099;stroke-width:1.3753;stroke-miterlimit:10;}
	.st53{fill:none;stroke:#224099;stroke-width:1.2973;stroke-linecap:round;stroke-linejoin:round;stroke-miterlimit:10;}
	.st54{fill:none;stroke:#224099;stroke-width:1.3072;stroke-miterlimit:10;}
	.st55{fill:none;stroke:#555555;stroke-width:1.2;stroke-linejoin:round;stroke-miterlimit:10;}
	.st56{fill:#B8BDFE;}
	.st57{fill:none;stroke:#B8BDFE;stroke-linecap:round;stroke-miterlimit:10;}
</style>
<g>
	<path class="st56" d="M4.4,19.9c0,0.4,0.1,0.7,0.3,0.8c0.2,0.1,0.5,0.2,0.9,0.1l0.5-0.1c0.8-0.2,1.7-0.4,2.5-0.7
		c0.4-0.1,0.8-0.4,1-0.7c0.9-1.1,1.9-2.2,2.8-3.3c0.3-0.4,0.6-0.7,0.9-1.1c0.5-0.7,1.1-1.3,1.6-2c1.3-1.6,2.6-3.2,3.9-4.8
		c1.1-1.4,1-3.2-0.3-4.3c-0.6-0.5-1.3-0.8-1.9-0.8c-0.1,0-0.1,0-0.2,0c-0.8,0.1-1.5,0.5-2.1,1.2C13.2,5.7,12,7,10.9,8.4
		c-1.7,2-3.4,4.1-5.1,6.1c-0.9,1-1.6,1.8-1.5,3.5C4.4,18,4.4,19.5,4.4,19.9z M14.6,5.9c0.1-0.1,0.3-0.3,0.4-0.5
		c0.5-0.6,0.9-1.2,1.9-1c0.5,0.1,1.2,0.6,1.4,1.1c0.4,0.9-0.1,1.5-0.7,2.2c-0.1,0.1-0.2,0.3-0.3,0.4l-0.1,0.1L14.6,5.9L14.6,5.9z
		 M6.9,15.2c1.6-1.8,3.1-3.7,4.7-5.7c0.6-0.8,1.3-1.6,1.9-2.4l0.1-0.1l2.6,2.2l-3.2,4c-0.4,0.4-0.7,0.9-1.1,1.3c-0.8,1-1.7,2-2.4,3
		c-0.9,1.4-2.3,1.6-3.6,1.8l-0.1,0l0-0.1C5.7,17.9,5.7,16.5,6.9,15.2z"/>
	<line class="st57" x1="5.1" y1="20.5" x2="15.7" y2="20.5"/>
</g>
</svg>
