<?xml version="1.0" encoding="utf-8"?>
<!-- Generator: Adobe Illustrator 21.0.0, SVG Export Plug-In . SVG Version: 6.00 Build 0)  -->
<svg version="1.1" id="Layer_1" xmlns="http://www.w3.org/2000/svg" xmlns:xlink="http://www.w3.org/1999/xlink" x="0px" y="0px"
	 viewBox="0 0 24 24" style="enable-background:new 0 0 24 24;" xml:space="preserve">
<style type="text/css">
	.st0{fill:#FFFFFF;}
</style>
<g>
	<path class="st0" d="M4.6,9c0-0.6,0.3-1,0.8-1.1C6,7.9,6.5,8.3,6.5,8.9c0,0.3,0,7.7,0,11.1c0,0.4,0.1,0.5,0.5,0.5
		c3.3,0,6.6,0,9.9,0c0.5,0,0.6-0.1,0.6-0.6c0-3.6,0-7.2,0-10.8c0-0.4,0.1-0.7,0.5-1c0.6-0.4,1.4,0,1.4,0.7c0,0.1,0,7.6,0,11.3
		c0,1-0.6,1.9-1.4,2.2c-0.3,0.1-0.6,0.1-0.9,0.1c-3.2,0-6.5,0-9.7,0c-0.5,0-1,0-1.4-0.2c-0.9-0.3-1.4-1.1-1.4-2.2
		C4.6,18.2,4.6,10.9,4.6,9z"/>
	<path class="st0" d="M7.3,4.7c0-0.4,0-0.8,0-1.2c0-1.1,0.7-1.8,1.8-1.9c2,0,4,0,5.9,0c1.1,0,1.7,0.7,1.7,1.8c0,0.4,0,0.8,0,1.3
		c0.1,0,2.9,0,4.3,0c0.5,0,0.8,0.3,1,0.7c0.1,0.4,0,0.8-0.4,1c-0.2,0.1-0.4,0.2-0.7,0.2c-4,0-15.9,0-17.9,0c-0.4,0-0.7-0.2-0.9-0.5
		C1.8,5.4,2.2,4.7,3,4.7C4.3,4.7,7.1,4.7,7.3,4.7z M14.8,3.5c-1.9,0-3.7,0-5.6,0c0,0.4,0,0.8,0,1.1c1.9,0,3.7,0,5.6,0
		C14.8,4.3,14.8,3.9,14.8,3.5z"/>
	<path class="st0" d="M15.1,17.6c0,0.7-0.7,1.2-1.3,0.9c-0.3-0.1-0.5-0.4-0.6-0.8c0-0.1,0-0.3,0-0.4c0-2.8,0-5.6,0-8.3
		c0-0.6,0.3-1,0.8-1.1c0.6-0.1,1.1,0.3,1.1,1C15.1,10,15.1,16.2,15.1,17.6z"/>
	<path class="st0" d="M10.9,17.6c0,0.7-0.7,1.2-1.3,0.9C9.2,18.4,9,18.1,9,17.8c0-0.1,0-0.3,0-0.5c0-2.8,0-5.5,0-8.3
		c0-0.6,0.3-1,0.8-1.1c0.6-0.1,1.1,0.4,1.1,1C10.9,10.1,10.9,16.2,10.9,17.6z"/>
</g>
</svg>
