<?xml version="1.0" encoding="utf-8"?>
<!-- Generator: Adobe Illustrator 21.0.0, SVG Export Plug-In . SVG Version: 6.00 Build 0)  -->
<svg version="1.1" id="Layer_1" xmlns="http://www.w3.org/2000/svg" xmlns:xlink="http://www.w3.org/1999/xlink" x="0px" y="0px"
	 viewBox="0 0 22 22" style="enable-background:new 0 0 22 22;" xml:space="preserve">
<style type="text/css">
	.st0{fill:#555555;}
</style>
<g>
	<path class="st0" d="M18.3,6.3c0.3,0,0.5-0.2,0.5-0.5s-0.2-0.5-0.5-0.5c-0.1,0-0.3,0-0.4,0h-3.4c-0.1,0-0.2,0-0.3,0h-0.3V4.8
		c0-1-0.6-1.6-1.6-1.6c-0.9,0-1.8,0-2.6,0C9,3.2,8.4,3.9,8.4,4.6v0.8H6.7c-0.9,0-1.7,0-2.6,0c-0.2,0-0.4,0.1-0.5,0.2
		c-0.3-0.1-0.4,0-0.4,0.2c0,0.5,0.5,0.5,0.6,0.5c0.2,0,0.3,0,0.5,0h0.3h0.3v2.8c0,2.2,0,4.3,0,6.5c0,0.4,0,0.7,0.1,1
		C5.4,18.1,6.6,19,8.3,19c1.8,0,3.6,0,5.4,0c2.1,0,3.4-1.3,3.4-3.4V6.3h0.3c0.1,0,0.2,0,0.3,0C17.9,6.3,18.1,6.3,18.3,6.3z M9.4,4.3
		C9.5,4.1,9.8,4.1,10,4.1c0.6,0,1.3,0,1.9,0c0.2,0,0.4,0,0.6,0.2c0.1,0.2,0.1,0.4,0.1,0.7v0.2H9.5V5C9.3,4.7,9.3,4.5,9.4,4.3z
		 M16,15.5c0,1.5-0.8,2.4-2.4,2.4h-1.2c-0.6,0-1.3,0-1.9,0c-0.7,0-1.5,0-2.2,0c-1.3,0-2.2-0.9-2.2-2.2c0-2.2,0-4.4,0-6.6V6.8
		c0-0.1,0-0.1,0-0.2V6.3H16V15.5z"/>
	<path class="st0" d="M8.8,8.5c0-0.2-0.1-0.4-0.2-0.5C8.5,7.9,8.4,7.9,8.2,7.9l0,0c-0.3,0-0.5,0.2-0.6,0.6c0,0.1,0,0.3,0,0.4v0.2
		v1.7c0,1.5,0,2.9,0,4.4c0,0.4,0.2,0.6,0.5,0.7c0.2,0,0.3,0,0.4-0.1c0.1-0.1,0.2-0.3,0.2-0.5c0-0.8,0-1.6,0-2.4V12v-1
		C8.8,10.1,8.8,9.3,8.8,8.5z"/>
	<path class="st0" d="M14.3,8.5c0-0.4-0.2-0.6-0.6-0.7l0,0c-0.2,0-0.3,0.1-0.4,0.1c-0.1,0.1-0.2,0.3-0.2,0.5c0,2.2,0,4.5,0,6.7
		c0,0.1,0,0.3,0.1,0.4c0.1,0.2,0.4,0.3,0.6,0.2c0.3-0.1,0.4-0.3,0.4-0.6c0-0.8,0-1.6,0-2.4v-1v-0.9C14.3,10.2,14.3,9.3,14.3,8.5z"/>
	<path class="st0" d="M11,7.9L11,7.9c-0.2,0-0.3,0-0.4,0.1c-0.1,0.1-0.2,0.3-0.2,0.5c0,2.2,0,4.4,0,6.6c0,0.3,0.1,0.7,0.6,0.7l0,0
		c0.2,0,0.3-0.1,0.4-0.2c0.1-0.1,0.2-0.3,0.2-0.5v-4.3V8.5C11.6,8.3,11.5,7.9,11,7.9z"/>
</g>
</svg>
