<?xml version="1.0" encoding="utf-8"?>
<!-- Generator: Adobe Illustrator 21.0.0, SVG Export Plug-In . SVG Version: 6.00 Build 0)  -->
<svg version="1.1" id="Layer_1" xmlns="http://www.w3.org/2000/svg" xmlns:xlink="http://www.w3.org/1999/xlink" x="0px" y="0px"
	 viewBox="0 0 31.8 22" style="enable-background:new 0 0 31.8 22;" xml:space="preserve">
<style type="text/css">
	.st0{fill:#FFFFFF;stroke:#231F20;stroke-miterlimit:10;}
	.st1{fill:#0E1744;}
	.st2{fill:#E6E7E8;}
	.st3{fill:#224099;}
	.st4{fill:#555555;}
	.st5{fill:#C81313;}
	.st6{fill:none;stroke:#C81313;stroke-miterlimit:10;}
	.st7{fill:none;stroke:#555555;stroke-linecap:round;stroke-miterlimit:10;}
	.st8{fill:#FFCD00;}
	.st9{fill:none;stroke:#224099;stroke-width:0.8378;stroke-miterlimit:10;}
	.st10{fill:none;stroke:#555555;stroke-width:0.7207;stroke-miterlimit:10;}
	.st11{fill:none;stroke:#555555;stroke-width:0.8016;stroke-miterlimit:10;}
	.st12{fill:#8599C1;}
	.st13{fill:none;stroke:#FFCD00;stroke-linecap:round;stroke-miterlimit:10;}
	.st14{fill:none;stroke:#FFCD00;stroke-linecap:round;stroke-miterlimit:10;stroke-dasharray:4.05,4.05,4.05,4.05;}
	.st15{fill:#D5E2F7;}
	.st16{fill:#224099;stroke:#072268;stroke-miterlimit:10;}
	.st17{fill:#224099;stroke:#072268;stroke-linecap:round;stroke-linejoin:round;stroke-miterlimit:10;}
	.st18{fill:#D5E2F7;stroke:#FFCD00;stroke-width:0.75;stroke-linecap:round;stroke-linejoin:round;stroke-miterlimit:10;}
	.st19{fill:none;stroke:#FFCD00;stroke-width:0.75;stroke-miterlimit:10;}
	.st20{fill:none;stroke:#072268;stroke-width:0.5;stroke-miterlimit:10;}
	.st21{fill:#FFCD00;stroke:#0E1744;stroke-miterlimit:10;}
	.st22{fill:#FFFFFF;}
	.st23{fill:#1576C6;}
	.st24{fill:#FCFCFC;}
	.st25{fill:#020202;}
	.st26{fill:#050505;}
	.st27{fill:none;stroke:#0E1744;stroke-miterlimit:10;}
	.st28{fill:none;stroke:#0E1744;stroke-linecap:round;stroke-linejoin:round;stroke-miterlimit:10;}
	.st29{fill:none;stroke:#000000;stroke-linecap:round;stroke-linejoin:round;stroke-miterlimit:10;}
	.st30{fill:none;stroke:#000000;stroke-miterlimit:10;}
</style>
<g>
	<path class="st4" d="M17.3,1.9c2.1,0,4.1,0,6.2,0c2.5-0.1,4.4,1.9,4.4,4.4c0,2.2,0,4.4,0,6.7c0,2-0.9,3.4-2.8,4.1
		c-0.2,0.1-0.3,0.2-0.4,0.4c-0.8,1.8-2.1,2.7-4,2.7c-4.2,0-8.4,0-12.6,0c-2.5,0-4.2-1.8-4.2-4.3c0-2.3,0-4.6,0-6.9
		c0-1.9,1-3.3,2.7-4C6.7,4.9,6.9,4.7,7,4.5C7.6,3,9.1,1.9,10.7,1.9C12.9,1.9,15.1,1.9,17.3,1.9C17.3,1.9,17.3,1.9,17.3,1.9z
		 M14.4,18.6C14.4,18.6,14.4,18.6,14.4,18.6c2.1,0,4.3,0,6.4,0c1.6,0,2.7-1.1,2.7-2.7c0-2.3,0-4.6,0-7c0-1.7-1.2-2.8-2.9-2.8
		c-0.4,0-0.8,0-1.2,0c-3.7,0-7.5,0-11.2,0c-1.9,0-3,1.5-2.9,2.9c0.1,2.2,0,4.4,0,6.6c0,1.8,1.1,2.9,2.9,2.9
		C10.3,18.6,12.4,18.6,14.4,18.6z M25,15.4c1-0.6,1.4-1.4,1.4-2.4c0-2.2,0-4.4,0-6.7c0-1.7-1.2-3.1-3-3c-4.1,0.1-8.1,0-12.2,0
		c-0.2,0-0.4,0-0.6,0C9.7,3.4,9,3.9,8.5,4.7c0.3,0,0.5,0,0.7,0c3.8,0,7.5,0,11.3,0c0.5,0,0.9,0,1.4,0.1c2,0.5,3.1,2.1,3.1,4.2
		c0,1.9,0,3.8,0,5.7C25,15,25,15.2,25,15.4z"/>
	<path class="st4" d="M19.9,10.9c-0.6,1.1-1.1,2.1-1.7,3.1c-0.6-1-1.2-2-1.8-3c0.3,0,0.6,0,0.9,0c0-0.1-0.1-0.2-0.1-0.3
		c-0.8-1.1-2.3-1.7-3.5-1.4c-1.5,0.3-2.5,1.4-2.7,2.9c-0.2,1.3,0.5,2.7,1.7,3.4c0.2,0.1,0.3,0.2,0.5,0.3c0.4,0.2,0.5,0.6,0.4,1
		c-0.2,0.4-0.5,0.5-0.9,0.3c-2-0.8-3.3-2.8-3.1-4.8c0.2-2.2,1.7-4,3.8-4.4c2.2-0.5,4.3,0.5,5.3,2.5c0.2,0.5,0.5,0.7,1,0.6
		C19.6,10.9,19.7,10.9,19.9,10.9z"/>
</g>
</svg>
