<?xml version="1.0" encoding="utf-8"?>
<!-- Generator: Adobe Illustrator 21.0.0, SVG Export Plug-In . SVG Version: 6.00 Build 0)  -->
<svg version="1.1" id="Layer_1" xmlns="http://www.w3.org/2000/svg" xmlns:xlink="http://www.w3.org/1999/xlink" x="0px" y="0px"
	 viewBox="0 0 22 22" style="enable-background:new 0 0 22 22;" xml:space="preserve">
<style type="text/css">
	.st0{fill:#D6D6D6;}
	.st1{fill:#224099;}
	.st2{fill:#FFCD00;}
	.st3{fill:#0E1744;}
	.st4{fill:none;stroke:#0E1744;stroke-width:0.8734;stroke-linecap:round;stroke-linejoin:round;stroke-miterlimit:10;}
	.st5{fill:#FFFFFF;stroke:#231F20;stroke-miterlimit:10;}
	.st6{fill:#E6E7E8;}
	.st7{fill:#FFFFFF;}
	.st8{fill:none;stroke:#0E1744;stroke-width:0.5838;stroke-linecap:round;stroke-linejoin:round;stroke-miterlimit:10;}
	.st9{fill:#555555;}
	.st10{fill:#C81313;}
	.st11{fill:none;stroke:#C81313;stroke-miterlimit:10;}
	.st12{fill:none;stroke:#555555;stroke-linecap:round;stroke-miterlimit:10;}
	.st13{fill:none;stroke:#224099;stroke-width:0.8378;stroke-miterlimit:10;}
	.st14{fill:none;stroke:#555555;stroke-width:0.7207;stroke-miterlimit:10;}
	.st15{fill:none;stroke:#555555;stroke-width:0.8016;stroke-miterlimit:10;}
</style>
<g>
	<path class="st9" d="M10.4,5c2,0,3.4,0.4,4.7,1.2c1.9,1.1,3.4,2.5,4.6,4.2c0.3,0.4,0.3,0.6,0.1,1c-1.4,1.9-3,3.5-5.1,4.6
		c-2.6,1.4-5.2,1.3-7.8-0.2c-1.9-1.1-3.5-2.6-4.8-4.4c-0.2-0.3-0.2-0.6,0-0.9c1.6-2.2,3.6-4,6.2-5C9.1,5.2,10,5.1,10.4,5z M10.5,6.3
		c-0.7,0-1.8,0.4-2.8,0.9C6.1,8,4.8,9.3,3.6,10.7c-0.2,0.2-0.2,0.4,0,0.6c1.1,1.4,2.4,2.6,4,3.5c1.8,1,3.7,1.3,5.6,0.5
		c2.2-0.8,3.8-2.4,5.3-4.1c0.1-0.1,0-0.3,0-0.3c-1.1-1.4-2.4-2.7-4-3.5C13.3,6.7,12.2,6.3,10.5,6.3z"/>
	<path class="st9" d="M11,7.8c1.7,0,3.2,1.5,3.2,3.2c0,1.7-1.5,3.2-3.2,3.2c-1.8,0-3.2-1.5-3.2-3.3C7.8,9.2,9.3,7.8,11,7.8z M11,13
		c1.1,0,2-0.9,2-1.9c0-1.1-0.9-2-1.9-2c-1.1,0-2,0.9-2,1.9C9,12,9.9,12.9,11,13z"/>
</g>
</svg>
