<?xml version="1.0" encoding="utf-8"?>
<!-- Generator: Adobe Illustrator 21.0.0, SVG Export Plug-In . SVG Version: 6.00 Build 0)  -->
<svg version="1.1" id="Layer_1" xmlns="http://www.w3.org/2000/svg" xmlns:xlink="http://www.w3.org/1999/xlink" x="0px" y="0px"
	 viewBox="0 0 22 22" style="enable-background:new 0 0 22 22;" xml:space="preserve">
<style type="text/css">
	.st0{fill:#939393;}
	.st1{fill:none;stroke:#939393;stroke-width:1.3753;stroke-miterlimit:10;}
	.st2{fill:none;stroke:#939393;stroke-width:1.2973;stroke-linecap:round;stroke-linejoin:round;stroke-miterlimit:10;}
	.st3{fill:none;stroke:#939393;stroke-width:1.3072;stroke-miterlimit:10;}
	.st4{fill:#FFCD00;}
	.st5{fill:#224099;}
	.st6{fill:none;stroke:#224099;stroke-width:1.3753;stroke-miterlimit:10;}
	.st7{fill:none;stroke:#224099;stroke-width:1.2973;stroke-linecap:round;stroke-linejoin:round;stroke-miterlimit:10;}
	.st8{fill:none;stroke:#224099;stroke-width:1.3072;stroke-miterlimit:10;}
</style>
<g>
	<path class="st4" d="M15.4,17.2H3.1c-0.7,0-1.3-0.6-1.3-1.3V4.5c0-0.7,0.6-1.3,1.3-1.3h12.3c0.7,0,1.3,0.6,1.3,1.3v11.4
		C16.7,16.6,16.1,17.2,15.4,17.2z"/>
	<g>
		<path class="st5" d="M7.1,3.6h-1C6,3.6,5.9,3.5,5.9,3.4V2.5c0-0.1,0.1-0.2,0.2-0.2h1c0.1,0,0.2,0.1,0.2,0.2v0.9
			C7.3,3.5,7.2,3.6,7.1,3.6z"/>
		<path class="st5" d="M12,3.6h-1c-0.1,0-0.2-0.1-0.2-0.2V2.5c0-0.1,0.1-0.2,0.2-0.2h1c0.1,0,0.2,0.1,0.2,0.2v0.9
			C12.2,3.5,12.1,3.6,12,3.6z"/>
		<path class="st5" d="M14.5,2.9c0,0.5,0,0.9,0,1.4S14.3,5,13.9,5s-0.6-0.3-0.6-0.7c0-0.9,0-1.8,0-2.8c0-0.4,0.3-0.6,0.6-0.6
			s0.6,0.3,0.6,0.7S14.5,2.4,14.5,2.9z"/>
		<path class="st5" d="M9.7,2.9c0,0.5,0,0.9,0,1.4S9.4,5,9,5S8.4,4.7,8.4,4.3c0-0.9,0-1.8,0-2.8c0-0.4,0.3-0.6,0.6-0.6
			s0.6,0.3,0.6,0.7S9.7,2.4,9.7,2.9z"/>
		<path class="st5" d="M4.7,2.9c0,0.5,0,0.9,0,1.4S4.5,5,4.1,5S3.4,4.7,3.4,4.3c0-0.9,0-1.8,0-2.8c0-0.4,0.3-0.6,0.6-0.6
			s0.6,0.3,0.6,0.7S4.7,2.4,4.7,2.9z"/>
	</g>
	<g>
		<path class="st6" d="M10,17.2H2.5c-0.6,0-1.1-0.5-1.1-1.1v-12C1.4,3.4,1.9,3,2.5,3"/>
		<path class="st6" d="M15.6,3c0.6,0,1.1,0.5,1.1,1.1v6"/>
		<line class="st6" x1="1.5" y1="8.2" x2="16.6" y2="8.2"/>
	</g>
	<g>
		<g>
			<line class="st7" x1="15.4" y1="16.6" x2="18.8" y2="16.6"/>
			<line class="st7" x1="17.1" y1="18.3" x2="17.1" y2="14.9"/>
		</g>
		<circle class="st8" cx="17.1" cy="16.6" r="4.3"/>
	</g>
</g>
</svg>
