<?xml version="1.0" encoding="utf-8"?>
<!-- Generator: Adobe Illustrator 21.0.0, SVG Export Plug-In . SVG Version: 6.00 Build 0)  -->
<svg version="1.1" id="Layer_1" xmlns="http://www.w3.org/2000/svg" xmlns:xlink="http://www.w3.org/1999/xlink" x="0px" y="0px"
	 viewBox="0 0 120 120" style="enable-background:new 0 0 120 120;" xml:space="preserve">
<style type="text/css">
	.st0{fill:#2A2C70;}
	.st1{fill:none;stroke:#5A67B3;stroke-width:1.0101;stroke-miterlimit:10;}
	.st2{fill:#FFCD00;}
	.st3{fill:#506BAD;}
	.st4{fill:#FFFFFF;stroke:#231F20;stroke-miterlimit:10;}
	.st5{fill:#0E1744;}
	.st6{fill:#E6E7E8;}
	.st7{fill:#224099;}
	.st8{fill:#C81313;}
	.st9{fill:none;stroke:#C81313;stroke-miterlimit:10;}
	.st10{fill:#555555;}
	.st11{fill:none;stroke:#555555;stroke-linecap:round;stroke-miterlimit:10;}
	.st12{fill:none;stroke:#224099;stroke-width:0.8378;stroke-miterlimit:10;}
	.st13{fill:none;stroke:#555555;stroke-width:0.7207;stroke-miterlimit:10;}
	.st14{fill:none;stroke:#555555;stroke-width:0.8016;stroke-miterlimit:10;}
	.st15{fill:#8599C1;}
	.st16{fill:none;stroke:#FFCD00;stroke-linecap:round;stroke-miterlimit:10;}
	.st17{fill:none;stroke:#FFCD00;stroke-linecap:round;stroke-miterlimit:10;stroke-dasharray:4.05,4.05,4.05,4.05;}
	.st18{fill:#D5E2F7;}
	.st19{fill:#224099;stroke:#072268;stroke-miterlimit:10;}
	.st20{fill:#224099;stroke:#072268;stroke-linecap:round;stroke-linejoin:round;stroke-miterlimit:10;}
	.st21{fill:none;stroke:#072268;stroke-linecap:round;stroke-linejoin:round;stroke-miterlimit:10;}
	.st22{fill:none;stroke:#FFCD00;stroke-width:0.75;stroke-linecap:round;stroke-linejoin:round;stroke-miterlimit:10;}
	.st23{fill:none;stroke:#FFCD00;stroke-width:0.75;stroke-miterlimit:10;}
	.st24{fill:none;stroke:#072268;stroke-width:0.5;stroke-miterlimit:10;}
	.st25{fill:#FFCD00;stroke:#0E1744;stroke-miterlimit:10;}
	.st26{fill:#FFFFFF;}
	.st27{fill:#1576C6;}
	.st28{fill:#FCFCFC;}
	.st29{fill:#020202;}
	.st30{fill:#050505;}
	.st31{fill:none;stroke:#0E1744;stroke-miterlimit:10;}
	.st32{fill:none;stroke:#0E1744;stroke-linecap:round;stroke-linejoin:round;stroke-miterlimit:10;}
	.st33{fill:none;stroke:#000000;stroke-linecap:round;stroke-linejoin:round;stroke-miterlimit:10;}
	.st34{fill:none;stroke:#000000;stroke-miterlimit:10;}
	.st35{fill:none;stroke:#555555;stroke-width:1.2;stroke-miterlimit:10;}
	.st36{fill:none;stroke:#224099;stroke-width:0.9998;stroke-linecap:round;stroke-linejoin:round;stroke-miterlimit:10;}
</style>
<g>
	<circle class="st0" cx="63.4" cy="57" r="46.9"/>
	<g>
		<g>
			<path class="st2" d="M70.2,66.9c0.4-4.3-0.6-8.5-2.9-12.4c-2-3.4-4.4-5.6-7.4-6.5c-1.2-0.4-2.3-0.5-3.4-0.5c-2.5,0-4.7,1-6.6,2.9
				c-2.4,2.4-3.6,5.5-3.7,9.5s0.8,8,2.8,12c2.2,4.6,5.7,7.3,10.2,8.2c1.4,0.3,2.8,0.2,4.2,0.2H64c0.3,0,0.5-0.1,0.7-0.3
				s0.2-0.4,0.2-0.7c0-0.3-0.1-0.5-1.1-0.5H63c-1.2,0-2.5,0.1-3.7-0.1c-3-0.5-5.5-2.3-7.6-5.3c-2.3-3.3-3.6-7.3-3.9-11.8l0,0
				c-0.1-2.3,0.1-4.1,0.7-5.7c1-3,2.6-4.9,4.9-5.8c3.4-1.4,6.7-0.8,9.6,1.6c2.1,1.7,3.6,4.1,4.7,7.4c1.2,3.4,1.5,6,1,8.6
				c-0.7,3.4-2.6,5.6-5.6,6.3c-2.8,0.7-5.4-0.2-7.4-2.7c-2.8-3.5-3.9-7.6-3.3-12.1c0.3-2.3,1.6-3.8,3.7-4.4c2.2-0.6,4,0.1,5.6,2
				c1.2,1.4,2,3.2,2.5,5.3c0.4,1.5,0.7,3.2,0,4.9c-0.2,0.5-0.8,2.2-2.5,2.4c-1.2,0.2-2.4-0.3-3.2-1.5c-0.8-1.1-1.3-2.4-1.6-3.9
				c-0.1-0.9-0.2-1.8-0.1-2.7c0-0.5,0.5-1.2,1-1.3s0.9,0.2,1.3,0.5c0.3,0.2,0.5,0.6,0.5,0.9c0.2,0.7,0.3,1.5,0.4,2.2l0.2,0.9
				c0,0.1,0,0.2,0.1,0.4c0,0.2,0.1,0.5,0.1,0.6c0.2,0.4,0.5,0.4,0.6,0.3c0.3-0.1,0.4-0.3,0.4-0.6v-0.3c0-0.3,0-0.6-0.1-0.9
				c-0.2-1.7-0.6-3.5-1.8-4.9c-0.6-0.7-1.5-1-2.4-0.9c-0.8,0.2-1.4,0.8-1.6,1.7c-0.2,1.2-0.2,2.3-0.1,3.4c0.2,2.3,1,4.2,2.3,5.8
				c1.1,1.3,2.7,1.9,4.3,1.6c1.5-0.3,2.7-1.3,3.3-2.9c0.4-1.1,0.5-2.4,0.4-4.1c-0.4-3.6-1.6-6.4-3.6-8.6c-2-2.1-4.2-2.8-6.7-2
				c-2.3,0.7-3.7,2.3-4.4,5c-0.4,1.9-0.4,3.9,0.2,6.3c0.9,3.8,2.3,6.7,4.5,9c3.5,3.6,8.6,2.5,11,0.6C68.9,72.3,70,69.9,70.2,66.9z"
				/>
			<path class="st2" d="M67.5,49.3c0.4,0.5,0.8,0.9,1.1,1.4c0.2,0.3,0.5,0.7,0.8,1c0.1,0.1,0.2,0.2,0.3,0.2c0.1-0.1,0.2-0.2,0.2-0.2
				c0.1-0.3,0-0.7-0.1-0.9C67,46,63,43.5,57.1,43.2l-0.7,0.1c-0.9,0.1-2.1,0.3-3.2,0.5c-0.2,0-0.6,0.3-0.7,0.6c0,0.1,0,0.4,0.1,0.5
				c0.1,0,0.3,0.1,0.5,0.1c1.5-0.4,2.9-0.6,4.2-0.6C61.1,44.3,64.6,46,67.5,49.3z"/>
		</g>
		<g>
			<path class="st15" d="M71.2,66.9c0.4-4.3-0.6-8.5-2.9-12.4c-2-3.4-4.4-5.6-7.4-6.5c-1.2-0.4-2.3-0.5-3.4-0.5
				c-2.5,0-4.7,1-6.6,2.9c-2.4,2.4-3.6,5.5-3.7,9.5s0.8,8,2.8,12c2.2,4.6,5.7,7.3,10.2,8.2c1.4,0.3,2.8,0.2,4.2,0.2H65
				c0.3,0,0.5-0.1,0.7-0.3s0.2-0.4,0.2-0.7c0-0.3-0.1-0.5-1.1-0.5H64c-1.2,0-2.5,0.1-3.7-0.1c-3-0.5-5.5-2.3-7.6-5.3
				c-2.3-3.3-3.6-7.3-3.9-11.8l0,0c-0.1-2.3,0.1-4.1,0.7-5.7c1-3,2.6-4.9,4.9-5.8c3.4-1.4,6.7-0.8,9.6,1.6c2.1,1.7,3.6,4.1,4.7,7.4
				c1.2,3.4,1.5,6,1,8.6c-0.7,3.4-2.6,5.6-5.6,6.3c-2.8,0.7-5.4-0.2-7.4-2.7c-2.8-3.5-3.9-7.6-3.3-12.1c0.3-2.3,1.6-3.8,3.7-4.4
				c2.2-0.6,4,0.1,5.6,2c1.2,1.4,2,3.2,2.5,5.3c0.4,1.5,0.7,3.2,0,4.9c-0.2,0.5-0.8,2.2-2.5,2.4c-1.2,0.2-2.4-0.3-3.2-1.5
				c-0.8-1.1-1.3-2.4-1.6-3.9c-0.1-0.9-0.2-1.8-0.1-2.7c0-0.5,0.5-1.2,1-1.3s0.9,0.2,1.3,0.5c0.3,0.2,0.5,0.6,0.5,0.9
				c0.2,0.7,0.3,1.5,0.4,2.2l0.2,0.9c0,0.1,0,0.2,0.1,0.4c0,0.2,0.1,0.5,0.1,0.6c0.2,0.4,0.5,0.4,0.6,0.3c0.3-0.1,0.4-0.3,0.4-0.6
				v-0.3c0-0.3,0-0.6-0.1-0.9c-0.2-1.7-0.6-3.5-1.8-4.9c-0.6-0.7-1.5-1-2.4-0.9c-0.8,0.2-1.4,0.8-1.6,1.7c-0.2,1.2-0.2,2.3-0.1,3.4
				c0.2,2.3,1,4.2,2.3,5.8c1.1,1.3,2.7,1.9,4.3,1.6c1.5-0.3,2.7-1.3,3.3-2.9c0.4-1.1,0.5-2.4,0.4-4.1c-0.4-3.6-1.6-6.4-3.6-8.6
				c-2-2.1-4.2-2.8-6.7-2c-2.3,0.7-3.7,2.3-4.4,5c-0.4,1.9-0.4,3.9,0.2,6.3c0.9,3.8,2.3,6.7,4.5,9c3.5,3.6,8.6,2.5,11,0.6
				C69.9,72.3,71,69.9,71.2,66.9z"/>
			<path class="st15" d="M68.5,49.3c0.4,0.5,0.8,0.9,1.1,1.4c0.2,0.3,0.5,0.7,0.8,1c0.1,0.1,0.2,0.2,0.3,0.2
				c0.1-0.1,0.2-0.2,0.2-0.2c0.1-0.3,0-0.7-0.1-0.9C68,46,64,43.5,58.1,43.2l-0.7,0.1c-0.9,0.1-2.1,0.3-3.2,0.5
				c-0.2,0-0.6,0.3-0.7,0.6c0,0.1,0,0.4,0.1,0.5c0.1,0,0.3,0.1,0.5,0.1c1.5-0.4,2.9-0.6,4.2-0.6C62.1,44.3,65.6,46,68.5,49.3z"/>
		</g>
	</g>
	<circle class="st1" cx="58" cy="61.5" r="48.3"/>
</g>
</svg>
