<?xml version="1.0" encoding="utf-8"?>
<!-- Generator: Adobe Illustrator 21.0.0, SVG Export Plug-In . SVG Version: 6.00 Build 0)  -->
<svg version="1.1" id="Layer_1" xmlns="http://www.w3.org/2000/svg" xmlns:xlink="http://www.w3.org/1999/xlink" x="0px" y="0px"
	 viewBox="0 0 22 22" style="enable-background:new 0 0 22 22;" xml:space="preserve">
<style type="text/css">
	.st0{fill:#555555;}
</style>
<g>
	<path class="st0" d="M2.5,11.7L3.2,11v0.7c0,0.1,0,0.2,0,0.3s0,0.2,0.1,0.4v0.2c0.5,2.2,1.6,3.9,3.5,5.1c3,1.9,6.8,1.5,9.4-1
		c0.2-0.2,0.3-0.5,0.2-0.8c-0.1-0.2-0.2-0.3-0.4-0.4c-0.2-0.1-0.5,0-0.6,0.2c-1.3,1.2-2.7,1.9-4.4,1.9l0,0c-2.8,0-4.8-1.3-6-3.8
		c-0.3-0.7-0.5-1.4-0.6-2.5v-0.6L5,11c0.1,0.1,0.1,0.1,0.2,0.2c0.2,0.2,0.3,0.4,0.5,0.5c0.2,0.2,0.3,0.4,0.5,0.6
		c0.3,0.3,0.5,0.4,0.7,0.3c0.3-0.1,0.4-0.2,0.5-0.4s0-0.5-0.2-0.7c-0.9-0.9-1.7-1.9-2.6-2.8C4.4,8.5,4.2,8.4,4.1,8.4l0,0
		c-0.2,0-0.3,0.1-0.4,0.2c-0.9,1-1.9,2-2.8,3c-0.1,0.1-0.2,0.3-0.2,0.5s0.1,0.3,0.2,0.4c0.3,0.2,0.6,0.2,0.9-0.1
		C2,12.1,2.3,11.9,2.5,11.7z"/>
	<path class="st0" d="M17.4,13.3c0.2,0.2,0.4,0.3,0.5,0.3l0,0c0.2,0,0.4-0.1,0.5-0.3c0.9-0.9,1.8-1.9,2.7-2.8
		c0.3-0.3,0.3-0.7,0.1-0.9c-0.4-0.4-0.8-0.1-1,0.1c-0.2,0.2-0.4,0.5-0.7,0.7L18.9,11l-0.2-0.5c0-0.1,0-0.1,0-0.2
		c0-0.2-0.1-0.3-0.1-0.5c0-0.3-0.1-0.6-0.2-0.9c-0.6-2.1-1.9-3.8-3.8-4.7c-1.9-1-4.1-1.2-6.1-0.5C7.4,4,6.4,4.7,5.6,5.5
		C5.4,5.7,5.3,5.9,5.4,6.1c0,0.2,0.2,0.3,0.4,0.4C6,6.7,6.2,6.7,6.6,6.3c1.5-1.4,3.2-2,5.3-1.7c2.7,0.3,5.1,2.5,5.5,5.2
		c0,0.2,0.1,0.4,0.1,0.6l0.1,0.5L17.2,11H17l-0.1-0.1c-0.1-0.1-0.2-0.1-0.2-0.2c-0.1-0.1-0.3-0.3-0.4-0.4c-0.2-0.2-0.4-0.4-0.6-0.6
		c-0.2-0.2-0.3-0.2-0.5-0.2c-0.1,0-0.3,0.1-0.4,0.2c-0.3,0.3-0.3,0.6,0,0.9C15.7,11.6,16.6,12.5,17.4,13.3z"/>
</g>
</svg>
