<?xml version="1.0" encoding="utf-8"?>
<!-- Generator: Adobe Illustrator 21.0.0, SVG Export Plug-In . SVG Version: 6.00 Build 0)  -->
<svg version="1.1" id="Layer_1" xmlns="http://www.w3.org/2000/svg" xmlns:xlink="http://www.w3.org/1999/xlink" x="0px" y="0px"
	 viewBox="0 0 22 22" style="enable-background:new 0 0 22 22;" xml:space="preserve">
<style type="text/css">
	.st0{fill:#FFFFFF;stroke:#231F20;stroke-miterlimit:10;}
	.st1{fill:#0E1744;}
	.st2{fill:#E6E7E8;}
	.st3{fill:#224099;}
	.st4{fill:#555555;}
	.st5{fill:#C81313;}
	.st6{fill:none;stroke:#C81313;stroke-miterlimit:10;}
	.st7{fill:none;stroke:#555555;stroke-linecap:round;stroke-miterlimit:10;}
	.st8{fill:#FFCD00;}
	.st9{fill:none;stroke:#224099;stroke-width:0.8378;stroke-miterlimit:10;}
	.st10{fill:none;stroke:#555555;stroke-width:0.7207;stroke-miterlimit:10;}
	.st11{fill:none;stroke:#555555;stroke-width:0.8016;stroke-miterlimit:10;}
	.st12{fill:#8599C1;}
	.st13{fill:none;stroke:#FFCD00;stroke-linecap:round;stroke-miterlimit:10;}
	.st14{fill:none;stroke:#FFCD00;stroke-linecap:round;stroke-miterlimit:10;stroke-dasharray:4.05,4.05,4.05,4.05;}
	.st15{fill:#D6D6D6;}
	.st16{fill:#BCBCBC;}
	.st17{fill:#FEFEFE;}
	.st18{fill:#131313;}
	.st19{fill:#111111;}
	.st20{fill:#FFFFFF;}
	.st21{fill:none;stroke:#0E1744;stroke-width:0.6403;stroke-linecap:round;stroke-linejoin:round;stroke-miterlimit:10;}
</style>
<g>
	<path class="st4" d="M17.6,11.1c0-0.1,0-0.3-0.1-0.5c0,0-0.3-0.4-0.6-0.4c-0.3,0-0.5,0.3-0.6,0.4c-0.1,0.1-0.1,0.3-0.1,0.4
		c0,0,0,0,0,0.1v5.9c0,1.3-0.6,1.8-1.8,1.8H5c-1.2,0-1.8-0.6-1.8-1.8c0-3.3,0-6.6,0-9.9c0-1.2,0.6-1.8,1.8-1.8h5.3l0.1,0
		c0.1,0,0.2,0,0.3,0c0.4-0.1,0.6-0.3,0.6-0.7c0-0.4-0.2-0.6-0.6-0.7c-0.1,0-0.1,0-0.2,0c0,0-3.6,0-5.5,0c-0.3,0-0.6,0-0.9,0.1
		C2.8,4.5,1.9,5.7,1.9,7.1c0,1.2,0,2.4,0,3.6l0,1.5l0,1.6c0,1.2,0,2.3,0,3.5c0,1.9,1.2,3,3,3c1.6,0,3.2,0,4.8,0c1.6,0,3.2,0,4.8,0
		c1.9,0,3.1-1.2,3.1-3.1C17.6,14.5,17.6,13.8,17.6,11.1L17.6,11.1z"/>
	<path class="st4" d="M19.5,4.1l-1.9,0V2.6c0-0.2,0-0.8-0.6-0.9c-0.2,0-0.4,0-0.5,0.2c-0.2,0.1-0.2,0.4-0.2,0.7c0,0.4,0,0.8,0,1.1
		v0.4l-0.9,0c-0.3,0-0.6,0-0.9,0c-0.2,0-0.4,0.1-0.5,0.2c-0.1,0.1-0.2,0.3-0.2,0.5c0,0.4,0.3,0.6,0.7,0.7c0.1,0,0.2,0,0.3,0h1.6
		l0,1.7c0,0.2,0.1,0.4,0.2,0.6c0.1,0.1,0.3,0.2,0.5,0.2c0.4,0,0.7-0.3,0.7-0.7c0-0.2,0-0.3,0-0.5l0-1.2l0.7,0c0.4,0,0.8,0,1.2,0
		c0.4,0,0.7-0.3,0.7-0.7C20.1,4.4,19.9,4.1,19.5,4.1z"/>
	<g>
		<path class="st4" d="M10,7.7v0.5c0.3,0,0.6,0.1,0.9,0.2c0.2,0.1,0.5,0.3,0.6,0.5c0.1,0.2,0.3,0.3,0.3,0.5C12,9.6,12,9.8,12,9.9
			c0,0.2-0.1,0.3-0.2,0.4c-0.1,0.1-0.3,0.2-0.4,0.2c-0.3,0-0.5-0.2-0.6-0.5c-0.1-0.4-0.4-0.7-0.8-0.8v2c0.4,0.1,0.7,0.2,1,0.3
			c0.2,0.1,0.4,0.2,0.6,0.4c0.2,0.2,0.4,0.4,0.5,0.6c0.1,0.2,0.2,0.5,0.2,0.8c0,0.4-0.1,0.7-0.3,1c-0.2,0.3-0.4,0.6-0.8,0.8
			c-0.3,0.2-0.7,0.3-1.2,0.4v0.8c0,0.2,0,0.3-0.1,0.4c0,0.1-0.1,0.1-0.2,0.1c-0.1,0-0.2,0-0.2-0.1c0-0.1-0.1-0.2-0.1-0.3v-0.9
			c-0.4,0-0.7-0.1-1-0.3c-0.3-0.1-0.5-0.3-0.7-0.5c-0.2-0.2-0.3-0.4-0.4-0.6c-0.1-0.2-0.1-0.4-0.1-0.6c0-0.2,0.1-0.3,0.2-0.4
			c0.1-0.1,0.3-0.2,0.5-0.2c0.1,0,0.3,0,0.4,0.1c0.1,0.1,0.2,0.2,0.2,0.3c0.1,0.3,0.2,0.5,0.2,0.6c0.1,0.1,0.2,0.3,0.3,0.4
			c0.1,0.1,0.3,0.2,0.5,0.3v-2.2C9,12.2,8.6,12,8.3,11.9c-0.3-0.1-0.5-0.4-0.7-0.6c-0.2-0.3-0.3-0.6-0.3-1c0-0.6,0.2-1,0.5-1.4
			c0.4-0.4,0.9-0.6,1.5-0.6V7.7c0-0.3,0.1-0.4,0.3-0.4C9.9,7.3,10,7.5,10,7.7z M9.4,11V9.2C9.1,9.3,8.9,9.4,8.8,9.5
			c-0.2,0.1-0.2,0.3-0.2,0.6c0,0.3,0.1,0.4,0.2,0.6C8.9,10.8,9.1,10.9,9.4,11z M10,12.5v2.1c0.3-0.1,0.6-0.2,0.8-0.4
			c0.2-0.2,0.3-0.4,0.3-0.7c0-0.3-0.1-0.5-0.3-0.7C10.6,12.7,10.3,12.6,10,12.5z"/>
	</g>
</g>
</svg>
