<?xml version="1.0" encoding="utf-8"?>
<!-- Generator: Adobe Illustrator 21.0.0, SVG Export Plug-In . SVG Version: 6.00 Build 0)  -->
<svg version="1.1" id="Layer_1" xmlns="http://www.w3.org/2000/svg" xmlns:xlink="http://www.w3.org/1999/xlink" x="0px" y="0px"
	 viewBox="0 0 32 32" style="enable-background:new 0 0 32 32;" xml:space="preserve">
<style type="text/css">
	.st0{fill:none;stroke:#555555;stroke-width:1.0714;stroke-linecap:round;stroke-linejoin:round;stroke-miterlimit:10;}
	.st1{fill:#FFFFFF;stroke:#555555;stroke-width:1.0714;stroke-linecap:round;stroke-linejoin:round;stroke-miterlimit:10;}
</style>
<g>
	<g>
		<circle class="st0" cx="22.2" cy="21.9" r="8.8"/>
		<path class="st0" d="M22.2,14.8c3,0,5.6,1.9,6.6,4.6"/>
		<circle class="st1" cx="18.6" cy="18.8" r="0.9"/>
		<circle class="st1" cx="19.4" cy="22.2" r="0.8"/>
		<circle class="st1" cx="16" cy="21.3" r="0.9"/>
	</g>
	<g>
		<path class="st0" d="M7.8,25.5L5,26.1c-0.4,0.1-0.8-0.1-1.1-0.4C3.1,24.6,2.4,23,2,21.3c-0.5-2.4-0.4-4.6,0.2-6.2
			c0.4-0.9,0.5-1.9,0.3-2.8l0,0c-0.1-0.4-0.3-0.8-0.7-1.1c-0.3-0.3-0.6-0.7-0.7-1.2C0.8,8.7,1.6,7.5,2.9,7.3c1-0.1,2,0.5,2.3,1.5
			c0.2,0.6,0.1,1.1-0.1,1.6C5,10.8,4.9,11.3,5,11.7l0,0c0.2,0.9,0.7,1.8,1.5,2.4c0.3,0.3,0.6,0.6,0.8,0.9"/>
		<line class="st0" x1="2.2" y1="14.9" x2="3.6" y2="14.6"/>
		<line class="st0" x1="2.5" y1="13.1" x2="5.3" y2="12.5"/>
		<ellipse transform="matrix(0.9755 -0.2202 0.2202 0.9755 -1.8931 1.0736)" class="st0" cx="3.9" cy="9" rx="0.1" ry="0.1"/>
	</g>
	<g>
		<path class="st0" d="M20.7,12.9c-0.4-0.9-0.5-1.9-0.3-2.8l0,0c0.1-0.4,0.3-0.8,0.7-1.1c0.4-0.3,0.7-0.8,0.7-1.4
			c0.1-1-0.5-2-1.5-2.3c-1.3-0.4-2.6,0.4-2.8,1.6c-0.1,0.5,0,1,0.2,1.4c0.2,0.4,0.2,0.8,0.2,1.3l0,0c-0.2,1-0.7,1.8-1.4,2.5
			c-0.2,0.2-0.3,0.3-0.5,0.5"/>
		<line class="st0" x1="16.5" y1="11.8" x2="17.9" y2="12.1"/>
		<line class="st0" x1="17.6" y1="10.3" x2="20.3" y2="10.9"/>
		<ellipse transform="matrix(0.2103 -0.9776 0.9776 0.2103 9.1517 25.6838)" class="st0" cx="20.5" cy="7.2" rx="0.1" ry="0.1"/>
	</g>
	<g>
		<path class="st0" d="M16.6,15.1c-0.4-1.5-0.9-2.7-1.6-3.7c-0.8-1.1-1.2-2.4-1.2-3.7v0c0-0.6,0.2-1.2,0.6-1.7
			C14.8,5.5,15,4.8,14.9,4c-0.1-1.4-1.2-2.5-2.6-2.6C10.5,1.2,9,2.6,9,4.3C9,5,9.2,5.6,9.6,6.1c0.4,0.5,0.6,1,0.6,1.6v0
			c0,1.3-0.4,2.6-1.2,3.7c-1.3,1.8-2.1,4.8-2.1,8.1c0,2.5,0.5,4.8,1.2,6.5c0.2,0.5,0.8,0.9,1.3,0.9h5.1c0.1,0,0.3,0,0.4,0"/>
		<line class="st0" x1="9.1" y1="11.2" x2="11" y2="11.2"/>
		<line class="st0" x1="10.1" y1="8.9" x2="13.9" y2="8.9"/>
		<circle class="st0" cx="13" cy="3.9" r="0.2"/>
	</g>
</g>
</svg>
