<?xml version="1.0" encoding="utf-8"?>
<!-- Generator: Adobe Illustrator 21.0.0, SVG Export Plug-In . SVG Version: 6.00 Build 0)  -->
<svg version="1.1" id="Layer_1" xmlns="http://www.w3.org/2000/svg" xmlns:xlink="http://www.w3.org/1999/xlink" x="0px" y="0px"
	 viewBox="0 0 22 22" style="enable-background:new 0 0 22 22;" xml:space="preserve">
<style type="text/css">
	.st0{fill:#B2B2B2;}
</style>
<g>
	<path class="st0" d="M6.5,20.2c-1.3-1.3-2.5-2.5-3.8-3.8c-0.4-0.4-0.8-0.8-1.2-1.2c-0.7-0.7-0.7-1.5,0-2.2c0.4-0.4,0.8-0.9,1.3-1.3
		c3.5-3.5,7-7,10.5-10.5c0.9-0.9,1.6-0.9,2.5,0c1.5,1.5,3.1,3.1,4.6,4.6c0.9,0.9,0.9,1.6,0,2.5c-3.8,3.8-7.7,7.7-11.5,11.5
		c-0.1,0.1-0.2,0.2-0.4,0.3c0,0,0,0.1,0.1,0.1s0.2,0,0.3,0c1.5,0,3.1,0,4.6,0c0.1,0,0.3,0,0.4,0c0.2,0.1,0.3,0.3,0.3,0.5
		s-0.2,0.4-0.4,0.5c-0.1,0.1-0.3,0-0.4,0c-3.1,0-6.3,0-9.4,0c-0.1,0-0.1,0-0.2,0c-0.4,0-0.6-0.2-0.6-0.5s0.2-0.5,0.7-0.5
		C4.8,20.2,5.6,20.2,6.5,20.2C6.4,20.3,6.5,20.2,6.5,20.2z M18.4,8.8c-1.8-1.8-3.7-3.7-5.5-5.5C10,6.1,7,9.1,4.1,12
		c1.8,1.8,3.7,3.7,5.6,5.5C12.6,14.6,15.5,11.7,18.4,8.8z M8.9,18.4c-1.9-1.9-3.8-3.8-5.7-5.7c-0.3,0.3-0.7,0.7-1,1s-0.3,0.5,0,0.8
		c1.6,1.6,3.2,3.2,4.9,4.9c0.2,0.2,0.5,0.3,0.7,0C8.2,19.1,8.6,18.8,8.9,18.4z M19.3,8c0.1-0.1,0.2-0.2,0.3-0.3
		c0.5-0.5,0.5-0.6,0-1.2c-1.4-1.4-2.8-2.8-4.3-4.3c-0.8-0.8-0.8-0.8-1.6,0l0,0C15.6,4.2,17.4,6.1,19.3,8z"/>
	<path class="st0" d="M6,16.3c0,0.3-0.3,0.6-0.6,0.6c-0.3,0-0.6-0.3-0.6-0.6c0-0.3,0.3-0.6,0.6-0.6C5.7,15.7,6,16,6,16.3z"/>
	<path class="st0" d="M16.6,4.4c0.1,0.1,0.2,0.1,0.3,0.2c0.5,0.5,0.9,0.9,1.4,1.4c0.1,0.1,0.1,0.2,0.1,0.3c-0.1,0-0.3,0-0.3-0.1
		c-0.5-0.4-0.9-0.9-1.4-1.4c-0.1-0.1-0.1-0.2-0.1-0.2C16.5,4.6,16.6,4.5,16.6,4.4z"/>
</g>
</svg>
