<?xml version="1.0" encoding="utf-8"?>
<!-- Generator: Adobe Illustrator 21.0.0, SVG Export Plug-In . SVG Version: 6.00 Build 0)  -->
<svg version="1.1" id="Layer_1" xmlns="http://www.w3.org/2000/svg" xmlns:xlink="http://www.w3.org/1999/xlink" x="0px" y="0px"
	 viewBox="0 0 22 22" style="enable-background:new 0 0 22 22;" xml:space="preserve">
<style type="text/css">
	.st0{fill:#FFFFFF;stroke:#231F20;stroke-miterlimit:10;}
	.st1{fill:#0E1744;}
	.st2{fill:#E6E7E8;}
	.st3{fill:#224099;}
	.st4{fill:#555555;}
	.st5{fill:#C81313;}
	.st6{fill:none;stroke:#C81313;stroke-miterlimit:10;}
	.st7{fill:none;stroke:#555555;stroke-linecap:round;stroke-miterlimit:10;}
	.st8{fill:#FFCD00;}
	.st9{fill:none;stroke:#224099;stroke-width:0.8378;stroke-miterlimit:10;}
	.st10{fill:none;stroke:#555555;stroke-width:0.7207;stroke-miterlimit:10;}
	.st11{fill:none;stroke:#555555;stroke-width:0.8016;stroke-miterlimit:10;}
	.st12{fill:#8599C1;}
	.st13{fill:none;stroke:#FFCD00;stroke-linecap:round;stroke-miterlimit:10;}
	.st14{fill:none;stroke:#FFCD00;stroke-linecap:round;stroke-miterlimit:10;stroke-dasharray:4.05,4.05,4.05,4.05;}
	.st15{fill:#D5E2F7;}
	.st16{fill:#224099;stroke:#072268;stroke-miterlimit:10;}
	.st17{fill:#224099;stroke:#072268;stroke-linecap:round;stroke-linejoin:round;stroke-miterlimit:10;}
	.st18{fill:#D5E2F7;stroke:#FFCD00;stroke-width:0.75;stroke-linecap:round;stroke-linejoin:round;stroke-miterlimit:10;}
	.st19{fill:none;stroke:#FFCD00;stroke-width:0.75;stroke-miterlimit:10;}
	.st20{fill:none;stroke:#072268;stroke-width:0.5;stroke-miterlimit:10;}
	.st21{fill:#FFCD00;stroke:#0E1744;stroke-miterlimit:10;}
	.st22{fill:#FFFFFF;}
	.st23{fill:#1576C6;}
	.st24{fill:#FCFCFC;}
	.st25{fill:#020202;}
	.st26{fill:#050505;}
	.st27{fill:none;stroke:#0E1744;stroke-miterlimit:10;}
	.st28{fill:none;stroke:#0E1744;stroke-linecap:round;stroke-linejoin:round;stroke-miterlimit:10;}
	.st29{fill:none;stroke:#000000;stroke-linecap:round;stroke-linejoin:round;stroke-miterlimit:10;}
	.st30{fill:none;stroke:#000000;stroke-miterlimit:10;}
	.st31{fill:none;stroke:#555555;stroke-width:1.2;stroke-miterlimit:10;}
</style>
<g>
	<path class="st4" d="M3.4,19.4c0,0.4,0.1,0.7,0.3,0.8c0.2,0.1,0.5,0.2,0.9,0.1l0.5-0.1c0.8-0.2,1.7-0.4,2.5-0.7
		c0.4-0.1,0.8-0.4,1-0.7c0.9-1.1,1.9-2.2,2.8-3.3c0.3-0.4,0.6-0.7,0.9-1.1c0.5-0.7,1.1-1.3,1.6-2c1.3-1.6,2.6-3.2,3.9-4.8
		c1.1-1.4,1-3.2-0.3-4.3c-0.6-0.5-1.3-0.8-1.9-0.8c-0.1,0-0.1,0-0.2,0c-0.8,0.1-1.5,0.5-2.1,1.2C12.2,5.1,11,6.5,9.9,7.8
		c-1.7,2-3.4,4.1-5.1,6.1c-0.9,1-1.6,1.8-1.5,3.5C3.4,17.4,3.4,19,3.4,19.4z M13.6,5.4c0.1-0.1,0.3-0.3,0.4-0.5
		c0.5-0.6,0.9-1.2,1.9-1c0.5,0.1,1.2,0.6,1.4,1.1c0.4,0.9-0.1,1.5-0.7,2.2c-0.1,0.1-0.2,0.3-0.3,0.4l-0.1,0.1L13.6,5.4L13.6,5.4z
		 M5.9,14.7C7.5,12.9,9,11,10.6,9c0.6-0.8,1.3-1.6,1.9-2.4l0.1-0.1l2.6,2.2l-3.2,4c-0.4,0.4-0.7,0.9-1.1,1.3c-0.8,1-1.7,2-2.4,3
		c-0.9,1.4-2.3,1.6-3.6,1.8l-0.1,0l0-0.1C4.7,17.4,4.7,16,5.9,14.7z"/>
	<line class="st7" x1="4.1" y1="19.9" x2="14.7" y2="19.9"/>
</g>
</svg>
