<?xml version="1.0" encoding="utf-8"?>
<!-- Generator: Adobe Illustrator 21.0.0, SVG Export Plug-In . SVG Version: 6.00 Build 0)  -->
<svg version="1.1" id="Layer_1" xmlns="http://www.w3.org/2000/svg" xmlns:xlink="http://www.w3.org/1999/xlink" x="0px" y="0px"
	 viewBox="0 0 22 22" style="enable-background:new 0 0 22 22;" xml:space="preserve">
<style type="text/css">
	.st0{fill:#FFFFFF;stroke:#231F20;stroke-miterlimit:10;}
	.st1{fill:#0E1744;}
	.st2{fill:#E6E7E8;}
	.st3{fill:#224099;}
	.st4{fill:#555555;}
	.st5{fill:#C81313;}
	.st6{fill:none;stroke:#C81313;stroke-miterlimit:10;}
	.st7{fill:none;stroke:#555555;stroke-linecap:round;stroke-miterlimit:10;}
	.st8{fill:#FFCD00;}
	.st9{fill:none;stroke:#224099;stroke-width:0.8378;stroke-miterlimit:10;}
	.st10{fill:none;stroke:#555555;stroke-width:0.7207;stroke-miterlimit:10;}
	.st11{fill:none;stroke:#555555;stroke-width:0.8016;stroke-miterlimit:10;}
	.st12{fill:#8599C1;}
	.st13{fill:none;stroke:#FFCD00;stroke-linecap:round;stroke-miterlimit:10;}
	.st14{fill:none;stroke:#FFCD00;stroke-linecap:round;stroke-miterlimit:10;stroke-dasharray:4.05,4.05,4.05,4.05;}
	.st15{fill:#D5E2F7;}
	.st16{fill:#224099;stroke:#072268;stroke-miterlimit:10;}
	.st17{fill:#224099;stroke:#072268;stroke-linecap:round;stroke-linejoin:round;stroke-miterlimit:10;}
	.st18{fill:#D5E2F7;stroke:#FFCD00;stroke-width:0.75;stroke-linecap:round;stroke-linejoin:round;stroke-miterlimit:10;}
	.st19{fill:none;stroke:#FFCD00;stroke-width:0.75;stroke-miterlimit:10;}
	.st20{fill:none;stroke:#072268;stroke-width:0.5;stroke-miterlimit:10;}
	.st21{fill:#FFCD00;stroke:#0E1744;stroke-miterlimit:10;}
	.st22{fill:#FFFFFF;}
	.st23{fill:#1576C6;}
	.st24{fill:#FCFCFC;}
	.st25{fill:#020202;}
	.st26{fill:#050505;}
	.st27{fill:none;stroke:#0E1744;stroke-miterlimit:10;}
	.st28{fill:none;stroke:#0E1744;stroke-linecap:round;stroke-linejoin:round;stroke-miterlimit:10;}
	.st29{fill:none;stroke:#000000;stroke-linecap:round;stroke-linejoin:round;stroke-miterlimit:10;}
	.st30{fill:none;stroke:#000000;stroke-miterlimit:10;}
</style>
<g>
	<g>
		<path class="st4" d="M17.9,16.5c-0.3-1.1-0.7-2-1.4-2.8c-1.4-1.8-3.4-2.8-5.5-2.8c-0.7,0-1.4,0.2-2.1,0.3
			c-2.3,0.8-3.9,2.5-4.8,5.1C3.8,17,4,18,4.6,18.7c0.5,0.6,1.2,1,2.1,1c0,0,0,0,0,0c1-0.1,2-0.1,3,0h5.7c0.8,0,1.6-0.3,2-1
			C17.9,18,18,17.3,17.9,16.5z M5,16.6c0.6-2,2-3.6,3.8-4.2c0.7-0.2,1.4-0.4,2-0.4c1,0,2,0.3,2.9,0.8c1.3,0.7,2.2,2,2.8,3.7
			c0.2,0.4,0.1,0.9-0.1,1.2l0,0c-0.2,0.4-0.8,0.6-1.3,0.6H6.4c-0.6,0-1-0.2-1.2-0.5C5,17.4,4.9,17,5,16.6z"/>
		<path class="st4" d="M10.9,10.5c2.3,0,4.1-1.8,4.1-4.1c0-1.1-0.4-2.1-1.2-2.9C13,2.7,12,2.3,10.9,2.3c-2.2,0-4.1,1.9-4.1,4.1
			c0,1.2,0.4,2.2,1.2,2.9C8.7,10.1,9.7,10.5,10.9,10.5z M7.9,6.4c0-0.8,0.3-1.5,0.9-2c0.6-0.6,1.3-0.9,2.1-0.9c1.7,0,2.9,1.3,2.9,3
			c0.1,0.6-0.2,1.4-0.8,2c-0.6,0.6-1.3,0.9-2.1,0.9c-0.9,0-1.6-0.3-2.1-0.9C8.2,7.9,7.9,7.2,7.9,6.4z"/>
	</g>
	<g>
		<path class="st4" d="M22.2,16.4c-0.3-1.1-0.7-2-1.4-2.8c-1.4-1.7-3.4-2.7-5.5-2.7c-0.4,0-0.8,0-1.1,0.1l-0.6,0.1l0.5,0.3
			c0.3,0.2,0.6,0.4,0.8,0.5V12l0.3,0c1.1-0.1,2.2,0.2,3.2,0.8c1.3,0.7,2.2,2,2.8,3.7c0.1,0.5,0.1,1-0.2,1.3
			c-0.2,0.4-0.8,0.6-1.3,0.6h-2l-1.1,1.1h3.1c0.8,0,1.6-0.3,2-1C22.2,18,22.4,17.2,22.2,16.4z"/>
		<path class="st4" d="M19.3,6.4c0-1.1-0.4-2.1-1.2-2.9c-0.8-0.8-1.8-1.2-2.9-1.2c-0.6,0-1.1,0.1-1.7,0.4l-0.3,0.2l0.3,0.2
			c0.1,0.1,0.3,0.2,0.4,0.3v0.3l0.3-0.1c0.3-0.1,0.7-0.2,1-0.2c1.7,0,2.9,1.3,2.9,3c0.1,0.8-0.2,1.5-0.8,2c-0.7,0.6-1.4,0.9-2.1,0.9
			c-0.3,0-0.6,0-1-0.1l-0.1,0l-0.1,0c-0.2,0.1-0.5,0.4-0.6,0.6L13.3,10l0.2,0.1c0.4,0.2,1,0.3,1.7,0.3C17.5,10.5,19.3,8.7,19.3,6.4z
			"/>
		<path class="st4" d="M6.7,10.8c-2,0-4,1-5.5,2.7c-0.9,1.1-1.3,1.9-1.4,2.8c-0.2,0.8,0,1.5,0.5,2.2c0.5,0.6,1.2,1,2,1h3.1l-1-1h-2
			c-0.5,0-1-0.3-1.3-0.6c-0.3-0.4-0.4-0.9-0.3-1.4c0.6-1.7,1.5-2.9,2.8-3.7c0.9-0.6,1.9-0.8,3.2-0.8h0.3v-0.1
			c0.1-0.1,0.5-0.3,0.8-0.5L8.5,11l-0.6-0.1C7.4,10.8,7.1,10.8,6.7,10.8z"/>
		<path class="st4" d="M7.7,9.2C7.3,9.3,7,9.3,6.7,9.3C5.9,9.3,5.2,9,4.6,8.4C4,7.8,3.8,7.1,3.8,6.4c0-1.7,1.3-3,2.9-3
			c0.3,0,0.7,0.1,1,0.2l0.2,0.1l0.8-0.8L8.4,2.7C7.9,2.5,7.3,2.3,6.7,2.3c-1.1,0-2.1,0.4-2.9,1.2C3,4.3,2.6,5.3,2.6,6.4
			c0,2.2,1.9,4.1,4.1,4.1c0.6,0,1.1-0.1,1.6-0.3L8.7,10L7.8,9.1L7.7,9.2z"/>
	</g>
</g>
</svg>
