<?xml version="1.0" encoding="utf-8"?>
<!-- Generator: Adobe Illustrator 22.0.1, SVG Export Plug-In . SVG Version: 6.00 Build 0)  -->
<svg version="1.1" id="Layer_1" xmlns="http://www.w3.org/2000/svg" xmlns:xlink="http://www.w3.org/1999/xlink" x="0px" y="0px"
	 viewBox="0 0 22 22" style="enable-background:new 0 0 22 22;" xml:space="preserve">
<style type="text/css">
	.st0{fill:#555555;}
	.st1{fill:none;stroke:#555555;stroke-linecap:round;stroke-linejoin:round;stroke-miterlimit:10;}
</style>
<g>
	<g>
		<path class="st0" d="M17,5c0-0.5,0-0.9,0-1.3c0-0.1,0.1-0.2,0.2-0.2c0.5,0,1,0,1.5,0C19.4,3.6,20,4.2,20,5C20,5,20,5,20,5
			c0,4.5,0,9,0,13.4c0,0.7-0.5,1.3-1.1,1.5c-0.1,0-0.3,0-0.4,0c-4.9,0-9.9,0-14.8,0c-1,0-1.6-0.6-1.6-1.6C2,14,2,9.6,2,5.1
			c0-1,0.5-1.6,1.5-1.6c0.4,0,0.8,0,1.3,0C4.8,3.5,5,3.6,5,3.7C5,4.1,5,4.5,5,5C4.6,5,4.2,5,3.9,5C3.6,5,3.5,5.1,3.5,5.4
			c0,4.3,0,8.5,0,12.8c0,0.3,0.1,0.4,0.4,0.4c4.8,0,9.5,0,14.3,0c0.3,0,0.3-0.1,0.3-0.3c0-4.3,0-8.5,0-12.8c0-0.3-0.1-0.4-0.4-0.4
			C17.8,5,17.4,5,17,5z"/>
		<path class="st0" d="M11.8,4.2c0,0.5,0,0.9,0,1.4c0,0.5-0.3,0.9-0.7,0.9c-0.5,0-0.8-0.3-0.8-0.9c0-0.9,0-1.8,0-2.8
			c0-0.4,0.2-0.6,0.5-0.8c0.3-0.1,0.6,0,0.8,0.2c0.1,0.2,0.2,0.4,0.2,0.6C11.8,3.3,11.8,3.8,11.8,4.2z"/>
		<path class="st0" d="M7.2,4.2c0,0.5,0,1,0,1.5c0,0.5-0.3,0.8-0.7,0.8c-0.4,0-0.7-0.3-0.7-0.8c0-1,0-2,0-3C5.8,2.3,6.1,2,6.5,2
			c0.4,0,0.7,0.3,0.7,0.8C7.2,3.3,7.2,3.7,7.2,4.2z"/>
		<path class="st0" d="M16.2,4.3c0,0.5,0,1,0,1.5c0,0.5-0.3,0.8-0.7,0.8c-0.4,0-0.7-0.3-0.7-0.8c0-1,0-2,0-3c0-0.4,0.3-0.7,0.7-0.8
			c0.4,0,0.7,0.3,0.7,0.8C16.2,3.3,16.2,3.8,16.2,4.3z"/>
		<path class="st0" d="M9.5,5C9,5,8.5,5,8,5c0-0.4,0-0.9,0-1.3c0,0,0.1-0.1,0.2-0.1c0.4,0,0.7,0,1.1,0c0.1,0,0.2,0.1,0.2,0.2
			C9.5,4.1,9.5,4.5,9.5,5z"/>
		<path class="st0" d="M13.3,5c-0.8,0-0.8,0-0.8-0.8c0-0.9-0.1-0.7,0.7-0.8c0.8,0,0.8,0,0.8,0.8C14,5,14,5,13.3,5z"/>
	</g>
	<g>
		<polyline class="st1" points="8.8,8.8 11,11 13.2,8.8 		"/>
		<polyline class="st1" points="13.2,15.2 11,13 8.8,15.2 		"/>
	</g>
</g>
</svg>
