<?xml version="1.0" encoding="utf-8"?>
<!-- Generator: Adobe Illustrator 21.0.0, SVG Export Plug-In . SVG Version: 6.00 Build 0)  -->
<svg version="1.1" id="Layer_1" xmlns="http://www.w3.org/2000/svg" xmlns:xlink="http://www.w3.org/1999/xlink" x="0px" y="0px"
	 viewBox="0 0 54 54" style="enable-background:new 0 0 54 54;" xml:space="preserve">
<style type="text/css">
	.st0{fill:#1E2254;}
	.st1{fill:none;stroke:#FFFFFF;stroke-width:1.2;stroke-linejoin:round;stroke-miterlimit:10;}
	.st2{fill:#FFFFFF;}
	.st3{fill:none;stroke:#FFFFFF;stroke-width:1.2;stroke-linecap:round;stroke-miterlimit:10;}
	.st4{fill:none;stroke:#FFFFFF;stroke-width:1.2;stroke-linecap:round;stroke-linejoin:round;stroke-miterlimit:10;}
	.st5{fill:none;stroke:#FFFFFF;stroke-width:1.5;stroke-linecap:round;stroke-miterlimit:10;}
</style>
<circle class="st0" cx="27" cy="27" r="27"/>
<g>
	<g>
		<path class="st1" d="M32.6,34.9c-0.3-1.3-0.9-2.4-1.9-3.8c-1.8-2.3-4.5-3.7-7.3-3.7c-0.9,0-1.9,0.2-2.7,0.5
			c-3.2,1.1-5.3,3.4-6.4,6.8c-0.3,1-0.1,2.2,0.6,3.1c0.6,0.8,1.5,1.2,2.5,1.2c0.1,0,0.1,0,0.2,0c1.4-0.1,2.8-0.1,4,0
			c0.6,0,1.2,0,1.8,0h6c1.1,0,2-0.4,2.7-1.2C32.6,37,32.8,36,32.6,34.9z"/>
		<g>
			<path class="st2" d="M23.3,16.2c1.1,0,2.2,0.4,3,1.2c0.8,0.8,1.2,1.9,1.2,3c0,2.3-1.9,4.1-4.2,4.1c-1.1,0-2.2-0.4-3-1.2
				c-0.8-0.8-1.2-1.9-1.2-3C19.1,18.1,21.1,16.2,23.3,16.2L23.3,16.2 M23.3,15L23.3,15c-2.9,0-5.4,2.4-5.4,5.3
				c0,1.5,0.6,2.9,1.6,3.9c1,1,2.4,1.6,3.8,1.6c3,0,5.4-2.4,5.4-5.3c0-1.5-0.6-2.8-1.6-3.9C26.1,15.6,24.8,15,23.3,15L23.3,15z"/>
		</g>
	</g>
	<path class="st3" d="M33.4,39l2.5,0c1.1,0,2-0.4,2.7-1.2c0.6-0.8,0.8-1.8,0.6-2.8 M33,28c-1-0.4-2-0.5-3-0.5c-0.3,0-0.5,0-0.8,0"/>
	<path class="st4" d="M28.9,25.1c0.3,0.1,0.7,0.1,1.1,0.1c2.7,0,4.9-2.2,4.9-4.8c0-1.3-0.5-2.5-1.4-3.5c-0.9-0.9-2.1-1.4-3.4-1.4h0
		c-0.4,0-0.7,0-1.1,0.1"/>
	<g>
		<line class="st5" x1="34.6" y1="30.8" x2="39.9" y2="30.8"/>
		<line class="st5" x1="37.3" y1="33.5" x2="37.3" y2="28.2"/>
	</g>
</g>
</svg>
