<?xml version="1.0" encoding="utf-8"?>
<!-- Generator: Adobe Illustrator 21.0.0, SVG Export Plug-In . SVG Version: 6.00 Build 0)  -->
<svg version="1.1" id="Layer_1" xmlns="http://www.w3.org/2000/svg" xmlns:xlink="http://www.w3.org/1999/xlink" x="0px" y="0px"
	 viewBox="0 0 31.8 22" style="enable-background:new 0 0 31.8 22;" xml:space="preserve">
<style type="text/css">
	.st0{fill:#FFFFFF;stroke:#231F20;stroke-miterlimit:10;}
	.st1{fill:#0E1744;}
	.st2{fill:#E6E7E8;}
	.st3{fill:#224099;}
	.st4{fill:#555555;}
	.st5{fill:#C81313;}
	.st6{fill:none;stroke:#C81313;stroke-miterlimit:10;}
	.st7{fill:none;stroke:#555555;stroke-linecap:round;stroke-miterlimit:10;}
	.st8{fill:#FFCD00;}
	.st9{fill:none;stroke:#224099;stroke-width:0.8378;stroke-miterlimit:10;}
	.st10{fill:none;stroke:#555555;stroke-width:0.7207;stroke-miterlimit:10;}
	.st11{fill:none;stroke:#555555;stroke-width:0.8016;stroke-miterlimit:10;}
	.st12{fill:#8599C1;}
	.st13{fill:none;stroke:#FFCD00;stroke-linecap:round;stroke-miterlimit:10;}
	.st14{fill:none;stroke:#FFCD00;stroke-linecap:round;stroke-miterlimit:10;stroke-dasharray:4.05,4.05,4.05,4.05;}
	.st15{fill:#D6D6D6;}
	.st16{fill:#BCBCBC;}
	.st17{fill:#FEFEFE;}
	.st18{fill:#131313;}
	.st19{fill:#111111;}
	.st20{fill:#FFFFFF;}
	.st21{fill:none;stroke:#0E1744;stroke-width:0.6403;stroke-linecap:round;stroke-linejoin:round;stroke-miterlimit:10;}
</style>
<g>
	<path class="st4" d="M25.4,11.1c0-0.1,0-0.3-0.1-0.5c0,0-0.3-0.4-0.6-0.4c-0.3,0-0.5,0.3-0.6,0.4C24,10.8,24,11,24.1,11.1
		c0,0,0,0,0,0.1v5.9c0,1.3-0.6,1.8-1.8,1.8H6.9c-1.2,0-1.8-0.6-1.8-1.8c0-3.3,0-6.6,0-9.9c0-1.2,0.6-1.8,1.8-1.8h11.3l0.1,0
		c0.1,0,0.2,0,0.3,0c0.4-0.1,0.6-0.3,0.6-0.7c0-0.4-0.2-0.6-0.6-0.7c-0.1,0-0.1,0-0.2,0c0,0-9.6,0-11.5,0c-0.3,0-0.6,0-0.9,0.1
		C4.6,4.5,3.7,5.7,3.7,7.1c0,1.2,0,2.4,0,3.6l0,1.5l0,1.6c0,1.2,0,2.3,0,3.5c0,1.9,1.2,3,3,3c1.6,0,9.2,0,10.8,0c1.6,0,3.2,0,4.8,0
		c1.9,0,3.1-1.2,3.1-3.1C25.4,14.5,25.4,13.8,25.4,11.1L25.4,11.1z"/>
	<path class="st4" d="M27.3,4.1l-1.9,0V2.6c0-0.2,0-0.8-0.6-0.9c-0.2,0-0.4,0-0.5,0.2c-0.2,0.1-0.2,0.4-0.2,0.7c0,0.4,0,0.8,0,1.1
		v0.4l-0.9,0c-0.3,0-0.6,0-0.9,0c-0.2,0-0.4,0.1-0.5,0.2c-0.1,0.1-0.2,0.3-0.2,0.5c0,0.4,0.3,0.6,0.7,0.7c0.1,0,0.2,0,0.3,0h1.6
		l0,1.7c0,0.2,0.1,0.4,0.2,0.6c0.1,0.1,0.3,0.2,0.5,0.2c0.4,0,0.7-0.3,0.7-0.7c0-0.2,0-0.3,0-0.5l0-1.2l0.7,0c0.4,0,0.8,0,1.2,0
		c0.4,0,0.7-0.3,0.7-0.7C28,4.4,27.8,4.1,27.3,4.1z"/>
	<g>
		<g>
			<path class="st4" d="M10.4,16.5c0.1,0.2,0.2,0.3,0.3,0.5c0.1,0.2,0.1,0.3-0.1,0.4c-0.2,0.1-0.3,0-0.4-0.1
				c-0.1-0.1-0.2-0.3-0.3-0.4c-0.2-0.3-0.1-0.7,0.3-0.8c0.2-0.1,0.5-0.2,0.7-0.3c0.1,0,0.1-0.2,0.1-0.2c0-0.1,0-0.3-0.1-0.4
				c0-0.2-0.1-0.3-0.2-0.3c-0.3-0.1-0.4-0.4-0.2-0.7c0.1-0.1,0.2-0.3,0.3-0.4c-1.1-1-1.5-2.2-1.5-3.6c0-3,3.2-4.3,5.4-3
				c0,0,0.1,0,0.1,0.1C15,7.1,15,7.2,14.9,7.4c-0.1,0.2-0.2,0.1-0.4,0.1c-0.4-0.1-0.8-0.4-1.2-0.4c-1.9-0.3-3.4,1-3.5,2.9
				c0,1.1,0.2,2.1,1,2.9c0.5,0.6,1.2,0.8,2,0.6c0.7-0.2,1.3-0.5,1.9-1c-0.3-0.7-0.5-1.5-0.5-2.3c0-0.7,0.2-1.4,0.6-2
				c0.7-1,2.4-1.8,3.9-1.4c2,0.5,3.1,2.6,2.5,4.6c-0.5,1.5-2.2,2.9-3.8,3c0,0-0.1,0-0.1,0c-0.1,0.2-0.1,0.5-0.2,0.7
				c-0.1,0.3-0.4,0.3-0.7,0.2c0,0.2,0,0.3,0.1,0.4c0.1,0.4,0,0.6-0.4,0.8c-0.2,0.1-0.5,0.2-0.8,0.3c0.1,0.1,0.2,0.3,0.3,0.4
				c0.1,0.2,0.1,0.3-0.1,0.5c-0.2,0.1-0.3,0-0.4-0.1c-0.1-0.1-0.2-0.2-0.2-0.4c-0.2-0.3-0.1-0.7,0.3-0.9c0.2-0.1,0.4-0.2,0.7-0.3
				c0.1,0,0.1-0.1,0.1-0.2c0-0.1,0-0.2,0-0.3c0-0.2-0.1-0.4-0.3-0.5c-0.3-0.1-0.4-0.5-0.2-0.8c0.1-0.1,0.1-0.2,0.2-0.3
				c-0.3-0.3-0.5-0.6-0.8-0.8c-0.8,0.6-1.6,1.1-2.6,1.1c-0.1,0.3-0.1,0.5-0.2,0.8c-0.1,0.3-0.4,0.2-0.7,0.1c0,0.2,0,0.3,0.1,0.4
				c0,0.4-0.1,0.6-0.4,0.7C10.9,16.2,10.7,16.4,10.4,16.5z M20.8,11.2c0.1-0.2,0.1-0.4,0.1-0.5c0.3-1.8-1.2-3.5-3.1-3.5
				c-1.4,0-2.7,1-2.9,2.4c-0.2,1.2,0,2.3,0.8,3.3c0.6,0.7,1.3,1,2.2,0.8C19.3,13.3,20.2,12.5,20.8,11.2z M11,14.2
				c0.3,0.1,0.5,0.2,0.8,0.3c0-0.1,0-0.3,0-0.4c-0.2-0.1-0.4-0.1-0.5-0.2C11.2,14,11.1,14.1,11,14.2z M16.8,14.6
				c0.1-0.3,0.1-0.3-0.4-0.5c-0.2-0.1-0.2,0.2-0.3,0.3C16.3,14.5,16.6,14.5,16.8,14.6z"/>
		</g>
	</g>
</g>
</svg>
