<?xml version="1.0" encoding="utf-8"?>
<!-- Generator: Adobe Illustrator 21.0.0, SVG Export Plug-In . SVG Version: 6.00 Build 0)  -->
<svg version="1.1" id="Layer_1" xmlns="http://www.w3.org/2000/svg" xmlns:xlink="http://www.w3.org/1999/xlink" x="0px" y="0px"
	 viewBox="0 0 60 60" style="enable-background:new 0 0 60 60;" xml:space="preserve">
<style type="text/css">
	.st0{fill:#555555;}
	.st1{fill:none;stroke:#E1E1E1;stroke-width:0.8574;stroke-miterlimit:10;}
</style>
<g>
	<g>
		<path class="st0" d="M37.2,25.3c0.3,0,0.4-0.3,0.4-0.5s-0.2-0.5-0.5-0.5c-0.1,0-0.3,0-0.4,0h-3.3c-0.1,0-0.2,0-0.3,0h-0.4v-0.5
			c0-1-0.6-1.6-1.6-1.6c-0.9,0-1.8,0-2.5,0c-0.7,0-1.2,0.6-1.3,1.4v0.7h-1.7c-0.9,0-1.7,0-2.5,0c-0.2,0-0.4,0.1-0.5,0.2
			c-0.1,0.1-0.2,0.3-0.2,0.4c0,0.4,0.4,0.5,0.6,0.5s0.4,0,0.5,0h0.3h0.3v2.7c0,2.1,0,4.3,0,6.4c0,0.4,0,0.7,0.1,1
			c0.3,1.6,1.5,2.5,3.2,2.5c1.8,0,3.5,0,5.3,0c2.1,0,3.3-1.3,3.3-3.4v-9.1h0.3c0.1,0,0.3,0,0.4,0C36.8,25.3,36.9,25.3,37.2,25.3z
			 M28.5,23.4c0.2-0.2,0.4-0.2,0.6-0.2c0.6,0,1.2,0,1.8,0c0.3,0,0.4,0,0.6,0.2c0.2,0.2,0.1,0.4,0.1,0.6v0.2h-3.1V24
			C28.3,23.8,28.3,23.6,28.5,23.4z M34.9,34.5c0,1.5-0.8,2.3-2.4,2.3h-1.2c-0.6,0-1.2,0-1.9,0s-1.4,0-2.1,0c-1.3,0-2.1-0.9-2.2-2.1
			c0-2.2,0-4.3,0-6.5v-2.3c0-0.1,0-0.1,0-0.2v-0.4h9.8L34.9,34.5L34.9,34.5z"/>
		<path class="st0" d="M27.8,27.5c0-0.2-0.1-0.4-0.2-0.4c-0.1-0.1-0.3-0.2-0.4-0.2l0,0c-0.4,0-0.5,0.3-0.5,0.6c0,0.2,0,0.3,0,0.4
			v0.2v1.7c0,1.4,0,2.9,0,4.3c0,0.4,0.2,0.6,0.5,0.7c0.2,0,0.3,0,0.4-0.1c0.1-0.1,0.2-0.3,0.2-0.5c0-0.8,0-1.6,0-2.4V31v-1
			C27.8,29.1,27.8,28.3,27.8,27.5z"/>
		<path class="st0" d="M33.3,27.5c0-0.4-0.2-0.6-0.5-0.6l0,0c-0.2,0-0.3,0.1-0.4,0.2c-0.1,0.1-0.2,0.3-0.2,0.5c0,2.2,0,4.4,0,6.6
			c0,0.2,0,0.3,0.1,0.4s0.4,0.3,0.6,0.2c0.3-0.1,0.4-0.3,0.4-0.6c0-0.8,0-1.6,0-2.4v-1V30C33.3,29.2,33.3,28.3,33.3,27.5z"/>
		<path class="st0" d="M30,26.9L30,26.9c-0.2,0-0.3,0.1-0.4,0.2c-0.1,0.1-0.2,0.3-0.2,0.5c0,2.2,0,4.4,0,6.5c0,0.3,0.1,0.7,0.5,0.7
			l0,0c0.2,0,0.3-0.1,0.4-0.2c0.1-0.1,0.2-0.3,0.2-0.5v-4.2v-2.3C30.5,27.4,30.4,26.9,30,26.9z"/>
	</g>
	<circle class="st1" cx="30" cy="30" r="29"/>
</g>
</svg>
