<?xml version="1.0" encoding="utf-8"?>
<!-- Generator: Adobe Illustrator 21.0.0, SVG Export Plug-In . SVG Version: 6.00 Build 0)  -->
<svg version="1.1" id="Layer_1" xmlns="http://www.w3.org/2000/svg" xmlns:xlink="http://www.w3.org/1999/xlink" x="0px" y="0px"
	 viewBox="0 0 22 22" style="enable-background:new 0 0 22 22;" xml:space="preserve">
<style type="text/css">
	.st0{fill:#D6D6D6;}
</style>
<g>
	<g>
		<path class="st0" d="M18.7,4.8C19.4,4.8,20,5.4,20,6V16c0,0.7-0.6,1.2-1.2,1.2H3.3C2.6,17.2,2,16.6,2,16V6c0-0.7,0.6-1.2,1.2-1.2
			H18.7 M18.7,3.3H3.3C1.8,3.3,0.5,4.5,0.5,6V16c0,1.5,1.2,2.7,2.7,2.7h15.4c1.5,0,2.7-1.2,2.7-2.7V6C21.5,4.5,20.2,3.3,18.7,3.3
			L18.7,3.3z"/>
	</g>
	<path class="st0" d="M14.3,11c1.2,1,3.5,3.1,3.6,3.2c0.3,0.3,0.3,0.7,0.1,0.9c-0.2,0.3-0.6,0.3-0.9,0c-0.5-0.4-3-2.6-3.8-3.3
		c-0.8,0.7-1.6,1.3-2.3,2c-0.8-0.7-1.5-1.3-2.3-2C8.3,12.1,5.8,14.3,5,15c-0.2,0.1-0.4,0.2-0.6,0.2S4,15,3.9,14.8
		c-0.1-0.3,0-0.5,0.2-0.7c0.6-0.6,3-2.6,3.6-3.1c-0.5-0.5-2.8-2.4-3.5-3C3.8,7.6,3.8,7.3,4,7c0.2-0.3,0.6-0.3,1,0
		c1.4,1.2,5.4,4.6,6,5.2c0.8-0.7,4.8-4.2,6-5.2c0.2-0.1,0.4-0.2,0.6-0.2c0.3,0,0.5,0.2,0.5,0.4c0.1,0.3,0,0.5-0.2,0.7
		C17.3,8.5,14.9,10.5,14.3,11z"/>
</g>
</svg>
