<?xml version="1.0" encoding="utf-8"?>
<!-- Generator: Adobe Illustrator 21.0.0, SVG Export Plug-In . SVG Version: 6.00 Build 0)  -->
<svg version="1.1" id="Layer_1" xmlns="http://www.w3.org/2000/svg" xmlns:xlink="http://www.w3.org/1999/xlink" x="0px" y="0px"
	 viewBox="0 0 22 22" style="enable-background:new 0 0 22 22;" xml:space="preserve">
<style type="text/css">
	.st0{fill:#FFFFFF;stroke:#231F20;stroke-miterlimit:10;}
	.st1{fill:#0E1744;}
	.st2{fill:#E6E7E8;}
	.st3{fill:#224099;}
	.st4{fill:#555555;}
	.st5{fill:#C81313;}
	.st6{fill:none;stroke:#C81313;stroke-miterlimit:10;}
	.st7{fill:none;stroke:#555555;stroke-linecap:round;stroke-miterlimit:10;}
	.st8{fill:#FFCD00;}
	.st9{fill:none;stroke:#224099;stroke-width:0.8378;stroke-miterlimit:10;}
	.st10{fill:none;stroke:#555555;stroke-width:0.7207;stroke-miterlimit:10;}
	.st11{fill:none;stroke:#555555;stroke-width:0.8016;stroke-miterlimit:10;}
	.st12{fill:#8599C1;}
	.st13{fill:none;stroke:#FFCD00;stroke-linecap:round;stroke-miterlimit:10;}
	.st14{fill:none;stroke:#FFCD00;stroke-linecap:round;stroke-miterlimit:10;stroke-dasharray:4.05,4.05,4.05,4.05;}
	.st15{fill:#D6D6D6;}
	.st16{fill:#BCBCBC;}
	.st17{fill:#FEFEFE;}
	.st18{fill:#131313;}
	.st19{fill:#111111;}
	.st20{fill:#FFFFFF;}
	.st21{fill:none;stroke:#0E1744;stroke-width:0.6403;stroke-linecap:round;stroke-linejoin:round;stroke-miterlimit:10;}
</style>
<g>
	<path class="st4" d="M19.2,5.7c0.3,0,0.5-0.3,0.5-0.6c0-0.3-0.2-0.6-0.6-0.6c-0.1,0-0.3,0-0.4,0l-3.8,0c-0.1,0-0.2,0-0.3,0l-0.4,0
		l0-0.6c0-1.1-0.7-1.8-1.8-1.8c-1,0-2,0-2.9,0C8.6,2.1,8,2.8,7.9,3.6l0,0.8l-1.9,0c-1,0-1.9,0-2.9,0c-0.2,0-0.4,0.1-0.6,0.2
		C2.4,4.8,2.3,4.9,2.3,5.1c0,0.5,0.5,0.6,0.7,0.6c0.2,0,0.4,0,0.6,0l0.3,0h0.3l0,3.1c0,2.4,0,4.9,0,7.3c0,0.4,0,0.8,0.1,1.1
		C4.7,19,6.1,20,8,20c2,0,4,0,6,0c2.4,0,3.8-1.5,3.8-3.9V5.7h0.3c0.1,0,0.3,0,0.4,0C18.7,5.7,18.9,5.7,19.2,5.7z M9.3,3.5
		c0.2-0.2,0.4-0.2,0.7-0.2c0.7,0,1.4,0,2.1,0c0.3,0,0.5,0,0.7,0.2c0.2,0.2,0.1,0.4,0.1,0.7l0,0.2H9.3l0-0.2C9.1,3.9,9.1,3.7,9.3,3.5
		z M16.6,16.1c0,1.7-0.9,2.6-2.7,2.6l-1.4,0c-0.7,0-1.4,0-2.2,0c-0.8,0-1.6,0-2.4,0c-1.5,0-2.4-1-2.5-2.4c0-2.5,0-4.9,0-7.4l0-2.6
		c0-0.1,0-0.1,0-0.2l0-0.4h11.1V16.1z"/>
	<path class="st4" d="M8.5,8.2c0-0.2-0.1-0.4-0.2-0.5C8.2,7.5,8.1,7.5,7.9,7.5c0,0,0,0,0,0c-0.4,0-0.6,0.3-0.6,0.7
		c0,0.2,0,0.3,0,0.5l0,0.2l0,1.9c0,1.6,0,3.3,0,4.9c0,0.4,0.2,0.7,0.6,0.8c0.2,0,0.3,0,0.5-0.1c0.1-0.1,0.2-0.3,0.2-0.6
		c0-0.9,0-1.8,0-2.7l0-1l0-1.1C8.5,10,8.5,9.1,8.5,8.2z"/>
	<path class="st4" d="M14.7,8.2c0-0.5-0.2-0.7-0.6-0.7c0,0,0,0,0,0c-0.2,0-0.3,0.1-0.4,0.2c-0.1,0.1-0.2,0.3-0.2,0.6
		c0,2.5,0,5,0,7.5c0,0.2,0,0.3,0.1,0.5c0.1,0.2,0.4,0.3,0.7,0.2c0.3-0.1,0.5-0.3,0.5-0.7c0-0.9,0-1.8,0-2.7l0-1.1l0-1
		C14.7,10.1,14.8,9.1,14.7,8.2z"/>
	<path class="st4" d="M11,7.5L11,7.5c-0.2,0-0.3,0.1-0.4,0.2c-0.1,0.1-0.2,0.3-0.2,0.6c0,2.5,0,5,0,7.4c0,0.3,0.1,0.8,0.6,0.8h0
		c0.2,0,0.3-0.1,0.4-0.2c0.1-0.1,0.2-0.3,0.2-0.6l0-4.8l0-2.6C11.6,8,11.5,7.5,11,7.5z"/>
</g>
</svg>
