<?xml version="1.0" encoding="utf-8"?>
<!-- Generator: Adobe Illustrator 21.0.0, SVG Export Plug-In . SVG Version: 6.00 Build 0)  -->
<svg version="1.1" id="Layer_1" xmlns="http://www.w3.org/2000/svg" xmlns:xlink="http://www.w3.org/1999/xlink" x="0px" y="0px"
	 viewBox="0 0 120 120" style="enable-background:new 0 0 120 120;" xml:space="preserve">
<style type="text/css">
	.st0{fill:#2A2C70;}
	.st1{fill:none;stroke:#5A67B3;stroke-width:1.0101;stroke-miterlimit:10;}
	.st2{fill:#FFCD00;}
	.st3{fill:#506BAD;}
	.st4{fill:#FFFFFF;stroke:#231F20;stroke-miterlimit:10;}
	.st5{fill:#0E1744;}
	.st6{fill:#E6E7E8;}
	.st7{fill:#224099;}
	.st8{fill:#C81313;}
	.st9{fill:none;stroke:#C81313;stroke-miterlimit:10;}
	.st10{fill:#555555;}
	.st11{fill:none;stroke:#555555;stroke-linecap:round;stroke-miterlimit:10;}
	.st12{fill:none;stroke:#224099;stroke-width:0.8378;stroke-miterlimit:10;}
	.st13{fill:none;stroke:#555555;stroke-width:0.7207;stroke-miterlimit:10;}
	.st14{fill:none;stroke:#555555;stroke-width:0.8016;stroke-miterlimit:10;}
	.st15{fill:#8599C1;}
	.st16{fill:none;stroke:#FFCD00;stroke-linecap:round;stroke-miterlimit:10;}
	.st17{fill:none;stroke:#FFCD00;stroke-linecap:round;stroke-miterlimit:10;stroke-dasharray:4.05,4.05,4.05,4.05;}
	.st18{fill:#D5E2F7;}
	.st19{fill:#224099;stroke:#072268;stroke-miterlimit:10;}
	.st20{fill:#224099;stroke:#072268;stroke-linecap:round;stroke-linejoin:round;stroke-miterlimit:10;}
	.st21{fill:#D5E2F7;stroke:#FFCD00;stroke-width:0.75;stroke-linecap:round;stroke-linejoin:round;stroke-miterlimit:10;}
	.st22{fill:none;stroke:#FFCD00;stroke-width:0.75;stroke-miterlimit:10;}
	.st23{fill:none;stroke:#072268;stroke-width:0.5;stroke-miterlimit:10;}
	.st24{fill:#FFCD00;stroke:#0E1744;stroke-miterlimit:10;}
	.st25{fill:#FFFFFF;}
	.st26{fill:#1576C6;}
	.st27{fill:#FCFCFC;}
	.st28{fill:#020202;}
	.st29{fill:#050505;}
	.st30{fill:none;stroke:#0E1744;stroke-miterlimit:10;}
	.st31{fill:none;stroke:#0E1744;stroke-linecap:round;stroke-linejoin:round;stroke-miterlimit:10;}
	.st32{fill:none;stroke:#000000;stroke-linecap:round;stroke-linejoin:round;stroke-miterlimit:10;}
	.st33{fill:none;stroke:#000000;stroke-miterlimit:10;}
	.st34{fill:none;stroke:#555555;stroke-width:1.2;stroke-miterlimit:10;}
	.st35{fill:none;stroke:#224099;stroke-width:0.9998;stroke-linecap:round;stroke-linejoin:round;stroke-miterlimit:10;}
</style>
<g>
	<g>
		<circle class="st0" cx="63.4" cy="57" r="46.9"/>
		<circle class="st1" cx="58" cy="61.5" r="48.3"/>
	</g>
	<g>
		<path class="st2" d="M57.7,78.3c2.9,0,5.8,0,8.8,0c1.6,0,2.2-0.6,2.2-2.2c0-3.9,0-7.9,0-11.8c0-1.8-0.6-2.3-2.4-2.3
			c-5.7,0-11.5,0-17.2,0c-1.6,0-2.3,0.6-2.3,2.3c0,3.9,0,7.8,0,11.6c0,1.9,0.6,2.5,2.5,2.5C52.2,78.3,54.9,78.3,57.7,78.3z"/>
		<path class="st3" d="M49.8,58.3c0-1.9,0-3.8,0-5.7c0-4.9,3.5-8.6,8.4-9.3c4.5-0.6,9.1,2.5,10.2,6.9c0.3,1.1,0.3,2.3,0.3,3.5
			c0,1.5,0,3.1,0,4.7c1.1,0.2,2.2,0.4,2.9,1.4c0.4,0.7,0.8,1.5,0.9,2.2c0.1,4.5,0.1,9.1,0,13.6c0,1.9-1.5,3.4-3.4,3.6
			c-0.3,0-0.6,0-0.8,0c-6,0-12,0-17.9,0c-1,0-2-0.2-2.9-0.9c-1-0.8-1.4-1.9-1.4-3.2c0-4.3,0-8.6,0-12.8C46,60.1,47,59,49.8,58.3z
			 M59.1,77.3c3,0,6.1,0,9.1,0c1.7,0,2.3-0.6,2.3-2.3c0-4.1,0-8.2,0-12.2c0-1.8-0.6-2.4-2.5-2.4c-6,0-11.9,0-17.9,0
			c-1.7,0-2.4,0.7-2.4,2.4c0,4,0,8,0,12.1c0,2,0.6,2.6,2.6,2.6C53.4,77.3,56.2,77.3,59.1,77.3z M66.8,58.3c0-2,0-4,0-6
			c0-3.9-3-6.9-7.2-7.2c-3.7-0.3-7.3,2.3-7.8,6c-0.3,2.3-0.1,4.6-0.2,6.9c0,0,0.1,0.1,0.1,0.2C56.7,58.3,61.7,58.3,66.8,58.3z"/>
		<path class="st3" d="M54.5,68.8c0-2.6,2.1-4.7,4.6-4.7c2.7,0,4.9,2.1,4.9,4.7c0,2.6-2.1,4.7-4.7,4.7
			C56.6,73.6,54.5,71.5,54.5,68.8z M59.2,71.6c1.6,0,2.8-1.2,2.8-2.8c0-1.6-1.2-2.9-2.7-2.9c-1.6,0-2.9,1.3-2.9,2.9
			C56.4,70.4,57.6,71.6,59.2,71.6z"/>
	</g>
</g>
</svg>
