<?xml version="1.0" encoding="utf-8"?>
<!-- Generator: Adobe Illustrator 21.0.0, SVG Export Plug-In . SVG Version: 6.00 Build 0)  -->
<svg version="1.1" id="Layer_1" xmlns="http://www.w3.org/2000/svg" xmlns:xlink="http://www.w3.org/1999/xlink" x="0px" y="0px"
	 viewBox="0 0 31.8 22" style="enable-background:new 0 0 31.8 22;" xml:space="preserve">
<style type="text/css">
	.st0{fill:#D6D6D6;}
</style>
<g>
	<g>
		<path class="st0" d="M8.1,2.8c0,0.3,0,0.6,0,0.9c-1.2,0-2.4,0-3.6,0c0,1.2,0,2.4,0,3.6c-0.3,0-0.6,0-0.9,0c0-1.5,0-3,0-4.5
			C5.1,2.8,6.6,2.8,8.1,2.8z"/>
		<path class="st0" d="M28.3,7.3c-0.3,0-0.6,0-0.9,0c0-1.2,0-2.4,0-3.6c-1.2,0-2.4,0-3.6,0c0-0.3,0-0.6,0-0.9c1.5,0,3,0,4.5,0
			C28.3,4.3,28.3,5.8,28.3,7.3z"/>
		<path class="st0" d="M4.4,18.3c1.3,0,2.4,0,3.6,0c0,0.3,0,0.6,0,0.9c-1.5,0-3,0-4.5,0c0-1.5,0-3,0-4.5c0.3,0,0.5,0,0.9,0
			C4.4,15.9,4.4,17.1,4.4,18.3z"/>
		<path class="st0" d="M23.7,19.2c0-0.3,0-0.6,0-0.9c1.2,0,2.4,0,3.6,0c0-1.2,0-2.4,0-3.6c0.3,0,0.6,0,0.9,0c0,1.5,0,3,0,4.5
			C26.8,19.2,25.3,19.2,23.7,19.2z"/>
	</g>
	<g>
		<path class="st0" d="M21.9,14.7c-0.9,0-1.8,0-2.7,0c0-3,0-6.1,0-9.1c0.9,0,1.8,0,2.7,0C21.9,8.6,21.9,11.6,21.9,14.7z"/>
		<path class="st0" d="M10.3,5.5c0.6,0,1.2,0,1.8,0c0,3.1,0,6.1,0,9.1c-0.6,0-1.1,0-1.8,0C10.3,11.6,10.3,8.6,10.3,5.5z"/>
		<path class="st0" d="M7.6,5.5c0.3,0,0.6,0,0.9,0c0,3.7,0,7.3,0,11c-0.3,0-0.6,0-0.9,0C7.6,12.8,7.6,9.2,7.6,5.5z"/>
		<path class="st0" d="M23.3,5.5c0.3,0,0.6,0,0.9,0c0,3.7,0,7.3,0,11c-0.3,0-0.5,0-0.9,0C23.3,12.8,23.3,9.2,23.3,5.5z"/>
		<path class="st0" d="M17.9,14.7c-0.3,0-0.6,0-0.9,0c0-3,0-6.1,0-9.2c0.3,0,0.5,0,0.9,0C17.9,8.5,17.9,11.6,17.9,14.7z"/>
		<path class="st0" d="M13.9,5.5c0.3,0,0.6,0,0.8,0c0,3.1,0,6.1,0,9.1c-0.3,0-0.5,0-0.8,0C13.9,11.6,13.9,8.6,13.9,5.5z"/>
		<path class="st0" d="M19.2,16.5c0-0.3,0-0.6,0-0.9c0.9,0,1.8,0,2.7,0c0,0.3,0,0.6,0,0.9C21,16.5,20.1,16.5,19.2,16.5z"/>
		<path class="st0" d="M12.1,15.6c0,0.3,0,0.6,0,0.9c-0.6,0-1.2,0-1.8,0c0-0.3,0-0.6,0-0.9C10.9,15.6,11.5,15.6,12.1,15.6z"/>
		<path class="st0" d="M17.9,15.6c0,0.3,0,0.5,0,0.8c-0.3,0-0.6,0-0.9,0c0-0.3,0-0.5,0-0.8C17.3,15.6,17.6,15.6,17.9,15.6z"/>
		<path class="st0" d="M13.9,16.5c0-0.3,0-0.6,0-0.9c0.3,0,0.6,0,0.8,0c0,0.3,0,0.6,0,0.9C14.4,16.5,14.2,16.5,13.9,16.5z"/>
	</g>
</g>
</svg>
