<?xml version="1.0" encoding="utf-8"?>
<!-- Generator: Adobe Illustrator 21.0.0, SVG Export Plug-In . SVG Version: 6.00 Build 0)  -->
<svg version="1.1" id="Layer_1" xmlns="http://www.w3.org/2000/svg" xmlns:xlink="http://www.w3.org/1999/xlink" x="0px" y="0px"
	 viewBox="0 0 24 24" style="enable-background:new 0 0 24 24;" xml:space="preserve">
<style type="text/css">
	.st0{fill:#FFFFFF;}
	.st1{fill:none;stroke:#FFFFFF;stroke-width:1.5;stroke-linecap:round;stroke-miterlimit:10;}
</style>
<g>
	<g>
		<path class="st0" d="M18.6,8.7L18.6,8.7c-0.4,0-0.8-0.3-0.8-0.8V2.5c0-0.4,0.3-0.8,0.8-0.8l0,0c0.4,0,0.8,0.3,0.8,0.8v5.4
			C19.4,8.4,19,8.7,18.6,8.7z"/>
		<path class="st0" d="M15.1,5.3L15.1,5.3c0-0.4,0.3-0.8,0.8-0.8h5.4c0.4,0,0.8,0.3,0.8,0.8l0,0c0,0.4-0.3,0.8-0.8,0.8h-5.4
			C15.5,6,15.1,5.6,15.1,5.3z"/>
	</g>
	<g>
		<path class="st0" d="M10.8,8.7v0.6c0.4,0,0.8,0.1,1,0.3c0.3,0.1,0.5,0.3,0.8,0.6c0.2,0.2,0.3,0.4,0.4,0.6c0.1,0.2,0.1,0.4,0.1,0.6
			c0,0.2-0.1,0.4-0.2,0.5c-0.1,0.1-0.3,0.2-0.5,0.2c-0.4,0-0.6-0.2-0.7-0.6c-0.1-0.5-0.4-0.8-0.9-0.9v2.4c0.5,0.1,0.8,0.2,1.1,0.4
			c0.3,0.1,0.5,0.3,0.8,0.5c0.2,0.2,0.4,0.5,0.5,0.8c0.1,0.3,0.2,0.6,0.2,1c0,0.4-0.1,0.8-0.3,1.2c-0.2,0.4-0.5,0.7-0.9,0.9
			s-0.9,0.4-1.4,0.4v0.6c0,0.2,0,0.4-0.1,0.5c0,0.1-0.1,0.2-0.3,0.2c-0.1,0-0.2,0-0.3-0.1c-0.1-0.1-0.1-0.2-0.1-0.4v-0.7
			c-0.4,0-0.8-0.2-1.2-0.3c-0.3-0.2-0.6-0.4-0.8-0.6c-0.2-0.2-0.4-0.5-0.5-0.7c-0.1-0.3-0.2-0.5-0.2-0.8c0-0.2,0.1-0.3,0.2-0.5
			c0.1-0.1,0.3-0.2,0.5-0.2c0.2,0,0.3,0,0.4,0.1c0.1,0.1,0.2,0.2,0.2,0.3C9,15.5,9.1,15.8,9.2,16s0.2,0.3,0.3,0.5
			c0.2,0.1,0.4,0.2,0.6,0.3v-2.7c-0.5-0.1-0.9-0.3-1.3-0.5c-0.3-0.2-0.6-0.4-0.8-0.7c-0.2-0.3-0.3-0.7-0.3-1.2
			c0-0.7,0.2-1.2,0.6-1.6s1-0.7,1.8-0.7V8.7c0-0.3,0.1-0.5,0.4-0.5C10.7,8.2,10.8,8.4,10.8,8.7z M10.1,12.6v-2.2
			c-0.3,0.1-0.6,0.2-0.7,0.4s-0.3,0.4-0.3,0.7c0,0.3,0.1,0.5,0.3,0.7C9.5,12.3,9.8,12.5,10.1,12.6z M10.8,14.3v2.5
			c0.4-0.1,0.7-0.2,0.9-0.5c0.2-0.2,0.3-0.5,0.3-0.8c0-0.3-0.1-0.6-0.3-0.8S11.2,14.4,10.8,14.3z"/>
	</g>
	<path class="st1" d="M18.9,12v6.9c0,1.7-1.4,3.2-3.2,3.2H5.2c-1.7,0-3.2-1.4-3.2-3.2V8.4c0-1.7,1.4-3.2,3.2-3.2h6.4"/>
</g>
</svg>
