<?xml version="1.0" encoding="utf-8"?>
<!-- Generator: Adobe Illustrator 21.0.0, SVG Export Plug-In . SVG Version: 6.00 Build 0)  -->
<svg version="1.1" id="Layer_1" xmlns="http://www.w3.org/2000/svg" xmlns:xlink="http://www.w3.org/1999/xlink" x="0px" y="0px"
	 viewBox="0 0 30 30" style="enable-background:new 0 0 30 30;" xml:space="preserve">
<style type="text/css">
	.st0{fill:#555555;}
	.st1{fill:none;stroke:#555555;stroke-miterlimit:10;}
</style>
<g>
	<g>
		<g>
			<path class="st0" d="M10.4,20.8c0.1,0.2,0.2,0.3,0.2,0.4c0.1,0.1,0.1,0.3-0.1,0.4c-0.1,0.1-0.3,0-0.4-0.1
				c-0.1-0.1-0.2-0.3-0.2-0.4c-0.2-0.3-0.1-0.6,0.2-0.7c0.2-0.1,0.4-0.2,0.6-0.3c0.1,0,0.1-0.1,0.1-0.2c0-0.1,0-0.3,0-0.4
				c0-0.1-0.1-0.2-0.2-0.3c-0.3-0.1-0.3-0.4-0.2-0.6c0.1-0.1,0.2-0.2,0.3-0.4c-1-0.9-1.3-2-1.3-3.3c0.1-2.7,3-3.8,4.9-2.6
				c0,0,0.1,0,0.1,0.1c0.1,0.1,0.2,0.2,0.1,0.4c-0.1,0.1-0.2,0.1-0.4,0.1c-0.3-0.1-0.7-0.3-1-0.4c-1.7-0.3-3.1,0.8-3.2,2.6
				c-0.1,1,0.2,1.9,0.9,2.6c0.5,0.5,1.1,0.7,1.8,0.6c0.7-0.1,1.2-0.5,1.7-0.9c-0.3-0.7-0.4-1.3-0.4-2.1c0-0.7,0.2-1.3,0.6-1.8
				c0.7-0.9,2.1-1.6,3.5-1.2c1.8,0.5,2.8,2.4,2.2,4.1c-0.4,1.3-2.1,2.6-3.5,2.6c0,0-0.1,0-0.1,0c-0.1,0.2-0.1,0.4-0.2,0.6
				c-0.1,0.2-0.3,0.2-0.6,0.2c0,0.1,0,0.3,0.1,0.4c0,0.4-0.1,0.5-0.4,0.7c-0.2,0.1-0.4,0.2-0.7,0.3c0.1,0.1,0.2,0.3,0.2,0.4
				c0.1,0.2,0.1,0.3-0.1,0.4c-0.2,0.1-0.3,0-0.4-0.1c-0.1-0.1-0.1-0.2-0.2-0.3c-0.2-0.3-0.1-0.6,0.2-0.8c0.2-0.1,0.4-0.2,0.6-0.3
				c0.1,0,0.1-0.1,0.1-0.2c0-0.1,0-0.2,0-0.3c0-0.2-0.1-0.3-0.3-0.4c-0.3-0.1-0.3-0.4-0.2-0.7c0.1-0.1,0.1-0.2,0.2-0.3
				c-0.2-0.3-0.4-0.5-0.7-0.8c-0.7,0.6-1.5,0.9-2.4,1c-0.1,0.2-0.1,0.5-0.2,0.7c-0.1,0.3-0.4,0.2-0.7,0.1c0,0.1,0,0.3,0,0.4
				c0,0.3-0.1,0.5-0.4,0.7C10.9,20.6,10.7,20.7,10.4,20.8z M19.8,16.3c0.1-0.2,0.1-0.3,0.1-0.5c0.3-1.7-1-3.2-2.7-3.2
				c-1.3,0-2.5,0.8-2.7,2.1c-0.2,1.1,0,2.1,0.7,3c0.5,0.7,1.2,0.9,2,0.7C18.5,18.2,19.3,17.4,19.8,16.3z M11,18.8
				c0.2,0.1,0.5,0.2,0.7,0.3c0-0.1,0-0.2,0-0.4c-0.2-0.1-0.3-0.1-0.5-0.2C11.1,18.6,11.1,18.7,11,18.8z M16.2,19.3
				c0.1-0.3,0.1-0.3-0.3-0.5c-0.2-0.1-0.2,0.1-0.3,0.2C15.8,19.1,16,19.2,16.2,19.3z"/>
		</g>
	</g>
	<path class="st1" d="M22.1,23L7.6,23c-1.5,0-2.7-1.3-2.7-2.8l0.2-7.4c0-1.5,1.3-2.7,2.8-2.7l14.4,0c1.5,0,2.7,1.3,2.7,2.8l-0.2,7.4
		C24.9,21.8,23.6,23,22.1,23z"/>
	<path class="st1" d="M7.6,10.1l12.1-3c1.5-0.3,3,0.6,3.3,2.1l0.2,0.8"/>
</g>
</svg>
