<?xml version="1.0" encoding="utf-8"?>
<!-- Generator: Adobe Illustrator 21.0.0, SVG Export Plug-In . SVG Version: 6.00 Build 0)  -->
<svg version="1.1" id="Layer_1" xmlns="http://www.w3.org/2000/svg" xmlns:xlink="http://www.w3.org/1999/xlink" x="0px" y="0px"
	 viewBox="0 0 31.8 22" style="enable-background:new 0 0 31.8 22;" xml:space="preserve">
<style type="text/css">
	.st0{fill:#FFFFFF;stroke:#231F20;stroke-miterlimit:10;}
	.st1{fill:#0E1744;}
	.st2{fill:#E6E7E8;}
	.st3{fill:#224099;}
	.st4{fill:#555555;}
	.st5{fill:#C81313;}
	.st6{fill:none;stroke:#C81313;stroke-miterlimit:10;}
	.st7{fill:none;stroke:#555555;stroke-linecap:round;stroke-miterlimit:10;}
	.st8{fill:#FFCD00;}
	.st9{fill:none;stroke:#224099;stroke-width:0.8378;stroke-miterlimit:10;}
	.st10{fill:none;stroke:#555555;stroke-width:0.7207;stroke-miterlimit:10;}
	.st11{fill:none;stroke:#555555;stroke-width:0.8016;stroke-miterlimit:10;}
	.st12{fill:#8599C1;}
	.st13{fill:none;stroke:#FFCD00;stroke-linecap:round;stroke-miterlimit:10;}
	.st14{fill:none;stroke:#FFCD00;stroke-linecap:round;stroke-miterlimit:10;stroke-dasharray:4.05,4.05,4.05,4.05;}
	.st15{fill:#D5E2F7;}
	.st16{fill:#224099;stroke:#072268;stroke-miterlimit:10;}
	.st17{fill:#224099;stroke:#072268;stroke-linecap:round;stroke-linejoin:round;stroke-miterlimit:10;}
	.st18{fill:#D5E2F7;stroke:#FFCD00;stroke-width:0.75;stroke-linecap:round;stroke-linejoin:round;stroke-miterlimit:10;}
	.st19{fill:none;stroke:#FFCD00;stroke-width:0.75;stroke-miterlimit:10;}
	.st20{fill:none;stroke:#072268;stroke-width:0.5;stroke-miterlimit:10;}
	.st21{fill:#FFCD00;stroke:#0E1744;stroke-miterlimit:10;}
	.st22{fill:#FFFFFF;}
	.st23{fill:#1576C6;}
	.st24{fill:#FCFCFC;}
	.st25{fill:#020202;}
	.st26{fill:#050505;}
	.st27{fill:none;stroke:#0E1744;stroke-miterlimit:10;}
	.st28{fill:none;stroke:#0E1744;stroke-linecap:round;stroke-linejoin:round;stroke-miterlimit:10;}
	.st29{fill:none;stroke:#000000;stroke-linecap:round;stroke-linejoin:round;stroke-miterlimit:10;}
	.st30{fill:none;stroke:#000000;stroke-miterlimit:10;}
	.st31{fill:none;stroke:#555555;stroke-width:1.2;stroke-miterlimit:10;}
</style>
<g>
	<g>
		<g>
			<path class="st4" d="M10.8,16.9c0.1,0.2,0.2,0.3,0.3,0.5c0.1,0.2,0.1,0.3-0.1,0.4c-0.2,0.1-0.3,0-0.4-0.1
				c-0.1-0.1-0.2-0.3-0.3-0.4c-0.2-0.3-0.1-0.7,0.3-0.8c0.2-0.1,0.5-0.2,0.7-0.3c0.1,0,0.1-0.2,0.1-0.2c0-0.1,0-0.3-0.1-0.4
				c0-0.2-0.1-0.3-0.2-0.3c-0.3-0.1-0.4-0.4-0.2-0.7c0.1-0.1,0.2-0.3,0.3-0.4c-1.1-1-1.5-2.2-1.5-3.6c0-3,3.2-4.3,5.4-3
				c0,0,0.1,0,0.1,0.1c0.2,0.1,0.2,0.2,0.1,0.4c-0.1,0.2-0.2,0.1-0.4,0.1c-0.4-0.1-0.8-0.4-1.2-0.4c-1.9-0.3-3.4,1-3.5,2.9
				c0,1.1,0.2,2.1,1,2.9c0.5,0.6,1.2,0.8,2,0.6c0.7-0.2,1.3-0.5,1.9-1c-0.3-0.7-0.5-1.5-0.5-2.3c0-0.7,0.2-1.4,0.6-2
				c0.7-1,2.4-1.8,3.9-1.4c2,0.5,3.1,2.6,2.5,4.6c-0.5,1.5-2.2,2.9-3.8,3c0,0-0.1,0-0.1,0c-0.1,0.2-0.1,0.5-0.2,0.7
				c-0.1,0.3-0.4,0.3-0.7,0.2c0,0.2,0,0.3,0.1,0.4c0.1,0.4,0,0.6-0.4,0.8c-0.2,0.1-0.5,0.2-0.8,0.3c0.1,0.1,0.2,0.3,0.3,0.4
				c0.1,0.2,0.1,0.3-0.1,0.5c-0.2,0.1-0.3,0-0.4-0.1c-0.1-0.1-0.2-0.2-0.2-0.4c-0.2-0.3-0.1-0.7,0.3-0.9c0.2-0.1,0.4-0.2,0.7-0.3
				c0.1,0,0.1-0.1,0.1-0.2c0-0.1,0-0.2,0-0.3c0-0.2-0.1-0.4-0.3-0.5c-0.3-0.1-0.4-0.5-0.2-0.8c0.1-0.1,0.1-0.2,0.2-0.3
				c-0.3-0.3-0.5-0.6-0.8-0.8c-0.8,0.6-1.6,1.1-2.6,1.1c-0.1,0.3-0.1,0.5-0.2,0.8c-0.1,0.3-0.4,0.2-0.7,0.1c0,0.2,0,0.3,0.1,0.4
				c0,0.4-0.1,0.6-0.4,0.7C11.4,16.6,11.1,16.7,10.8,16.9z M21.2,11.6c0.1-0.2,0.1-0.4,0.1-0.5c0.3-1.8-1.2-3.5-3.1-3.5
				c-1.4,0-2.7,1-2.9,2.4c-0.2,1.2,0,2.3,0.8,3.3c0.6,0.7,1.3,1,2.2,0.8C19.7,13.7,20.7,12.8,21.2,11.6z M11.5,14.6
				c0.3,0.1,0.5,0.2,0.8,0.3c0-0.1,0-0.3,0-0.4c-0.2-0.1-0.4-0.1-0.5-0.2C11.6,14.3,11.5,14.4,11.5,14.6z M17.2,15
				c0.1-0.3,0.1-0.3-0.4-0.5c-0.2-0.1-0.2,0.2-0.3,0.3C16.7,14.8,17,14.9,17.2,15z"/>
		</g>
	</g>
	<path class="st31" d="M23.9,19.7L7.8,20c-1.7,0-3.1-1.4-3.1-3.1l0-8.3c0-1.7,1.4-3.1,3.1-3.1l16.1-0.3c1.7,0,3.1,1.4,3.1,3.1l0,8.3
		C27,18.3,25.6,19.7,23.9,19.7z"/>
	<path class="st31" d="M7.5,5.6l13.4-3.5c1.6-0.4,3.3,0.6,3.7,2.3l0.2,0.9"/>
</g>
</svg>
