<?xml version="1.0" encoding="utf-8"?>
<!-- Generator: Adobe Illustrator 21.0.0, SVG Export Plug-In . SVG Version: 6.00 Build 0)  -->
<svg version="1.1" id="Layer_1" xmlns="http://www.w3.org/2000/svg" xmlns:xlink="http://www.w3.org/1999/xlink" x="0px" y="0px"
	 viewBox="0 0 267.7 57.9" style="enable-background:new 0 0 267.7 57.9;" xml:space="preserve">
<style type="text/css">
	.st0{fill:#FFFFFF;}
	.st1{fill:#FFCE00;}
</style>
<g>
	<g>
		<path class="st0" d="M232.8,1.5h6.7V4h-3.7v4.1h2.7v2.6h-2.7v4.4h3.9v2.5h-6.8V1.5z"/>
		<path class="st0" d="M243,1.5h4.3l2,16.1h-2.8L246,14h-2.4l-0.4,3.6h-2.5L243,1.5z M244.9,4L244.9,4l-1,7.7h1.8L244.9,4z"/>
		<path class="st0" d="M251.9,4h-2.5V1.5h8V4h-2.5v13.6h-2.9V4z"/>
	</g>
	<g>
		<path class="st0" d="M224.6,19.9h3.6c1.8,0,4,1,4,4.1c0,1.8-0.8,3.2-2.6,3.6v0c2,0.5,2.9,1.9,2.9,3.9c0,2.9-2,4.5-4.2,4.5h-3.8
			V19.9z M227.6,26.5c1.5,0,1.9-0.7,1.9-2.1c0-1.8-0.4-2.1-1.9-2.1V26.5z M227.6,33.6c1.8,0,2-0.7,2-2.4c0-1.5-0.4-2.3-2-2.3V33.6z"
			/>
		<path class="st0" d="M238.2,19.6c2.6,0,4.3,2,4.3,8.4s-1.7,8.4-4.3,8.4c-2.6,0-4.3-2-4.3-8.4S235.6,19.6,238.2,19.6z M237.1,29.6
			c0,3.5,0.4,4.2,1.1,4.2s1.1-0.7,1.1-4.2v-3.4c0-3.5-0.4-4.2-1.1-4.2s-1.1,0.7-1.1,4.2V29.6z"/>
		<path class="st0" d="M243.4,19.9h2.7l1,9.5h0l1.4-9.5h2.6l1.3,9.5h0l1.2-9.5h2.1L253.7,36H251l-1.4-10.2h0L248.1,36h-2.6
			L243.4,19.9z"/>
		<path class="st0" d="M257.3,19.9h2.9v13.6h3.8V36h-6.7V19.9z"/>
		<path class="st0" d="M265.3,33.5h2.5V36h-2.5V33.5z"/>
		<path class="st0" d="M260.4,51.9h2.5v2.5h-2.5V51.9z"/>
		<path class="st0" d="M256.3,15.1h2.5v2.5h-2.5V15.1z"/>
	</g>
	<g>
		<path class="st0" d="M228.8,38.3h2.9c3.3,0,5.1,1.3,5.1,4.8c0,2.9-1.1,4.8-3.9,4.8h-1.2v6.4h-2.9V38.3z M231.7,45.6h0.2
			c1.2,0,1.9-0.5,1.9-2.4c0-2.3-0.9-2.4-1.9-2.4h-0.2V45.6z"/>
		<path class="st0" d="M237.4,38.3h2.9v13.6h3.8v2.5h-6.7V38.3z"/>
		<path class="st0" d="M247.3,38.3h4.3l2,16.1h-2.8l-0.4-3.6h-2.4l-0.4,3.6H245L247.3,38.3z M249.2,40.8L249.2,40.8l-1,7.7h1.8
			L249.2,40.8z"/>
		<path class="st0" d="M256,48.2l-2.7-9.9h2.9l1.4,6.3h0l1.5-6.3h2.5l-2.7,9.6v6.5H256V48.2z"/>
	</g>
	<rect x="210.3" y="0.5" class="st0" width="2.5" height="55.8"/>
	<g>
		<path class="st0" d="M262.3,38.6c0-0.1,0.1-0.2,0.2-0.2c0.1-0.1,0.2-0.1,0.3-0.2c0.1,0,0.2-0.1,0.3-0.1c0.1,0,0.2,0,0.3,0.1
			c0.1,0,0.2,0.1,0.3,0.2c0.1,0.1,0.1,0.1,0.2,0.2c0,0.1,0.1,0.2,0.1,0.3c0,0.1,0,0.2-0.1,0.3c0,0.1-0.1,0.2-0.2,0.2
			c-0.1,0.1-0.2,0.1-0.3,0.2c-0.1,0-0.2,0.1-0.3,0.1c-0.1,0-0.2,0-0.3-0.1c-0.1,0-0.2-0.1-0.3-0.2c-0.1-0.1-0.1-0.1-0.2-0.2
			c0-0.1-0.1-0.2-0.1-0.3C262.2,38.8,262.2,38.7,262.3,38.6z M262.5,39.2c0,0.1,0.1,0.1,0.1,0.2c0.1,0.1,0.1,0.1,0.2,0.1
			c0.1,0,0.1,0,0.2,0c0.1,0,0.2,0,0.2,0c0.1,0,0.1-0.1,0.2-0.1c0.1-0.1,0.1-0.1,0.1-0.2c0-0.1,0-0.2,0-0.2c0-0.1,0-0.2,0-0.2
			c0-0.1-0.1-0.1-0.1-0.2c-0.1-0.1-0.1-0.1-0.2-0.1s-0.1,0-0.2,0c-0.1,0-0.2,0-0.2,0c-0.1,0-0.1,0.1-0.2,0.1
			c-0.1,0.1-0.1,0.1-0.1,0.2c0,0.1,0,0.2,0,0.2C262.4,39,262.4,39.1,262.5,39.2z M263,38.5c0.1,0,0.2,0,0.2,0.1
			c0.1,0,0.1,0.1,0.1,0.2c0,0,0,0.1,0,0.1c0,0,0,0.1,0,0.1s0,0-0.1,0c0,0-0.1,0-0.1,0l0.2,0.4h-0.2L263,39h-0.1v0.4h-0.2v-0.9H263z
			 M263,38.9c0,0,0.1,0,0.1,0c0,0,0,0,0-0.1c0,0,0,0,0-0.1c0,0,0,0,0,0c0,0,0,0-0.1,0c0,0,0,0-0.1,0h-0.1v0.2H263z"/>
	</g>
	<g>
		<g>
			<path class="st0" d="M104.9,43.6v1.3h-3v1.8h2.3V48H102v1.9h3v1.4h-4.6v-7.6H104.9z"/>
			<path class="st0" d="M109.5,43.6l1.9,4.7v-4.7h1.3v7.6h-1.5l-2.3-5.5v5.5h-1.3v-7.6H109.5z"/>
			<path class="st0" d="M119.9,43.6V45h-1.5v6.2h-1.7V45h-1.5v-1.4H119.9z"/>
			<path class="st0" d="M127,43.6v1.3h-3v1.8h2.3V48h-2.3v1.9h3v1.4h-4.6v-7.6H127z"/>
			<path class="st0" d="M132.2,43.6c0.8,0,1.5,0,2.1,0.6c0.4,0.4,0.5,1,0.5,1.7c0,1.3-0.7,1.8-1.1,2l1.4,3.3h-1.8l-1-3h-0.8v3h-1.7
				v-7.6H132.2z M131.4,44.8V47h0.7c0.7,0,1-0.5,1-1.1c0-1-0.8-1-1-1H131.4z"/>
			<path class="st0" d="M141.9,43.6V45h-1.5v6.2h-1.7V45h-1.5v-1.4H141.9z"/>
			<path class="st0" d="M147.1,43.6l2.2,7.6h-1.7l-0.4-1.6h-2.1l-0.4,1.6h-1.5l2.3-7.6H147.1z M146.9,48.3l-0.8-3.1l-0.7,3.1H146.9z
				"/>
			<path class="st0" d="M153.5,43.6v7.6h-1.7v-7.6H153.5z"/>
			<path class="st0" d="M158.5,43.6l1.9,4.7v-4.7h1.3v7.6h-1.5l-2.3-5.5v5.5h-1.3v-7.6H158.5z"/>
			<path class="st0" d="M167.3,43.6l1.1,4.7l1.2-4.7h2.4v7.6h-1.6v-6.4l-1.5,6.4h-1.2l-1.4-6.4v6.4h-1.4v-7.6H167.3z"/>
			<path class="st0" d="M179.8,43.6v1.3h-2.9v1.8h2.3V48h-2.3v1.9h2.9v1.4h-4.6v-7.6H179.8z"/>
			<path class="st0" d="M184.3,43.6l1.9,4.7v-4.7h1.3v7.6h-1.5l-2.3-5.5v5.5h-1.3v-7.6H184.3z"/>
			<path class="st0" d="M194.8,43.6V45h-1.5v6.2h-1.7V45H190v-1.4H194.8z"/>
		</g>
		<path class="st0" d="M0.3,4.6H9l2.9,18.2H12l3-18.2h8.4v35.6h-5.8V14.1h-0.1l-4.4,26.1H9.6L5.2,14.1H5.1v26.1H0.3V4.6z"/>
		<path class="st0" d="M33.1,4.6h9.4l4.4,35.6h-6.2l-1-7.9h-5.2l-0.9,7.9h-5.4L33.1,4.6z M37.2,10.1h-0.1l-2,17h4L37.2,10.1z"/>
		<path class="st0" d="M51.5,4.6H58v35.6h-6.5V4.6z"/>
		<path class="st0" d="M64.2,4.6h6.3l5.9,18.8h0.1V4.6h5.2v35.6h-5l-6.9-21.5h-0.1v21.5h-5.5V4.6z"/>
		<path class="st0" d="M100.4,4.6h14.7v5.5h-8.2v9.1h6V25h-6v9.7h8.5v5.5h-15V4.6z"/>
		<path class="st0" d="M118.6,4.6h6.3l3,25h0.1l3.3-25h5.2l-5.3,35.6h-7.4L118.6,4.6z"/>
		<path class="st0" d="M140.7,4.6h14.7v5.5h-8.2v9.1h6V25h-6v9.7h8.5v5.5h-15V4.6z"/>
		<path class="st0" d="M160.6,4.6h6.3l5.9,18.8h0.1V4.6h5.2v35.6h-5l-6.9-21.5h-0.1v21.5h-5.5V4.6z"/>
		<path class="st0" d="M187.6,10.1H182V4.6h17.7v5.5h-5.6v30.1h-6.5V10.1z"/>
		<rect y="43.6" class="st1" width="94.4" height="7.7"/>
	</g>
</g>
</svg>
