<?xml version="1.0" encoding="utf-8"?>
<!-- Generator: Adobe Illustrator 21.0.0, SVG Export Plug-In . SVG Version: 6.00 Build 0)  -->
<svg version="1.1" id="Layer_1" xmlns="http://www.w3.org/2000/svg" xmlns:xlink="http://www.w3.org/1999/xlink" x="0px" y="0px"
	 viewBox="0 0 126.5 90" style="enable-background:new 0 0 126.5 90;" xml:space="preserve">
<style type="text/css">
	.st0{fill:#2A2C70;}
	.st1{fill:none;stroke:#5A67B3;stroke-width:1.0101;stroke-miterlimit:10;}
	.st2{fill:#FFCD00;}
	.st3{fill:#506BAD;}
	.st4{fill:#FFFFFF;stroke:#231F20;stroke-miterlimit:10;}
	.st5{fill:#0E1744;}
	.st6{fill:#E6E7E8;}
	.st7{fill:#224099;}
	.st8{fill:#C81313;}
	.st9{fill:none;stroke:#C81313;stroke-miterlimit:10;}
	.st10{fill:#555555;}
	.st11{fill:none;stroke:#555555;stroke-linecap:round;stroke-miterlimit:10;}
	.st12{fill:none;stroke:#224099;stroke-width:0.8378;stroke-miterlimit:10;}
	.st13{fill:none;stroke:#555555;stroke-width:0.7207;stroke-miterlimit:10;}
	.st14{fill:none;stroke:#555555;stroke-width:0.8016;stroke-miterlimit:10;}
	.st15{fill:#8599C1;}
	.st16{fill:none;stroke:#FFCD00;stroke-linecap:round;stroke-miterlimit:10;}
	.st17{fill:none;stroke:#FFCD00;stroke-linecap:round;stroke-miterlimit:10;stroke-dasharray:4.05,4.05,4.05,4.05;}
	.st18{fill:#D5E2F7;}
	.st19{fill:#224099;stroke:#072268;stroke-miterlimit:10;}
	.st20{fill:#224099;stroke:#072268;stroke-linecap:round;stroke-linejoin:round;stroke-miterlimit:10;}
	.st21{fill:#D5E2F7;stroke:#FFCD00;stroke-width:0.75;stroke-linecap:round;stroke-linejoin:round;stroke-miterlimit:10;}
	.st22{fill:none;stroke:#FFCD00;stroke-width:0.75;stroke-miterlimit:10;}
	.st23{fill:none;stroke:#072268;stroke-width:0.5;stroke-miterlimit:10;}
	.st24{fill:#FFCD00;stroke:#0E1744;stroke-miterlimit:10;}
	.st25{fill:#FFFFFF;}
	.st26{fill:#1576C6;}
	.st27{fill:#FCFCFC;}
	.st28{fill:#020202;}
	.st29{fill:#050505;}
	.st30{fill:none;stroke:#0E1744;stroke-miterlimit:10;}
	.st31{fill:none;stroke:#0E1744;stroke-linecap:round;stroke-linejoin:round;stroke-miterlimit:10;}
	.st32{fill:none;stroke:#000000;stroke-linecap:round;stroke-linejoin:round;stroke-miterlimit:10;}
	.st33{fill:none;stroke:#000000;stroke-miterlimit:10;}
	.st34{fill:none;stroke:#555555;stroke-width:1.2;stroke-miterlimit:10;}
	.st35{fill:none;stroke:#224099;stroke-width:0.9998;stroke-linecap:round;stroke-linejoin:round;stroke-miterlimit:10;}
	.st36{fill:#B2B2B2;}
</style>
<g>
	<g>
		<g>
			<path class="st18" d="M92.7,37.2H30.6c-2,0-3.7-1.6-3.7-3.7v-1.3c0-2,1.6-3.7,3.7-3.7h62.1c2,0,3.7,1.6,3.7,3.7v1.3
				C96.4,35.6,94.8,37.2,92.7,37.2z"/>
			<path class="st18" d="M103.4,44.7H41.3c-2,0-3.7-1.6-3.7-3.7v-1.3c0-2,1.7-3.7,3.7-3.7h62.1c2,0,3.7,1.7,3.7,3.7v1.3
				C107.1,43.1,105.4,44.7,103.4,44.7z"/>
			<path class="st18" d="M84.9,53.4H22.8c-2,0-3.7-1.6-3.7-3.7v-1.3c0-2,1.6-3.7,3.7-3.7h62.1c2,0,3.7,1.6,3.7,3.7v1.3
				C88.6,51.7,86.9,53.4,84.9,53.4z"/>
			<path class="st18" d="M107.4,62H45.2c-2,0-3.7-1.6-3.7-3.7V57c0-2,1.6-3.7,3.7-3.7h62.1c2,0,3.7,1.6,3.7,3.7v1.3
				C111,60.3,109.4,62,107.4,62z"/>
			<path class="st18" d="M83.5,70.8H21.4c-2,0-3.7-1.6-3.7-3.7v-1.3c0-2,1.6-3.7,3.7-3.7h62.1c2,0,3.7,1.6,3.7,3.7v1.3
				C87.2,69.1,85.5,70.8,83.5,70.8z"/>
		</g>
		<path class="st18" d="M10.2,52.5H6.5c-1.7,0-3.2-1.4-3.2-3.2v0c0-1.7,1.4-3.2,3.2-3.2h3.7c1.7,0,3.2,1.4,3.2,3.2v0
			C13.4,51.1,11.9,52.5,10.2,52.5z"/>
		<path class="st18" d="M118.9,42.2h-3.7c-1.7,0-3.2-1.4-3.2-3.2v0c0-1.7,1.4-3.2,3.2-3.2h3.7c1.7,0,3.2,1.4,3.2,3.2v0
			C122,40.7,120.6,42.2,118.9,42.2z"/>
	</g>
	<g>
		<g>
			<path class="st19" d="M57.5,71.4V85H40.1c0,0,6.3-12.4,15.3-4.1V70.5L57.5,71.4z"/>
			<path class="st19" d="M60.5,71.5V85h17.3c0,0-6.3-12.4-15.3-4.1V70.6L60.5,71.5z"/>
			<g>
				<path class="st20" d="M46.1,38.4c0,0-0.4-4.6-5.1,3.3L46.1,38.4z"/>
				<path class="st20" d="M38.6,42.9C38.6,42.8,38.6,42.8,38.6,42.9c0-0.2,0.1-0.4,0.2-0.5c0.6-0.8,2.9-3.6,5.2-3.5
					c0.2,0,0.3,0.1,0.5,0.2c0.3,0.3,0.9,0.8,0.8,1.7c0,0.4-0.3,0.7-0.7,0.8c-0.7,0.2-2,0.3-2.6,0.4c-0.2,0-0.4,0.1-0.6,0.3
					c-0.2,0.3-0.7,0.8-1.1,1.3C39.6,44.4,38.4,43.8,38.6,42.9z"/>
				<path class="st20" d="M42.4,57.7c0,0-3.9,1.9-6.1-0.4c-0.4-0.4-0.5-1.1-0.1-1.6c1.1-1.5,3.4-5.2,1.8-9c-0.1-0.3-0.1-0.6,0-0.8
					c0.3-0.9,1.1-3,2.3-3.7c0,0,3.2-1,3.9-0.5c0,0,2.5,3.4-2.3,3.5c0,0-0.1,0.7,0.3,1.6c0,0,1.1,2.2-0.6,4c0,0,0.9,1-1.4,3.6
					c0,0,1.9-0.1,2,0.6C42.4,55.5,43.2,58.3,42.4,57.7z"/>
				<path class="st20" d="M40.5,54.1c0,0-0.6,0.9-1.5,1.2"/>
			</g>
		</g>
	</g>
	<g>
		<g>
			<line class="st20" x1="49.6" y1="10.5" x2="51.6" y2="14.5"/>
			<line class="st20" x1="48.6" y1="13.5" x2="52.6" y2="11.5"/>
		</g>
		<g>
			<line class="st21" x1="80.5" y1="24.3" x2="82.3" y2="27.8"/>
			<line class="st21" x1="79.7" y1="26.9" x2="83.1" y2="25.1"/>
		</g>
		<g>
			<line class="st21" x1="69.4" y1="7" x2="71.1" y2="10.4"/>
			<line class="st21" x1="68.5" y1="9.6" x2="72" y2="7.8"/>
		</g>
		<circle class="st22" cx="44" cy="20.8" r="1.3"/>
		<circle class="st23" cx="34.3" cy="12.6" r="0.7"/>
		<circle class="st23" cx="81.2" cy="11.5" r="0.8"/>
		<g>
			<line class="st21" x1="32.5" y1="23.3" x2="34.3" y2="26.8"/>
			<line class="st21" x1="31.7" y1="25.9" x2="35.1" y2="24.1"/>
		</g>
		<g>
			<line class="st20" x1="83.6" y1="17" x2="85.3" y2="20.4"/>
			<line class="st20" x1="82.7" y1="19.6" x2="86.1" y2="17.9"/>
		</g>
		<circle class="st22" cx="90.2" cy="24.9" r="1.5"/>
	</g>
	<path class="st24" d="M57.6,69v13.5H40.3c0,0,6.3-12.4,15.3-4.1V68.1L57.6,69z"/>
	<path class="st24" d="M60.6,69.1v13.5h17.3c0,0-6.3-12.4-15.3-4.1V68.2L60.6,69.1z"/>
	<path class="st24" d="M76.8,43.7c0,12.7-6.9,23.8-15.5,25C52.1,70,44,61.4,42.1,48.5c-0.8-5.2-0.2-10.1,2-14.4
		c4.8-9.4,11.5-14,19.9-13.6c5.2,0.2,8.7,4.1,10.9,10.5C76.3,35,76.7,39.3,76.8,43.7z"/>
	<g>
		
			<ellipse transform="matrix(2.525833e-02 -0.9997 0.9997 2.525833e-02 16.5392 86.2926)" class="st25" cx="52.5" cy="34.7" rx="4.8" ry="4.8"/>
		<g>
			
				<ellipse transform="matrix(2.525833e-02 -0.9997 0.9997 2.525833e-02 18.5731 86.0465)" class="st26" cx="53.4" cy="33.5" rx="2.8" ry="2.8"/>
			<ellipse transform="matrix(2.525833e-02 -0.9997 0.9997 2.525833e-02 18.7319 85.8994)" cx="53.4" cy="33.3" rx="1.4" ry="1.4"/>
			
				<ellipse transform="matrix(2.525833e-02 -0.9997 0.9997 2.525833e-02 20.8637 85.6669)" class="st27" cx="54.4" cy="32.1" rx="0.5" ry="0.5"/>
			
				<ellipse transform="matrix(2.525833e-02 -0.9997 0.9997 2.525833e-02 17.1684 86.1951)" class="st27" cx="52.8" cy="34.3" rx="0.3" ry="0.3"/>
		</g>
	</g>
	<g>
		
			<ellipse transform="matrix(2.525833e-02 -0.9997 0.9997 2.525833e-02 26.7433 101.6511)" class="st25" cx="65.5" cy="37.1" rx="4.4" ry="4.4"/>
		<g>
			
				<ellipse transform="matrix(2.525833e-02 -0.9997 0.9997 2.525833e-02 28.5785 101.4183)" class="st26" cx="66.3" cy="36.1" rx="2.7" ry="2.7"/>
			
				<ellipse transform="matrix(2.525833e-02 -0.9997 0.9997 2.525833e-02 28.7291 101.2787)" cx="66.3" cy="35.9" rx="1.3" ry="1.3"/>
			
				<ellipse transform="matrix(2.525833e-02 -0.9997 0.9997 2.525833e-02 30.7517 101.0582)" class="st27" cx="67.2" cy="34.8" rx="0.5" ry="0.5"/>
			
				<ellipse transform="matrix(2.525833e-02 -0.9997 0.9997 2.525833e-02 27.2457 101.5593)" class="st27" cx="65.7" cy="36.8" rx="0.3" ry="0.3"/>
		</g>
	</g>
	<path class="st28" d="M57.4,27.7l0.4,0.5c0,0-9.2,3.3-9.9,3L57.4,27.7z"/>
	<path class="st28" d="M65,29.6l-0.3,0.6c0,0,6.4,5.7,7,5.5L65,29.6z"/>
	<g>
		<path d="M49,48.9c0,0,9.8-3.9,20.5,3.9c0,0-8-8.7-20.7-3.9"/>
		<path d="M70.6,51c0,0,0.1,2.8-0.3,3.1C70.2,54.1,71.6,52.7,70.6,51z"/>
	</g>
	<g>
		<path class="st24" d="M46.2,35.9c0,0-0.4-4.6-5.1,3.3L46.2,35.9z"/>
		<path class="st24" d="M38.7,40.4C38.7,40.4,38.7,40.4,38.7,40.4c0-0.2,0.1-0.4,0.2-0.5c0.6-0.8,2.9-3.6,5.2-3.5
			c0.2,0,0.3,0.1,0.5,0.2c0.3,0.3,0.9,0.8,0.8,1.7c0,0.4-0.3,0.7-0.7,0.8c-0.7,0.2-2,0.3-2.6,0.4c-0.2,0-0.4,0.1-0.6,0.3
			c-0.2,0.3-0.7,0.8-1.1,1.3C39.7,41.9,38.6,41.4,38.7,40.4z"/>
		<path class="st24" d="M42.6,55.2c0,0-3.9,1.9-6.1-0.4c-0.4-0.4-0.5-1.1-0.1-1.6c1.1-1.5,3.4-5.2,1.8-9c-0.1-0.3-0.1-0.6,0-0.8
			c0.3-0.9,1.1-3,2.3-3.7c0,0,3.2-1,3.9-0.5c0,0,2.5,3.4-2.3,3.5c0,0-0.1,0.7,0.3,1.6c0,0,1.1,2.2-0.6,4c0,0,0.9,1-1.4,3.6
			c0,0,1.9-0.1,2,0.6C42.5,53,43.4,55.9,42.6,55.2z"/>
		<path class="st24" d="M40.6,51.6c0,0-0.6,0.9-1.5,1.2"/>
	</g>
	<path class="st24" d="M83.6,59.6c0,0-7.1,9-10-0.4l1.9-4.1C75.5,55.1,77.4,61.7,83.6,59.6z"/>
	<path class="st24" d="M78.4,40.3l-1.6-2.7c0,0-4.7-1.4-5.9,3.1c0,0,3,5.5,3.2,7.1c0,0-1.4,5.1,1.7,6.5c0,0,0.5,6.9,7.6,4.7
		c0,0,2.3-0.4,4.8-3L78.4,40.3z"/>
	<path class="st29" d="M82.1,50.5l-4.6-1l2.9-13.3c0.3-1.3,1.5-2.1,2.8-1.8h0c1.3,0.3,2.1,1.5,1.8,2.8L82.1,50.5z"/>
	<g>
		<path class="st24" d="M90.8,54.5c0,0-0.6-8.8-3.1-12c0,0-7.7-4.7-8.3-2.3l-2.9,3.1c0,0-0.7,2.3,1,4.4l-0.9,0.9
			c0,0-1.3,2.1,1.1,4.7c0,0,1.7,4,2.3,4l5.2,0.3L90.8,54.5z"/>
		<polyline class="st24" points="77.6,47.7 80,45.9 84.9,45.8 		"/>
		<polyline class="st24" points="78.1,53.1 83.1,52.4 86.8,50.9 		"/>
	</g>
	<path class="st25" d="M96.3,15.2l-1.6-0.3c-0.9-0.2-1.5-1.1-1.4-2l0.8-3.9c0.2-0.9,1.1-1.5,2-1.4l1.6,0.3c0.9,0.2,1.5,1.1,1.4,2
		l-0.8,3.9C98.2,14.8,97.2,15.4,96.3,15.2z"/>
	<g>
		<path class="st25" d="M98,38.3l-26.6-6.9c-2.8-0.8-4.4-3.7-3.6-6.5l3.8-13.6c0.8-2.8,3.7-4.4,6.5-3.6l26.6,6.9
			c2.8,0.8,4.4,3.7,3.6,6.5l-3.8,13.6C103.7,37.4,100.8,39.1,98,38.3z"/>
		<g>
			<path class="st7" d="M81.4,19.8c-0.1-1.2,0.1-2.3,0.5-3.4c0.4-1,1-1.9,1.9-2.5c1.6-1,4.2-1.3,6.1,0.1c2.5,1.7,3,5.3,1.2,7.6
				c-1.4,1.9-4.6,2.9-6.8,2.2C83.2,23.5,81.3,22,81.4,19.8z"/>
			<path class="st2" d="M87.1,24.5c-0.1-1.2,0.1-2.3,0.5-3.4c0.4-1,1-1.9,1.9-2.5c1.6-1,4.2-1.3,6.1,0.1c2.5,1.7,3,5.3,1.2,7.6
				c-1.4,1.9-4.6,2.9-6.8,2.2c0,0-2.7-0.5-2.8-3.2C85.9,24.8,87.1,25.8,87.1,24.5z"/>
			<g>
				<path class="st5" d="M78.1,28.4c0.1,0.3,0.1,0.6,0.2,0.9c0.1,0.3,0,0.5-0.4,0.6c-0.3,0.1-0.5-0.1-0.6-0.4
					c-0.1-0.3-0.1-0.6-0.2-0.9c-0.1-0.6,0.3-1.1,0.9-1.2c0.4,0,0.9,0,1.3-0.1c0.1,0,0.3-0.2,0.3-0.3c0.1-0.2,0.1-0.5,0.2-0.7
					c0.1-0.3,0-0.5-0.2-0.7c-0.4-0.4-0.3-0.9,0.1-1.2c0.2-0.2,0.5-0.3,0.7-0.5c-1.2-2.2-1.1-4.4-0.3-6.7c1.8-4.8,7.7-5,10.4-1.7
					c0,0,0.1,0.1,0.1,0.1c0.2,0.2,0.2,0.5,0,0.7c-0.3,0.2-0.5,0.1-0.7-0.1c-0.5-0.5-1-1-1.6-1.4c-2.9-1.6-6.1-0.4-7.3,2.6
					c-0.7,1.7-0.8,3.5-0.1,5.3c0.5,1.3,1.5,2,2.8,2.2c1.3,0.2,2.5-0.1,3.6-0.5c-0.1-1.4,0.1-2.7,0.6-3.9c0.5-1.2,1.2-2.2,2.2-2.9
					c1.8-1.2,4.8-1.4,7.1,0.1c2.9,2,3.5,6.1,1.4,8.8c-1.7,2.1-5.3,3.3-7.9,2.5c-0.1,0-0.1,0-0.1,0c-0.2,0.4-0.4,0.8-0.7,1
					c-0.3,0.3-0.8,0.2-1.2-0.1c-0.1,0.3-0.1,0.5-0.1,0.7c-0.1,0.7-0.4,0.9-1.1,1c-0.5,0-0.9,0.1-1.4,0.1c0.1,0.3,0.1,0.5,0.2,0.8
					c0.1,0.3,0,0.6-0.4,0.7c-0.3,0.1-0.5-0.2-0.6-0.5c0-0.2-0.1-0.5-0.2-0.7c-0.1-0.7,0.2-1.2,0.9-1.2c0.4,0,0.8,0,1.2-0.1
					c0.1,0,0.3-0.2,0.3-0.3c0.1-0.2,0.1-0.4,0.1-0.6c0.1-0.4,0.1-0.7-0.2-1c-0.4-0.4-0.3-1,0.2-1.3c0.2-0.1,0.4-0.3,0.5-0.4
					c-0.2-0.6-0.5-1.2-0.7-1.8c-1.6,0.6-3.2,0.7-4.9,0.2c-0.3,0.4-0.4,0.8-0.7,1.1c-0.4,0.4-0.8,0.1-1.2-0.2
					c-0.1,0.3-0.1,0.5-0.2,0.7c-0.1,0.6-0.5,0.9-1.1,1C79.1,28.3,78.6,28.4,78.1,28.4z M97.9,26.1c0.2-0.3,0.4-0.5,0.5-0.8
					c1.5-2.8,0.2-6.4-2.8-7.4c-2.3-0.8-5,0-6.1,2.1c-1,1.8-1.3,3.7-0.7,5.8c0.5,1.5,1.5,2.4,3.1,2.6C94.3,28.6,96.3,27.8,97.9,26.1z
					 M80.5,25.1c0.4,0.3,0.7,0.6,1.1,0.9c0.1-0.2,0.2-0.4,0.3-0.6c-0.3-0.2-0.5-0.4-0.8-0.6C80.9,24.8,80.7,24.9,80.5,25.1z
					 M89.4,29.2c0.3-0.5,0.3-0.5-0.3-1c-0.3-0.3-0.4,0.1-0.7,0.2C88.8,28.6,89.1,28.9,89.4,29.2z"/>
			</g>
		</g>
		<path class="st30" d="M98.2,38.5l-26.8-6.9c-2.8-0.8-4.5-3.7-3.7-6.6l3.9-13.7c0.8-2.8,3.7-4.5,6.6-3.7l26.8,6.9
			c2.8,0.8,4.5,3.7,3.7,6.6l-3.9,13.7C103.9,37.6,101,39.3,98.2,38.5z"/>
	</g>
	<path class="st31" d="M77.5,7.4l26.9-0.1c0.3,0,0.5,0,0.7,0.2c3,1.4,5.1,5,3.8,8l-0.7,1.7"/>
</g>
</svg>
