<?xml version="1.0" encoding="utf-8"?>
<!-- Generator: Adobe Illustrator 21.0.0, SVG Export Plug-In . SVG Version: 6.00 Build 0)  -->
<svg version="1.1" id="Layer_1" xmlns="http://www.w3.org/2000/svg" xmlns:xlink="http://www.w3.org/1999/xlink" x="0px" y="0px"
	 viewBox="0 0 126.5 90" style="enable-background:new 0 0 126.5 90;" xml:space="preserve">
<style type="text/css">
	.st0{fill:#2A2C70;}
	.st1{fill:none;stroke:#5A67B3;stroke-width:1.0101;stroke-miterlimit:10;}
	.st2{fill:#FFCD00;}
	.st3{fill:#506BAD;}
	.st4{fill:#FFFFFF;stroke:#231F20;stroke-miterlimit:10;}
	.st5{fill:#0E1744;}
	.st6{fill:#E6E7E8;}
	.st7{fill:#224099;}
	.st8{fill:#C81313;}
	.st9{fill:none;stroke:#C81313;stroke-miterlimit:10;}
	.st10{fill:#555555;}
	.st11{fill:none;stroke:#555555;stroke-linecap:round;stroke-miterlimit:10;}
	.st12{fill:none;stroke:#224099;stroke-width:0.8378;stroke-miterlimit:10;}
	.st13{fill:none;stroke:#555555;stroke-width:0.7207;stroke-miterlimit:10;}
	.st14{fill:none;stroke:#555555;stroke-width:0.8016;stroke-miterlimit:10;}
	.st15{fill:#8599C1;}
	.st16{fill:none;stroke:#FFCD00;stroke-linecap:round;stroke-miterlimit:10;}
	.st17{fill:none;stroke:#FFCD00;stroke-linecap:round;stroke-miterlimit:10;stroke-dasharray:4.05,4.05,4.05,4.05;}
	.st18{fill:#D5E2F7;}
	.st19{fill:#224099;stroke:#072268;stroke-miterlimit:10;}
	.st20{fill:#224099;stroke:#072268;stroke-linecap:round;stroke-linejoin:round;stroke-miterlimit:10;}
	.st21{fill:#D5E2F7;stroke:#FFCD00;stroke-width:0.75;stroke-linecap:round;stroke-linejoin:round;stroke-miterlimit:10;}
	.st22{fill:none;stroke:#FFCD00;stroke-width:0.75;stroke-miterlimit:10;}
	.st23{fill:none;stroke:#072268;stroke-width:0.5;stroke-miterlimit:10;}
	.st24{fill:#FFCD00;stroke:#0E1744;stroke-miterlimit:10;}
	.st25{fill:#FFFFFF;}
	.st26{fill:#1576C6;}
	.st27{fill:#FCFCFC;}
	.st28{fill:#020202;}
	.st29{fill:#050505;}
	.st30{fill:none;stroke:#0E1744;stroke-miterlimit:10;}
	.st31{fill:none;stroke:#0E1744;stroke-linecap:round;stroke-linejoin:round;stroke-miterlimit:10;}
	.st32{fill:none;stroke:#000000;stroke-linecap:round;stroke-linejoin:round;stroke-miterlimit:10;}
	.st33{fill:none;stroke:#000000;stroke-miterlimit:10;}
	.st34{fill:none;stroke:#555555;stroke-width:1.2;stroke-miterlimit:10;}
	.st35{fill:none;stroke:#224099;stroke-width:0.9998;stroke-linecap:round;stroke-linejoin:round;stroke-miterlimit:10;}
	.st36{fill:#B2B2B2;}
</style>
<g>
	<g>
		<g>
			<path class="st18" d="M93.3,37.4H31.2c-2,0-3.7-1.6-3.7-3.7v-1.3c0-2,1.6-3.7,3.7-3.7h62.1c2,0,3.7,1.6,3.7,3.7v1.3
				C97,35.8,95.3,37.4,93.3,37.4z"/>
			<path class="st18" d="M104,44.9H41.9c-2,0-3.7-1.6-3.7-3.7v-1.3c0-2,1.7-3.7,3.7-3.7H104c2,0,3.7,1.6,3.7,3.7v1.3
				C107.7,43.3,106,44.9,104,44.9z"/>
			<path class="st18" d="M85.5,53.6H23.3c-2,0-3.7-1.6-3.7-3.7v-1.3c0-2,1.6-3.7,3.7-3.7h62.1c2,0,3.7,1.6,3.7,3.7v1.3
				C89.1,51.9,87.5,53.6,85.5,53.6z"/>
			<path class="st18" d="M107.9,62.2H45.8c-2,0-3.7-1.6-3.7-3.7v-1.3c0-2,1.6-3.7,3.7-3.7h62.1c2,0,3.7,1.6,3.7,3.7v1.3
				C111.6,60.5,109.9,62.2,107.9,62.2z"/>
			<path class="st18" d="M84,71H21.9c-2,0-3.7-1.7-3.7-3.7V66c0-2,1.6-3.7,3.7-3.7H84c2,0,3.7,1.6,3.7,3.7v1.3
				C87.7,69.3,86.1,71,84,71z"/>
		</g>
		<path class="st18" d="M10.8,52.7H7.1c-1.7,0-3.2-1.4-3.2-3.2v0c0-1.7,1.4-3.2,3.2-3.2h3.7c1.7,0,3.2,1.4,3.2,3.2v0
			C13.9,51.3,12.5,52.7,10.8,52.7z"/>
		<path class="st18" d="M119.4,42.4h-3.7c-1.7,0-3.2-1.4-3.2-3.2v0c0-1.7,1.4-3.2,3.2-3.2h3.7c1.7,0,3.2,1.4,3.2,3.2v0
			C122.6,40.9,121.2,42.4,119.4,42.4z"/>
	</g>
	<g>
		<g>
			<path class="st19" d="M58,71.6v13.5H40.7c0,0,6.3-12.4,15.3-4.1V70.7L58,71.6z"/>
			<path class="st19" d="M61,71.7v13.5h17.3c0,0-6.3-12.4-15.3-4.1V70.8L61,71.7z"/>
			<g>
				<path class="st20" d="M46.6,38.6c0,0-0.4-4.6-5.1,3.3L46.6,38.6z"/>
				<path class="st20" d="M39.1,43.1C39.1,43,39.1,43,39.1,43.1c0-0.2,0.1-0.4,0.2-0.5c0.6-0.8,2.9-3.6,5.2-3.5
					c0.2,0,0.3,0.1,0.5,0.2c0.3,0.3,0.9,0.8,0.8,1.7c0,0.4-0.3,0.7-0.7,0.8c-0.7,0.2-2,0.3-2.6,0.4c-0.2,0-0.4,0.1-0.6,0.3
					c-0.2,0.3-0.7,0.8-1.1,1.3C40.2,44.6,39,44,39.1,43.1z"/>
				<path class="st20" d="M43,57.9c0,0-3.9,1.9-6.1-0.4c-0.4-0.4-0.5-1.1-0.1-1.6c1.1-1.5,3.4-5.2,1.8-9c-0.1-0.3-0.1-0.6,0-0.8
					c0.3-0.9,1.1-3,2.3-3.7c0,0,3.2-1,3.9-0.5c0,0,2.5,3.4-2.3,3.5c0,0-0.1,0.7,0.3,1.6c0,0,1.1,2.2-0.6,4c0,0,0.9,1-1.4,3.6
					c0,0,1.9-0.1,2,0.6S43.8,58.5,43,57.9z"/>
				<path class="st20" d="M41,54.3c0,0-0.6,0.9-1.5,1.2"/>
			</g>
		</g>
	</g>
	<g>
		<g>
			<line class="st20" x1="50.1" y1="10.7" x2="52.2" y2="14.7"/>
			<line class="st20" x1="49.1" y1="13.7" x2="53.1" y2="11.7"/>
		</g>
		<g>
			<line class="st21" x1="81.1" y1="24.5" x2="82.9" y2="28"/>
			<line class="st21" x1="80.2" y1="27.1" x2="83.7" y2="25.3"/>
		</g>
		<g>
			<line class="st21" x1="69.9" y1="7.2" x2="71.7" y2="10.6"/>
			<line class="st21" x1="69.1" y1="9.8" x2="72.5" y2="8"/>
		</g>
		<circle class="st22" cx="44.6" cy="21" r="1.3"/>
		<circle class="st23" cx="34.8" cy="12.8" r="0.7"/>
		<circle class="st23" cx="81.8" cy="11.7" r="0.8"/>
		<g>
			<line class="st21" x1="33.1" y1="23.5" x2="34.9" y2="27"/>
			<line class="st21" x1="32.2" y1="26.1" x2="35.7" y2="24.3"/>
		</g>
		<g>
			<line class="st20" x1="84.1" y1="17.2" x2="85.8" y2="20.6"/>
			<line class="st20" x1="83.3" y1="19.8" x2="86.6" y2="18.1"/>
		</g>
		<circle class="st22" cx="90.8" cy="25.1" r="1.5"/>
	</g>
	<g>
		<path class="st24" d="M57.9,69.3v13.5H40.5c0,0,6.3-12.4,15.3-4.1V68.4L57.9,69.3z"/>
		<path class="st24" d="M60.9,69.4v13.5h17.3c0,0-6.3-12.4-15.3-4.1V68.5L60.9,69.4z"/>
		<path class="st24" d="M77,44c0,12.7-6.9,23.8-15.5,25c-9.2,1.3-17.2-7.3-19.1-20.2c-0.8-5.2-0.2-10.1,2-14.4
			c4.8-9.4,11.5-14,19.9-13.6c5.2,0.2,8.7,4.1,10.9,10.5C76.6,35.3,77,39.6,77,44z"/>
		<g>
			
				<ellipse transform="matrix(2.525833e-02 -0.9997 0.9997 2.525833e-02 17.918 86.8941)" class="st25" cx="53.5" cy="34.3" rx="4.1" ry="4.1"/>
			<g>
				
					<ellipse transform="matrix(2.525833e-02 -0.9997 0.9997 2.525833e-02 19.204 86.6557)" class="st26" cx="54" cy="33.5" rx="2.5" ry="2.5"/>
				<ellipse transform="matrix(2.525833e-02 -0.9997 0.9997 2.525833e-02 19.3433 86.5266)" cx="54" cy="33.3" rx="1.2" ry="1.2"/>
				
					<ellipse transform="matrix(2.525833e-02 -0.9997 0.9997 2.525833e-02 21.2146 86.3226)" class="st27" cx="54.9" cy="32.3" rx="0.5" ry="0.5"/>
				
					<ellipse transform="matrix(2.525833e-02 -0.9997 0.9997 2.525833e-02 17.971 86.7862)" class="st27" cx="53.5" cy="34.2" rx="0.3" ry="0.3"/>
			</g>
		</g>
		<g>
			
				<ellipse transform="matrix(2.525833e-02 -0.9997 0.9997 2.525833e-02 27.2966 102.2422)" class="st25" cx="66.1" cy="37.1" rx="4.1" ry="4.1"/>
			<g>
				
					<ellipse transform="matrix(2.525833e-02 -0.9997 0.9997 2.525833e-02 28.5826 102.0038)" class="st26" cx="66.6" cy="36.3" rx="2.5" ry="2.5"/>
				
					<ellipse transform="matrix(2.525833e-02 -0.9997 0.9997 2.525833e-02 28.7219 101.8746)" cx="66.6" cy="36.2" rx="1.2" ry="1.2"/>
				
					<ellipse transform="matrix(2.525833e-02 -0.9997 0.9997 2.525833e-02 30.5931 101.6706)" class="st27" cx="67.4" cy="35.1" rx="0.5" ry="0.5"/>
				
					<ellipse transform="matrix(2.525833e-02 -0.9997 0.9997 2.525833e-02 27.3496 102.1342)" class="st27" cx="66" cy="37" rx="0.3" ry="0.3"/>
			</g>
		</g>
		<path class="st28" d="M57.7,28l0.4,0.5c0,0-9.2,3.3-9.9,3L57.7,28z"/>
		<path class="st28" d="M65.3,29.9l-0.3,0.6c0,0,6.4,5.7,7,5.5L65.3,29.9z"/>
		<g>
			<path d="M49.3,49.2c0,0,9.8-3.9,20.5,3.9c0,0-8-8.7-20.7-3.9"/>
			<path d="M70.8,51.3c0,0,0.1,2.8-0.3,3.1C70.5,54.4,71.9,53,70.8,51.3z"/>
		</g>
		<g>
			<path class="st24" d="M46.5,36.2c0,0-0.4-4.6-5.1,3.3L46.5,36.2z"/>
			<path class="st24" d="M39,40.7C39,40.7,39,40.7,39,40.7c0-0.2,0.1-0.4,0.2-0.5c0.6-0.8,2.9-3.6,5.2-3.5c0.2,0,0.3,0.1,0.5,0.2
				c0.3,0.3,0.9,0.8,0.8,1.7c0,0.4-0.3,0.7-0.7,0.8c-0.7,0.2-2,0.3-2.6,0.4c-0.2,0-0.4,0.1-0.6,0.3c-0.2,0.3-0.7,0.8-1.1,1.3
				C40,42.2,38.8,41.7,39,40.7z"/>
			<path class="st24" d="M42.8,55.5c0,0-3.9,1.9-6.1-0.4c-0.4-0.4-0.5-1.1-0.1-1.6c1.1-1.5,3.4-5.2,1.8-9c-0.1-0.3-0.1-0.6,0-0.8
				c0.3-0.9,1.1-3,2.3-3.7c0,0,3.2-1,3.9-0.5c0,0,2.5,3.4-2.3,3.5c0,0-0.1,0.7,0.3,1.6c0,0,1.1,2.2-0.6,4c0,0,0.9,1-1.4,3.6
				c0,0,1.9-0.1,2,0.6C42.8,53.4,43.6,56.2,42.8,55.5z"/>
			<path class="st24" d="M40.9,51.9c0,0-0.6,0.9-1.5,1.2"/>
		</g>
		<path class="st24" d="M83.9,59.9c0,0-7.1,9-10-0.4l1.9-4.1C75.7,55.4,77.6,62,83.9,59.9z"/>
		<path class="st24" d="M78.7,40.6l-1.6-2.7c0,0-4.7-1.4-5.9,3.1c0,0,3,5.5,3.2,7.1c0,0-1.4,5.1,1.7,6.5c0,0,0.5,6.9,7.6,4.7
			c0,0,2.3-0.4,4.8-3L78.7,40.6z"/>
		<path class="st29" d="M82.4,50.9l-4.6-1l2.9-13.3c0.3-1.3,1.5-2.1,2.8-1.8h0c1.3,0.3,2.1,1.5,1.8,2.8L82.4,50.9z"/>
		<g>
			<path class="st24" d="M91.1,54.8c0,0-0.6-8.8-3.1-12c0,0-7.7-4.7-8.3-2.3l-2.9,3.1c0,0-0.7,2.3,1,4.4L77,48.9
				c0,0-1.3,2.1,1.1,4.7c0,0,1.7,4,2.3,4l5.2,0.3L91.1,54.8z"/>
			<polyline class="st24" points="77.9,48 80.2,46.2 85.2,46.1 			"/>
			<polyline class="st24" points="78.4,53.4 83.3,52.7 87.1,51.2 			"/>
		</g>
		<path class="st25" d="M70.7,25.9l3.5-17.1c0.2-0.9,0.8-1,1.7-1.2l5,0.8l-0.6,3.5l4.8,1l0.7-3.6l8.7,1.8l-0.7,3.5l4.8,0.9l0.7-3.5
			l2.6,0.5c0.8,0.2,1.3,1,1.1,2l-4.4,21.6c-0.2,0.9-1,1.6-1.8,1.4l-19.7-4"/>
		<path class="st7" d="M73.8,24.7c1.2,0.2,2.4,0.5,3.7,0.8c1.5,0.3,2.3,1.3,2,2.7c-0.3,1.4-0.5,2.7-0.8,4.1L78.3,34l-1.7-0.2l-6-8.2
			l0.4-1.4L73.8,24.7z"/>
		<path class="st5" d="M100,21c0-0.1,0-0.2,0-0.3c-0.1-0.1-0.3-0.2-0.9-0.4c-7.2-1.5-14.4-2.9-21.6-4.4l-0.1,0c0,0-0.1,0-0.1,0
			c-0.1,0-0.3-0.1-0.4,0c-0.4,0-0.5,0.2-0.5,0.3c0,0.3,0.1,0.4,0.3,0.5c0.1,0,0.3,0.1,0.4,0.1l0.1,0l21.6,4.4
			C99.9,21.5,99.9,21.2,100,21z"/>
		<path class="st25" d="M96.6,15.5L95,15.2c-0.9-0.2-1.5-1.1-1.4-2l0.8-3.9c0.2-0.9,1.1-1.5,2-1.4l1.6,0.3c0.9,0.2,1.5,1.1,1.4,2
			l-0.8,3.9C98.4,15.1,97.5,15.7,96.6,15.5z"/>
		<path class="st5" d="M103.5,19.5c-0.5,2.2-0.9,4.4-1.4,6.7c-0.1,0.6,0.1,0.7,0.3,0.7c0.2,0,0.3,0,0.4,0c0.1-0.1,0.2-0.3,0.3-0.5
			c0.7-3.6,1.5-7.2,2.2-10.9c0.2-0.9,0-1.6-0.6-2.1c-0.4-0.3-0.9-0.6-1.6-0.8c-0.7-0.2-1.4-0.3-2.1-0.5c-0.3-0.1-0.6-0.1-1-0.2
			L99.6,12l0.2-0.9c0.1-0.3,0.1-0.7,0.2-1c0.2-1.1-0.3-1.8-1.5-2.1c-0.7-0.1-1.4-0.3-2.1-0.4c-1.2-0.2-1.9,0.2-2.1,1.3
			c-0.1,0.3-0.1,0.7-0.2,1l-0.2,0.9L86,9.2l0.1-0.4c0-0.2,0.1-0.4,0.1-0.6c0.1-0.4,0.2-0.8,0.2-1.2c0.1-0.9-0.4-1.5-1.3-1.7
			c-0.8-0.2-1.5-0.3-2.3-0.5l-0.1,0C81.6,4.6,80.9,5,80.7,6c-0.1,0.3-0.1,0.7-0.2,1l-0.2,1l-1.5-0.3c-0.3-0.1-0.6-0.1-0.9-0.2
			c-0.4-0.1-0.8-0.2-1.1-0.2c-1.8-0.4-2.9,0.3-3.2,1.9l-1.1,5.2c-0.7,3.6-1.4,7.1-2.2,10.7c-0.1,0.4,0,0.7,0.2,1.1
			c1.8,2.4,3.6,4.9,5.4,7.4c0.3,0.4,0.6,0.6,1.1,0.6c1.4,0.3,2.8,0.6,4.2,0.9l2.5,0.5c0.7,0.1,3.5,0.7,4.1,0.8c0.2,0,0.4,0,0.5-0.1
			c0.1-0.1,0.1-0.2,0.2-0.3c0-0.3-0.4-0.5-0.6-0.5c-1.7-0.4-5.6-1.1-7.3-1.5l-3-0.6l0.1-0.4c0.1-0.5,0.2-0.9,0.3-1.4
			c0.2-1,0.4-2,0.6-3c0.2-1.3-0.5-2.3-1.9-2.7c-0.3-0.1-0.6-0.1-0.9-0.2l-4.4-0.9l0.1-0.6c0-0.1,0-0.3,0.1-0.4c1-4.8,2-9.6,2.9-14.5
			c0-0.1,0.1-0.3,0.1-0.4c0.2-0.6,0.7-1,1.4-0.9c0.9,0.1,1.7,0.3,2.6,0.5c0.4,0.1,0.7,0.1,1.1,0.2l0.4,0.1L80,9.4
			c0,0.2-0.1,0.3-0.1,0.5c-0.1,0.3-0.1,0.6-0.2,1c-0.1,0.8,0.3,1.4,1.1,1.6c0.8,0.2,1.6,0.4,2.4,0.5l0.2,0c1.3,0.2,1.9-0.1,2.2-1.3
			c0.1-0.3,0.1-0.5,0.2-0.8l0.2-0.8l7.7,1.6l-0.2,0.9c-0.1,0.3-0.1,0.6-0.2,0.9c-0.1,0.8,0.3,1.5,1.1,1.7c1,0.3,2,0.5,3,0.6
			c0.9,0.1,1.6-0.3,1.7-1.2c0.1-0.3,0.1-0.6,0.2-0.9l0.2-0.8l1.4,0.3c0.7,0.1,1.4,0.3,2,0.4c1.4,0.3,1.8,0.8,1.5,2.1L103.5,19.5z
			 M74.2,26.4c0.7,0.1,1.5,0.3,2.2,0.5c0.9,0.2,1.3,0.8,1.2,1.6c-0.2,0.8-0.3,1.6-0.5,2.4l-0.4,2l-5.2-7L74.2,26.4z M84.6,11.4
			c0,0.1-0.1,0.4-0.4,0.6c-0.2,0.1-0.4,0.1-0.7,0.1c-0.8-0.2-1.4-0.3-2.1-0.4c0,0,0,0,0,0c-0.3-0.1-0.5-0.2-0.6-0.3
			c-0.2-0.2-0.1-0.5-0.1-0.7c0.1-0.5,0.2-1,0.3-1.5l0.1-0.6l0.1-0.6c0.1-0.5,0.2-1,0.3-1.4c0-0.2,0.1-0.5,0.4-0.7
			c0.3-0.2,0.7-0.1,0.8-0.1c0.6,0.2,1.3,0.3,1.9,0.4c0.2,0,0.5,0.1,0.7,0.4c0.1,0.2,0.2,0.4,0.1,0.7C85.1,8.7,84.8,10.3,84.6,11.4z
			 M97.9,15l-3.7-0.8l1.2-5.8l3.7,0.8L97.9,15z"/>
		<path class="st5" d="M98.2,23.7c0-0.1,0-0.2,0-0.2c0-0.1-0.1-0.2-0.4-0.3c-3.7-0.8-7.4-1.5-11.1-2.3l-0.1,0c0,0,0,0-0.1,0
			c-0.1,0-0.1,0-0.2,0c-0.2,0-0.2,0.2-0.3,0.3c0,0.2,0,0.4,0.1,0.4c0.1,0,0.1,0,0.2,0.1l0.1,0L97.6,24
			C98.2,24.1,98.2,23.8,98.2,23.7z"/>
		<path class="st5" d="M84.1,20.8c0-0.1,0-0.2,0-0.2c0-0.1-0.1-0.2-0.3-0.2c-2.4-0.5-4.7-1-7.1-1.4l0,0c0,0,0,0,0,0c0,0-0.1,0-0.1,0
			c-0.1,0-0.2,0.2-0.2,0.3c0,0.2,0,0.3,0.1,0.4c0,0,0.1,0,0.1,0l0,0l7.1,1.4C84,21.2,84,20.9,84.1,20.8z"/>
		<g>
			<g>
				<path class="st2" d="M93.8,38.8l-1-0.6c-0.5-0.4-0.7-1.1-0.3-1.6l6.4-9.8c0.4-0.5,1.1-0.7,1.6-0.3l1,0.6
					c0.5,0.4,0.7,1.1,0.3,1.6l-6.4,9.8C95.1,39,94.3,39.2,93.8,38.8z"/>
				<path class="st2" d="M91,29.3l0.6-1c0.4-0.5,1.1-0.7,1.6-0.3l9.8,6.4c0.5,0.4,0.7,1.1,0.3,1.6l-0.6,1c-0.4,0.5-1.1,0.7-1.6,0.3
					l-9.8-6.4C90.8,30.5,90.6,29.8,91,29.3z"/>
			</g>
			<path class="st32" d="M95.6,34.4l-2.2,3.4c-0.3,0.5-1.1,0.7-1.7,0.3l-0.8-0.5c-0.6-0.4-0.7-1.2-0.4-1.7l2.1-3.3"/>
			<path class="st32" d="M94.6,29.6l2.2-3.3c0.4-0.6,1.2-0.7,1.7-0.4l0.8,0.5c0.6,0.4,0.7,1.2,0.4,1.7l-2.2,3.3"/>
			<path class="st32" d="M92.7,32.5l-2.5-1.6c-1.4-0.9-1.6-1.7-1.2-2.3l0.5-0.8c0.4-0.6,1.2-0.7,1.7-0.4l3.2,2.1"/>
			<path class="st32" d="M97.7,31.5l3.1,2.1c0.6,0.4,0.9,1.2,0.5,1.8l-0.5,0.8c-0.4,0.6-1.2,0.7-1.8,0.3l-3.1-2"/>
		</g>
	</g>
</g>
</svg>
