<?xml version="1.0" encoding="utf-8"?>
<!-- Generator: Adobe Illustrator 21.0.0, SVG Export Plug-In . SVG Version: 6.00 Build 0)  -->
<svg version="1.1" id="Layer_1" xmlns="http://www.w3.org/2000/svg" xmlns:xlink="http://www.w3.org/1999/xlink" x="0px" y="0px"
	 viewBox="0 0 22 22" style="enable-background:new 0 0 22 22;" xml:space="preserve">
<style type="text/css">
	.st0{fill:#FFFFFF;}
</style>
<g>
	<g>
		<path class="st0" d="M20,13.1c0,3.7,0,3.3,0,7c0,0.1,0,0.2,0,0.3c0,0.6-0.4,0.8-0.9,0.6c-1.3-0.6-2.6-1.2-3.9-1.7
			c-0.5-0.2-1-0.6-1.4-0.6c-0.5,0-1,0.3-1.5,0.6c-1.1,0.6-2.1,0.6-3.1,0c-0.7-0.4-1.6-0.6-2.4-1c-0.2-0.1-0.4-0.1-0.6,0.1
			c-1,0.7-2.1,1.4-3.1,2c-0.3,0.2-0.5,0.4-0.8,0.2C2,20.3,2,20,2,19.7c0-2.1,0-4.2,0-6.3C2,8.2,2,7.1,2,2c0-0.9,0.1-1,0.9-1
			c5.4,0,10.8,0,16.2,0C19.9,1,20,1.1,20,1.9C20,5.6,20,9.3,20,13.1z M18.8,19.5c0-7.2,0-10.2,0-17.3c-5.2,0-10.5,0-15.7,0
			c0,6.9,0,9.8,0,16.8c0.1-0.1,0.2-0.1,0.4-0.2c0.8-0.5,1.6-1,2.4-1.6c0.4-0.2,0.7-0.3,1-0.1c1.1,0.5,2.3,0.9,3.4,1.4
			c0.2,0.1,0.5,0.1,0.6,0c0.8-0.3,1.6-0.7,2.4-1c0.2-0.1,0.5-0.1,0.7,0c0.6,0.2,1.2,0.5,1.8,0.8C16.9,18.7,17.8,19.1,18.8,19.5z"/>
		<path class="st0" d="M11,8c1.4,0,2.9,0,4.3,0c0.1,0,0.3,0,0.4,0c0.3,0,0.4,0.3,0.5,0.5c0,0.3-0.1,0.5-0.4,0.6c-0.1,0-0.3,0-0.5,0
			c-2.9,0-5.7,0-8.6,0c-0.1,0-0.2,0-0.2,0c-0.4,0-0.7-0.2-0.7-0.6C5.8,8.3,6.1,8,6.5,8C8,8,9.5,8,11,8L11,8z"/>
		<path class="st0" d="M10,13.2c-1.5,0-2,0-3.5,0c-0.3,0-0.5-0.1-0.6-0.4c-0.1-0.3,0-0.5,0.2-0.6c0.1-0.1,0.3-0.1,0.4-0.1
			c3,0,2,0,5,0c0.4,0,0.7,0.2,0.7,0.6c0,0.3-0.3,0.5-0.7,0.5C10,13.2,11.5,13.2,10,13.2z"/>
		<path class="st0" d="M11,5.2c-1.4,0-2.9,0-4.3,0c-0.1,0-0.3,0-0.4,0C6,5.1,5.8,4.8,5.9,4.6c0-0.2,0.3-0.4,0.4-0.5S6.6,4,6.7,4
			c2.9,0,5.7,0,8.6,0h0.1c0.5,0,0.8,0.2,0.8,0.6s-0.3,0.6-0.8,0.6C13.9,5.2,12.5,5.2,11,5.2z"/>
	</g>
</g>
</svg>
