<?xml version="1.0" encoding="utf-8"?>
<!-- Generator: Adobe Illustrator 21.0.0, SVG Export Plug-In . SVG Version: 6.00 Build 0)  -->
<svg version="1.1" id="Layer_1" xmlns="http://www.w3.org/2000/svg" xmlns:xlink="http://www.w3.org/1999/xlink" x="0px" y="0px"
	 viewBox="0 0 916 229" style="enable-background:new 0 0 916 229;" xml:space="preserve">
<style type="text/css">
	.st0{fill:#FFFFFF;}
</style>
<g>
	<path d="M276.4,181.4c-5.2,0-10,0-15.2,0c0-79.6,0-53,0-132.7c4.9,0,9.8,0,15.2,0C276.4,128.2,276.4,101.5,276.4,181.4z"/>
	<path d="M301.1,48.6c5.2,0,10,0,15.1,0c0,79.5,0,52.9,0,132.6c-4.9,0-9.8,0-15.1,0C301.1,101.8,301.1,128.5,301.1,48.6z"/>
	<path d="M436.4,48.7c5.2,0,10.1,0,15.3,0c0,79.6,0,53,0,132.6c-5.1,0-10,0-15.3,0C436.4,101.9,436.4,128.5,436.4,48.7z"/>
	<path d="M500,181.3c0-79.9,0-53,0-132.4c5.2,0,10.2,0,15.5,0c0,79.5,0,52.8,0,132.4C510.4,181.3,505.3,181.3,500,181.3z"/>
	<path d="M626.8,181.4c-5.2,0-9.9,0-15.1,0c0-79.5,0-52.9,0-132.6c4.9,0,9.8,0,15.1,0C626.8,128.2,626.8,101.5,626.8,181.4z"/>
	<path d="M651.3,181.3c0-79.7,0-53,0-132.6c5.2,0,10.3,0,15.5,0c0,79.6,0,52.9,0,132.6C661.7,181.3,656.7,181.3,651.3,181.3z"/>
	<path d="M197.4,48.7c2.6,0,4.8,0,7.4,0c0,79.6,0,53,0,132.6c-2.5,0-4.7,0-7.4,0C197.4,101.9,197.4,128.5,197.4,48.7z"/>
	<path d="M228.6,181.3c-2.7,0-5,0-7.4,0c0-79.5,0-52.8,0-132.4c2.4,0,4.7,0,7.4,0C228.6,128.2,228.6,101.6,228.6,181.3z"/>
	<path d="M252.5,181.3c-2.6,0-4.9,0-7.4,0c0-79.6,0-53,0-132.6c2.5,0,4.8,0,7.4,0C252.5,128.2,252.5,101.5,252.5,181.3z"/>
	<path d="M292.4,181.3c-2.6,0-4.8,0-7.3,0c0-79.6,0-52.9,0-132.6c2.5,0,4.7,0,7.3,0C292.4,128.1,292.4,101.5,292.4,181.3z"/>
	<path d="M340,181.4c-2.5,0-4.6,0-7.2,0c0-79.5,0-52.9,0-132.6c2.3,0,4.5,0,7.2,0C340,128.2,340,101.5,340,181.4z"/>
	<path d="M363.9,181.4c-2.5,0-4.7,0-7.2,0c0-79.5,0-52.9,0-132.6c2.3,0,4.5,0,7.2,0C363.9,128.2,363.9,101.5,363.9,181.4z"/>
	<path d="M379.8,181.3c-2.6,0-4.8,0-7.3,0c0-79.6,0-52.9,0-132.6c2.5,0,4.7,0,7.3,0C379.8,128.2,379.8,101.5,379.8,181.3z"/>
	<path d="M388.5,48.7c2.6,0,4.9,0,7.4,0c0,79.6,0,53,0,132.6c-2.5,0-4.8,0-7.4,0C388.5,101.8,388.5,128.5,388.5,48.7z"/>
	<path d="M412.4,48.7c2.7,0,5,0,7.4,0c0,79.5,0,52.8,0,132.4c-2.4,0-4.7,0-7.4,0C412.4,101.8,412.4,128.4,412.4,48.7z"/>
	<path d="M467.6,181.3c-2.6,0-4.9,0-7.4,0c0-79.6,0-53,0-132.6c2.5,0,4.8,0,7.4,0C467.6,128.2,467.6,101.5,467.6,181.3z"/>
	<path d="M476.3,48.7c2.6,0,4.9,0,7.4,0c0,79.6,0,53,0,132.6c-2.5,0-4.8,0-7.4,0C476.3,101.8,476.3,128.5,476.3,48.7z"/>
	<path d="M539.4,181.3c-2.7,0-4.9,0-7.4,0c0-79.6,0-53,0-132.6c2.5,0,4.8,0,7.4,0C539.4,128.2,539.4,101.5,539.4,181.3z"/>
	<path d="M548.1,48.6c2.5,0,4.7,0,7.2,0c0,79.5,0,52.9,0,132.6c-2.3,0-4.5,0-7.2,0C548.1,101.8,548.1,128.5,548.1,48.6z"/>
	<path d="M579.2,181.4c-2.5,0-4.6,0-7.2,0c0-79.6,0-52.9,0-132.6c2.2,0,4.5,0,7.2,0C579.2,128.1,579.2,101.5,579.2,181.4z"/>
	<path d="M603,181.4c-2.6,0-4.7,0-7.2,0c0-79.5,0-52.9,0-132.6c2.3,0,4.5,0,7.2,0C603,128.2,603,101.6,603,181.4z"/>
	<path d="M635.5,48.6c2.7,0,4.8,0,7.3,0c0,79.5,0,52.8,0,132.6c-2.3,0-4.7,0-7.3,0C635.5,101.7,635.5,128.4,635.5,48.6z"/>
	<path d="M683.4,48.7c2.6,0,4.8,0,7.4,0c0,79.6,0,53,0,132.6c-2.5,0-4.7,0-7.4,0C683.4,101.9,683.4,128.5,683.4,48.7z"/>
	<path d="M714.6,181.3c-2.5,0-4.8,0-7.3,0c0-79.6,0-53,0-132.6c2.4,0,4.7,0,7.3,0C714.6,128.1,714.6,101.5,714.6,181.3z"/>
</g>
<rect x="560" y="398" class="st0" width="161" height="23"/>
<g>
	<path d="M584.8,421.1c-1.6,0-3.1,0-4.7,0c0-13.8,0-9.2,0-23c1.5,0,3.1,0,4.7,0C584.8,411.8,584.8,407.2,584.8,421.1z"/>
	<path d="M592.4,398.1c1.6,0,3.1,0,4.7,0c0,13.8,0,9.2,0,23c-1.5,0-3.1,0-4.7,0C592.4,407.3,592.4,411.9,592.4,398.1z"/>
	<path d="M634.6,398.1c1.6,0,3.2,0,4.8,0c0,13.8,0,9.2,0,23c-1.6,0-3.1,0-4.8,0C634.6,407.3,634.6,411.9,634.6,398.1z"/>
	<path d="M654.4,421c0-13.8,0-9.2,0-22.9c1.6,0,3.2,0,4.8,0c0,13.8,0,9.1,0,22.9C657.6,421,656,421,654.4,421z"/>
	<path d="M693.8,421.1c-1.6,0-3.1,0-4.7,0c0-13.8,0-9.2,0-23c1.5,0,3,0,4.7,0C693.8,411.8,693.8,407.2,693.8,421.1z"/>
	<path d="M701.5,421.1c0-13.8,0-9.2,0-23c1.6,0,3.2,0,4.8,0c0,13.8,0,9.2,0,23C704.7,421.1,703.1,421.1,701.5,421.1z"/>
	<path d="M560.2,398.1c0.8,0,1.5,0,2.3,0c0,13.8,0,9.2,0,23c-0.8,0-1.5,0-2.3,0C560.2,407.3,560.2,411.9,560.2,398.1z"/>
	<path d="M569.9,421c-0.8,0-1.5,0-2.3,0c0-13.8,0-9.1,0-22.9c0.7,0,1.5,0,2.3,0C569.9,411.9,569.9,407.2,569.9,421z"/>
	<path d="M577.3,421c-0.8,0-1.5,0-2.3,0c0-13.8,0-9.2,0-23c0.8,0,1.5,0,2.3,0C577.3,411.8,577.3,407.2,577.3,421z"/>
	<path d="M589.7,421.1c-0.8,0-1.5,0-2.3,0c0-13.8,0-9.2,0-23c0.8,0,1.5,0,2.3,0C589.7,411.8,589.7,407.2,589.7,421.1z"/>
	<path d="M604.6,421.1c-0.8,0-1.4,0-2.2,0c0-13.8,0-9.2,0-23c0.7,0,1.4,0,2.2,0C604.6,411.8,604.6,407.2,604.6,421.1z"/>
	<path d="M612,421.1c-0.8,0-1.5,0-2.2,0c0-13.8,0-9.2,0-23c0.7,0,1.4,0,2.2,0C612,411.8,612,407.2,612,421.1z"/>
	<path d="M617,421.1c-0.8,0-1.5,0-2.3,0c0-13.8,0-9.2,0-23c0.8,0,1.5,0,2.3,0C617,411.8,617,407.2,617,421.1z"/>
	<path d="M619.7,398.1c0.8,0,1.5,0,2.3,0c0,13.8,0,9.2,0,23c-0.8,0-1.5,0-2.3,0C619.7,407.3,619.7,411.9,619.7,398.1z"/>
	<path d="M627.1,398.1c0.8,0,1.5,0,2.3,0c0,13.8,0,9.1,0,22.9c-0.7,0-1.5,0-2.3,0C627.1,407.3,627.1,411.9,627.1,398.1z"/>
	<path d="M644.3,421.1c-0.8,0-1.5,0-2.3,0c0-13.8,0-9.2,0-23c0.8,0,1.5,0,2.3,0C644.3,411.9,644.3,407.2,644.3,421.1z"/>
	<path d="M647,398.1c0.8,0,1.5,0,2.3,0c0,13.8,0,9.2,0,23c-0.8,0-1.5,0-2.3,0C647,407.3,647,411.9,647,398.1z"/>
	<path d="M666.6,421c-0.8,0-1.5,0-2.3,0c0-13.8,0-9.2,0-23c0.8,0,1.5,0,2.3,0C666.6,411.9,666.6,407.2,666.6,421z"/>
	<path d="M669.3,398.1c0.8,0,1.5,0,2.2,0c0,13.8,0,9.2,0,23c-0.7,0-1.4,0-2.2,0C669.3,407.3,669.3,411.9,669.3,398.1z"/>
	<path d="M679,421.1c-0.8,0-1.4,0-2.2,0c0-13.8,0-9.2,0-23c0.7,0,1.4,0,2.2,0C679,411.8,679,407.2,679,421.1z"/>
	<path d="M686.4,421.1c-0.8,0-1.5,0-2.2,0c0-13.8,0-9.2,0-23c0.7,0,1.4,0,2.2,0C686.4,411.9,686.4,407.2,686.4,421.1z"/>
	<path d="M696.5,398.1c0.8,0,1.5,0,2.3,0c0,13.8,0,9.2,0,23c-0.7,0-1.4,0-2.3,0C696.5,407.3,696.5,411.9,696.5,398.1z"/>
	<path d="M711.4,398.1c0.8,0,1.5,0,2.3,0c0,13.8,0,9.2,0,23c-0.8,0-1.5,0-2.3,0C711.4,407.3,711.4,411.9,711.4,398.1z"/>
	<path d="M721.2,421.1c-0.8,0-1.5,0-2.3,0c0-13.8,0-9.2,0-23c0.8,0,1.5,0,2.3,0C721.2,411.8,721.2,407.2,721.2,421.1z"/>
</g>
</svg>
