<?xml version="1.0" encoding="utf-8"?>
<!-- Generator: Adobe Illustrator 21.0.0, SVG Export Plug-In . SVG Version: 6.00 Build 0)  -->
<svg version="1.1" id="Layer_1" xmlns="http://www.w3.org/2000/svg" xmlns:xlink="http://www.w3.org/1999/xlink" x="0px" y="0px"
	 viewBox="0 0 22 16" style="enable-background:new 0 0 22 16;" xml:space="preserve">
<style type="text/css">
	.st0{fill:#475099;}
</style>
<g>
	<path class="st0" d="M11.2,0c2.6,0,5.2,0,7.8,0c1.7,0,3.1,1.3,3.1,3.1c0,3.1,0,6.8,0,9.9c0,1.8-1.2,3-3,3c-5.2,0-10.5,0-15.7,0
		c-1.8,0-3-1.2-3-3c0-3.1,0-6.9,0-10C0.3,1.2,1.5,0,3.2,0C5.9,0,8.6,0,11.2,0z M11.2,1.3c-2.7,0-5.4,0-8,0C2.3,1.3,1.7,2,1.7,2.8
		c0,3.2,0,7,0,10.2c0,0.9,0.6,1.6,1.6,1.6c5.3,0,10.7,0,16,0c0.9,0,1.6-0.6,1.6-1.6c0-3.2,0-6.9,0-10.1c0-1-0.6-1.6-1.6-1.6
		C16.5,1.3,13.9,1.3,11.2,1.3z"/>
	<path class="st0" d="M14.7,8C15.9,9,17,10,18.2,11.1c0.1,0.1,0.1,0.1,0.2,0.2c0.3,0.3,0.3,0.7,0.1,1c-0.2,0.3-0.6,0.3-0.9,0.1
		c-0.5-0.4-1-0.9-1.5-1.3c-0.8-0.7-1.6-1.4-2.4-2c-0.8,0.7-1.6,1.4-2.4,2.1c-0.8-0.7-1.6-1.4-2.4-2.1C8.3,9.2,7.9,9.6,7.5,10
		c-0.8,0.7-1.7,1.5-2.5,2.2c-0.2,0.1-0.4,0.2-0.6,0.2c-0.2,0-0.4-0.3-0.5-0.5c-0.1-0.3,0-0.5,0.2-0.7c0.7-0.6,1.3-1.1,2-1.7
		C6.6,9,7.2,8.5,7.8,8C7.2,7.5,6.7,7,6.2,6.6C5.5,6,4.8,5.4,4.1,4.8C3.8,4.5,3.7,4.1,4,3.8c0.3-0.3,0.7-0.3,1,0
		C6.4,5,7.8,6.2,9.2,7.5c0.7,0.6,1.3,1.1,2,1.7C12,8.5,12.9,7.8,13.7,7c1.2-1.1,2.5-2.2,3.7-3.2c0.2-0.1,0.4-0.2,0.6-0.2
		c0.3,0,0.5,0.2,0.6,0.5c0.1,0.3,0,0.5-0.2,0.7c-0.7,0.6-1.3,1.2-2,1.8C15.8,7,15.2,7.5,14.7,8z"/>
</g>
</svg>
