<?xml version="1.0" encoding="utf-8"?>
<!-- Generator: Adobe Illustrator 21.0.0, SVG Export Plug-In . SVG Version: 6.00 Build 0)  -->
<svg version="1.1" id="Layer_1" xmlns="http://www.w3.org/2000/svg" xmlns:xlink="http://www.w3.org/1999/xlink" x="0px" y="0px"
	 viewBox="0 0 30 30" style="enable-background:new 0 0 30 30;" xml:space="preserve">
<style type="text/css">
	.st0{fill:#FFFFFF;}
	.st1{fill:#555555;}
</style>
<g>
	<circle class="st0" cx="15" cy="15" r="14"/>
	<path class="st1" d="M13.6,15.4c-1.6-1.1-1.6-3-0.5-4.1c1.1-1.1,2.8-1.1,3.9-0.1c1.2,1.1,1,2.8-0.5,4.2c0.1,0.1,0.3,0.1,0.5,0.3
		c1.4,0.7,2.1,1.9,2.2,3.4c0,0.3-0.1,0.5-0.3,0.5c-0.3,0-0.3-0.1-0.3-0.4c-0.1-1.3-0.7-2.3-1.9-2.9c-2.2-1.1-4.9,0.4-4.9,2.9
		c0,0.3-0.1,0.4-0.3,0.4c-0.3,0-0.3-0.2-0.3-0.5c0-0.1,0-0.1,0-0.3c0.2-1.6,1-2.7,2.4-3.3C13.8,15.5,13.8,15.5,13.6,15.4z M13,13.1
		c0,1.1,0.9,2.1,2.1,2.1c1.1,0,2-0.9,2-2s-0.9-2-2.1-2C13.9,11.1,13,12,13,13.1z"/>
</g>
</svg>
