<?xml version="1.0" encoding="utf-8"?>
<!-- Generator: Adobe Illustrator 21.0.0, SVG Export Plug-In . SVG Version: 6.00 Build 0)  -->
<svg version="1.1" id="Layer_1" xmlns="http://www.w3.org/2000/svg" xmlns:xlink="http://www.w3.org/1999/xlink" x="0px" y="0px"
	 viewBox="0 0 22 22" style="enable-background:new 0 0 22 22;" xml:space="preserve">
<style type="text/css">
	.st0{fill:#D6D6D6;}
	.st1{fill:#224099;}
	.st2{fill:#FFCD00;}
	.st3{fill:#0E1744;}
	.st4{fill:none;stroke:#0E1744;stroke-width:0.8734;stroke-linecap:round;stroke-linejoin:round;stroke-miterlimit:10;}
	.st5{fill:#FFFFFF;stroke:#231F20;stroke-miterlimit:10;}
	.st6{fill:#E6E7E8;}
	.st7{fill:#FFFFFF;}
	.st8{fill:none;stroke:#0E1744;stroke-width:0.5838;stroke-linecap:round;stroke-linejoin:round;stroke-miterlimit:10;}
	.st9{fill:#555555;}
	.st10{fill:#C81313;}
	.st11{fill:none;stroke:#C81313;stroke-miterlimit:10;}
	.st12{fill:none;stroke:#555555;stroke-linecap:round;stroke-miterlimit:10;}
	.st13{fill:none;stroke:#224099;stroke-width:0.8378;stroke-miterlimit:10;}
	.st14{fill:none;stroke:#555555;stroke-width:0.7207;stroke-miterlimit:10;}
	.st15{fill:none;stroke:#555555;stroke-width:0.8016;stroke-miterlimit:10;}
</style>
<g>
	<g>
		<path class="st0" d="M-372.5-73.2l-26.7,2.7c-2.8,0.2-6-2.1-6.9-5.2l-4.8-15.1c-1-3.1,0.5-5.8,3.4-6l26.7-2.7
			c2.8-0.2,6,2.1,6.9,5.2l4.8,15.1C-368.1-76.1-369.7-73.4-372.5-73.2z"/>
		<g>
			<path class="st1" d="M-397.5-87.2c-0.8-0.9-1.4-1.9-1.8-3.1c-0.3-1.1-0.4-2.2-0.1-3.3c0.6-1.9,2.5-3.8,5-4c3.1-0.2,5.9,2.2,6,5.3
				c0.1,2.4-1.8,5.3-4,6.3C-393.6-85.5-396.1-85.4-397.5-87.2z"/>
			<path class="st2" d="M-389.8-87.2c-0.8-0.9-1.4-1.9-1.8-3.1c-0.3-1.1-0.4-2.2-0.1-3.3c0.6-1.9,2.5-3.8,5-4c3.1-0.2,5.9,2.2,6,5.3
				c0.1,2.4-1.8,5.3-4,6.3c0,0-2.4,1.4-4.3-0.7C-390.6-86.2-388.9-86.2-389.8-87.2z"/>
			<g>
				<path class="st3" d="M-394.4-78.2c0.3,0.2,0.5,0.4,0.7,0.6c0.2,0.2,0.3,0.5,0.1,0.7c-0.2,0.3-0.5,0.2-0.7,0
					c-0.2-0.2-0.5-0.4-0.7-0.6c-0.5-0.4-0.5-1.1-0.1-1.5c0.3-0.3,0.7-0.6,1-1c0.1-0.1,0.1-0.3,0.1-0.5c-0.1-0.2-0.2-0.5-0.4-0.7
					c-0.1-0.3-0.3-0.4-0.6-0.4c-0.6,0-0.8-0.5-0.7-1c0.1-0.3,0.1-0.6,0.2-0.8c-2.4-1-3.8-2.8-4.6-5.2c-1.7-5,2.9-9,7.2-8.2
					c0.1,0,0.1,0,0.2,0c0.3,0.1,0.5,0.2,0.4,0.6c-0.1,0.3-0.3,0.4-0.6,0.4c-0.7,0-1.5-0.1-2.2,0c-3.3,0.6-5.2,3.7-4.1,6.9
					c0.6,1.8,1.6,3.4,3.4,4.3c1.2,0.7,2.5,0.6,3.7-0.1c1.1-0.7,1.9-1.7,2.6-2.8c-0.9-1-1.7-2.2-2.1-3.5c-0.4-1.2-0.5-2.5-0.1-3.8
					c0.6-2.2,2.9-4.3,5.7-4.6c3.6-0.3,6.8,2.5,6.9,6.1c0.1,2.8-2.1,6.1-4.7,7.2c-0.1,0-0.1,0-0.1,0.1c0.1,0.4,0.2,0.9,0.1,1.3
					c-0.1,0.5-0.5,0.7-1,0.7c0.1,0.3,0.2,0.5,0.4,0.7c0.3,0.6,0.3,1-0.3,1.5c-0.3,0.3-0.7,0.6-1.1,1c0.2,0.2,0.5,0.4,0.7,0.5
					c0.3,0.2,0.4,0.5,0.2,0.8c-0.2,0.3-0.5,0.2-0.8,0c-0.2-0.2-0.4-0.3-0.6-0.5c-0.5-0.5-0.6-1.1-0.1-1.6c0.3-0.3,0.6-0.6,0.9-0.9
					c0.1-0.1,0.1-0.3,0.1-0.4c0-0.2-0.2-0.4-0.3-0.5c-0.2-0.4-0.3-0.6-0.8-0.6c-0.6,0-0.9-0.6-0.8-1.2c0.1-0.2,0.1-0.4,0.2-0.7
					c-0.6-0.3-1.2-0.6-1.8-1c-0.9,1.5-2.1,2.7-3.7,3.4c0.1,0.5,0.2,1,0.1,1.4c-0.1,0.6-0.6,0.6-1.2,0.6c0.1,0.3,0.2,0.5,0.3,0.7
					c0.3,0.6,0.2,1-0.3,1.5C-393.7-78.9-394-78.5-394.4-78.2z M-380.1-93c0-0.4,0-0.7-0.1-0.9c-0.6-3.2-4-5.2-7.2-4.1
					c-2.4,0.8-4,3.2-3.5,5.7c0.4,2.1,1.4,3.9,3.3,5.1c1.4,0.9,2.8,0.9,4.2,0C-381.4-88.6-380.3-90.6-380.1-93z M-394.7-82.4
					c0.5,0,1,0,1.5,0c-0.1-0.3-0.1-0.5-0.2-0.7c-0.4,0-0.7,0-1,0C-394.6-82.8-394.7-82.6-394.7-82.4z M-384.8-85
					c-0.1-0.6-0.1-0.6-0.9-0.6c-0.5,0-0.3,0.4-0.4,0.6C-385.7-85-385.3-85-384.8-85z"/>
			</g>
			<path class="st4" d="M-370.9-81l-26.7,9.9c-2.8,1-6-0.5-6.9-3.4l-4.8-13.9c-1-2.8,0.5-6,3.4-6.9l26.7-9.9c2.8-1,6,0.5,6.9,3.4
				l4.8,13.9C-366.6-85.1-368.1-82-370.9-81z"/>
		</g>
	</g>
	<g>
		<path class="st1" d="M-345-80.9c1.3,0,2.6,0,3.9,0c1.7,0,2.6,0.9,2.6,2.6c0,1.6,0,3.2,0,4.8l0,2l-1.8,0.2l-7.9-7.9l0.1-1.7
			L-345-80.9z"/>
		<path class="st2" d="M-327.3-76.8c-0.5,0.6-0.5,1.4,0,1.9c1.7,1.8,3.5,3.5,5.3,5.3c0.5,0.5,1.4,0.5,1.9,0c2.9-2.9,5.5-5.5,8-8
			c0.6-0.6,0.6-1.4,0.1-2c-0.6-0.7-1.3-1.4-2.1-2.1c-0.5-0.4-1.2-0.4-1.7,0c-0.2,0.2-0.4,0.4-0.6,0.6l-0.1,0.1c-1,1-2,2-3,3
			l-1.5,1.5l-0.3-0.3c-0.2-0.2-0.4-0.4-0.6-0.6c-0.4-0.4-0.8-0.8-1.2-1.2c-0.3-0.3-0.7-0.5-1.1-0.5c-0.4,0-0.7,0.1-1,0.4
			C-326-78.2-326.7-77.5-327.3-76.8z"/>
		<path class="st3" d="M-315.7-93.6c0,2.6,0,5.2,0,7.8c0,0.8,0.3,0.8,0.5,0.8c0.3,0,0.3-0.1,0.4-0.1c0.1-0.1,0.2-0.3,0.2-0.6
			c0-4.3,0-8.5,0-12.8c0-1.1-0.4-1.8-1.1-2.2c-0.5-0.3-1.1-0.4-1.8-0.5c-0.7-0.1-1.5,0-2.2,0c-0.3,0-0.7,0-1,0h-0.5l0-1.1
			c0-0.4,0-0.8,0-1.1c0-1.3-0.6-2-2-2c-0.8,0-1.5,0-2.3,0c-1.3,0-1.9,0.6-1.9,1.9c0,0.4,0,0.8,0,1.2l0,1h-8.3v-0.5
			c0-0.2,0-0.5,0-0.7c0-0.5,0-0.9,0-1.3c-0.1-1-0.7-1.6-1.7-1.6c-0.8,0-1.6,0-2.4,0l-0.1,0c-1.2,0-1.9,0.6-1.9,1.9
			c0,0.4,0,0.8,0,1.2l0,1.1l-1.6,0c-0.3,0-0.7,0-1,0c-0.4,0-0.8,0-1.2,0c-1.9,0-2.9,1-2.9,2.9l0,6.1c0,4.2,0,8.4,0,12.5
			c0,0.5,0.1,0.8,0.5,1.1c2.3,2.3,4.7,4.7,7.1,7.1c0.3,0.3,0.7,0.5,1.2,0.5c1.5,0,3,0,4.5,0l2.6,0c0.7,0,1.5,0,2.2,0
			c0.2,0,0.4-0.1,0.5-0.2c0.1-0.1,0.1-0.2,0.1-0.4c0-0.4-0.5-0.4-0.7-0.4c-1.9,0-3.7,0-5.6,0l-3.2,0v-0.5c0-0.6,0-1.1,0-1.6
			c0-1.2,0-2.4,0-3.5c0-1.5-1-2.5-2.5-2.6c-0.3,0-0.6,0-0.9,0l-4.7,0l0-0.7c0-0.2,0-0.3,0-0.4c0-5.7,0-11.3,0-17c0-0.2,0-0.3,0-0.5
			c0.1-0.8,0.6-1.3,1.2-1.3c0.9,0,1.8,0,2.8,0c0.4,0,0.8,0,1.1,0h0.5v0.5c0,0.2,0,0.4,0,0.6c0,0.4,0,0.8,0,1.1
			c0.1,0.9,0.6,1.5,1.5,1.5c0.8,0.1,1.7,0.1,2.5,0.1l0.2,0c1.4,0,2-0.6,2-2c0-0.3,0-0.6,0-0.9l0-0.9h8.3l0,1c0,0.4,0,0.7,0,1.1
			c0,0.9,0.6,1.6,1.5,1.6c1.1,0.1,2.1,0.1,3.1,0c1-0.1,1.5-0.7,1.5-1.7c0-0.3,0-0.7,0-1l0-1l1.5,0c0.7,0,1.5,0,2.2,0
			c1.5,0,2,0.5,2,2L-315.7-93.6z M-344.2-79.1c0.8,0,1.6,0,2.3,0c1,0,1.5,0.6,1.5,1.5c0,0.9,0,1.9,0,2.9l0,2.4l-6.8-6.8L-344.2-79.1
			z M-336.8-98.3c0,0.1,0,0.5-0.3,0.7c-0.2,0.2-0.4,0.2-0.7,0.2c-0.8,0-1.5,0-2.2,0c0,0,0,0,0,0c-0.3,0-0.5-0.1-0.7-0.2
			c-0.2-0.2-0.3-0.5-0.3-0.8c0-0.6,0-1.2,0-1.8l0-0.7l0-0.7c0-0.6,0-1.1,0-1.7c0-0.2,0-0.6,0.3-0.8c0.3-0.3,0.7-0.3,0.8-0.2
			c0.7,0,1.4,0,2,0c0.2,0,0.5,0,0.8,0.2c0.2,0.2,0.3,0.4,0.3,0.7C-336.8-101.5-336.8-99.7-336.8-98.3z M-322.4-97.4h-4v-6.8h4V-97.4
			z"/>
		<path class="st3" d="M-328.5-76.8c-0.5,0.6-0.5,1.4,0,1.9c1.7,1.8,3.5,3.5,5.3,5.3c0.5,0.5,1.4,0.5,1.9,0c2.9-2.9,5.5-5.5,8-8
			c0.6-0.6,0.6-1.4,0.1-2c-0.6-0.7-1.3-1.4-2.1-2.1c-0.5-0.4-1.2-0.4-1.7,0c-0.2,0.2-0.4,0.4-0.6,0.6l-0.1,0.1c-1,1-2,2-3,3
			l-1.5,1.5l-0.3-0.3c-0.2-0.2-0.4-0.4-0.6-0.6c-0.4-0.4-0.8-0.8-1.2-1.2c-0.3-0.3-0.7-0.5-1.1-0.5c-0.4,0-0.7,0.1-1,0.4
			C-327.2-78.2-327.9-77.5-328.5-76.8z M-325.4-78.3l1,1c0.5,0.5,0.9,1,1.4,1.4c0.2,0.2,0.6,0.6,0.8,0.6h0c0.2,0,0.6-0.4,0.8-0.6
			l4.4-4.4c0.1-0.1,0.3-0.2,0.4-0.4l0.5-0.4l2.4,2.3l-8.4,8.5l-5.6-5.6L-325.4-78.3z"/>
		<path class="st3" d="M-319-91.1c0-0.2-0.1-0.2-0.1-0.3c-0.1-0.1-0.3-0.2-1-0.2c-7.7,0-15.4,0-23.1,0l-0.1,0c0,0-0.1,0-0.1,0
			c-0.1,0-0.3,0-0.4,0c-0.4,0.1-0.4,0.3-0.4,0.5c0,0.3,0.1,0.5,0.5,0.5c0.1,0,0.3,0,0.4,0l0.2,0l23.1,0C-319-90.5-319-90.9-319-91.1
			z"/>
	</g>
</g>
<path class="st5" d="M40.1-40.7L40.1-40.7c-11.2,0-20.3-9.1-20.3-20.3v-43.4c0-11.2,9.1-20.3,20.3-20.3h0c11.2,0,20.3,9.1,20.3,20.3
	V-61C60.4-49.9,51.3-40.7,40.1-40.7z"/>
<path class="st3" d="M-176.1-82.6c0,0-3.6-31.4-21.2-30.4c-14.7,0.8-20.5,30.4-20.5,30.4H-176.1z"/>
<path class="st6" d="M-217.8-82.7V-61c0,11.2,9.1,20.3,20.3,20.3s20.3-9.1,20.3-20.3v-21.7H-217.8z"/>
<g>
	<path class="st7" d="M-186.2-56.1l-17.9,1.8c-1.9,0.1-4-1.4-4.6-3.5l-3.2-10.1c-0.7-2.1,0.4-3.9,2.3-4l17.9-1.8
		c1.9-0.1,4,1.4,4.6,3.5l3.2,10.1C-183.3-58.1-184.3-56.2-186.2-56.1z"/>
	<g>
		<path class="st1" d="M-203-65.4c-0.6-0.6-1-1.3-1.2-2.1c-0.2-0.7-0.3-1.4-0.1-2.2c0.4-1.2,1.7-2.5,3.3-2.6c2.1-0.2,3.9,1.5,4,3.6
			c0,1.6-1.2,3.6-2.7,4.2C-200.3-64.3-202-64.3-203-65.4z"/>
		<path class="st2" d="M-197.8-65.4c-0.6-0.6-1-1.3-1.2-2.1c-0.2-0.7-0.3-1.4-0.1-2.2c0.4-1.2,1.7-2.5,3.3-2.6
			c2.1-0.2,3.9,1.5,4,3.6c0,1.6-1.2,3.6-2.7,4.2c0,0-1.6,0.9-2.9-0.5C-198.3-64.8-197.2-64.8-197.8-65.4z"/>
		<g>
			<path class="st3" d="M-200.9-59.4c0.2,0.1,0.3,0.3,0.5,0.4c0.2,0.1,0.2,0.3,0.1,0.5c-0.1,0.2-0.3,0.2-0.5,0
				c-0.2-0.1-0.3-0.2-0.5-0.4c-0.3-0.3-0.4-0.7,0-1c0.2-0.2,0.5-0.4,0.7-0.6c0.1-0.1,0.1-0.2,0-0.3c-0.1-0.2-0.2-0.3-0.2-0.5
				c-0.1-0.2-0.2-0.3-0.4-0.3c-0.4,0-0.6-0.3-0.5-0.7c0-0.2,0.1-0.4,0.2-0.6c-1.6-0.7-2.5-1.9-3.1-3.4c-1.1-3.4,1.9-6,4.8-5.5
				c0,0,0.1,0,0.1,0c0.2,0,0.3,0.2,0.3,0.4c0,0.2-0.2,0.3-0.4,0.2c-0.5,0-1-0.1-1.5,0c-2.2,0.4-3.4,2.4-2.8,4.6
				c0.4,1.2,1.1,2.2,2.3,2.9c0.8,0.4,1.7,0.4,2.5-0.1c0.8-0.5,1.3-1.1,1.7-1.9c-0.6-0.7-1.1-1.5-1.4-2.4c-0.3-0.8-0.3-1.7-0.1-2.5
				c0.4-1.4,1.9-2.9,3.8-3c2.4-0.2,4.5,1.7,4.6,4.1c0.1,1.9-1.4,4.1-3.1,4.8c0,0-0.1,0-0.1,0c0,0.3,0.1,0.6,0.1,0.9
				c0,0.3-0.3,0.4-0.7,0.5c0.1,0.2,0.2,0.3,0.2,0.4c0.2,0.4,0.2,0.7-0.2,1c-0.2,0.2-0.5,0.4-0.7,0.7c0.2,0.1,0.3,0.2,0.4,0.4
				c0.2,0.2,0.3,0.3,0.1,0.5c-0.2,0.2-0.3,0.1-0.5,0c-0.1-0.1-0.3-0.2-0.4-0.3c-0.4-0.3-0.4-0.7,0-1.1c0.2-0.2,0.4-0.4,0.6-0.6
				c0.1-0.1,0.1-0.2,0.1-0.3c0-0.1-0.1-0.2-0.2-0.4c-0.1-0.2-0.2-0.4-0.6-0.4c-0.4,0-0.6-0.4-0.5-0.8c0-0.1,0.1-0.3,0.1-0.4
				c-0.4-0.2-0.8-0.4-1.2-0.7c-0.6,1-1.4,1.8-2.5,2.3c0,0.3,0.1,0.6,0.1,0.9c-0.1,0.4-0.4,0.4-0.8,0.4c0.1,0.2,0.2,0.3,0.2,0.5
				c0.2,0.4,0.2,0.7-0.2,1C-200.4-59.9-200.6-59.7-200.9-59.4z M-191.3-69.3c0-0.3,0-0.4-0.1-0.6c-0.4-2.2-2.7-3.5-4.8-2.7
				c-1.6,0.6-2.7,2.2-2.4,3.8c0.3,1.4,1,2.6,2.2,3.4c0.9,0.6,1.9,0.6,2.8,0C-192.2-66.4-191.5-67.7-191.3-69.3z M-201.1-62.2
				c0.3,0,0.6,0,1,0c-0.1-0.2-0.1-0.3-0.1-0.5c-0.2,0-0.5,0-0.7,0C-201-62.5-201-62.4-201.1-62.2z M-194.5-64c0-0.4,0-0.4-0.6-0.4
				c-0.3,0-0.2,0.3-0.3,0.4C-195.1-64-194.8-64-194.5-64z"/>
		</g>
		<path class="st8" d="M-185.2-61.3l-17.9,6.6c-1.9,0.7-4-0.4-4.6-2.3l-3.2-9.3c-0.7-1.9,0.4-4,2.3-4.6l17.9-6.6
			c1.9-0.7,4,0.4,4.6,2.3l3.2,9.3C-182.3-64.1-183.3-62-185.2-61.3z"/>
	</g>
</g>
<path class="st3" d="M-87.1-82.7v-21.7c0-11.2-9.1-20.3-20.3-20.3s-20.3,9.1-20.3,20.3v21.7H-87.1z"/>
<path class="st6" d="M-127.8-82.7V-61c0,11.2,9.1,20.3,20.3,20.3s20.3-9.1,20.3-20.3v-21.7H-127.8z"/>
<g>
	<path class="st7" d="M-99.4-58.3H-117c-0.5,0-1-0.4-1-1v-12.5c0-0.5,0.4-1,1-1h3.4l0,2l3.3,0l0-2h5.9l0,2l3.3,0l0-2h1.8
		c0.5,0,1,0.4,1,1v12.5C-98.4-58.7-98.8-58.3-99.4-58.3z"/>
	<path class="st1" d="M-115.9-60.3c0.8,0,1.7,0,2.5,0c1.1,0,1.6,0.6,1.7,1.6c0,1,0,2,0,3.1l0,1.3l-1.1,0.1l-5-5l0.1-1.1L-115.9-60.3
		z"/>
	<path class="st2" d="M-104.6-57.7c-0.3,0.4-0.3,0.9,0,1.2c1.1,1.1,2.2,2.3,3.4,3.3c0.3,0.3,0.9,0.3,1.2,0c1.9-1.8,3.5-3.5,5.1-5.1
		c0.4-0.4,0.4-0.9,0-1.3c-0.4-0.5-0.9-0.9-1.3-1.3c-0.3-0.3-0.8-0.3-1.1,0c-0.1,0.1-0.3,0.2-0.4,0.4l0,0c-0.6,0.6-1.3,1.3-1.9,1.9
		l-1,1l-0.2-0.2c-0.1-0.1-0.3-0.3-0.4-0.4c-0.3-0.3-0.5-0.5-0.7-0.8c-0.2-0.2-0.5-0.3-0.7-0.3c-0.2,0-0.4,0.1-0.6,0.3
		C-103.8-58.5-104.2-58.1-104.6-57.7z"/>
	<path class="st3" d="M-97.2-68.4c0,1.7,0,3.3,0,5c0,0.5,0.2,0.5,0.3,0.5c0.2,0,0.2-0.1,0.2-0.1c0.1-0.1,0.1-0.2,0.1-0.4
		c0-2.7,0-5.4,0-8.1c0-0.7-0.2-1.2-0.7-1.4c-0.3-0.2-0.7-0.3-1.2-0.3c-0.5,0-0.9,0-1.4,0c-0.2,0-0.4,0-0.7,0h-0.3l0-0.7
		c0-0.3,0-0.5,0-0.7c0-0.9-0.4-1.2-1.3-1.3c-0.5,0-1,0-1.5,0c-0.8,0-1.2,0.4-1.2,1.2c0,0.3,0,0.5,0,0.8l0,0.7h-5.3v-0.3
		c0-0.1,0-0.3,0-0.4c0-0.3,0-0.6,0-0.9c0-0.6-0.5-1-1.1-1c-0.5,0-1,0-1.5,0l-0.1,0c-0.8,0-1.2,0.4-1.2,1.2c0,0.2,0,0.5,0,0.8l0,0.7
		l-1,0c-0.2,0-0.4,0-0.6,0c-0.3,0-0.5,0-0.8,0c-1.2,0-1.8,0.6-1.8,1.8l0,3.9c0,2.7,0,5.3,0,8c0,0.3,0.1,0.5,0.3,0.7
		c1.5,1.5,3,3,4.5,4.5c0.2,0.2,0.4,0.3,0.8,0.3c1,0,1.9,0,2.9,0l1.7,0c0.5,0,0.9,0,1.4,0c0.2,0,0.3,0,0.3-0.1
		c0.1-0.1,0.1-0.1,0.1-0.3c0-0.2-0.3-0.3-0.5-0.3c-1.2,0-2.4,0-3.6,0l-2,0v-0.3c0-0.4,0-0.7,0-1c0-0.8,0-1.5,0-2.2
		c0-1-0.6-1.6-1.6-1.6c-0.2,0-0.4,0-0.6,0l-3,0l0-0.4c0-0.1,0-0.2,0-0.3c0-3.6,0-7.2,0-10.8c0-0.1,0-0.2,0-0.3
		c0-0.5,0.4-0.8,0.8-0.8c0.6,0,1.2,0,1.8,0c0.2,0,0.5,0,0.7,0h0.3v0.3c0,0.1,0,0.2,0,0.4c0,0.2,0,0.5,0,0.7c0,0.6,0.4,0.9,0.9,1
		c0.5,0,1.1,0,1.6,0l0.1,0c0.9,0,1.2-0.4,1.3-1.3c0-0.2,0-0.4,0-0.6l0-0.6h5.3l0,0.6c0,0.2,0,0.4,0,0.7c0,0.6,0.4,1,0.9,1
		c0.7,0,1.3,0.1,2,0c0.6,0,1-0.4,1-1.1c0-0.2,0-0.4,0-0.7l0-0.6l0.9,0c0.5,0,0.9,0,1.4,0c0.9,0,1.3,0.3,1.3,1.3L-97.2-68.4z
		 M-115.4-59.2c0.5,0,1,0,1.5,0c0.6,0,1,0.4,1,1c0,0.6,0,1.2,0,1.8l0,1.5l-4.3-4.3L-115.4-59.2z M-110.7-71.4c0,0.1,0,0.3-0.2,0.5
		c-0.1,0.1-0.3,0.1-0.4,0.2c-0.5,0-1,0-1.4,0c0,0,0,0,0,0c-0.2,0-0.3-0.1-0.4-0.2c-0.1-0.1-0.2-0.3-0.2-0.5c0-0.4,0-0.7,0-1.1l0-0.5
		l0-0.5c0-0.4,0-0.7,0-1.1c0-0.2,0-0.4,0.2-0.5c0.2-0.2,0.4-0.2,0.5-0.2c0.4,0,0.9,0,1.3,0c0.1,0,0.3,0,0.5,0.2
		c0.1,0.1,0.2,0.3,0.2,0.5C-110.7-73.4-110.7-72.3-110.7-71.4z M-101.5-70.8h-2.5v-4.4h2.5V-70.8z"/>
	<path class="st3" d="M-105.4-57.7c-0.3,0.4-0.3,0.9,0,1.2c1.1,1.1,2.2,2.3,3.4,3.3c0.3,0.3,0.9,0.3,1.2,0c1.9-1.8,3.5-3.5,5.1-5.1
		c0.4-0.4,0.4-0.9,0-1.3c-0.4-0.5-0.9-0.9-1.3-1.3c-0.3-0.3-0.8-0.3-1.1,0c-0.1,0.1-0.3,0.2-0.4,0.4l0,0c-0.6,0.6-1.3,1.3-1.9,1.9
		l-1,1l-0.2-0.2c-0.1-0.1-0.3-0.3-0.4-0.4c-0.3-0.3-0.5-0.5-0.7-0.8c-0.2-0.2-0.5-0.3-0.7-0.3c-0.2,0-0.4,0.1-0.6,0.3
		C-104.6-58.5-105-58.1-105.4-57.7z M-103.4-58.6l0.6,0.6c0.3,0.3,0.6,0.6,0.9,0.9c0.1,0.1,0.4,0.4,0.5,0.4h0c0.1,0,0.4-0.3,0.5-0.4
		l2.8-2.8c0.1-0.1,0.2-0.2,0.2-0.2l0.3-0.3l1.5,1.5l-5.3,5.4l-3.6-3.5L-103.4-58.6z"/>
	<path class="st3" d="M-99.3-66.8c0-0.1,0-0.2-0.1-0.2c-0.1-0.1-0.2-0.1-0.6-0.1c-4.9,0-9.8,0-14.7,0l-0.1,0c0,0,0,0-0.1,0
		c-0.1,0-0.2,0-0.3,0c-0.2,0.1-0.3,0.2-0.3,0.3c0,0.2,0.1,0.3,0.3,0.3c0.1,0,0.2,0,0.3,0l0.1,0l14.7,0
		C-99.3-66.4-99.3-66.6-99.3-66.8z"/>
</g>
<g>
	<path class="st9" d="M-104.8,18.4c0.3,0,0.5-0.3,0.5-0.6c0-0.3-0.2-0.6-0.6-0.6c-0.1,0-0.3,0-0.4,0l-3.8,0c-0.1,0-0.2,0-0.3,0
		l-0.4,0l0-0.6c0-1.1-0.7-1.8-1.8-1.8c-1,0-2,0-2.9,0c-0.8,0-1.4,0.7-1.5,1.6l0,0.8l-1.9,0c-1,0-1.9,0-2.9,0c-0.2,0-0.4,0.1-0.6,0.2
		c-0.1,0.1-0.2,0.3-0.2,0.4c0,0.5,0.5,0.6,0.7,0.6c0.2,0,0.4,0,0.6,0l0.3,0h0.3l0,3.1c0,2.4,0,4.9,0,7.3c0,0.4,0,0.8,0.1,1.1
		c0.4,1.7,1.8,2.7,3.7,2.7c2,0,4,0,6,0c2.4,0,3.8-1.5,3.8-3.9V18.4h0.3c0.1,0,0.3,0,0.4,0C-105.2,18.5-105,18.5-104.8,18.4z
		 M-114.7,16.2c0.2-0.2,0.4-0.2,0.7-0.2c0.7,0,1.4,0,2.1,0c0.3,0,0.5,0,0.7,0.2c0.2,0.2,0.1,0.4,0.1,0.7l0,0.2h-3.5l0-0.2
		C-114.8,16.7-114.8,16.4-114.7,16.2z M-107.4,28.8c0,1.7-0.9,2.6-2.7,2.6l-1.4,0c-0.7,0-1.4,0-2.2,0c-0.8,0-1.6,0-2.4,0
		c-1.5,0-2.4-1-2.5-2.4c0-2.5,0-4.9,0-7.4l0-2.6c0-0.1,0-0.1,0-0.2l0-0.4h11.1V28.8z"/>
	<path class="st9" d="M-115.4,20.9c0-0.2-0.1-0.4-0.2-0.5c-0.1-0.1-0.3-0.2-0.4-0.2c0,0,0,0,0,0c-0.4,0-0.6,0.3-0.6,0.7
		c0,0.2,0,0.3,0,0.5l0,0.2l0,1.9c0,1.6,0,3.3,0,4.9c0,0.4,0.2,0.7,0.6,0.8c0.2,0,0.3,0,0.5-0.1c0.1-0.1,0.2-0.3,0.2-0.6
		c0-0.9,0-1.8,0-2.7l0-1l0-1.1C-115.4,22.7-115.4,21.8-115.4,20.9z"/>
	<path class="st9" d="M-109.2,21c0-0.5-0.2-0.7-0.6-0.7c0,0,0,0,0,0c-0.2,0-0.3,0.1-0.4,0.2c-0.1,0.1-0.2,0.3-0.2,0.6
		c0,2.5,0,5,0,7.5c0,0.2,0,0.3,0.1,0.5c0.1,0.2,0.4,0.3,0.7,0.2c0.3-0.1,0.5-0.3,0.5-0.7c0-0.9,0-1.8,0-2.7l0-1.1l0-1
		C-109.2,22.8-109.2,21.9-109.2,21z"/>
	<path class="st9" d="M-112.9,20.2L-112.9,20.2c-0.2,0-0.3,0.1-0.4,0.2c-0.1,0.1-0.2,0.3-0.2,0.6c0,2.5,0,5,0,7.4
		c0,0.3,0.1,0.8,0.6,0.8h0c0.2,0,0.3-0.1,0.4-0.2c0.1-0.1,0.2-0.3,0.2-0.6l0-4.8l0-2.6C-112.3,20.7-112.4,20.2-112.9,20.2z"/>
</g>
<g>
	<path class="st9" d="M-88.4,24.4l0.7-0.7l0,0.7c0,0.1,0,0.2,0,0.3c0,0.1,0,0.2,0.1,0.4l0,0.2c0.5,2.2,1.6,3.9,3.5,5.1
		c3,1.9,6.8,1.5,9.4-1c0.2-0.2,0.3-0.5,0.2-0.8c-0.1-0.2-0.2-0.3-0.4-0.4c-0.2-0.1-0.5,0-0.6,0.2c-1.3,1.2-2.7,1.9-4.4,1.9
		c0,0,0,0,0,0c-2.8,0-4.8-1.3-6-3.8c-0.3-0.7-0.5-1.4-0.6-2.5l0-0.6l0.6,0.4c0.1,0.1,0.1,0.1,0.2,0.2c0.2,0.2,0.3,0.4,0.5,0.5
		c0.2,0.2,0.3,0.4,0.5,0.6c0.3,0.3,0.5,0.4,0.7,0.3c0.3-0.1,0.4-0.2,0.5-0.4c0.1-0.2,0-0.5-0.2-0.7c-0.9-0.9-1.7-1.9-2.6-2.8
		c-0.2-0.2-0.4-0.3-0.6-0.3c0,0,0,0,0,0c-0.2,0-0.3,0.1-0.4,0.2c-0.9,1-1.9,2-2.8,3c-0.1,0.1-0.2,0.3-0.2,0.5c0,0.2,0.1,0.3,0.2,0.4
		c0.3,0.2,0.6,0.2,0.9-0.1C-88.9,24.9-88.7,24.6-88.4,24.4z"/>
	<path class="st9" d="M-73.5,26.1c0.2,0.2,0.4,0.3,0.5,0.3h0c0.2,0,0.4-0.1,0.5-0.3c0.9-0.9,1.8-1.9,2.7-2.8
		c0.3-0.3,0.3-0.7,0.1-0.9c-0.4-0.4-0.8-0.1-1,0.1c-0.2,0.2-0.4,0.5-0.7,0.7l-0.6,0.7l-0.2-0.5c0-0.1,0-0.1,0-0.2
		c0-0.2-0.1-0.3-0.1-0.5c0-0.3-0.1-0.6-0.2-0.9c-0.6-2.1-1.9-3.8-3.8-4.7c-1.9-1-4.1-1.2-6.1-0.5c-1.1,0.4-2.1,1-2.9,1.8
		c-0.2,0.2-0.3,0.4-0.2,0.6c0,0.2,0.2,0.3,0.4,0.4c0.3,0.1,0.5,0.1,0.9-0.2c1.5-1.4,3.2-2,5.3-1.7c2.7,0.3,5.1,2.5,5.5,5.2
		c0,0.2,0.1,0.4,0.1,0.6l0.1,0.5l-0.3,0.1l-0.2-0.1l-0.1-0.1c-0.1-0.1-0.2-0.1-0.2-0.2c-0.1-0.1-0.3-0.3-0.4-0.4
		c-0.2-0.2-0.4-0.4-0.6-0.6c-0.2-0.2-0.3-0.2-0.5-0.2c-0.1,0-0.3,0.1-0.4,0.2c-0.3,0.3-0.3,0.6,0,0.9
		C-75.2,24.3-74.3,25.2-73.5,26.1z"/>
</g>
<g>
	<path class="st10" d="M-79.9,58.4l0.2,0.4c0,0,0.1,0.1,0.1,0.1c1,1,2,2,3,3c0.1,0.1,0.1,0.1,0.2,0.2c0.1,0.1,0.3,0.1,0.5,0.1
		c0.2-0.1,0.3-0.2,0.3-0.4c0.1-0.2,0-0.4-0.2-0.6v0c-1-1-2.1-2.1-3.1-3.1c0,0-0.1-0.1-0.1-0.2l-0.2-0.3l3.5-3.5
		c0.2-0.2,0.3-0.4,0.2-0.6c-0.1-0.2-0.2-0.3-0.4-0.4c-0.2-0.1-0.4,0-0.6,0.2c-0.8,0.8-1.7,1.7-2.5,2.5l-0.2,0.3
		c-0.1,0.1-0.2,0.3-0.4,0.4l-0.4,0.4l-0.3-0.3c0,0-0.1-0.1-0.1-0.1l-3.1-3.1c-0.1-0.1-0.2-0.2-0.2-0.2c-0.2-0.1-0.3-0.1-0.5-0.1
		c-0.2,0.1-0.3,0.2-0.3,0.4c0,0.2,0,0.4,0.2,0.6c0.9,0.8,1.7,1.7,2.6,2.5l0.6,0.6c0,0,0.1,0.1,0.1,0.1l0.3,0.3L-81,58
		c0,0-0.1,0.1-0.1,0.1l-0.5,0.5c-0.9,0.9-1.8,1.8-2.7,2.7c-0.3,0.3-0.3,0.6-0.1,0.8c0.2,0.2,0.5,0.2,0.8-0.1
		c0.1-0.1,0.3-0.3,0.4-0.4L-79.9,58.4z"/>
	<circle class="st11" cx="-79.9" cy="57.7" r="9"/>
</g>
<g>
	<path class="st9" d="M-114.9,64.9c1.3-1.3,5.1-5.2,7-7.1c0.1-0.1,0.2-0.2,0.3-0.3c0.3-0.2,0.5-0.2,0.8,0c0.2,0.2,0.3,0.5,0.1,0.8
		c-0.1,0.1-0.2,0.2-0.3,0.3c-3.2,3.3-4,4-7.3,7.3c-0.6,0.6-0.8,0.6-1.4,0c-3.3-3.3,0.4,0.4-2.9-2.9c-0.4-0.4-0.4-0.7-0.1-1
		c0.3-0.3,0.7-0.3,1,0.1c2,2,1.2,1.2,2.4,2.4C-115.1,64.7-115,64.8-114.9,64.9z"/>
	<g>
		<path class="st9" d="M-106.9,54.7c0-0.5,0-0.9,0-1.3c0-0.1,0.1-0.2,0.2-0.2c0.5,0,1,0,1.5,0c0.7,0.1,1.3,0.7,1.3,1.4
			c0,0,0,0.1,0,0.1c0,4.5,0,9,0,13.4c0,0.7-0.5,1.3-1.1,1.5c-0.1,0-0.3,0-0.4,0c-4.9,0-9.9,0-14.8,0c-1,0-1.6-0.6-1.6-1.6
			c0-4.4,0-8.8,0-13.2c0-1,0.5-1.6,1.5-1.6c0.4,0,0.8,0,1.3,0c0.1,0,0.2,0.1,0.2,0.2c0,0.4,0,0.8,0,1.3c-0.4,0-0.8,0-1.1,0
			c-0.3,0-0.4,0.1-0.4,0.4c0,4.3,0,8.5,0,12.8c0,0.3,0.1,0.4,0.4,0.4c4.8,0,9.5,0,14.3,0c0.3,0,0.3-0.1,0.3-0.3c0-4.3,0-8.5,0-12.8
			c0-0.3-0.1-0.4-0.4-0.4C-106.2,54.7-106.5,54.7-106.9,54.7z"/>
		<path class="st9" d="M-112.2,54c0,0.5,0,0.9,0,1.4c0,0.5-0.3,0.9-0.7,0.9c-0.5,0-0.8-0.3-0.8-0.9c0-0.9,0-1.8,0-2.8
			c0-0.4,0.2-0.6,0.5-0.8c0.3-0.1,0.6,0,0.8,0.2c0.1,0.2,0.2,0.4,0.2,0.6C-112.2,53.1-112.2,53.5-112.2,54z"/>
		<path class="st9" d="M-116.7,54c0,0.5,0,1,0,1.5c0,0.5-0.3,0.8-0.7,0.8c-0.4,0-0.7-0.3-0.7-0.8c0-1,0-2,0-3c0-0.4,0.3-0.7,0.7-0.7
			c0.4,0,0.7,0.3,0.7,0.8C-116.7,53-116.7,53.5-116.7,54z"/>
		<path class="st9" d="M-107.7,54c0,0.5,0,1,0,1.5c0,0.5-0.3,0.8-0.7,0.8c-0.4,0-0.7-0.3-0.7-0.8c0-1,0-2,0-3c0-0.4,0.3-0.7,0.7-0.8
			c0.4,0,0.7,0.3,0.7,0.8C-107.7,53-107.7,53.5-107.7,54z"/>
		<path class="st9" d="M-114.4,54.7c-0.5,0-1,0-1.5,0c0-0.4,0-0.9,0-1.3c0,0,0.1-0.1,0.2-0.1c0.4,0,0.7,0,1.1,0
			c0.1,0,0.2,0.1,0.2,0.2C-114.4,53.8-114.4,54.3-114.4,54.7z"/>
		<path class="st9" d="M-110.7,54.7c-0.8,0-0.8,0-0.8-0.8c0-0.9-0.1-0.7,0.7-0.8c0.8,0,0.8,0,0.8,0.8
			C-109.9,54.7-109.9,54.7-110.7,54.7z"/>
	</g>
</g>
<path class="st9" d="M-115.7,93.6c-3.2-2.2-3.1-6-1.1-8.1c2.1-2.2,5.5-2.3,7.7-0.2c2.4,2.3,2,5.5-0.9,8.3c0.3,0.2,0.6,0.3,0.9,0.5
	c2.7,1.5,4.1,3.8,4.3,6.8c0,0.5-0.1,0.9-0.6,0.9c-0.5,0-0.7-0.3-0.7-0.8c-0.2-2.6-1.4-4.6-3.7-5.8c-4.4-2.3-9.6,0.8-9.8,5.8
	c0,0.5-0.1,0.8-0.6,0.8c-0.5,0-0.7-0.4-0.6-0.9c0-0.2,0-0.3,0-0.5c0.4-3.1,2-5.3,4.8-6.6C-116,93.7-115.9,93.6-115.7,93.6z M-117,89
	c0,2.3,1.8,4.1,4.1,4.1c2.2,0,4-1.8,4-4c0-2.3-1.8-4-4.1-4C-115.2,85-117,86.8-117,89z"/>
<g>
	<path class="st9" d="M-154.9,31.6c0,0.4,0.1,0.7,0.3,0.8c0.2,0.1,0.5,0.2,0.9,0.1l0.5-0.1c0.8-0.2,1.7-0.4,2.5-0.7
		c0.4-0.1,0.8-0.4,1-0.7c0.9-1.1,1.9-2.2,2.8-3.3c0.3-0.4,0.6-0.7,0.9-1.1c0.5-0.7,1.1-1.3,1.6-2c1.3-1.6,2.6-3.2,3.9-4.8
		c1.1-1.4,1-3.2-0.3-4.3c-0.6-0.5-1.3-0.8-1.9-0.8c-0.1,0-0.1,0-0.2,0c-0.8,0.1-1.5,0.5-2.1,1.2c-1.1,1.3-2.2,2.7-3.4,4.1
		c-1.7,2-3.4,4.1-5.1,6.1c-0.9,1-1.6,1.8-1.5,3.5C-154.9,29.7-154.8,31.3-154.9,31.6z M-144.7,17.7c0.1-0.1,0.3-0.3,0.4-0.5
		c0.5-0.6,0.9-1.2,1.9-1c0.5,0.1,1.2,0.6,1.4,1.1c0.4,0.9-0.1,1.5-0.7,2.2c-0.1,0.1-0.2,0.3-0.3,0.4l-0.1,0.1L-144.7,17.7
		L-144.7,17.7z M-152.3,27c1.6-1.8,3.1-3.7,4.7-5.7c0.6-0.8,1.3-1.6,1.9-2.4l0.1-0.1l2.6,2.2l-3.2,4c-0.4,0.4-0.7,0.9-1.1,1.3
		c-0.8,1-1.7,2-2.4,3c-0.9,1.4-2.3,1.6-3.6,1.8l-0.1,0l0-0.1C-153.5,29.6-153.5,28.3-152.3,27z"/>
	<line class="st12" x1="-154.1" y1="32.2" x2="-143.6" y2="32.2"/>
</g>
<g>
	<path class="st9" d="M-141.3,58c0-0.1,0-0.3-0.1-0.4c-0.1-0.1-0.3-0.3-0.5-0.3c0,0,0,0,0,0c-0.2,0-0.4,0.3-0.5,0.4
		c-0.1,0.1-0.1,0.2,0,0.3c0,0,0,0.1,0,0.1V66c0,1.3-0.6,1.9-1.9,1.9h-9.4c-1.3,0-1.9-0.6-1.9-1.9c0-3.3,0-6.6,0-9.9
		c0-1.3,0.6-1.9,1.9-1.9h7.3l0.1,0c0.1,0,0.2,0,0.3,0c0.3,0,0.5-0.3,0.5-0.6c0-0.3-0.2-0.5-0.5-0.5c-0.1,0-0.1,0-0.2,0h-1.9
		c-1.9,0-3.7,0-5.6,0c-0.3,0-0.6,0-0.8,0.1c-1.3,0.3-2.1,1.4-2.1,2.8c0,1.2,0,2.4,0,3.6l0,1.5l0,1.6c0,1.2,0,2.3,0,3.5
		c0,1.8,1.1,2.9,2.9,2.9c1.6,0,3.2,0,4.8,0c1.6,0,3.2,0,4.8,0c1.8,0,2.9-1.1,2.9-2.9C-141.3,63.4-141.3,60.8-141.3,58L-141.3,58z"/>
	<path class="st9" d="M-139.3,53.2c-0.1,0-0.2,0-0.3,0h-1.7v-1.6c0-0.2,0-0.7-0.5-0.7c-0.2,0-0.3,0-0.4,0.1
		c-0.1,0.1-0.2,0.3-0.2,0.6c0,0.4,0,0.8,0,1.1v0.5l-0.8,0c-0.4,0-0.8,0-1.2,0c-0.2,0-0.4,0.1-0.5,0.2c-0.1,0.1-0.1,0.2-0.1,0.4
		c0,0.3,0.2,0.5,0.6,0.5c0.1,0,0.2,0,0.3,0h1.6l0,1.8c0,0.2,0.1,0.4,0.2,0.5c0.1,0.1,0.2,0.1,0.4,0.1c0,0,0,0,0,0
		c0.3,0,0.6-0.2,0.6-0.6c0-0.2,0-0.3,0-0.5l0-1.3l0.8,0c0.4,0,0.8,0,1.2,0c0.3,0,0.6-0.2,0.6-0.6C-138.7,53.4-138.9,53.2-139.3,53.2
		z"/>
	<g>
		<path class="st9" d="M-148.7,56.6v0.5c0.3,0,0.6,0.1,0.9,0.2c0.2,0.1,0.5,0.3,0.6,0.5c0.1,0.2,0.3,0.3,0.3,0.5
			c0.1,0.2,0.1,0.3,0.1,0.5c0,0.2-0.1,0.3-0.2,0.4c-0.1,0.1-0.3,0.2-0.4,0.2c-0.3,0-0.5-0.2-0.6-0.5c-0.1-0.4-0.4-0.7-0.8-0.8v2
			c0.4,0.1,0.7,0.2,1,0.3c0.2,0.1,0.4,0.2,0.6,0.4c0.2,0.2,0.4,0.4,0.5,0.6c0.1,0.2,0.2,0.5,0.2,0.8c0,0.4-0.1,0.7-0.3,1
			c-0.2,0.3-0.4,0.6-0.8,0.8c-0.3,0.2-0.7,0.3-1.2,0.4v0.8c0,0.2,0,0.3-0.1,0.4c0,0.1-0.1,0.1-0.2,0.1c-0.1,0-0.2,0-0.2-0.1
			c0-0.1-0.1-0.2-0.1-0.3v-0.9c-0.4,0-0.7-0.1-1-0.3c-0.3-0.1-0.5-0.3-0.7-0.5c-0.2-0.2-0.3-0.4-0.4-0.6c-0.1-0.2-0.1-0.4-0.1-0.6
			c0-0.2,0.1-0.3,0.2-0.4c0.1-0.1,0.3-0.2,0.5-0.2c0.1,0,0.3,0,0.4,0.1c0.1,0.1,0.2,0.2,0.2,0.3c0.1,0.3,0.2,0.5,0.2,0.6
			c0.1,0.1,0.2,0.3,0.3,0.4c0.1,0.1,0.3,0.2,0.5,0.3v-2.2c-0.4-0.1-0.8-0.3-1.1-0.4c-0.3-0.1-0.5-0.4-0.7-0.6
			c-0.2-0.3-0.3-0.6-0.3-1c0-0.6,0.2-1,0.5-1.4c0.4-0.4,0.9-0.6,1.5-0.6v-0.5c0-0.3,0.1-0.4,0.3-0.4
			C-148.8,56.2-148.7,56.4-148.7,56.6z M-149.3,60v-1.9c-0.3,0.1-0.5,0.2-0.6,0.3c-0.2,0.1-0.2,0.3-0.2,0.6c0,0.3,0.1,0.4,0.2,0.6
			C-149.8,59.7-149.6,59.9-149.3,60z M-148.7,61.4v2.1c0.3-0.1,0.6-0.2,0.8-0.4c0.2-0.2,0.3-0.4,0.3-0.7c0-0.3-0.1-0.5-0.3-0.7
			C-148.1,61.6-148.4,61.5-148.7,61.4z"/>
	</g>
</g>
<path class="st9" d="M-522,25.7c0.1,0.2,0.3,0.3,0.4,0.4c0.2,0.2,0.3,0.3,0.4,0.2c0.1,0,0.1,0,0.2-0.1c0.2-0.2,0.1-0.4-0.1-0.6
	l-1.9-1.9c-2.1-2.1-4.3-4.3-6.4-6.4c-0.9-0.9-2.3-0.9-3.2,0c-0.7,0.7-1.4,1.4-2.1,2.1l-2.1,2.1c-1.3,1.3-2.6,2.6-3.9,3.9
	c-0.1,0.1-0.2,0.3-0.2,0.4c0,0.1,0,0.1,0.1,0.2c0.1,0.1,0.3,0.2,0.6-0.1c0.1-0.2,0.3-0.3,0.4-0.5l0.3-0.3l0.3,0.2l0,2.9
	c0,1.8,0,3.6,0,5.4c0,1.7,1.3,3,3,3h10.4c0.6,0,1.2-0.1,1.6-0.5c1-0.6,1.5-1.6,1.5-2.8c0-1.8,0-3.5,0-5.3l0-2.7l0.3-0.1L-522,25.7z
	 M-528.3,33.6l0,2.1c0,0,0,0.1,0,0.1l0,0.2h-5.1l0-0.3c0-0.1,0-0.2,0-0.3c0-1.7,0-3.3,0-5c0-0.6,0.2-0.8,0.8-0.8c0.5,0,1,0,1.5,0
	c0.7,0,1.5,0,2.2,0c0.3,0,0.4,0.1,0.6,0.2c0.1,0.1,0.2,0.3,0.2,0.5C-528.3,31.4-528.3,32.5-528.3,33.6z M-523.3,33.6
	c0,1.4-1,2.4-2.4,2.4c-0.4,0-0.7,0-1.1,0l-0.7,0v-0.2c0-0.5,0-1.1,0-1.6c0-1.3,0-2.5,0-3.7c0-0.5-0.1-0.9-0.4-1.2
	c-0.3-0.3-0.7-0.4-1.2-0.4c-0.8,0-1.7,0-2.5,0c-0.4,0-0.8,0-1.1,0c-1,0-1.4,0.5-1.4,1.4c0,1.3,0,2.5,0,3.8l0,1.8l-0.2,0
	c-0.2,0-0.5,0-0.7,0c-0.2,0-0.4,0-0.6,0c-0.4,0-0.9,0-1.3-0.2c-0.9-0.4-1.4-1.1-1.5-2.1c0-3,0-6,0-9.1c0-0.2,0.1-0.4,0.2-0.6
	c2-2,4.1-4.1,6.1-6.1c0.7-0.7,1.6-0.7,2.3,0c2.1,2.1,4.2,4.2,6.2,6.2c0.1,0.1,0.2,0.4,0.2,0.6C-523.3,27.4-523.3,30.5-523.3,33.6z"
	/>
<g>
	<path class="st2" d="M-529.7,100.9c-0.7,0-1.5,0.1-2.2,0.4c-2.5,0.9-4.3,2.7-5.1,5.5c-0.2,0.8-0.1,1.7,0.5,2.4
		c0.5,0.7,1.3,1,2.1,0.9c1.1-0.1,2.2,0,3.3,0c0.5,0,1,0,1.5,0h4.8c0.8,0,1.6-0.3,2.1-0.9c0.5-0.6,0.7-1.4,0.5-2.2
		c-0.2-1-0.7-1.9-1.6-3.1C-525.3,101.9-527.5,100.9-529.7,100.9z"/>
	<g>
		<path class="st1" d="M-531.6,101.9c-0.8,0-1.6,0.1-2.3,0.4c-2.7,0.9-4.6,2.9-5.5,5.9c-0.3,0.8-0.1,1.8,0.5,2.6
			c0.5,0.7,1.4,1.1,2.3,1c1.2-0.1,2.4,0,3.5,0c0.5,0,1,0,1.6,0h5.2c0.9,0,1.7-0.4,2.2-1c0.5-0.6,0.7-1.5,0.5-2.4
			c-0.2-1.1-0.7-2.1-1.7-3.3C-526.9,103-529.2,101.9-531.6,101.9z M-524.7,110.1c-0.4,0.5-1,0.9-1.8,0.9c-0.6,0-1.3,0-1.9,0
			c-0.5,0-1.1,0-1.6,0l-1.6,0l-1.6,0c-1.2,0-2.3,0-3.5,0c-0.7,0-1.4-0.3-1.8-0.8c-0.4-0.5-0.5-1.1-0.3-1.8c0.7-2.4,2.5-4.4,4.7-5.3
			c2-0.8,4.2-0.6,6.1,0.6c1.6,1,2.8,2.5,3.5,4.5C-524.2,108.9-524.3,109.6-524.7,110.1z"/>
		<path class="st1" d="M-531.6,91.7C-531.6,91.7-531.6,91.7-531.6,91.7c-2.5,0-4.6,2.1-4.6,4.5c0,1.3,0.5,2.4,1.3,3.3
			c0.9,0.9,2,1.3,3.2,1.3c2.5,0,4.6-2,4.6-4.5c0-1.2-0.5-2.4-1.3-3.3C-529.2,92.2-530.4,91.7-531.6,91.7z M-528.9,99
			c-0.7,0.7-1.7,1.1-2.8,1.1c0,0,0,0,0,0c-1,0-2-0.4-2.7-1.1c-0.7-0.7-1.1-1.7-1.1-2.8c0-1,0.4-1.9,1.1-2.6c0.7-0.7,1.7-1.1,2.7-1.1
			c0,0,0,0,0,0c2.1,0,3.8,1.7,3.8,3.9C-527.8,97.3-528.2,98.3-528.9,99z"/>
	</g>
</g>
<g>
	<g>
		<path class="st9" d="M-530.9,64.9c-0.8,0-1.6,0.1-2.3,0.4c-2.7,0.9-4.6,2.9-5.5,5.9c-0.3,0.8-0.1,1.8,0.5,2.6
			c0.5,0.7,1.4,1.1,2.3,1c1.2-0.1,2.4,0,3.5,0c0.5,0,1,0,1.6,0h5.2c0.9,0,1.7-0.4,2.2-1c0.5-0.6,0.7-1.5,0.5-2.4
			c-0.2-1.1-0.7-2.1-1.7-3.3C-526.2,66-528.5,64.9-530.9,64.9z M-524,73.1c-0.4,0.5-1,0.9-1.8,0.9c-0.6,0-1.3,0-1.9,0
			c-0.5,0-1.1,0-1.6,0l-1.6,0l-1.6,0c-1.2,0-2.3,0-3.5,0c-0.7,0-1.4-0.3-1.8-0.8c-0.4-0.5-0.5-1.1-0.3-1.8c0.7-2.4,2.5-4.4,4.7-5.3
			c2-0.8,4.2-0.6,6.1,0.6c1.6,1,2.8,2.5,3.5,4.5C-523.6,71.9-523.6,72.6-524,73.1z"/>
		<path class="st9" d="M-530.9,54.7C-530.9,54.7-530.9,54.7-530.9,54.7c-2.5,0-4.6,2.1-4.6,4.5c0,1.3,0.5,2.4,1.3,3.3
			c0.9,0.9,2,1.3,3.2,1.3c2.5,0,4.6-2,4.6-4.5c0-1.2-0.5-2.4-1.3-3.3C-528.6,55.2-529.7,54.7-530.9,54.7z M-528.2,62
			c-0.7,0.7-1.7,1.1-2.8,1.1c0,0,0,0,0,0c-1,0-2-0.4-2.7-1.1c-0.7-0.7-1.1-1.7-1.1-2.8c0-1,0.4-1.9,1.1-2.6c0.7-0.7,1.7-1.1,2.7-1.1
			c0,0,0,0,0,0c2.1,0,3.8,1.7,3.8,3.9C-527.1,60.3-527.5,61.3-528.2,62z"/>
	</g>
</g>
<g>
	<path class="st2" d="M-491,102.8c-0.1-0.6-0.2-1.1-0.1-1.7c0.1-0.5,0.3-1,0.7-1.4c0.7-0.7,1.9-1,3-0.6c1.4,0.6,2,2.3,1.4,3.6
		c-0.5,1.1-2,1.9-3.1,1.8c0,0-1.4,0-1.7-1.3C-491.5,103.1-490.8,103.5-491,102.8z"/>
	<g>
		<g>
			<path class="st1" d="M-494.5,106.9c0.1,0.2,0.2,0.3,0.2,0.4c0.1,0.1,0.1,0.3-0.1,0.4c-0.1,0.1-0.3,0-0.4-0.1
				c-0.1-0.1-0.2-0.3-0.2-0.4c-0.2-0.3-0.1-0.6,0.2-0.7c0.2-0.1,0.4-0.2,0.6-0.3c0.1,0,0.1-0.1,0.1-0.2c0-0.1,0-0.3,0-0.4
				c0-0.1-0.1-0.2-0.2-0.3c-0.3-0.1-0.3-0.4-0.2-0.6c0.1-0.1,0.2-0.2,0.3-0.4c-1-0.9-1.3-2-1.3-3.3c0.1-2.7,3-3.8,4.9-2.6
				c0,0,0.1,0,0.1,0.1c0.1,0.1,0.2,0.2,0.1,0.4c-0.1,0.1-0.2,0.1-0.4,0.1c-0.3-0.1-0.7-0.3-1-0.4c-1.7-0.3-3.1,0.8-3.2,2.6
				c-0.1,1,0.2,1.9,0.9,2.6c0.5,0.5,1.1,0.7,1.8,0.6c0.7-0.1,1.2-0.5,1.7-0.9c-0.3-0.7-0.4-1.3-0.4-2.1c0-0.7,0.2-1.3,0.6-1.8
				c0.7-0.9,2.1-1.6,3.5-1.2c1.8,0.5,2.8,2.4,2.2,4.1c-0.4,1.3-2.1,2.6-3.5,2.6c0,0-0.1,0-0.1,0c-0.1,0.2-0.1,0.4-0.2,0.6
				c-0.1,0.2-0.3,0.2-0.6,0.2c0,0.1,0,0.3,0.1,0.4c0,0.4-0.1,0.5-0.4,0.7c-0.2,0.1-0.4,0.2-0.7,0.3c0.1,0.1,0.2,0.3,0.2,0.4
				c0.1,0.2,0.1,0.3-0.1,0.4c-0.2,0.1-0.3,0-0.4-0.1c-0.1-0.1-0.1-0.2-0.2-0.3c-0.2-0.3-0.1-0.6,0.2-0.8c0.2-0.1,0.4-0.2,0.6-0.3
				c0.1,0,0.1-0.1,0.1-0.2c0-0.1,0-0.2,0-0.3c0-0.2-0.1-0.3-0.3-0.4c-0.3-0.1-0.3-0.4-0.2-0.7c0.1-0.1,0.1-0.2,0.2-0.3
				c-0.2-0.3-0.4-0.5-0.7-0.8c-0.7,0.6-1.5,0.9-2.4,1c-0.1,0.2-0.1,0.5-0.2,0.7c-0.1,0.3-0.4,0.2-0.7,0.1c0,0.1,0,0.3,0,0.4
				c0,0.3-0.1,0.5-0.4,0.7C-494,106.7-494.2,106.8-494.5,106.9z M-485.1,102.3c0.1-0.2,0.1-0.3,0.1-0.5c0.3-1.7-1-3.2-2.7-3.2
				c-1.3,0-2.5,0.8-2.7,2.1c-0.2,1.1,0,2.1,0.7,3c0.5,0.7,1.2,0.9,2,0.7C-486.4,104.2-485.6,103.4-485.1,102.3z M-493.9,104.8
				c0.2,0.1,0.5,0.2,0.7,0.3c0-0.1,0-0.2,0-0.4c-0.2-0.1-0.3-0.1-0.5-0.2C-493.8,104.6-493.8,104.7-493.9,104.8z M-488.7,105.3
				c0.1-0.3,0.1-0.3-0.3-0.5c-0.2-0.1-0.2,0.1-0.3,0.2C-489.2,105.2-488.9,105.2-488.7,105.3z"/>
		</g>
	</g>
	<path class="st13" d="M-482.8,109.6l-14.4,0c-1.5,0-2.7-1.3-2.7-2.8l0.2-7.4c0-1.5,1.3-2.7,2.8-2.7l14.4,0c1.5,0,2.7,1.3,2.7,2.8
		l-0.2,7.4C-480,108.5-481.3,109.7-482.8,109.6z"/>
	<path class="st13" d="M-497.3,96.7l12.1-3c1.5-0.3,3,0.6,3.3,2.1l0.2,0.8"/>
</g>
<g>
	<path class="st2" d="M-487,37.3c0-1.9,0-1.6,0-3.3c0-1.1-0.6-1.9-1.8-1.8c-1.2,0.1-2.5,0-3.7,0c-1.1,0-1.7,0.6-1.7,1.6
		c0,1.8,0,1.6,0,3.5c-0.9,0-1.8,0.2-2.6-0.2c-0.9-0.3-1.4-1.1-1.4-2c0-3.1,0-4.1,0-7.2c0-0.2,0.1-0.3,0.2-0.4
		c2.1-2.1,4.2-4.2,6.3-6.3c0.7-0.7,1.4-0.7,2.1,0c2.1,2.1,4.2,4.2,6.3,6.3c0.1,0.1,0.2,0.3,0.2,0.5c0,3,0,4,0,7
		c0,1.3-0.9,2.3-2.3,2.3C-485.8,37.3-486.4,37.3-487,37.3z"/>
	<path class="st1" d="M-481,26.7c0.1,0.2,0.3,0.3,0.4,0.4c0.2,0.2,0.3,0.3,0.4,0.2c0.1,0,0.1,0,0.2-0.1c0.2-0.2,0.1-0.4-0.1-0.6
		l-1.9-1.9c-2.1-2.1-4.3-4.3-6.4-6.4c-0.9-0.9-2.3-0.9-3.2,0c-0.7,0.7-1.4,1.4-2.1,2.1l-2.1,2.1c-1.3,1.3-2.6,2.6-3.9,3.9
		c-0.1,0.1-0.2,0.3-0.2,0.4c0,0.1,0,0.1,0.1,0.2c0.1,0.1,0.3,0.2,0.6-0.1c0.1-0.2,0.3-0.3,0.4-0.5l0.3-0.3l0.3,0.2l0,2.9
		c0,1.8,0,3.6,0,5.4c0,1.7,1.3,3,3,3h10.4c0.6,0,1.2-0.1,1.6-0.5c1-0.6,1.5-1.6,1.5-2.8c0-1.8,0-3.5,0-5.3l0-2.7l0.3-0.1L-481,26.7z
		 M-487.3,34.6l0,2.1c0,0,0,0.1,0,0.1l0,0.2h-5.1l0-0.3c0-0.1,0-0.2,0-0.3c0-1.7,0-3.3,0-5c0-0.6,0.2-0.8,0.8-0.8c0.5,0,1,0,1.5,0
		c0.7,0,1.5,0,2.2,0c0.3,0,0.4,0.1,0.6,0.2c0.1,0.1,0.2,0.3,0.2,0.5C-487.3,32.4-487.3,33.5-487.3,34.6z M-482.3,34.6
		c0,1.4-1,2.4-2.4,2.4c-0.4,0-0.7,0-1.1,0l-0.7,0v-0.2c0-0.5,0-1.1,0-1.6c0-1.3,0-2.5,0-3.7c0-0.5-0.1-0.9-0.4-1.2
		c-0.3-0.3-0.7-0.4-1.2-0.4c-0.8,0-1.7,0-2.5,0c-0.4,0-0.8,0-1.1,0c-1,0-1.4,0.5-1.4,1.4c0,1.3,0,2.5,0,3.8l0,1.8l-0.2,0
		c-0.2,0-0.5,0-0.7,0c-0.2,0-0.4,0-0.6,0c-0.4,0-0.9,0-1.3-0.2c-0.9-0.4-1.4-1.1-1.5-2.1c0-3,0-6,0-9.1c0-0.2,0.1-0.4,0.2-0.6
		c2-2,4.1-4.1,6.1-6.1c0.7-0.7,1.6-0.7,2.3,0c2.1,2.1,4.2,4.2,6.2,6.2c0.1,0.1,0.2,0.4,0.2,0.6C-482.3,28.4-482.3,31.5-482.3,34.6z"
		/>
</g>
<g>
	<g>
		<g>
			<path class="st9" d="M-493.9,68.3c0.1,0.2,0.2,0.3,0.2,0.4c0.1,0.1,0.1,0.3-0.1,0.4c-0.1,0.1-0.3,0-0.4-0.1
				c-0.1-0.1-0.2-0.3-0.2-0.4c-0.2-0.3-0.1-0.6,0.2-0.7c0.2-0.1,0.4-0.2,0.6-0.3c0.1,0,0.1-0.1,0.1-0.2c0-0.1,0-0.3,0-0.4
				c0-0.1-0.1-0.2-0.2-0.3c-0.3-0.1-0.3-0.4-0.2-0.6c0.1-0.1,0.2-0.2,0.3-0.4c-1-0.9-1.3-2-1.3-3.3c0.1-2.7,3-3.8,4.9-2.6
				c0,0,0.1,0,0.1,0.1c0.1,0.1,0.2,0.2,0.1,0.4c-0.1,0.1-0.2,0.1-0.4,0.1c-0.3-0.1-0.7-0.3-1-0.4c-1.7-0.3-3.1,0.8-3.2,2.6
				c-0.1,1,0.2,1.9,0.9,2.6c0.5,0.5,1.1,0.7,1.8,0.6c0.7-0.1,1.2-0.5,1.7-0.9c-0.3-0.7-0.4-1.3-0.4-2.1c0-0.7,0.2-1.3,0.6-1.8
				c0.7-0.9,2.1-1.6,3.5-1.2c1.8,0.5,2.8,2.4,2.2,4.1c-0.4,1.3-2.1,2.6-3.5,2.6c0,0-0.1,0-0.1,0c-0.1,0.2-0.1,0.4-0.2,0.6
				c-0.1,0.2-0.3,0.2-0.6,0.2c0,0.1,0,0.3,0.1,0.4c0,0.4-0.1,0.5-0.4,0.7c-0.2,0.1-0.4,0.2-0.7,0.3c0.1,0.1,0.2,0.3,0.2,0.4
				c0.1,0.2,0.1,0.3-0.1,0.4c-0.2,0.1-0.3,0-0.4-0.1c-0.1-0.1-0.1-0.2-0.2-0.3c-0.2-0.3-0.1-0.6,0.2-0.8c0.2-0.1,0.4-0.2,0.6-0.3
				c0.1,0,0.1-0.1,0.1-0.2c0-0.1,0-0.2,0-0.3c0-0.2-0.1-0.3-0.3-0.4c-0.3-0.1-0.3-0.4-0.2-0.7c0.1-0.1,0.1-0.2,0.2-0.3
				c-0.2-0.3-0.4-0.5-0.7-0.8c-0.7,0.6-1.5,0.9-2.4,1c-0.1,0.2-0.1,0.5-0.2,0.7c-0.1,0.3-0.4,0.2-0.7,0.1c0,0.1,0,0.3,0,0.4
				c0,0.3-0.1,0.5-0.4,0.7C-493.5,68.1-493.7,68.2-493.9,68.3z M-484.5,63.8c0.1-0.2,0.1-0.3,0.1-0.5c0.3-1.7-1-3.2-2.7-3.2
				c-1.3,0-2.5,0.8-2.7,2.1c-0.2,1.1,0,2.1,0.7,3c0.5,0.7,1.2,0.9,2,0.7C-485.9,65.6-485,64.9-484.5,63.8z M-493.3,66.3
				c0.2,0.1,0.5,0.2,0.7,0.3c0-0.1,0-0.2,0-0.4c-0.2-0.1-0.3-0.1-0.5-0.2C-493.2,66.1-493.3,66.2-493.3,66.3z M-488.2,66.8
				c0.1-0.3,0.1-0.3-0.3-0.5c-0.2-0.1-0.2,0.1-0.3,0.2C-488.6,66.6-488.4,66.7-488.2,66.8z"/>
		</g>
	</g>
	<path class="st14" d="M-482.2,71.1l-14.4,0c-1.5,0-2.7-1.3-2.7-2.8l0.2-7.4c0-1.5,1.3-2.7,2.8-2.7l14.4,0c1.5,0,2.7,1.3,2.7,2.8
		l-0.2,7.4C-479.5,69.9-480.7,71.1-482.2,71.1z"/>
	<path class="st14" d="M-496.7,58.2l12.1-3c1.5-0.3,3,0.6,3.3,2.1l0.2,0.8"/>
</g>
<g>
	<path d="M-378.9,18.9c1.3-1.3,5.1-5.2,7-7.1c0.1-0.1,0.2-0.2,0.3-0.3c0.3-0.2,0.5-0.2,0.8,0c0.2,0.2,0.3,0.5,0.1,0.8
		c-0.1,0.1-0.2,0.2-0.3,0.3c-3.2,3.3-4,4-7.3,7.3c-0.6,0.6-0.8,0.6-1.4,0c-3.3-3.3,0.4,0.4-2.9-2.9c-0.4-0.4-0.4-0.7-0.1-1
		c0.3-0.3,0.7-0.3,1,0.1c2,2,1.2,1.2,2.4,2.4C-379.1,18.7-379,18.8-378.9,18.9z"/>
	<g>
		<path d="M-371,8.7c0-0.5,0-0.9,0-1.3c0-0.1,0.1-0.2,0.2-0.2c0.5,0,1,0,1.5,0c0.7,0.1,1.3,0.7,1.3,1.4c0,0,0,0.1,0,0.1
			c0,4.5,0,9,0,13.4c0,0.7-0.5,1.3-1.1,1.5c-0.1,0-0.3,0-0.4,0c-4.9,0-9.9,0-14.8,0c-1,0-1.6-0.6-1.6-1.6c0-4.4,0-8.8,0-13.2
			c0-1,0.5-1.6,1.5-1.6c0.4,0,0.8,0,1.3,0c0.1,0,0.2,0.1,0.2,0.2c0,0.4,0,0.8,0,1.3c-0.4,0-0.8,0-1.1,0c-0.3,0-0.4,0.1-0.4,0.4
			c0,4.3,0,8.5,0,12.8c0,0.3,0.1,0.4,0.4,0.4c4.8,0,9.5,0,14.3,0c0.3,0,0.3-0.1,0.3-0.3c0-4.3,0-8.5,0-12.8c0-0.3-0.1-0.4-0.4-0.4
			C-370.2,8.8-370.6,8.7-371,8.7z"/>
		<path d="M-376.2,8c0,0.5,0,0.9,0,1.4c0,0.5-0.3,0.9-0.7,0.9c-0.5,0-0.8-0.3-0.8-0.9c0-0.9,0-1.8,0-2.8c0-0.4,0.2-0.6,0.5-0.8
			c0.3-0.1,0.6,0,0.8,0.2c0.1,0.2,0.2,0.4,0.2,0.6C-376.2,7.1-376.2,7.5-376.2,8z"/>
		<path d="M-380.8,8c0,0.5,0,1,0,1.5c0,0.5-0.3,0.8-0.7,0.8c-0.4,0-0.7-0.3-0.7-0.8c0-1,0-2,0-3c0-0.4,0.3-0.7,0.7-0.7
			c0.4,0,0.7,0.3,0.7,0.8C-380.7,7-380.8,7.5-380.8,8z"/>
		<path d="M-371.8,8c0,0.5,0,1,0,1.5c0,0.5-0.3,0.8-0.7,0.8c-0.4,0-0.7-0.3-0.7-0.8c0-1,0-2,0-3c0-0.4,0.3-0.7,0.7-0.8
			c0.4,0,0.7,0.3,0.7,0.8C-371.7,7-371.8,7.5-371.8,8z"/>
		<path d="M-378.5,8.7c-0.5,0-1,0-1.5,0c0-0.4,0-0.9,0-1.3c0,0,0.1-0.1,0.2-0.1c0.4,0,0.7,0,1.1,0c0.1,0,0.2,0.1,0.2,0.2
			C-378.5,7.9-378.5,8.3-378.5,8.7z"/>
		<path d="M-374.7,8.7c-0.8,0-0.8,0-0.8-0.8c0-0.9-0.1-0.7,0.7-0.8c0.8,0,0.8,0,0.8,0.8C-374,8.7-374,8.7-374.7,8.7z"/>
	</g>
</g>
<g>
	<g>
		<path class="st1" d="M-788.8,83.1c0,3.7,0,3.3,0,7c0,0.1,0,0.2,0,0.3c0,0.6-0.4,0.8-0.9,0.6c-1.3-0.6-2.6-1.2-3.9-1.7
			c-0.5-0.2-1-0.6-1.4-0.6c-0.5,0-1,0.3-1.5,0.6c-1.1,0.6-2.1,0.6-3.1,0c-0.7-0.4-1.6-0.6-2.4-1c-0.2-0.1-0.4-0.1-0.6,0.1
			c-1,0.7-2.1,1.4-3.1,2c-0.3,0.2-0.5,0.4-0.8,0.2c-0.3-0.2-0.3-0.5-0.3-0.8c0-2.1,0-4.2,0-6.3c0-5.1,0-6.3,0-11.4
			c0-0.8,0.1-0.9,0.9-0.9c5.4,0,10.8,0,16.2,0c0.8,0,0.9,0.1,0.9,0.9C-788.8,75.7-788.8,79.4-788.8,83.1z M-790,89.6
			c0-7.2,0-10.2,0-17.3c-5.2,0-10.5,0-15.7,0c0,6.9,0,9.8,0,16.8c0.1-0.1,0.2-0.1,0.4-0.2c0.8-0.5,1.6-1,2.4-1.6
			c0.4-0.2,0.7-0.3,1-0.1c1.1,0.5,2.3,0.9,3.4,1.4c0.2,0.1,0.5,0.1,0.6,0c0.8-0.3,1.6-0.7,2.4-1c0.2-0.1,0.5-0.1,0.7,0
			c0.6,0.2,1.2,0.5,1.8,0.8C-791.9,88.8-791,89.2-790,89.6z"/>
		<path class="st1" d="M-797.8,78.1c1.4,0,2.9,0,4.3,0c0.1,0,0.3,0,0.4,0c0.3,0,0.4,0.3,0.5,0.5c0,0.3-0.1,0.5-0.4,0.6
			c-0.1,0-0.3,0-0.5,0c-2.9,0-5.7,0-8.6,0c-0.1,0-0.2,0-0.2,0c-0.4,0-0.7-0.2-0.7-0.6c0-0.3,0.2-0.6,0.7-0.6
			C-800.8,78.1-799.3,78.1-797.8,78.1L-797.8,78.1z"/>
		<path class="st1" d="M-798.8,83.3c-1.5,0-2,0-3.5,0c-0.3,0-0.5-0.1-0.6-0.4c-0.1-0.3,0-0.5,0.2-0.6c0.1-0.1,0.3-0.1,0.4-0.1
			c3,0,2,0,5,0c0.4,0,0.7,0.2,0.7,0.6c0,0.3-0.3,0.5-0.7,0.5C-798.8,83.3-797.3,83.3-798.8,83.3z"/>
		<path class="st1" d="M-797.8,75.3c-1.4,0-2.9,0-4.3,0c-0.1,0-0.3,0-0.4,0c-0.3-0.1-0.5-0.3-0.4-0.6c0-0.2,0.3-0.4,0.4-0.5
			c0.1-0.1,0.3,0,0.4,0c2.9,0,5.7,0,8.6,0c0,0,0.1,0,0.1,0c0.5,0,0.8,0.2,0.8,0.6c0,0.4-0.3,0.6-0.8,0.6
			C-794.9,75.3-796.3,75.3-797.8,75.3z"/>
	</g>
</g>
<g>
	<path d="M-329.1,24.4c-1.3,0-2.6,0-3.9,0c0-4.5,0-8.9,0-13.4c1.3,0,2.6,0,3.9,0C-329.1,15.5-329.1,19.9-329.1,24.4z"/>
	<path d="M-345.2,11c0.9,0,1.7,0,2.6,0c0,4.5,0,8.9,0,13.4c-0.9,0-1.7,0-2.6,0C-345.2,20-345.2,15.5-345.2,11z"/>
	<path d="M-350.6,11c0.5,0,0.8,0,1.3,0c0,5.4,0,10.7,0,16.1c-0.4,0-0.8,0-1.3,0C-350.6,21.7-350.6,16.4-350.6,11z"/>
	<path d="M-327.7,11c0.5,0,0.8,0,1.3,0c0,5.4,0,10.7,0,16.1c-0.4,0-0.8,0-1.3,0C-327.7,21.7-327.7,16.4-327.7,11z"/>
	<path d="M-337.2,24.4c-0.4,0-0.8,0-1.2,0c0-4.5,0-8.9,0-13.4c0.4,0,0.8,0,1.2,0C-337.2,15.5-337.2,19.9-337.2,24.4z"/>
	<path d="M-334.5,24.4c-0.4,0-0.8,0-1.3,0c0-4.5,0-8.9,0-13.4c0.4,0,0.8,0,1.3,0C-334.5,15.4-334.5,19.9-334.5,24.4z"/>
	<path d="M-348,7c0,0.5,0,0.8,0,1.3c-1.8,0-3.5,0-5.3,0c0,1.8,0,3.5,0,5.3c-0.5,0-0.9,0-1.3,0c0-2.2,0-4.4,0-6.6
		C-352.5,7-350.2,7-348,7z"/>
	<path d="M-322.4,13.6c-0.4,0-0.8,0-1.3,0c0-1.8,0-3.5,0-5.3c-1.8,0-3.5,0-5.3,0c0-0.5,0-0.9,0-1.3c2.2,0,4.4,0,6.6,0
		C-322.4,9.2-322.4,11.4-322.4,13.6z"/>
	<path d="M-353.4,29.8c1.9,0,3.6,0,5.3,0c0,0.4,0,0.8,0,1.3c-2.2,0-4.4,0-6.6,0c0-2.2,0-4.4,0-6.6c0.4,0,0.8,0,1.3,0
		C-353.4,26.2-353.4,28-353.4,29.8z"/>
	<path d="M-329,31.1c0-0.4,0-0.8,0-1.3c1.8,0,3.5,0,5.3,0c0-1.8,0-3.6,0-5.3c0.5,0,0.9,0,1.3,0c0,2.2,0,4.4,0,6.6
		C-324.6,31.1-326.8,31.1-329,31.1z"/>
	<path d="M-347.9,11c0.4,0,0.8,0,1.2,0c0,4.5,0,8.9,0,13.4c-0.4,0-0.8,0-1.2,0C-347.9,20-347.9,15.5-347.9,11z"/>
	<path d="M-341.2,11c0.4,0,0.8,0,1.2,0c0,4.5,0,8.9,0,13.4c-0.4,0-0.8,0-1.2,0C-341.2,19.9-341.2,15.5-341.2,11z"/>
	<path d="M-333.1,27.1c0-0.5,0-0.8,0-1.3c1.3,0,2.6,0,4,0c0,0.4,0,0.8,0,1.3C-330.4,27.1-331.7,27.1-333.1,27.1z"/>
	<path d="M-342.6,25.8c0,0.4,0,0.8,0,1.3c-0.9,0-1.7,0-2.6,0c0-0.4,0-0.8,0-1.3C-344.3,25.8-343.5,25.8-342.6,25.8z"/>
	<path d="M-337.2,27.1c-0.4,0-0.8,0-1.3,0c0-0.4,0-0.8,0-1.3c0.4,0,0.8,0,1.3,0C-337.2,26.2-337.2,26.7-337.2,27.1z"/>
	<path d="M-334.5,25.8c0,0.4,0,0.8,0,1.2c-0.4,0-0.8,0-1.3,0c0-0.4,0-0.8,0-1.2C-335.4,25.8-335,25.8-334.5,25.8z"/>
	<path d="M-346.6,25.8c0,0.4,0,0.8,0,1.3c-0.4,0-0.8,0-1.3,0c0-0.4,0-0.8,0-1.3C-347.5,25.8-347.1,25.8-346.6,25.8z"/>
	<path d="M-341.2,27.1c0-0.4,0-0.8,0-1.3c0.4,0,0.8,0,1.2,0c0,0.4,0,0.8,0,1.3C-340.3,27.1-340.7,27.1-341.2,27.1z"/>
</g>
<g>
	<g>
		<g>
			<path class="st9" d="M-772.4,84.5c0.1,0.2,0.2,0.3,0.3,0.5c0.1,0.2,0.1,0.3-0.1,0.4c-0.2,0.1-0.3,0-0.4-0.1
				c-0.1-0.1-0.2-0.3-0.3-0.4c-0.2-0.3-0.1-0.7,0.3-0.8c0.2-0.1,0.5-0.2,0.7-0.3c0.1,0,0.1-0.2,0.1-0.2c0-0.1,0-0.3-0.1-0.4
				c0-0.2-0.1-0.3-0.2-0.3c-0.3-0.1-0.4-0.4-0.2-0.7c0.1-0.1,0.2-0.3,0.3-0.4c-1.1-1-1.5-2.2-1.5-3.6c0-3,3.2-4.3,5.4-3
				c0,0,0.1,0,0.1,0.1c0.2,0.1,0.2,0.2,0.1,0.4c-0.1,0.2-0.2,0.1-0.4,0.1c-0.4-0.1-0.8-0.4-1.2-0.4c-1.9-0.3-3.4,1-3.5,2.9
				c0,1.1,0.2,2.1,1,2.9c0.5,0.6,1.2,0.8,2,0.6c0.7-0.2,1.3-0.5,1.9-1c-0.3-0.7-0.5-1.5-0.5-2.3c0-0.7,0.2-1.4,0.6-2
				c0.7-1,2.4-1.8,3.9-1.4c2,0.5,3.1,2.6,2.5,4.6c-0.5,1.5-2.2,2.9-3.8,3c0,0-0.1,0-0.1,0c-0.1,0.2-0.1,0.5-0.2,0.7
				c-0.1,0.3-0.4,0.3-0.7,0.2c0,0.2,0,0.3,0.1,0.4c0.1,0.4,0,0.6-0.4,0.8c-0.2,0.1-0.5,0.2-0.8,0.3c0.1,0.1,0.2,0.3,0.3,0.4
				c0.1,0.2,0.1,0.3-0.1,0.5c-0.2,0.1-0.3,0-0.4-0.1c-0.1-0.1-0.2-0.2-0.2-0.4c-0.2-0.3-0.1-0.7,0.3-0.9c0.2-0.1,0.4-0.2,0.7-0.3
				c0.1,0,0.1-0.1,0.1-0.2c0-0.1,0-0.2,0-0.3c0-0.2-0.1-0.4-0.3-0.5c-0.3-0.1-0.4-0.5-0.2-0.8c0.1-0.1,0.1-0.2,0.2-0.3
				c-0.3-0.3-0.5-0.6-0.8-0.8c-0.8,0.6-1.6,1.1-2.6,1.1c-0.1,0.3-0.1,0.5-0.2,0.8c-0.1,0.3-0.4,0.2-0.7,0.1c0,0.2,0,0.3,0.1,0.4
				c0,0.4-0.1,0.6-0.4,0.7C-771.9,84.2-772.1,84.3-772.4,84.5z M-762,79.2c0.1-0.2,0.1-0.4,0.1-0.5c0.3-1.8-1.2-3.5-3.1-3.5
				c-1.4,0-2.7,1-2.9,2.4c-0.2,1.2,0,2.3,0.8,3.3c0.6,0.7,1.3,1,2.2,0.8C-763.5,81.3-762.6,80.4-762,79.2z M-771.8,82.2
				c0.3,0.1,0.5,0.2,0.8,0.3c0-0.1,0-0.3,0-0.4c-0.2-0.1-0.4-0.1-0.5-0.2C-771.6,81.9-771.7,82-771.8,82.2z M-766,82.6
				c0.1-0.3,0.1-0.3-0.4-0.5c-0.2-0.1-0.2,0.2-0.3,0.3C-766.5,82.4-766.3,82.5-766,82.6z"/>
		</g>
	</g>
	<path class="st15" d="M-759.4,87.3l-16.1,0.3c-1.7,0-3.1-1.4-3.1-3.1l0-8.3c0-1.7,1.4-3.1,3.1-3.1l16.1-0.3c1.7,0,3.1,1.4,3.1,3.1
		l0,8.3C-756.3,85.9-757.7,87.3-759.4,87.3z"/>
	<path class="st15" d="M-775.7,73.2l13.4-3.5c1.6-0.4,3.3,0.6,3.7,2.3l0.2,0.9"/>
</g>
<g>
	<g>
		<g>
			<g>
				<path d="M-400,8.4c0-0.5,0-0.9,0-1.3c0-0.1,0.1-0.2,0.2-0.2c0.5,0,1,0,1.5,0c0.7,0.1,1.3,0.7,1.3,1.4c0,0,0,0.1,0,0.1
					c0,4.5,0,9,0,13.4c0,0.7-0.5,1.3-1.1,1.5c-0.1,0-0.3,0-0.4,0c-4.9,0-9.9,0-14.8,0c-1,0-1.6-0.6-1.6-1.6c0-4.4,0-8.8,0-13.2
					c0-1,0.5-1.6,1.5-1.6c0.4,0,0.8,0,1.3,0c0.1,0,0.2,0.1,0.2,0.2c0,0.4,0,0.8,0,1.3c-0.4,0-0.8,0-1.1,0c-0.3,0-0.4,0.1-0.4,0.4
					c0,4.3,0,8.5,0,12.8c0,0.3,0.1,0.4,0.4,0.4c4.8,0,9.5,0,14.3,0c0.3,0,0.3-0.1,0.3-0.3c0-4.3,0-8.5,0-12.8c0-0.3-0.1-0.4-0.4-0.4
					C-399.2,8.4-399.6,8.4-400,8.4z"/>
				<path d="M-405.2,7.6c0,0.5,0,0.9,0,1.4c0,0.5-0.3,0.9-0.7,0.9c-0.5,0-0.8-0.3-0.8-0.9c0-0.9,0-1.8,0-2.8c0-0.4,0.2-0.6,0.5-0.8
					c0.3-0.1,0.6,0,0.8,0.2c0.1,0.2,0.2,0.4,0.2,0.6C-405.2,6.7-405.2,7.2-405.2,7.6z"/>
				<path d="M-409.8,7.6c0,0.5,0,1,0,1.5c0,0.5-0.3,0.8-0.7,0.8c-0.4,0-0.7-0.3-0.7-0.8c0-1,0-2,0-3c0-0.4,0.3-0.7,0.7-0.7
					c0.4,0,0.7,0.3,0.7,0.8C-409.7,6.7-409.8,7.1-409.8,7.6z"/>
				<path d="M-400.8,7.7c0,0.5,0,1,0,1.5c0,0.5-0.3,0.8-0.7,0.8c-0.4,0-0.7-0.3-0.7-0.8c0-1,0-2,0-3c0-0.4,0.3-0.7,0.7-0.8
					c0.4,0,0.7,0.3,0.7,0.8C-400.7,6.7-400.8,7.2-400.8,7.7z"/>
				<path d="M-407.5,8.4c-0.5,0-1,0-1.5,0c0-0.4,0-0.9,0-1.3c0,0,0.1-0.1,0.2-0.1c0.4,0,0.7,0,1.1,0c0.1,0,0.2,0.1,0.2,0.2
					C-407.5,7.5-407.5,7.9-407.5,8.4z"/>
				<path d="M-403.7,8.4c-0.8,0-0.8,0-0.8-0.8c0-0.9-0.1-0.7,0.7-0.8c0.8,0,0.8,0,0.8,0.8C-403,8.4-403,8.4-403.7,8.4z"/>
			</g>
		</g>
	</g>
	<rect x="-414" y="12.4" width="16" height="1"/>
</g>
<g>
	<path class="st9" d="M-178.1,26c0-0.6,0-1.2,0-1.7c0-0.3,0.1-0.6,0.5-0.7c0.3,0,0.5,0.2,0.5,0.6c0,0.7,0,1.4,0,2.1
		c0,0.5-0.2,0.6-0.6,0.6c-0.7,0-1.4,0-2.1,0c-0.4,0-0.7-0.2-0.6-0.5c0-0.4,0.3-0.5,0.7-0.5C-179.2,26-178.7,26-178.1,26z"/>
	<path class="st9" d="M-192.5,26.1c0.6,0,1.2,0,1.8,0c0.3,0,0.6,0.1,0.6,0.5c0,0.3-0.2,0.5-0.6,0.5c-0.8,0-1.5,0-2.3,0
		c-0.3,0-0.5-0.2-0.5-0.5c0-0.8,0-1.5,0-2.3c0-0.3,0.2-0.5,0.5-0.5c0.3,0,0.5,0.2,0.5,0.6C-192.5,24.8-192.5,25.4-192.5,26.1z"/>
	<path class="st9" d="M-178.1,16.7c-0.6,0-1.2,0-1.8,0c-0.4,0-0.6-0.1-0.6-0.5c0-0.4,0.3-0.5,0.6-0.5c0.7,0,1.4,0,2.1,0
		c0.5,0,0.6,0.1,0.6,0.6c0,0.7,0,1.4,0,2.1c0,0.4-0.1,0.6-0.5,0.7c-0.3,0-0.5-0.2-0.5-0.7C-178.1,17.8-178.1,17.3-178.1,16.7z"/>
	<path class="st9" d="M-192.5,16.7c0,0.6,0,1.2,0,1.7c0,0.5-0.2,0.7-0.5,0.7c-0.4,0-0.4-0.3-0.4-0.6c0-0.7,0-1.4,0-2.1
		c0-0.5,0.1-0.6,0.6-0.6c0.7,0,1.4,0,2.1,0c0.3,0,0.5,0.1,0.6,0.4c0,0.4-0.2,0.5-0.6,0.5C-191.3,16.7-191.9,16.7-192.5,16.7z"/>
	<path class="st9" d="M-187.9,26.4c-3.2-2.2-3.1-6-1.1-8.1c2.1-2.2,5.5-2.3,7.7-0.2c2.4,2.3,2,5.5-0.9,8.3c0.3,0.2,0.6,0.3,0.9,0.5
		c2.7,1.5,4.1,3.8,4.3,6.8c0,0.5-0.1,0.9-0.6,0.9c-0.5,0-0.7-0.3-0.7-0.8c-0.2-2.6-1.4-4.6-3.7-5.8c-4.4-2.3-9.6,0.8-9.8,5.8
		c0,0.5-0.1,0.8-0.6,0.8c-0.5,0-0.7-0.4-0.6-0.9c0-0.2,0-0.3,0-0.5c0.4-3.1,2-5.3,4.8-6.6C-188.2,26.5-188.1,26.5-187.9,26.4z
		 M-189.2,21.8c0,2.3,1.8,4.1,4.1,4.1c2.2,0,4-1.8,4-4c0-2.3-1.8-4-4.1-4C-187.4,17.9-189.2,19.6-189.2,21.8z"/>
</g>
<path class="st9" d="M-218.9,26.4c-3.2-2.2-3.1-6-1.1-8.1c2.1-2.2,5.5-2.3,7.7-0.2c2.4,2.3,2,5.5-0.9,8.3c0.3,0.2,0.6,0.3,0.9,0.5
	c2.7,1.5,4.1,3.8,4.3,6.8c0,0.5-0.1,0.9-0.6,0.9c-0.5,0-0.7-0.3-0.7-0.8c-0.2-2.6-1.4-4.6-3.7-5.8c-4.4-2.3-9.6,0.8-9.8,5.8
	c0,0.5-0.1,0.8-0.6,0.8c-0.5,0-0.7-0.4-0.6-0.9c0-0.2,0-0.3,0-0.5c0.4-3.1,2-5.3,4.8-6.6C-219.2,26.5-219.1,26.5-218.9,26.4z
	 M-220.2,21.8c0,2.3,1.8,4.1,4.1,4.1c2.2,0,4-1.8,4-4c0-2.3-1.8-4-4.1-4C-218.4,17.9-220.2,19.6-220.2,21.8z"/>
<g>
	<path class="st9" d="M-216.5,55.4c2,0,3.4,0.4,4.7,1.2c1.9,1.1,3.4,2.5,4.6,4.2c0.3,0.4,0.3,0.6,0.1,1c-1.4,1.9-3,3.5-5.1,4.6
		c-2.6,1.4-5.2,1.3-7.8-0.2c-1.9-1.1-3.5-2.6-4.8-4.4c-0.2-0.3-0.2-0.6,0-0.9c1.6-2.2,3.6-4,6.2-5
		C-217.7,55.6-216.9,55.5-216.5,55.4z M-216.4,56.6c-0.7,0-1.8,0.4-2.8,0.9c-1.6,0.9-2.9,2.1-4.1,3.5c-0.2,0.2-0.2,0.4,0,0.6
		c1.1,1.4,2.4,2.6,4,3.5c1.8,1,3.7,1.3,5.6,0.5c2.2-0.8,3.8-2.4,5.3-4.1c0.1-0.1,0-0.3,0-0.3c-1.1-1.4-2.4-2.7-4-3.5
		C-213.5,57-214.7,56.6-216.4,56.6z"/>
	<path class="st9" d="M-215.9,58.1c1.7,0,3.2,1.5,3.2,3.2c0,1.7-1.5,3.2-3.2,3.2c-1.8,0-3.2-1.5-3.2-3.3
		C-219.1,59.6-217.6,58.1-215.9,58.1z M-215.9,63.3c1.1,0,2-0.9,2-1.9c0-1.1-0.9-2-1.9-2c-1.1,0-2,0.9-2,1.9
		C-217.9,62.4-217,63.3-215.9,63.3z"/>
</g>
<g>
	<g>
		<path class="st9" d="M-182.8,65.7c-1.9,0.7-3.7,0.4-5.5-0.6c-1.6-0.9-2.9-2.1-4-3.5c-0.2-0.2-0.2-0.4,0-0.6
			c1.2-1.4,2.5-2.6,4.1-3.5c0.3-0.1,0.5-0.3,0.8-0.4l-0.6-1.1c-2.4,1-4.2,2.8-5.8,4.8c-0.2,0.3-0.2,0.6,0,0.9
			c1.3,1.8,2.8,3.3,4.8,4.4c2.2,1.3,4.5,1.5,6.8,0.7L-182.8,65.7z"/>
		<path class="st9" d="M-176.1,60.8c-1.3-1.7-2.8-3.2-4.6-4.2c-1.3-0.8-2.8-1.2-4.7-1.2c-0.3,0.1-0.9,0.2-1.5,0.3l0.6,1.1
			c0.4-0.1,0.7-0.2,1-0.2c1.7,0,2.8,0.4,3.9,1c1.6,0.9,2.9,2.1,4,3.5c0.1,0.1,0.1,0.3,0,0.3c-1.3,1.6-2.7,2.9-4.5,3.8l0.6,1.1
			c0.1,0,0.1,0,0.2-0.1c2.1-1.1,3.7-2.7,5.1-4.6C-175.8,61.4-175.8,61.2-176.1,60.8z"/>
	</g>
	<path class="st9" d="M-181.6,68.7L-181.6,68.7c-0.2,0.1-0.5,0-0.7-0.2l-7.5-14.1c-0.1-0.2,0-0.5,0.2-0.7l0,0c0.2-0.1,0.5,0,0.7,0.2
		l7.5,14.1C-181.2,68.3-181.3,68.6-181.6,68.7z"/>
	<g>
		<path class="st9" d="M-185,59.4c0.1,0,0.1,0,0.2,0c1.1,0,2,0.9,1.9,2c0,0.4-0.2,0.8-0.4,1.2l0.6,1.2c0.6-0.6,1.1-1.4,1.1-2.3
			c0-1.8-1.5-3.2-3.2-3.2c-0.3,0-0.5,0-0.8,0.1L-185,59.4z"/>
		<path class="st9" d="M-184.1,63.2c-0.2,0.1-0.5,0.2-0.8,0.2c-1.1,0-2-0.9-2-2c0-0.7,0.4-1.2,0.9-1.6l-0.6-1.1
			c-0.9,0.6-1.5,1.6-1.5,2.7c0,1.8,1.4,3.2,3.2,3.3c0.5,0,0.9-0.1,1.3-0.3L-184.1,63.2z"/>
	</g>
</g>
<g>
	<path class="st9" d="M-790.5,116c-0.3-1.2-0.8-2.1-1.5-3c-1.5-1.9-3.6-3-5.8-3c-0.7,0-1.5,0.2-2.2,0.3c-2.5,0.8-4.2,2.6-5.1,5.4
		c-0.3,0.8-0.1,1.8,0.5,2.5c0.5,0.7,1.3,1,2.2,1h0c1.1-0.1,2.1-0.1,3.2,0h6.1c0.9,0,1.6-0.4,2.1-1
		C-790.5,117.6-790.4,116.9-790.5,116z M-791.8,117.5L-791.8,117.5c-0.3,0.4-0.9,0.7-1.5,0.7h-9.4c-0.6,0-1.2-0.2-1.4-0.6
		c-0.3-0.6-0.3-1-0.2-1.5c0.6-2.2,2.2-3.9,4.2-4.6c0.7-0.3,1.5-0.4,2.2-0.4c1.1,0,2.2,0.3,3.2,0.9c1.4,0.8,2.4,2.2,3.1,4
		C-791.5,116.5-791.6,117.1-791.8,117.5z"/>
	<path class="st9" d="M-794.9,102.1c-0.8-0.8-1.9-1.2-3-1.2c-2.3,0-4.3,2-4.3,4.3c0,1.2,0.5,2.3,1.2,3c0.8,0.8,1.9,1.2,3,1.2
		c2.4,0,4.3-1.9,4.3-4.3C-793.7,104-794.1,102.9-794.9,102.1z M-794.7,105.3c0.1,0.7-0.3,1.5-0.9,2.2c-0.6,0.6-1.5,1-2.3,1
		c-1,0-1.8-0.3-2.3-1c-0.6-0.6-1-1.5-1-2.3c0-0.9,0.3-1.7,1-2.3c0.6-0.6,1.5-1,2.3-1C-796.1,101.9-794.7,103.3-794.7,105.3z"/>
	<path class="st9" d="M-785.9,115.9c-0.3-1.2-0.8-2.1-1.5-3c-1.5-1.8-3.6-2.9-5.8-2.9c-0.4,0-0.8,0-1.1,0.1l-0.4,0.1l0.3,0.2
		c0.3,0.2,0.7,0.5,0.9,0.5v0.1l0.2,0c1.2-0.1,2.4,0.2,3.5,0.9c1.4,0.8,2.4,2.2,3.1,4c0.1,0.6,0.1,1.1-0.2,1.5
		c-0.3,0.4-0.9,0.7-1.4,0.7h-2.1l-1,1h3.1c0.9,0,1.6-0.4,2.1-1C-785.9,117.6-785.7,116.8-785.9,115.9z"/>
	<path class="st9" d="M-790.3,102.1c-0.8-0.8-1.9-1.2-3-1.2c-0.6,0-1.2,0.1-1.7,0.4l-0.2,0.1l0.2,0.2c0.2,0.1,0.4,0.3,0.4,0.4v0.2
		l0.2-0.1c0.4-0.1,0.8-0.2,1.1-0.2c1.9,0,3.2,1.4,3.2,3.3c0.1,0.8-0.3,1.7-0.9,2.2c-0.7,0.7-1.5,1-2.3,1c-0.4,0-0.8-0.1-1.1-0.2
		l-0.1,0l-0.1,0c-0.2,0.1-0.5,0.4-0.6,0.6l-0.1,0.1l0.1,0.1c0.5,0.2,1,0.3,1.7,0.3c2.4,0,4.3-1.9,4.3-4.3
		C-789,104-789.4,102.9-790.3,102.1z"/>
	<path class="st9" d="M-801.2,110.1c-0.4-0.1-0.7-0.1-1.1-0.1c-2.1,0-4.2,1.1-5.8,2.9c-0.9,1.2-1.4,2.1-1.5,3
		c-0.2,0.8,0,1.6,0.5,2.3c0.5,0.7,1.2,1,2.1,1h3.1l-0.9-0.9h-2.1c-0.6,0-1.2-0.3-1.4-0.7c-0.3-0.5-0.4-1.1-0.3-1.6
		c0.6-1.9,1.7-3.2,3.1-4c1-0.6,2.1-0.9,3.5-0.9h0.2v-0.1c0.1-0.1,0.5-0.3,0.9-0.6l0.4-0.2L-801.2,110.1z"/>
	<path class="st9" d="M-801.2,108.2L-801.2,108.2c-0.4,0.1-0.8,0.2-1.2,0.2c-1,0-1.8-0.3-2.3-1c-0.7-0.8-1-1.5-0.9-2.3
		c0-1.9,1.4-3.3,3.2-3.3c0.4,0,0.8,0.1,1.1,0.2l0.1,0l0.1-0.1c0.1-0.1,0.5-0.5,0.5-0.5l0.2-0.2l-0.2-0.1c-0.5-0.3-1.2-0.4-1.7-0.4
		c-1.2,0-2.2,0.4-3,1.2c-0.8,0.8-1.3,1.9-1.3,3c0,2.4,2,4.3,4.4,4.3c0.6,0,1.2-0.1,1.7-0.3l0.2-0.1L-801.2,108.2z"/>
</g>
<g>
	<path class="st9" d="M-762.7,120.5c5.8-1.4,9.6-7.1,8.7-13.1c-0.5-3.6-2.7-6.8-5.9-8.5c-3.2-1.8-6.9-2-10.3-0.6
		c-1.9,0.8-3.5,2-4.7,3.6c-0.1,0.2-0.2,0.4-0.2,0.6c0,0.2,0.1,0.3,0.3,0.4c0.1,0.1,0.4,0.3,0.9-0.3c2.7-3.3,6.2-4.5,10.4-3.8
		c5,0.9,8.4,5.4,8.4,10.8c0,2.3-0.9,4.5-2.6,6.4c-2.9,3.4-7.9,4.6-12,2.9c-1.7-0.7-3.2-1.8-4.3-3.3c-0.1-0.2-0.3-0.3-0.5-0.3
		c0,0,0,0-0.1,0c-0.1,0-0.2,0-0.4,0.1c-0.3,0.2-0.3,0.6,0,0.9C-771.6,120.2-767.5,121.6-762.7,120.5z"/>
	<path class="st9" d="M-766.1,112.7c1.2-1.2,2.2-2.2,3.1-3.1c0.3-0.3,0.3-0.6,0-1c-0.9-0.9-1.9-1.9-3-3c-0.2-0.2-0.4-0.3-0.5-0.3
		c-0.2,0-0.3,0.1-0.4,0.2c-0.2,0.3-0.2,0.6,0.1,0.9c0.4,0.4,0.7,0.7,1.1,1.1l0.9,0.9h-1.2l-9.5,0c-0.4,0-0.8,0-1.2,0
		c-0.3,0-0.5,0.2-0.6,0.5c0,0.3,0.2,0.6,0.5,0.6c0.1,0,0.3,0,0.4,0l10.4,0c0.1,0,0.2,0,0.3,0l0.8,0l-0.9,0.9
		c-0.4,0.4-0.8,0.8-1.2,1.2c-0.3,0.3-0.3,0.6,0,0.9C-766.8,112.9-766.4,112.9-766.1,112.7z"/>
</g>
<g>
	<path class="st10" d="M11.1,11.7l0.2,0.4c0,0,0.1,0.1,0.1,0.1c1,1,2,2,3,3c0.1,0.1,0.1,0.1,0.2,0.2c0.1,0.1,0.3,0.1,0.5,0.1
		c0.2-0.1,0.3-0.2,0.3-0.4c0.1-0.2,0-0.4-0.2-0.6v0c-1-1-2.1-2.1-3.1-3.1c0,0-0.1-0.1-0.1-0.2L11.8,11l3.5-3.5
		c0.2-0.2,0.3-0.4,0.2-0.6c-0.1-0.2-0.2-0.3-0.4-0.4c-0.2-0.1-0.4,0-0.6,0.2c-0.8,0.8-1.7,1.7-2.5,2.5l-0.2,0.3
		c-0.1,0.1-0.2,0.3-0.4,0.4L11,10.3L10.8,10c0,0-0.1-0.1-0.1-0.1L7.6,6.8C7.5,6.7,7.4,6.7,7.4,6.6C7.2,6.5,7,6.5,6.8,6.5
		C6.7,6.6,6.6,6.7,6.5,6.9c0,0.2,0,0.4,0.2,0.6C7.6,8.3,8.4,9.2,9.3,10l0.6,0.6c0,0,0.1,0.1,0.1,0.1l0.3,0.3l-0.3,0.3
		c0,0-0.1,0.1-0.1,0.1l-0.5,0.5c-0.9,0.9-1.8,1.8-2.7,2.7c-0.3,0.3-0.3,0.6-0.1,0.8c0.2,0.2,0.5,0.2,0.8-0.1
		c0.1-0.1,0.3-0.3,0.4-0.4L11.1,11.7z"/>
	<circle class="st11" cx="11" cy="11" r="9"/>
</g>
</svg>
