<svg id="Layer_1" data-name="Layer 1" xmlns="http://www.w3.org/2000/svg" viewBox="0 0 90 90"><defs><style>.cls-1{fill:#8898df;opacity:0.08;}.cls-2{fill:#242c6a;opacity:0.4;}.cls-3{fill:none;stroke:#8795f2;stroke-miterlimit:10;opacity:0.48;}.cls-4{fill:#ffcd00;}.cls-5{fill:#506bad;}</style></defs><title>Thum_icon</title><ellipse class="cls-1" cx="46.87" cy="40.98" rx="37.8" ry="37.71"/><path class="cls-2" d="M9.31,40.84a37.48,37.48,0,0,1,7.84-23A37.74,37.74,0,1,0,71.69,69.48,37.82,37.82,0,0,1,9.31,40.84Z"/><ellipse class="cls-3" cx="41.48" cy="46.57" rx="37.8" ry="37.71"/><path class="cls-4" d="M40.28,60.28c2.35,0,4.7,0,7,0,1.3,0,1.78-.49,1.78-1.79,0-3.16,0-6.31,0-9.46,0-1.41-.47-1.88-1.9-1.89H33.38c-1.32,0-1.84.52-1.84,1.83V58.3c0,1.53.46,2,2,2Z"/><path class="cls-5" d="M33.88,44.2c0-1.54,0-3.06,0-4.58a7.42,7.42,0,0,1,6.78-7.44,7.6,7.6,0,0,1,8.18,5.57,13.4,13.4,0,0,1,.23,2.77c0,1.22,0,2.45,0,3.73a2.94,2.94,0,0,1,2.3,1.16,3.74,3.74,0,0,1,.69,1.79c.06,3.63.05,7.27,0,10.91A3,3,0,0,1,49.34,61c-.23,0-.45,0-.68,0H34.23a3.31,3.31,0,0,1-2.29-.7,3.14,3.14,0,0,1-1.11-2.53c0-3.43,0-6.86,0-10.3C30.85,45.68,31.69,44.79,33.88,44.2Zm7.54,15.28h7.31c1.36,0,1.85-.51,1.85-1.86q0-4.92,0-9.82c0-1.47-.49-2-2-2H34.25c-1.37,0-1.9.54-1.9,1.9,0,3.23,0,6.46,0,9.69,0,1.59.47,2,2.09,2Zm6.12-15.23c0-1.62,0-3.21,0-4.79a5.85,5.85,0,0,0-5.76-5.76,5.8,5.8,0,0,0-6.24,4.82,51.67,51.67,0,0,0-.13,5.57s0,.08.09.16Z"/><path class="cls-5" d="M37.69,52.65a3.73,3.73,0,0,1,3.69-3.78,3.8,3.8,0,1,1,.11,7.59A3.74,3.74,0,0,1,37.69,52.65Zm3.78,2.28a2.24,2.24,0,0,0,2.27-2.24,2.27,2.27,0,0,0-2.2-2.32,2.32,2.32,0,0,0-2.31,2.3A2.23,2.23,0,0,0,41.47,54.93Z"/></svg>