<?xml version="1.0" encoding="utf-8"?>
<!-- Generator: Adobe Illustrator 21.0.0, SVG Export Plug-In . SVG Version: 6.00 Build 0)  -->
<svg version="1.1" id="Layer_1" xmlns="http://www.w3.org/2000/svg" xmlns:xlink="http://www.w3.org/1999/xlink" x="0px" y="0px"
	 viewBox="0 0 3170.7 818.5" style="enable-background:new 0 0 3170.7 818.5;" xml:space="preserve">
<style type="text/css">
	.st0{fill:#FFFFFF;}
	.st1{fill:#FFCE00;}
</style>
<g>
	<g>
		<path class="st0" d="M1671.1,662.5v20.3h-45.7v27.2h35.4v20.3h-35.4v28.9h45.7v21h-71.4V662.5H1671.1z"/>
		<path class="st0" d="M1741.8,662.5l30.1,73v-73h20.1v117.6h-23.1l-35.8-85.2v85.2H1713V662.5H1741.8z"/>
		<path class="st0" d="M1903.4,662.5v22h-24v95.6h-25.7v-95.6h-23.4v-22H1903.4z"/>
		<path class="st0" d="M2013.6,662.5v20.3h-45.7v27.2h35.4v20.3h-35.4v28.9h45.7v21h-71.4V662.5H2013.6z"/>
		<path class="st0" d="M2092.9,662.5c11.8,0,23.3,0,32.3,10.1c6.2,6.9,8.5,16.2,8.5,25.6c0,20.8-10.7,27.2-16.6,30.7l21.7,51.3
			h-28.2l-15.7-46.4h-13v46.4h-25.7V662.5H2092.9z M2081.8,681.5v33.1h11.5c11.1,0,15.2-7.2,15.2-16.9c0-16.2-11.8-16.2-16.2-16.2
			H2081.8z"/>
		<path class="st0" d="M2243.2,662.5v22h-24v95.6h-25.7v-95.6H2170v-22H2243.2z"/>
		<path class="st0" d="M2324.3,662.5l33.5,117.6h-26.3l-6-24.2h-33l-5.8,24.2h-23.8l35.3-117.6H2324.3z M2320.8,735.6l-11.8-48
			l-11.5,48H2320.8z"/>
		<path class="st0" d="M2422.7,662.5v117.6H2397V662.5H2422.7z"/>
		<path class="st0" d="M2500.1,662.5l30.1,73v-73h20.1v117.6h-23.1l-35.8-85.2v85.2h-20.1V662.5H2500.1z"/>
		<path class="st0" d="M2637.1,662.5l16.6,72.7l18.7-72.7h36.7v117.6h-24.2v-98.5l-24,98.5H2642l-21.8-98.5v98.5h-21V662.5H2637.1z"
			/>
		<path class="st0" d="M2829.9,662.5v20.3h-45.7v27.2h35.4v20.3h-35.4v28.9h45.7v21h-71.4V662.5H2829.9z"/>
		<path class="st0" d="M2900.6,662.5l30.1,73v-73h20.1v117.6h-23.1l-35.8-85.2v85.2h-20.1V662.5H2900.6z"/>
		<path class="st0" d="M3062.3,662.5v22h-24v95.6h-25.7v-95.6h-23.4v-22H3062.3z"/>
	</g>
	<path class="st0" d="M51.5,59h133.8l44.9,282.3h1.6L278.8,59h130.7v550.6h-89.7V205.9h-1.5l-68.1,403.7h-55.7l-67.3-403.7h-1.6
		v403.7H51.5V59z"/>
	<path class="st0" d="M558.7,59h145.4l68.1,550.6h-96.6l-14.7-122.2h-81.2l-13.9,122.2h-84.3L558.7,59z M622.9,144h-1.6L589.6,407
		h62.6L622.9,144z"/>
	<path class="st0" d="M844,59h100.5v550.6H844V59z"/>
	<path class="st0" d="M1040.4,59h98.2l92,290.8h1.5V59h80.4v550.6h-78.1L1127,276.3h-1.6v333.3h-85.1V59z"/>
	<path class="st0" d="M1600.9,59h227.4V144h-126.8v140.7h93.6v89.7h-93.6v150h132.2v85.1h-232.8V59z"/>
	<path class="st0" d="M1882.4,59h98.2l47.2,386.7h1.5L2081.1,59h81.2l-82.7,550.6h-115.2L1882.4,59z"/>
	<path class="st0" d="M2225.7,59H2453V144h-126.8v140.7h93.6v89.7h-93.6v150h132.2v85.1h-232.8V59z"/>
	<path class="st0" d="M2532.6,59h98.2l92,290.8h1.6V59h80.4v550.6h-78.1l-107.5-333.3h-1.5v333.3h-85.1V59z"/>
	<path class="st0" d="M2950.9,144h-86.6V59h273.7V144h-86.6v465.5h-100.5V144z"/>
	<rect x="46.6" y="662.4" class="st1" width="1461.6" height="119.2"/>
</g>
</svg>
