<?xml version="1.0" encoding="utf-8"?>
<!-- Generator: Adobe Illustrator 21.0.0, SVG Export Plug-In . SVG Version: 6.00 Build 0)  -->
<svg version="1.1" id="Layer_1" xmlns="http://www.w3.org/2000/svg" xmlns:xlink="http://www.w3.org/1999/xlink" x="0px" y="0px"
	 viewBox="0 0 150 115" style="enable-background:new 0 0 150 115;" xml:space="preserve">
<style type="text/css">
	.st0{fill:#FFCD00;}
	.st1{fill:#E5E5E5;}
	.st2{fill:#224099;stroke:#072268;stroke-miterlimit:10;}
	.st3{fill:#FFFFFF;}
	.st4{fill:#1576C6;}
	.st5{fill:#FCFCFC;}
	.st6{fill:#FAFBFC;}
	.st7{fill:#224099;stroke:#072268;stroke-linecap:round;stroke-linejoin:round;stroke-miterlimit:10;}
	.st8{fill:#224099;}
	.st9{fill:#0E1744;}
	.st10{fill:none;stroke:#050505;stroke-miterlimit:10;}
	.st11{fill:#050505;}
	.st12{fill:#D5E2F7;}
	.st13{fill:none;stroke:#000000;stroke-miterlimit:10;}
	.st14{fill:#BCBCBC;stroke:#8C8B8B;stroke-miterlimit:10;}
	.st15{fill:#020202;}
	.st16{fill:#D5E2F7;stroke:#FFCD00;stroke-width:0.75;stroke-linecap:round;stroke-linejoin:round;stroke-miterlimit:10;}
	.st17{fill:none;stroke:#FFCD00;stroke-width:0.75;stroke-miterlimit:10;}
	.st18{fill:none;stroke:#072268;stroke-width:0.5;stroke-miterlimit:10;}
	.st19{fill:url(#SVGID_1_);}
	.st20{fill:url(#SVGID_2_);}
	.st21{fill:#3FB6FF;}
	.st22{fill:#FFCD00;stroke:#0E1744;stroke-miterlimit:10;}
	.st23{fill:none;stroke:#000000;stroke-linecap:round;stroke-linejoin:round;stroke-miterlimit:10;}
	.st24{fill:none;stroke:#0E1744;stroke-miterlimit:10;}
	.st25{fill:none;stroke:#0E1744;stroke-linecap:round;stroke-linejoin:round;stroke-miterlimit:10;}
</style>
<g>
	<g>
		<g>
			<path class="st12" d="M105.1,48.7H42.9c-2,0-3.7-1.6-3.7-3.7v-1.3c0-2,1.7-3.7,3.7-3.7h62.1c2,0,3.7,1.6,3.7,3.7v1.3
				C108.7,47.1,107.1,48.7,105.1,48.7z"/>
			<path class="st12" d="M115.7,56.2H53.6c-2,0-3.7-1.6-3.7-3.7v-1.3c0-2,1.7-3.7,3.7-3.7h62.1c2,0,3.7,1.7,3.7,3.7v1.3
				C119.4,54.6,117.8,56.2,115.7,56.2z"/>
			<path class="st12" d="M97.2,64.9H35.1c-2,0-3.7-1.6-3.7-3.7v-1.3c0-2,1.6-3.7,3.7-3.7h62.1c2,0,3.7,1.6,3.7,3.7v1.3
				C100.9,63.2,99.2,64.9,97.2,64.9z"/>
			<path class="st12" d="M119.7,73.5H57.5c-2,0-3.7-1.6-3.7-3.7v-1.3c0-2,1.6-3.7,3.7-3.7h62.1c2,0,3.7,1.7,3.7,3.7v1.3
				C123.3,71.8,121.7,73.5,119.7,73.5z"/>
			<path class="st12" d="M95.8,82.3H33.7c-2,0-3.7-1.6-3.7-3.7v-1.3c0-2,1.6-3.7,3.7-3.7h62.1c2,0,3.7,1.7,3.7,3.7v1.3
				C99.5,80.6,97.8,82.3,95.8,82.3z"/>
		</g>
		<path class="st12" d="M22.5,64h-3.7c-1.7,0-3.2-1.4-3.2-3.2v0c0-1.7,1.4-3.2,3.2-3.2h3.7c1.7,0,3.2,1.4,3.2,3.2v0
			C25.7,62.6,24.2,64,22.5,64z"/>
		<path class="st12" d="M131.2,53.7h-3.7c-1.7,0-3.2-1.4-3.2-3.2v0c0-1.7,1.4-3.2,3.2-3.2h3.7c1.7,0,3.2,1.4,3.2,3.2v0
			C134.3,52.2,132.9,53.7,131.2,53.7z"/>
	</g>
	<g>
		<g>
			<path class="st2" d="M69.8,82.9v13.5H52.4c0,0,6.3-12.4,15.3-4.1V82L69.8,82.9z"/>
			<path class="st2" d="M72.8,83v13.5h17.3c0,0-6.3-12.4-15.3-4.1V82.1L72.8,83z"/>
			<g>
				<path class="st7" d="M58.4,49.9c0,0-0.4-4.6-5.1,3.3L58.4,49.9z"/>
				<path class="st7" d="M50.9,54.4C50.9,54.3,50.9,54.3,50.9,54.4c0-0.2,0.1-0.4,0.2-0.5c0.6-0.8,2.9-3.6,5.2-3.5
					c0.2,0,0.3,0.1,0.5,0.2c0.3,0.3,0.9,0.8,0.8,1.7c0,0.4-0.3,0.7-0.7,0.8c-0.7,0.2-2,0.3-2.6,0.4c-0.2,0-0.4,0.1-0.6,0.3
					c-0.2,0.3-0.7,0.8-1.1,1.3C51.9,55.9,50.7,55.3,50.9,54.4z"/>
				<path class="st7" d="M54.8,69.2c0,0-3.9,1.9-6.1-0.4c-0.4-0.4-0.5-1.1-0.1-1.6c1.1-1.5,3.4-5.2,1.8-9c-0.1-0.3-0.1-0.6,0-0.8
					c0.3-0.9,1.1-3,2.3-3.7c0,0,3.2-1,3.9-0.5c0,0,2.5,3.4-2.3,3.5c0,0-0.1,0.7,0.3,1.6c0,0,1.1,2.2-0.6,4c0,0,0.9,1-1.4,3.6
					c0,0,1.9-0.1,2,0.6C54.7,67,55.5,69.8,54.8,69.2z"/>
				<path class="st7" d="M52.8,65.6c0,0-0.6,0.9-1.5,1.2"/>
			</g>
		</g>
	</g>
	<g>
		<g>
			<line class="st7" x1="61.9" y1="22" x2="63.9" y2="26"/>
			<line class="st7" x1="60.9" y1="25" x2="64.9" y2="23"/>
		</g>
		<g>
			<line class="st16" x1="92.8" y1="35.8" x2="94.6" y2="39.3"/>
			<line class="st16" x1="92" y1="38.4" x2="95.5" y2="36.6"/>
		</g>
		<g>
			<line class="st16" x1="81.7" y1="18.5" x2="83.4" y2="21.9"/>
			<line class="st16" x1="80.8" y1="21.1" x2="84.3" y2="19.3"/>
		</g>
		<circle class="st17" cx="56.3" cy="32.3" r="1.3"/>
		<circle class="st18" cx="46.6" cy="24.1" r="0.7"/>
		<circle class="st18" cx="93.6" cy="23" r="0.8"/>
		<g>
			<line class="st16" x1="44.8" y1="34.8" x2="46.6" y2="38.3"/>
			<line class="st16" x1="44" y1="37.4" x2="47.5" y2="35.6"/>
		</g>
		<g>
			<line class="st7" x1="95.9" y1="28.5" x2="97.6" y2="31.9"/>
			<line class="st7" x1="95.1" y1="31.1" x2="98.4" y2="29.4"/>
		</g>
		<circle class="st17" cx="102.6" cy="36.4" r="1.5"/>
	</g>
	<path class="st22" d="M69.9,80.5V94H52.6c0,0,6.3-12.4,15.3-4.1V79.6L69.9,80.5z"/>
	<path class="st22" d="M72.9,80.6v13.5h17.3c0,0-6.3-12.4-15.3-4.1V79.7L72.9,80.6z"/>
	<path class="st22" d="M89.1,55.2c0,12.7-6.9,23.8-15.5,25c-9.2,1.3-17.2-7.3-19.1-20.2c-0.8-5.2-0.2-10.1,2-14.4
		c4.8-9.4,11.5-14,19.9-13.6c5.2,0.2,8.7,4.1,10.9,10.5C88.6,46.5,89.1,50.8,89.1,55.2z"/>
	<g>
		
			<ellipse transform="matrix(2.525833e-02 -0.9997 0.9997 2.525833e-02 17.0474 109.8138)" class="st3" cx="64.8" cy="46.2" rx="4.8" ry="4.8"/>
		<g>
			
				<ellipse transform="matrix(2.525833e-02 -0.9997 0.9997 2.525833e-02 19.0813 109.5676)" class="st4" cx="65.7" cy="45" rx="2.8" ry="2.8"/>
			<ellipse transform="matrix(2.525833e-02 -0.9997 0.9997 2.525833e-02 19.24 109.4205)" cx="65.7" cy="44.8" rx="1.4" ry="1.4"/>
			
				<ellipse transform="matrix(2.525833e-02 -0.9997 0.9997 2.525833e-02 21.3719 109.1881)" class="st5" cx="66.7" cy="43.6" rx="0.5" ry="0.5"/>
			
				<ellipse transform="matrix(2.525833e-02 -0.9997 0.9997 2.525833e-02 17.6765 109.7162)" class="st5" cx="65.1" cy="45.8" rx="0.3" ry="0.3"/>
		</g>
	</g>
	<g>
		
			<ellipse transform="matrix(2.525833e-02 -0.9997 0.9997 2.525833e-02 27.2514 125.1722)" class="st3" cx="77.8" cy="48.6" rx="4.4" ry="4.4"/>
		<g>
			
				<ellipse transform="matrix(2.525833e-02 -0.9997 0.9997 2.525833e-02 29.0866 124.9394)" class="st4" cx="78.6" cy="47.6" rx="2.7" ry="2.7"/>
			
				<ellipse transform="matrix(2.525833e-02 -0.9997 0.9997 2.525833e-02 29.2372 124.7998)" cx="78.6" cy="47.4" rx="1.3" ry="1.3"/>
			
				<ellipse transform="matrix(2.525833e-02 -0.9997 0.9997 2.525833e-02 31.2598 124.5793)" class="st5" cx="79.5" cy="46.3" rx="0.5" ry="0.5"/>
			
				<ellipse transform="matrix(2.525833e-02 -0.9997 0.9997 2.525833e-02 27.7539 125.0804)" class="st5" cx="78" cy="48.3" rx="0.3" ry="0.3"/>
		</g>
	</g>
	<path class="st15" d="M69.8,39.2l0.4,0.5c0,0-9.2,3.3-9.9,3L69.8,39.2z"/>
	<path class="st15" d="M77.3,41.1L77,41.7c0,0,6.4,5.7,7,5.5L77.3,41.1z"/>
	<g>
		<path d="M61.3,60.4c0,0,9.8-3.9,20.5,3.9c0,0-8-8.7-20.7-3.9"/>
		<path d="M82.9,62.5c0,0,0.1,2.8-0.3,3.1C82.5,65.6,83.9,64.2,82.9,62.5z"/>
	</g>
	<g>
		<path class="st22" d="M58.5,47.4c0,0-0.4-4.6-5.1,3.3L58.5,47.4z"/>
		<path class="st22" d="M51,51.9C51,51.9,51,51.9,51,51.9c0-0.2,0.1-0.4,0.2-0.5c0.6-0.8,2.9-3.6,5.2-3.5c0.2,0,0.3,0.1,0.5,0.2
			c0.3,0.3,0.9,0.8,0.8,1.7c0,0.4-0.3,0.7-0.7,0.8c-0.7,0.2-2,0.3-2.6,0.4c-0.2,0-0.4,0.1-0.6,0.3c-0.2,0.3-0.7,0.8-1.1,1.3
			C52,53.4,50.9,52.9,51,51.9z"/>
		<path class="st22" d="M54.9,66.7c0,0-3.9,1.9-6.1-0.4c-0.4-0.4-0.5-1.1-0.1-1.6c1.1-1.5,3.4-5.2,1.8-9c-0.1-0.3-0.1-0.6,0-0.8
			c0.3-0.9,1.1-3,2.3-3.7c0,0,3.2-1,3.9-0.5c0,0,2.5,3.4-2.3,3.5c0,0-0.1,0.7,0.3,1.6c0,0,1.1,2.2-0.6,4c0,0,0.9,1-1.4,3.6
			c0,0,1.9-0.1,2,0.6C54.9,64.5,55.7,67.4,54.9,66.7z"/>
		<path class="st22" d="M52.9,63.1c0,0-0.6,0.9-1.5,1.2"/>
	</g>
	<path class="st22" d="M96,71.1c0,0-7.1,9-10-0.4l1.9-4.1C87.8,66.6,89.7,73.2,96,71.1z"/>
	<path class="st22" d="M90.7,51.8l-1.6-2.7c0,0-4.7-1.4-5.9,3.1c0,0,3,5.5,3.2,7.1c0,0-1.4,5.1,1.7,6.5c0,0,0.5,6.9,7.6,4.7
		c0,0,2.3-0.4,4.8-3L90.7,51.8z"/>
	<path class="st11" d="M94.5,62l-4.6-1l2.9-13.3c0.3-1.3,1.5-2.1,2.8-1.8h0c1.3,0.3,2.1,1.5,1.8,2.8L94.5,62z"/>
	<g>
		<path class="st22" d="M103.2,66c0,0-0.6-8.8-3.1-12c0,0-7.7-4.7-8.3-2.3l-2.9,3.1c0,0-0.7,2.3,1,4.4l-0.9,0.9c0,0-1.3,2.1,1.1,4.7
			c0,0,1.7,4,2.3,4l5.2,0.3L103.2,66z"/>
		<polyline class="st22" points="89.9,59.2 92.3,57.4 97.2,57.3 		"/>
		<polyline class="st22" points="90.4,64.6 95.4,63.9 99.1,62.4 		"/>
	</g>
	<path class="st3" d="M108.6,26.7l-1.6-0.3c-0.9-0.2-1.5-1.1-1.4-2l0.8-3.9c0.2-0.9,1.1-1.5,2-1.4l1.6,0.3c0.9,0.2,1.5,1.1,1.4,2
		l-0.8,3.9C110.5,26.3,109.6,26.9,108.6,26.7z"/>
	<g>
		<path class="st3" d="M110.3,49.8l-26.6-6.9c-2.8-0.8-4.4-3.7-3.6-6.5l3.8-13.6c0.8-2.8,3.7-4.4,6.5-3.6l26.6,6.9
			c2.8,0.8,4.4,3.7,3.6,6.5l-3.8,13.6C116,48.9,113.1,50.6,110.3,49.8z"/>
		<g>
			<path class="st8" d="M93.7,31.3c-0.1-1.2,0.1-2.3,0.5-3.4c0.4-1,1-1.9,1.9-2.5c1.6-1,4.2-1.3,6.1,0.1c2.5,1.7,3,5.3,1.2,7.6
				c-1.4,1.9-4.6,2.9-6.8,2.2C95.6,35,93.6,33.5,93.7,31.3z"/>
			<path class="st0" d="M99.4,36c-0.1-1.2,0.1-2.3,0.5-3.4c0.4-1,1-1.9,1.9-2.5c1.6-1,4.2-1.3,6.1,0.1c2.5,1.7,3,5.3,1.2,7.6
				c-1.4,1.9-4.6,2.9-6.8,2.2c0,0-2.7-0.5-2.8-3.2C98.2,36.3,99.4,37.3,99.4,36z"/>
			<g>
				<path class="st9" d="M90.4,39.9c0.1,0.3,0.1,0.6,0.2,0.9c0.1,0.3,0,0.5-0.4,0.6c-0.3,0.1-0.5-0.1-0.6-0.4
					c-0.1-0.3-0.1-0.6-0.2-0.9c-0.1-0.6,0.3-1.1,0.9-1.2c0.4,0,0.9,0,1.3-0.1c0.1,0,0.3-0.2,0.3-0.3c0.1-0.2,0.1-0.5,0.2-0.7
					c0.1-0.3,0-0.5-0.2-0.7c-0.4-0.4-0.3-0.9,0.1-1.2c0.2-0.2,0.5-0.3,0.7-0.5c-1.2-2.2-1.1-4.4-0.3-6.7c1.8-4.8,7.7-5,10.4-1.7
					c0,0,0.1,0.1,0.1,0.1c0.2,0.2,0.2,0.5,0,0.7c-0.3,0.2-0.5,0.1-0.7-0.1c-0.5-0.5-1-1-1.6-1.4c-2.9-1.6-6.1-0.4-7.3,2.6
					c-0.7,1.7-0.8,3.5-0.1,5.3c0.5,1.3,1.5,2,2.8,2.2c1.3,0.2,2.5-0.1,3.6-0.5c-0.1-1.4,0.1-2.7,0.6-3.9c0.5-1.2,1.2-2.2,2.2-2.9
					c1.8-1.2,4.8-1.4,7.1,0.1c2.9,2,3.5,6.1,1.4,8.8c-1.7,2.1-5.3,3.3-7.9,2.5c-0.1,0-0.1,0-0.1,0c-0.2,0.4-0.4,0.8-0.7,1
					c-0.3,0.3-0.8,0.2-1.2-0.1c-0.1,0.3-0.1,0.5-0.1,0.7c-0.1,0.7-0.4,0.9-1.1,1c-0.5,0-0.9,0.1-1.4,0.1c0.1,0.3,0.1,0.5,0.2,0.8
					c0.1,0.3,0,0.6-0.4,0.7c-0.3,0.1-0.5-0.2-0.6-0.5c0-0.2-0.1-0.5-0.2-0.7c-0.1-0.7,0.2-1.2,0.9-1.2c0.4,0,0.8,0,1.2-0.1
					c0.1,0,0.3-0.2,0.3-0.3c0.1-0.2,0.1-0.4,0.1-0.6c0.1-0.4,0.1-0.7-0.2-1c-0.4-0.4-0.3-1,0.2-1.3c0.2-0.1,0.4-0.3,0.5-0.4
					c-0.2-0.6-0.5-1.2-0.7-1.8c-1.6,0.6-3.2,0.7-4.9,0.2c-0.3,0.4-0.4,0.8-0.7,1.1c-0.4,0.4-0.8,0.1-1.2-0.2
					c-0.1,0.3-0.1,0.5-0.2,0.7c-0.1,0.6-0.5,0.9-1.1,1C91.4,39.8,91,39.9,90.4,39.9z M110.2,37.6c0.2-0.3,0.4-0.5,0.5-0.8
					c1.5-2.8,0.2-6.4-2.8-7.4c-2.3-0.8-5,0-6.1,2.1c-1,1.8-1.3,3.7-0.7,5.8c0.5,1.5,1.5,2.4,3.1,2.6
					C106.6,40.1,108.6,39.3,110.2,37.6z M92.8,36.6c0.4,0.3,0.7,0.6,1.1,0.9c0.1-0.2,0.2-0.4,0.3-0.6c-0.3-0.2-0.5-0.4-0.8-0.6
					C93.2,36.3,93,36.4,92.8,36.6z M101.8,40.7c0.3-0.5,0.3-0.5-0.3-1c-0.3-0.3-0.4,0.1-0.7,0.2C101.1,40.1,101.4,40.4,101.8,40.7z"
					/>
			</g>
		</g>
		<path class="st24" d="M110.5,50l-26.8-6.9c-2.8-0.8-4.5-3.7-3.7-6.6l3.9-13.7c0.8-2.8,3.7-4.5,6.6-3.7l26.8,6.9
			c2.8,0.8,4.5,3.7,3.7,6.6l-3.9,13.7C116.3,49.1,113.3,50.8,110.5,50z"/>
	</g>
	<path class="st25" d="M89.8,18.9l26.9-0.1c0.3,0,0.5,0,0.7,0.2c3,1.4,5.1,5,3.8,8l-0.7,1.7"/>
</g>
</svg>
