<?xml version="1.0" encoding="utf-8"?>
<!-- Generator: Adobe Illustrator 21.0.0, SVG Export Plug-In . SVG Version: 6.00 Build 0)  -->
<svg version="1.1" id="Layer_1" xmlns="http://www.w3.org/2000/svg" xmlns:xlink="http://www.w3.org/1999/xlink" x="0px" y="0px"
	 viewBox="0 0 21 22" style="enable-background:new 0 0 21 22;" xml:space="preserve">
<style type="text/css">
	.st0{fill:#475099;}
</style>
<path class="st0" d="M4.5,8.4c-0.8,0-2.1,0-2.3,0C0.8,8.4,0,9.3,0,10.7c0,3.3,0,5.6,0,8.9C0,21.2,0.8,22,2.4,22c1.4,0,3.2,0,5.1,0
	c1.4,0,3,0,4.4,0c2.5,0,4.9,0,6.7,0c0.7,0,1.4-0.2,1.8-0.7c0.4-0.5,0.7-1.1,0.6-1.8c0-2.2,0-3.5,0-5.7c0-1,0-1.9,0-2.9
	c0-0.2,0-0.4,0-0.6c-0.1-1-1-1.9-2-1.9c-0.3,0-1.7,0-2.5,0l-0.8,0l0-1c0-0.6,0-1.2,0-1.7c0-0.5,0-0.8-0.1-1.1
	c-0.3-2.5-2.4-4.4-4.8-4.6C8.2-0.1,6,1.5,5.4,4C5.3,4.6,5.3,5.1,5.2,5.7l0,0.1c0,0.5,0,1.1,0,1.7c0,0.2,0,0.5,0,0.7v0.2L4.5,8.4z
	 M6.5,8.1c0-0.4,0-0.8,0-1.2c0-0.9,0-1.8,0.2-2.7c0.3-1.7,2.2-3.1,4-2.9c2,0.2,3.5,1.7,3.6,3.7c0,0.7,0,1.4,0,2.1c0,0.3,0,0.6,0,1
	v0.2H6.5L6.5,8.1z M8.8,9.7h3.3c2.1,0,4.8,0,6.4,0c0.8,0,1.1,0.3,1.1,1.1c0,3.2,0,5.5,0,8.7c0,0.7-0.3,1.1-1,1.1c-2.1,0-5.1,0-8.1,0
	s-6,0-8.1,0c-0.8,0-1.1-0.3-1.1-1.1c0-3.2,0-5.5,0-8.7c0-0.8,0.3-1.1,1.1-1.1C4,9.7,6.7,9.7,8.8,9.7z"/>
</svg>
