<?xml version="1.0" encoding="utf-8"?>
<!-- Generator: Adobe Illustrator 21.0.0, SVG Export Plug-In . SVG Version: 6.00 Build 0)  -->
<svg version="1.1" id="Layer_1" xmlns="http://www.w3.org/2000/svg" xmlns:xlink="http://www.w3.org/1999/xlink" x="0px" y="0px"
	 viewBox="0 0 16 18" style="enable-background:new 0 0 16 18;" xml:space="preserve">
<style type="text/css">
	.st0{fill:#475099;}
</style>
<path class="st0" d="M5.2,9.8c-3.1-2.2-3.1-6-1.1-8.1c2.1-2.2,5.5-2.3,7.6-0.2c2.3,2.3,2,5.5-0.9,8.3c0.3,0.2,0.6,0.3,0.9,0.5
	c2.7,1.5,4,3.7,4.3,6.7c0,0.5-0.1,0.9-0.6,0.9c-0.5,0-0.7-0.3-0.7-0.8c-0.2-2.6-1.4-4.6-3.7-5.8C6.7,9,1.5,12.1,1.3,17.1
	c0,0.5-0.1,0.8-0.6,0.8c-0.5,0-0.7-0.4-0.6-0.9c0-0.2,0-0.3,0-0.5c0.4-3.1,2-5.3,4.8-6.6C4.9,9.9,5,9.9,5.2,9.8z M3.7,5.3
	c0,2.3,1.8,4.1,4.1,4.1c2.2,0,4-1.8,4-4c0-2.3-1.8-4-4.1-4C5.5,1.4,3.7,3.1,3.7,5.3z"/>
</svg>
