<?xml version="1.0" encoding="utf-8"?>
<!-- Generator: Adobe Illustrator 21.0.0, SVG Export Plug-In . SVG Version: 6.00 Build 0)  -->
<svg version="1.1" id="Layer_1" xmlns="http://www.w3.org/2000/svg" xmlns:xlink="http://www.w3.org/1999/xlink" x="0px" y="0px"
	 viewBox="0 0 131.3 36.7" style="enable-background:new 0 0 131.3 36.7;" xml:space="preserve">
<style type="text/css">
	.st0{fill:#FFFFFF;stroke:#231F20;stroke-miterlimit:10;}
	.st1{fill:#0E1744;}
	.st2{fill:#E6E7E8;}
	.st3{fill:#224099;}
	.st4{fill:#C81313;}
	.st5{fill:none;stroke:#C81313;stroke-miterlimit:10;}
	.st6{fill:#555555;}
	.st7{fill:none;stroke:#555555;stroke-linecap:round;stroke-miterlimit:10;}
	.st8{fill:#FFCD00;}
	.st9{fill:none;stroke:#224099;stroke-width:0.8378;stroke-miterlimit:10;}
	.st10{fill:none;stroke:#555555;stroke-width:0.7207;stroke-miterlimit:10;}
	.st11{fill:none;stroke:#555555;stroke-width:0.8016;stroke-miterlimit:10;}
	.st12{fill:#8599C1;}
	.st13{fill:none;stroke:#FFCD00;stroke-linecap:round;stroke-miterlimit:10;}
	.st14{fill:none;stroke:#FFCD00;stroke-linecap:round;stroke-miterlimit:10;stroke-dasharray:4.05,4.05,4.05,4.05;}
	.st15{fill:#D5E2F7;}
	.st16{fill:#224099;stroke:#072268;stroke-miterlimit:10;}
	.st17{fill:#224099;stroke:#072268;stroke-linecap:round;stroke-linejoin:round;stroke-miterlimit:10;}
	.st18{fill:#D5E2F7;stroke:#FFCD00;stroke-width:0.75;stroke-linecap:round;stroke-linejoin:round;stroke-miterlimit:10;}
	.st19{fill:none;stroke:#FFCD00;stroke-width:0.75;stroke-miterlimit:10;}
	.st20{fill:none;stroke:#072268;stroke-width:0.5;stroke-miterlimit:10;}
	.st21{fill:#FFCD00;stroke:#0E1744;stroke-miterlimit:10;}
	.st22{fill:#FFFFFF;}
	.st23{fill:#1576C6;}
	.st24{fill:#FCFCFC;}
	.st25{fill:#020202;}
	.st26{fill:#050505;}
	.st27{fill:none;stroke:#0E1744;stroke-miterlimit:10;}
	.st28{fill:none;stroke:#0E1744;stroke-linecap:round;stroke-linejoin:round;stroke-miterlimit:10;}
	.st29{fill:none;stroke:#000000;stroke-linecap:round;stroke-linejoin:round;stroke-miterlimit:10;}
	.st30{fill:none;stroke:#000000;stroke-miterlimit:10;}
	.st31{fill:none;stroke:#555555;stroke-width:1.2;stroke-miterlimit:10;}
	.st32{fill:none;stroke:#224099;stroke-width:0.9998;stroke-linecap:round;stroke-linejoin:round;stroke-miterlimit:10;}
</style>
<g>
	<path d="M24.9,30.3c-1.2,0-2.3,0-3.4,0c0-18.1,0-5.9,0-24c1.1,0,2.2,0,3.4,0C24.9,24.4,24.9,12.2,24.9,30.3z"/>
	<path d="M30.5,6.4c1.2,0,2.3,0,3.4,0c0,18.1,0,5.8,0,24c-1.1,0-2.2,0-3.4,0C30.5,12.3,30.5,24.5,30.5,6.4z"/>
	<path d="M61.2,6.4c1.2,0,2.3,0,3.5,0c0,18.1,0,5.9,0,24c-1.2,0-2.3,0-3.5,0C61.2,12.3,61.2,24.5,61.2,6.4z"/>
	<path d="M75.7,30.3c0-18.2,0-5.9,0-23.9c1.2,0,2.3,0,3.5,0c0,18.1,0,5.8,0,23.9C78,30.3,76.9,30.3,75.7,30.3z"/>
	<path d="M104.5,30.3c-1.2,0-2.3,0-3.4,0c0-18.1,0-5.8,0-24c1.1,0,2.2,0,3.4,0C104.5,24.4,104.5,12.2,104.5,30.3z"/>
	<path d="M110.1,30.3c0-18.1,0-5.9,0-23.9c1.2,0,2.3,0,3.5,0c0,18.1,0,5.9,0,23.9C112.4,30.3,111.3,30.3,110.1,30.3z"/>
	<path d="M6.9,6.4c0.6,0,1.1,0,1.7,0c0,18.1,0,5.9,0,24c-0.6,0-1.1,0-1.7,0C6.9,12.3,6.9,24.5,6.9,6.4z"/>
	<path d="M14,30.3c-0.6,0-1.1,0-1.7,0c0-18.1,0-5.8,0-23.9c0.5,0,1.1,0,1.7,0C14,24.4,14,12.2,14,30.3z"/>
	<path d="M19.4,30.3c-0.6,0-1.1,0-1.7,0c0-18.1,0-5.9,0-24c0.6,0,1.1,0,1.7,0C19.4,24.4,19.4,12.2,19.4,30.3z"/>
	<path d="M28.5,30.3c-0.6,0-1.1,0-1.7,0c0-18.1,0-5.9,0-24c0.6,0,1.1,0,1.7,0C28.5,24.4,28.5,12.2,28.5,30.3z"/>
	<path d="M39.3,30.3c-0.6,0-1.1,0-1.6,0c0-18.1,0-5.8,0-24c0.5,0,1,0,1.6,0C39.3,24.4,39.3,12.2,39.3,30.3z"/>
	<path d="M44.7,30.3c-0.6,0-1.1,0-1.6,0c0-18.1,0-5.8,0-24c0.5,0,1,0,1.6,0C44.7,24.4,44.7,12.2,44.7,30.3z"/>
	<path d="M48.4,30.3c-0.6,0-1.1,0-1.7,0c0-18.1,0-5.9,0-24c0.6,0,1.1,0,1.7,0C48.4,24.4,48.4,12.2,48.4,30.3z"/>
	<path d="M50.3,6.4c0.6,0,1.1,0,1.7,0c0,18.1,0,5.9,0,24c-0.6,0-1.1,0-1.7,0C50.3,12.3,50.3,24.5,50.3,6.4z"/>
	<path d="M55.8,6.4c0.6,0,1.1,0,1.7,0c0,18.1,0,5.8,0,23.9c-0.5,0-1.1,0-1.7,0C55.8,12.3,55.8,24.5,55.8,6.4z"/>
	<path d="M68.3,30.3c-0.6,0-1.1,0-1.7,0c0-18.1,0-5.9,0-24c0.6,0,1.1,0,1.7,0C68.3,24.4,68.3,12.2,68.3,30.3z"/>
	<path d="M70.3,6.4c0.6,0,1.1,0,1.7,0c0,18.1,0,5.9,0,24c-0.6,0-1.1,0-1.7,0C70.3,12.3,70.3,24.5,70.3,6.4z"/>
	<path d="M84.6,30.3c-0.6,0-1.1,0-1.7,0c0-18.1,0-5.9,0-24c0.6,0,1.1,0,1.7,0C84.6,24.4,84.6,12.2,84.6,30.3z"/>
	<path d="M86.6,6.3c0.6,0,1.1,0,1.6,0c0,18.1,0,5.8,0,24c-0.5,0-1,0-1.6,0C86.6,12.3,86.6,24.5,86.6,6.3z"/>
	<path d="M93.7,30.3c-0.6,0-1,0-1.6,0c0-18.1,0-5.8,0-24c0.5,0,1,0,1.6,0C93.7,24.4,93.7,12.2,93.7,30.3z"/>
	<path d="M99.1,30.3c-0.6,0-1.1,0-1.6,0c0-18.1,0-5.8,0-24c0.5,0,1,0,1.6,0C99.1,24.4,99.1,12.2,99.1,30.3z"/>
	<path d="M106.5,6.3c0.6,0,1.1,0,1.7,0c0,18.1,0,5.8,0,23.9c-0.5,0-1.1,0-1.7,0C106.5,12.2,106.5,24.5,106.5,6.3z"/>
	<path d="M117.4,6.4c0.6,0,1.1,0,1.7,0c0,18.1,0,5.9,0,24c-0.6,0-1.1,0-1.7,0C117.4,12.3,117.4,24.5,117.4,6.4z"/>
	<path d="M124.4,30.3c-0.6,0-1.1,0-1.7,0c0-18.1,0-5.9,0-24c0.6,0,1.1,0,1.7,0C124.4,24.4,124.4,12.2,124.4,30.3z"/>
</g>
</svg>
