<svg id="Layer_1" data-name="Layer 1" xmlns="http://www.w3.org/2000/svg" viewBox="0 0 90 90"><defs><style>.cls-1{fill:#8898df;opacity:0.08;}.cls-2{fill:#242c6a;opacity:0.4;}.cls-3{fill:none;stroke:#8795f2;stroke-miterlimit:10;opacity:0.48;}.cls-4{fill:#ffcd00;}.cls-5{fill:#8599c1;}</style></defs><title>Thum_icon</title><ellipse class="cls-1" cx="47.55" cy="42.69" rx="37.8" ry="37.71"/><path class="cls-2" d="M10,42.54a37.45,37.45,0,0,1,7.83-23A37.74,37.74,0,1,0,72.36,71.18,37.8,37.8,0,0,1,10,42.54Z"/><ellipse class="cls-3" cx="42.16" cy="48.28" rx="37.8" ry="37.71"/><path class="cls-4" d="M51,52.54a16.48,16.48,0,0,0-2.31-9.95,10.53,10.53,0,0,0-6-5.19,9.14,9.14,0,0,0-2.7-.43,7.32,7.32,0,0,0-5.32,2.31,10.6,10.6,0,0,0-3,7.6A20.61,20.61,0,0,0,34,56.47a11.19,11.19,0,0,0,8.17,6.58,16,16,0,0,0,3.4.15l.46,0a.68.68,0,0,0,.55-.24.72.72,0,0,0,.15-.55c0-.22-.05-.4-.9-.39l-.66,0a14,14,0,0,1-3-.11,9.23,9.23,0,0,1-6.09-4.25A18.48,18.48,0,0,1,33,48.2h0a12.43,12.43,0,0,1,.56-4.6c.83-2.44,2.09-3.93,4-4.68a7.15,7.15,0,0,1,7.71,1.31,13,13,0,0,1,3.81,5.92,12.76,12.76,0,0,1,.8,6.87,6,6,0,0,1-4.51,5.09,5.55,5.55,0,0,1-5.94-2.17,12.45,12.45,0,0,1-2.66-9.75,3.84,3.84,0,0,1,2.95-3.51,4.06,4.06,0,0,1,4.47,1.58,10.8,10.8,0,0,1,2,4.25,6.54,6.54,0,0,1,0,4,2.61,2.61,0,0,1-2,1.9,2.73,2.73,0,0,1-2.59-1.17,6.56,6.56,0,0,1-1.26-3.14,11.06,11.06,0,0,1-.11-2.16,1.21,1.21,0,0,1,.83-1,1.52,1.52,0,0,1,1,.4,1.13,1.13,0,0,1,.43.72c.12.6.24,1.2.35,1.8l.14.75a2.93,2.93,0,0,1,0,.29,1.54,1.54,0,0,0,.11.48c.18.36.43.29.52.26a.39.39,0,0,0,.32-.48v-.26c0-.24,0-.49-.07-.73a7.09,7.09,0,0,0-1.46-3.9,1.94,1.94,0,0,0-1.92-.69,1.53,1.53,0,0,0-1.25,1.34,10.92,10.92,0,0,0-.11,2.7,8.18,8.18,0,0,0,1.86,4.64,3.74,3.74,0,0,0,3.45,1.29,3.48,3.48,0,0,0,2.67-2.32,6.68,6.68,0,0,0,.29-3.26A11.3,11.3,0,0,0,44.6,43a5.06,5.06,0,0,0-5.4-1.63,5,5,0,0,0-3.51,4,11.22,11.22,0,0,0,.14,5.09,14.33,14.33,0,0,0,3.6,7.19c2.8,2.89,6.93,2,8.85.47A7.6,7.6,0,0,0,51,52.54Z"/><path class="cls-4" d="M48.86,38.37a13.63,13.63,0,0,1,.9,1.14c.2.27.4.53.61.79a.9.9,0,0,0,.21.19.43.43,0,0,0,.16-.18,1.21,1.21,0,0,0-.08-.73c-2.25-3.85-5.49-5.79-10.2-6.11l-.6.08c-.74.1-1.67.22-2.6.4a1,1,0,0,0-.57.47.62.62,0,0,0,.05.42.63.63,0,0,0,.37.06,13.65,13.65,0,0,1,3.38-.46A11.09,11.09,0,0,1,48.86,38.37Z"/><path class="cls-5" d="M51.83,52.54a16.47,16.47,0,0,0-2.3-9.95,10.59,10.59,0,0,0-6-5.19A9.25,9.25,0,0,0,40.86,37a7.28,7.28,0,0,0-5.31,2.31,10.56,10.56,0,0,0-2.95,7.6,20.59,20.59,0,0,0,2.21,9.59A11.22,11.22,0,0,0,43,63.05a16,16,0,0,0,3.4.15l.46,0a.68.68,0,0,0,.7-.79c0-.22,0-.4-.89-.39L46,62a14,14,0,0,1-3-.11,9.23,9.23,0,0,1-6.09-4.25,18.67,18.67,0,0,1-3.1-9.46h0a12.65,12.65,0,0,1,.56-4.6c.83-2.44,2.1-3.93,4-4.68a7.17,7.17,0,0,1,7.72,1.31,13,13,0,0,1,3.8,5.92,12.76,12.76,0,0,1,.8,6.87,6,6,0,0,1-4.5,5.09,5.55,5.55,0,0,1-5.95-2.17,12.49,12.49,0,0,1-2.66-9.75,3.85,3.85,0,0,1,3-3.51A4.07,4.07,0,0,1,45,44.25a10.79,10.79,0,0,1,2,4.25,6.54,6.54,0,0,1,0,4,2.6,2.6,0,0,1-2,1.9,2.73,2.73,0,0,1-2.58-1.17,6.57,6.57,0,0,1-1.27-3.14,11.06,11.06,0,0,1-.1-2.16,1.2,1.2,0,0,1,.83-1,1.53,1.53,0,0,1,1.05.4,1.12,1.12,0,0,1,.42.72c.13.6.24,1.2.35,1.8l.15.75a2.89,2.89,0,0,1,0,.29,1.89,1.89,0,0,0,.11.48c.18.36.44.29.52.26a.4.4,0,0,0,.33-.48l0-.26c0-.24,0-.49-.06-.73a7.18,7.18,0,0,0-1.47-3.9,1.93,1.93,0,0,0-1.91-.69,1.52,1.52,0,0,0-1.25,1.34,10.45,10.45,0,0,0-.11,2.7,8.18,8.18,0,0,0,1.86,4.64,3.73,3.73,0,0,0,3.45,1.29A3.45,3.45,0,0,0,48,53.17a6.68,6.68,0,0,0,.29-3.26A11.29,11.29,0,0,0,45.41,43,5.06,5.06,0,0,0,40,41.41a4.94,4.94,0,0,0-3.51,4,11.2,11.2,0,0,0,.13,5.09,14.41,14.41,0,0,0,3.6,7.19c2.8,2.89,6.94,2,8.85.47A7.6,7.6,0,0,0,51.83,52.54Z"/><path class="cls-5" d="M49.66,38.37a13.63,13.63,0,0,1,.9,1.14c.2.27.4.53.61.79a.77.77,0,0,0,.22.19.65.65,0,0,0,.16-.18,1.2,1.2,0,0,0-.09-.73c-2.24-3.85-5.49-5.79-10.2-6.11l-.59.08c-.75.1-1.68.22-2.6.4a1.06,1.06,0,0,0-.58.47.68.68,0,0,0,0,.42.65.65,0,0,0,.38.06,13.58,13.58,0,0,1,3.38-.46A11.07,11.07,0,0,1,49.66,38.37Z"/></svg>